G75*
%MOIN*%
%OFA0B0*%
%FSLAX25Y25*%
%IPPOS*%
%LPD*%
%AMOC8*
5,1,8,0,0,1.08239X$1,22.5*
%
%ADD10OC8,0.07100*%
%ADD11C,0.07100*%
%ADD12OC8,0.06000*%
%ADD13C,0.08400*%
%ADD14C,0.06000*%
%ADD15C,0.06800*%
%ADD16C,0.04769*%
%ADD17C,0.07850*%
%ADD18C,0.07900*%
%ADD19C,0.03778*%
D10*
X0066600Y0281600D03*
D11*
X0066600Y0291600D03*
D12*
X0086600Y0301600D03*
X0086600Y0271600D03*
X0141600Y0236600D03*
X0141600Y0226600D03*
X0171600Y0191600D03*
X0181600Y0191600D03*
X0226600Y0191600D03*
X0236600Y0191600D03*
X0306600Y0266600D03*
X0316600Y0266600D03*
X0311600Y0106600D03*
X0311600Y0096600D03*
X0251600Y0036600D03*
X0241600Y0036600D03*
X0241600Y0021600D03*
X0251600Y0021600D03*
X0046600Y0106600D03*
X0036600Y0106600D03*
D13*
X0221600Y0266600D03*
X0221600Y0306600D03*
D14*
X0256600Y0294200D02*
X0256600Y0289000D01*
X0266600Y0289000D02*
X0266600Y0294200D01*
X0276600Y0294200D02*
X0276600Y0289000D01*
X0286600Y0289000D02*
X0286600Y0294200D01*
X0296600Y0294200D02*
X0296600Y0289000D01*
X0306600Y0289000D02*
X0306600Y0294200D01*
X0316600Y0294200D02*
X0316600Y0289000D01*
X0326600Y0289000D02*
X0326600Y0294200D01*
X0336600Y0294200D02*
X0336600Y0289000D01*
X0346600Y0289000D02*
X0346600Y0294200D01*
X0356600Y0294200D02*
X0356600Y0289000D01*
X0366600Y0289000D02*
X0366600Y0294200D01*
X0366600Y0234200D02*
X0366600Y0229000D01*
X0356600Y0229000D02*
X0356600Y0234200D01*
X0346600Y0234200D02*
X0346600Y0229000D01*
X0336600Y0229000D02*
X0336600Y0234200D01*
X0326600Y0234200D02*
X0326600Y0229000D01*
X0316600Y0229000D02*
X0316600Y0234200D01*
X0306600Y0234200D02*
X0306600Y0229000D01*
X0296600Y0229000D02*
X0296600Y0234200D01*
X0286600Y0234200D02*
X0286600Y0229000D01*
X0276600Y0229000D02*
X0276600Y0234200D01*
X0266600Y0234200D02*
X0266600Y0229000D01*
X0256600Y0229000D02*
X0256600Y0234200D01*
X0279000Y0211600D02*
X0284200Y0211600D01*
X0284200Y0201600D02*
X0279000Y0201600D01*
X0279000Y0191600D02*
X0284200Y0191600D01*
X0284200Y0181600D02*
X0279000Y0181600D01*
X0279000Y0171600D02*
X0284200Y0171600D01*
X0284200Y0161600D02*
X0279000Y0161600D01*
X0279000Y0151600D02*
X0284200Y0151600D01*
X0284200Y0141600D02*
X0279000Y0141600D01*
X0279000Y0131600D02*
X0284200Y0131600D01*
X0284200Y0121600D02*
X0279000Y0121600D01*
X0279000Y0111600D02*
X0284200Y0111600D01*
X0284200Y0101600D02*
X0279000Y0101600D01*
X0279000Y0091600D02*
X0284200Y0091600D01*
X0284200Y0081600D02*
X0279000Y0081600D01*
X0279000Y0071600D02*
X0284200Y0071600D01*
X0284200Y0061600D02*
X0279000Y0061600D01*
X0279000Y0051600D02*
X0284200Y0051600D01*
X0284200Y0041600D02*
X0279000Y0041600D01*
X0279000Y0031600D02*
X0284200Y0031600D01*
X0284200Y0021600D02*
X0279000Y0021600D01*
X0244200Y0051600D02*
X0239000Y0051600D01*
X0239000Y0061600D02*
X0244200Y0061600D01*
X0244200Y0071600D02*
X0239000Y0071600D01*
X0239000Y0081600D02*
X0244200Y0081600D01*
X0244200Y0091600D02*
X0239000Y0091600D01*
X0239000Y0101600D02*
X0244200Y0101600D01*
X0244200Y0111600D02*
X0239000Y0111600D01*
X0239000Y0121600D02*
X0244200Y0121600D01*
X0244200Y0131600D02*
X0239000Y0131600D01*
X0239000Y0141600D02*
X0244200Y0141600D01*
X0244200Y0151600D02*
X0239000Y0151600D01*
X0239000Y0161600D02*
X0244200Y0161600D01*
X0244200Y0171600D02*
X0239000Y0171600D01*
X0239000Y0181600D02*
X0244200Y0181600D01*
X0211600Y0214000D02*
X0211600Y0219200D01*
X0201600Y0219200D02*
X0201600Y0214000D01*
X0191600Y0214000D02*
X0191600Y0219200D01*
X0181600Y0219200D02*
X0181600Y0214000D01*
X0171600Y0214000D02*
X0171600Y0219200D01*
X0161600Y0219200D02*
X0161600Y0214000D01*
X0151600Y0214000D02*
X0151600Y0219200D01*
X0151600Y0244000D02*
X0151600Y0249200D01*
X0161600Y0249200D02*
X0161600Y0244000D01*
X0171600Y0244000D02*
X0171600Y0249200D01*
X0181600Y0249200D02*
X0181600Y0244000D01*
X0191600Y0244000D02*
X0191600Y0249200D01*
X0201600Y0249200D02*
X0201600Y0244000D01*
X0211600Y0244000D02*
X0211600Y0249200D01*
X0184200Y0181600D02*
X0179000Y0181600D01*
X0164200Y0181600D02*
X0159000Y0181600D01*
X0159000Y0171600D02*
X0164200Y0171600D01*
X0164200Y0161600D02*
X0159000Y0161600D01*
X0159000Y0151600D02*
X0164200Y0151600D01*
X0164200Y0141600D02*
X0159000Y0141600D01*
X0159000Y0131600D02*
X0164200Y0131600D01*
X0164200Y0121600D02*
X0159000Y0121600D01*
X0159000Y0111600D02*
X0164200Y0111600D01*
X0179000Y0111600D02*
X0184200Y0111600D01*
X0184200Y0121600D02*
X0179000Y0121600D01*
X0179000Y0131600D02*
X0184200Y0131600D01*
X0184200Y0141600D02*
X0179000Y0141600D01*
X0179000Y0151600D02*
X0184200Y0151600D01*
X0184200Y0161600D02*
X0179000Y0161600D01*
X0179000Y0171600D02*
X0184200Y0171600D01*
X0104200Y0171600D02*
X0099000Y0171600D01*
X0099000Y0161600D02*
X0104200Y0161600D01*
X0104200Y0151600D02*
X0099000Y0151600D01*
X0099000Y0141600D02*
X0104200Y0141600D01*
X0104200Y0131600D02*
X0099000Y0131600D01*
X0099000Y0121600D02*
X0104200Y0121600D01*
X0104200Y0111600D02*
X0099000Y0111600D01*
X0099000Y0101600D02*
X0104200Y0101600D01*
X0104200Y0091600D02*
X0099000Y0091600D01*
X0099000Y0081600D02*
X0104200Y0081600D01*
X0104200Y0071600D02*
X0099000Y0071600D01*
X0099000Y0061600D02*
X0104200Y0061600D01*
X0104200Y0051600D02*
X0099000Y0051600D01*
X0159000Y0051600D02*
X0164200Y0051600D01*
X0164200Y0061600D02*
X0159000Y0061600D01*
X0159000Y0071600D02*
X0164200Y0071600D01*
X0164200Y0081600D02*
X0159000Y0081600D01*
X0159000Y0091600D02*
X0164200Y0091600D01*
X0164200Y0101600D02*
X0159000Y0101600D01*
X0179000Y0101600D02*
X0184200Y0101600D01*
X0184200Y0091600D02*
X0179000Y0091600D01*
X0179000Y0081600D02*
X0184200Y0081600D01*
X0184200Y0071600D02*
X0179000Y0071600D01*
X0179000Y0061600D02*
X0184200Y0061600D01*
X0184200Y0051600D02*
X0179000Y0051600D01*
X0059200Y0121600D02*
X0054000Y0121600D01*
X0054000Y0131600D02*
X0059200Y0131600D01*
X0059200Y0141600D02*
X0054000Y0141600D01*
X0054000Y0151600D02*
X0059200Y0151600D01*
X0059200Y0161600D02*
X0054000Y0161600D01*
X0054000Y0171600D02*
X0059200Y0171600D01*
X0059200Y0181600D02*
X0054000Y0181600D01*
X0054000Y0191600D02*
X0059200Y0191600D01*
X0029200Y0191600D02*
X0024000Y0191600D01*
X0024000Y0181600D02*
X0029200Y0181600D01*
X0029200Y0171600D02*
X0024000Y0171600D01*
X0024000Y0161600D02*
X0029200Y0161600D01*
X0029200Y0151600D02*
X0024000Y0151600D01*
X0024000Y0141600D02*
X0029200Y0141600D01*
X0029200Y0131600D02*
X0024000Y0131600D01*
X0024000Y0121600D02*
X0029200Y0121600D01*
X0099000Y0181600D02*
X0104200Y0181600D01*
X0339000Y0181600D02*
X0344200Y0181600D01*
X0344200Y0191600D02*
X0339000Y0191600D01*
X0339000Y0201600D02*
X0344200Y0201600D01*
X0344200Y0211600D02*
X0339000Y0211600D01*
X0339000Y0171600D02*
X0344200Y0171600D01*
X0344200Y0161600D02*
X0339000Y0161600D01*
X0339000Y0151600D02*
X0344200Y0151600D01*
X0344200Y0141600D02*
X0339000Y0141600D01*
X0339000Y0131600D02*
X0344200Y0131600D01*
X0344200Y0121600D02*
X0339000Y0121600D01*
X0339000Y0111600D02*
X0344200Y0111600D01*
X0344200Y0101600D02*
X0339000Y0101600D01*
X0339000Y0091600D02*
X0344200Y0091600D01*
X0344200Y0081600D02*
X0339000Y0081600D01*
X0339000Y0071600D02*
X0344200Y0071600D01*
X0344200Y0061600D02*
X0339000Y0061600D01*
X0339000Y0051600D02*
X0344200Y0051600D01*
X0344200Y0041600D02*
X0339000Y0041600D01*
X0339000Y0031600D02*
X0344200Y0031600D01*
X0344200Y0021600D02*
X0339000Y0021600D01*
X0379000Y0021600D02*
X0384200Y0021600D01*
X0384200Y0031600D02*
X0379000Y0031600D01*
X0379000Y0041600D02*
X0384200Y0041600D01*
X0384200Y0051600D02*
X0379000Y0051600D01*
X0379000Y0061600D02*
X0384200Y0061600D01*
X0384200Y0071600D02*
X0379000Y0071600D01*
X0379000Y0081600D02*
X0384200Y0081600D01*
X0384200Y0091600D02*
X0379000Y0091600D01*
X0379000Y0101600D02*
X0384200Y0101600D01*
D15*
X0014600Y0011600D02*
X0008600Y0011600D01*
X0008600Y0021600D02*
X0014600Y0021600D01*
X0014600Y0031600D02*
X0008600Y0031600D01*
X0008600Y0041600D02*
X0014600Y0041600D01*
X0014600Y0051600D02*
X0008600Y0051600D01*
X0008600Y0061600D02*
X0014600Y0061600D01*
X0014600Y0071600D02*
X0008600Y0071600D01*
X0008600Y0081600D02*
X0014600Y0081600D01*
X0014600Y0091600D02*
X0008600Y0091600D01*
X0008600Y0101600D02*
X0014600Y0101600D01*
X0014600Y0111600D02*
X0008600Y0111600D01*
X0008600Y0121600D02*
X0014600Y0121600D01*
X0014600Y0131600D02*
X0008600Y0131600D01*
X0008600Y0141600D02*
X0014600Y0141600D01*
X0014600Y0151600D02*
X0008600Y0151600D01*
X0008600Y0161600D02*
X0014600Y0161600D01*
X0014600Y0171600D02*
X0008600Y0171600D01*
X0008600Y0181600D02*
X0014600Y0181600D01*
X0014600Y0191600D02*
X0008600Y0191600D01*
X0008600Y0201600D02*
X0014600Y0201600D01*
X0014600Y0211600D02*
X0008600Y0211600D01*
X0008600Y0221600D02*
X0014600Y0221600D01*
X0014600Y0231600D02*
X0008600Y0231600D01*
X0008600Y0241600D02*
X0014600Y0241600D01*
X0014600Y0251600D02*
X0008600Y0251600D01*
X0008600Y0261600D02*
X0014600Y0261600D01*
X0014600Y0271600D02*
X0008600Y0271600D01*
X0008600Y0281600D02*
X0014600Y0281600D01*
X0014600Y0291600D02*
X0008600Y0291600D01*
X0008600Y0301600D02*
X0014600Y0301600D01*
X0378600Y0271600D02*
X0384600Y0271600D01*
X0384600Y0261600D02*
X0378600Y0261600D01*
X0378600Y0251600D02*
X0384600Y0251600D01*
X0384600Y0156600D02*
X0378600Y0156600D01*
X0378600Y0146600D02*
X0384600Y0146600D01*
D16*
X0266600Y0041206D03*
X0266600Y0021994D03*
D17*
X0154725Y0276800D02*
X0147675Y0276800D01*
X0147675Y0296400D02*
X0154725Y0296400D01*
X0105525Y0296400D02*
X0098475Y0296400D01*
X0098475Y0276800D02*
X0105525Y0276800D01*
D18*
X0126600Y0268900D03*
X0126600Y0304300D03*
D19*
X0067300Y0255700D03*
X0061600Y0261400D03*
X0032500Y0261400D03*
X0032500Y0253600D03*
X0029800Y0248800D03*
X0023800Y0244300D03*
X0020200Y0247900D03*
X0053800Y0186400D03*
X0097900Y0190000D03*
X0111600Y0206600D03*
X0115900Y0175600D03*
X0120700Y0174400D03*
X0151600Y0176600D03*
X0169300Y0165700D03*
X0187300Y0155500D03*
X0172698Y0202698D03*
X0151600Y0207700D03*
X0163300Y0253900D03*
X0186400Y0252700D03*
X0274300Y0124300D03*
X0258400Y0120700D03*
X0275500Y0075700D03*
X0274300Y0072100D03*
X0184000Y0096400D03*
X0148900Y0048700D03*
X0145300Y0048700D03*
X0145100Y0035600D03*
X0093700Y0057700D03*
X0090100Y0108100D03*
X0363100Y0160300D03*
M02*
