G75*
%MOIN*%
%OFA0B0*%
%FSLAX25Y25*%
%IPPOS*%
%LPD*%
%AMOC8*
5,1,8,0,0,1.08239X$1,22.5*
%
%ADD10OC8,0.06300*%
%ADD11C,0.06300*%
%ADD12OC8,0.05200*%
%ADD13C,0.07600*%
%ADD14C,0.05200*%
%ADD15C,0.06000*%
%ADD16C,0.03969*%
%ADD17C,0.07050*%
%ADD18C,0.03200*%
%ADD19C,0.02400*%
%ADD20C,0.02978*%
%ADD21C,0.01200*%
%ADD22C,0.00600*%
D10*
X0066600Y0281600D03*
D11*
X0066600Y0291600D03*
D12*
X0086600Y0301600D03*
X0086600Y0271600D03*
X0141600Y0236600D03*
X0141600Y0226600D03*
X0171600Y0191600D03*
X0181600Y0191600D03*
X0226600Y0191600D03*
X0236600Y0191600D03*
X0306600Y0266600D03*
X0316600Y0266600D03*
X0311600Y0106600D03*
X0311600Y0096600D03*
X0251600Y0036600D03*
X0241600Y0036600D03*
X0241600Y0021600D03*
X0251600Y0021600D03*
X0046600Y0106600D03*
X0036600Y0106600D03*
D13*
X0221600Y0266600D03*
X0221600Y0306600D03*
D14*
X0256600Y0294200D02*
X0256600Y0289000D01*
X0266600Y0289000D02*
X0266600Y0294200D01*
X0276600Y0294200D02*
X0276600Y0289000D01*
X0286600Y0289000D02*
X0286600Y0294200D01*
X0296600Y0294200D02*
X0296600Y0289000D01*
X0306600Y0289000D02*
X0306600Y0294200D01*
X0316600Y0294200D02*
X0316600Y0289000D01*
X0326600Y0289000D02*
X0326600Y0294200D01*
X0336600Y0294200D02*
X0336600Y0289000D01*
X0346600Y0289000D02*
X0346600Y0294200D01*
X0356600Y0294200D02*
X0356600Y0289000D01*
X0366600Y0289000D02*
X0366600Y0294200D01*
X0366600Y0234200D02*
X0366600Y0229000D01*
X0356600Y0229000D02*
X0356600Y0234200D01*
X0346600Y0234200D02*
X0346600Y0229000D01*
X0336600Y0229000D02*
X0336600Y0234200D01*
X0326600Y0234200D02*
X0326600Y0229000D01*
X0316600Y0229000D02*
X0316600Y0234200D01*
X0306600Y0234200D02*
X0306600Y0229000D01*
X0296600Y0229000D02*
X0296600Y0234200D01*
X0286600Y0234200D02*
X0286600Y0229000D01*
X0276600Y0229000D02*
X0276600Y0234200D01*
X0266600Y0234200D02*
X0266600Y0229000D01*
X0256600Y0229000D02*
X0256600Y0234200D01*
X0279000Y0211600D02*
X0284200Y0211600D01*
X0284200Y0201600D02*
X0279000Y0201600D01*
X0279000Y0191600D02*
X0284200Y0191600D01*
X0284200Y0181600D02*
X0279000Y0181600D01*
X0279000Y0171600D02*
X0284200Y0171600D01*
X0284200Y0161600D02*
X0279000Y0161600D01*
X0279000Y0151600D02*
X0284200Y0151600D01*
X0284200Y0141600D02*
X0279000Y0141600D01*
X0279000Y0131600D02*
X0284200Y0131600D01*
X0284200Y0121600D02*
X0279000Y0121600D01*
X0279000Y0111600D02*
X0284200Y0111600D01*
X0284200Y0101600D02*
X0279000Y0101600D01*
X0279000Y0091600D02*
X0284200Y0091600D01*
X0284200Y0081600D02*
X0279000Y0081600D01*
X0279000Y0071600D02*
X0284200Y0071600D01*
X0284200Y0061600D02*
X0279000Y0061600D01*
X0279000Y0051600D02*
X0284200Y0051600D01*
X0284200Y0041600D02*
X0279000Y0041600D01*
X0279000Y0031600D02*
X0284200Y0031600D01*
X0284200Y0021600D02*
X0279000Y0021600D01*
X0244200Y0051600D02*
X0239000Y0051600D01*
X0239000Y0061600D02*
X0244200Y0061600D01*
X0244200Y0071600D02*
X0239000Y0071600D01*
X0239000Y0081600D02*
X0244200Y0081600D01*
X0244200Y0091600D02*
X0239000Y0091600D01*
X0239000Y0101600D02*
X0244200Y0101600D01*
X0244200Y0111600D02*
X0239000Y0111600D01*
X0239000Y0121600D02*
X0244200Y0121600D01*
X0244200Y0131600D02*
X0239000Y0131600D01*
X0239000Y0141600D02*
X0244200Y0141600D01*
X0244200Y0151600D02*
X0239000Y0151600D01*
X0239000Y0161600D02*
X0244200Y0161600D01*
X0244200Y0171600D02*
X0239000Y0171600D01*
X0239000Y0181600D02*
X0244200Y0181600D01*
X0211600Y0214000D02*
X0211600Y0219200D01*
X0201600Y0219200D02*
X0201600Y0214000D01*
X0191600Y0214000D02*
X0191600Y0219200D01*
X0181600Y0219200D02*
X0181600Y0214000D01*
X0171600Y0214000D02*
X0171600Y0219200D01*
X0161600Y0219200D02*
X0161600Y0214000D01*
X0151600Y0214000D02*
X0151600Y0219200D01*
X0151600Y0244000D02*
X0151600Y0249200D01*
X0161600Y0249200D02*
X0161600Y0244000D01*
X0171600Y0244000D02*
X0171600Y0249200D01*
X0181600Y0249200D02*
X0181600Y0244000D01*
X0191600Y0244000D02*
X0191600Y0249200D01*
X0201600Y0249200D02*
X0201600Y0244000D01*
X0211600Y0244000D02*
X0211600Y0249200D01*
X0184200Y0181600D02*
X0179000Y0181600D01*
X0164200Y0181600D02*
X0159000Y0181600D01*
X0159000Y0171600D02*
X0164200Y0171600D01*
X0164200Y0161600D02*
X0159000Y0161600D01*
X0159000Y0151600D02*
X0164200Y0151600D01*
X0164200Y0141600D02*
X0159000Y0141600D01*
X0159000Y0131600D02*
X0164200Y0131600D01*
X0164200Y0121600D02*
X0159000Y0121600D01*
X0159000Y0111600D02*
X0164200Y0111600D01*
X0179000Y0111600D02*
X0184200Y0111600D01*
X0184200Y0121600D02*
X0179000Y0121600D01*
X0179000Y0131600D02*
X0184200Y0131600D01*
X0184200Y0141600D02*
X0179000Y0141600D01*
X0179000Y0151600D02*
X0184200Y0151600D01*
X0184200Y0161600D02*
X0179000Y0161600D01*
X0179000Y0171600D02*
X0184200Y0171600D01*
X0104200Y0171600D02*
X0099000Y0171600D01*
X0099000Y0161600D02*
X0104200Y0161600D01*
X0104200Y0151600D02*
X0099000Y0151600D01*
X0099000Y0141600D02*
X0104200Y0141600D01*
X0104200Y0131600D02*
X0099000Y0131600D01*
X0099000Y0121600D02*
X0104200Y0121600D01*
X0104200Y0111600D02*
X0099000Y0111600D01*
X0099000Y0101600D02*
X0104200Y0101600D01*
X0104200Y0091600D02*
X0099000Y0091600D01*
X0099000Y0081600D02*
X0104200Y0081600D01*
X0104200Y0071600D02*
X0099000Y0071600D01*
X0099000Y0061600D02*
X0104200Y0061600D01*
X0104200Y0051600D02*
X0099000Y0051600D01*
X0159000Y0051600D02*
X0164200Y0051600D01*
X0164200Y0061600D02*
X0159000Y0061600D01*
X0159000Y0071600D02*
X0164200Y0071600D01*
X0164200Y0081600D02*
X0159000Y0081600D01*
X0159000Y0091600D02*
X0164200Y0091600D01*
X0164200Y0101600D02*
X0159000Y0101600D01*
X0179000Y0101600D02*
X0184200Y0101600D01*
X0184200Y0091600D02*
X0179000Y0091600D01*
X0179000Y0081600D02*
X0184200Y0081600D01*
X0184200Y0071600D02*
X0179000Y0071600D01*
X0179000Y0061600D02*
X0184200Y0061600D01*
X0184200Y0051600D02*
X0179000Y0051600D01*
X0059200Y0121600D02*
X0054000Y0121600D01*
X0054000Y0131600D02*
X0059200Y0131600D01*
X0059200Y0141600D02*
X0054000Y0141600D01*
X0054000Y0151600D02*
X0059200Y0151600D01*
X0059200Y0161600D02*
X0054000Y0161600D01*
X0054000Y0171600D02*
X0059200Y0171600D01*
X0059200Y0181600D02*
X0054000Y0181600D01*
X0054000Y0191600D02*
X0059200Y0191600D01*
X0029200Y0191600D02*
X0024000Y0191600D01*
X0024000Y0181600D02*
X0029200Y0181600D01*
X0029200Y0171600D02*
X0024000Y0171600D01*
X0024000Y0161600D02*
X0029200Y0161600D01*
X0029200Y0151600D02*
X0024000Y0151600D01*
X0024000Y0141600D02*
X0029200Y0141600D01*
X0029200Y0131600D02*
X0024000Y0131600D01*
X0024000Y0121600D02*
X0029200Y0121600D01*
X0099000Y0181600D02*
X0104200Y0181600D01*
X0339000Y0181600D02*
X0344200Y0181600D01*
X0344200Y0191600D02*
X0339000Y0191600D01*
X0339000Y0201600D02*
X0344200Y0201600D01*
X0344200Y0211600D02*
X0339000Y0211600D01*
X0339000Y0171600D02*
X0344200Y0171600D01*
X0344200Y0161600D02*
X0339000Y0161600D01*
X0339000Y0151600D02*
X0344200Y0151600D01*
X0344200Y0141600D02*
X0339000Y0141600D01*
X0339000Y0131600D02*
X0344200Y0131600D01*
X0344200Y0121600D02*
X0339000Y0121600D01*
X0339000Y0111600D02*
X0344200Y0111600D01*
X0344200Y0101600D02*
X0339000Y0101600D01*
X0339000Y0091600D02*
X0344200Y0091600D01*
X0344200Y0081600D02*
X0339000Y0081600D01*
X0339000Y0071600D02*
X0344200Y0071600D01*
X0344200Y0061600D02*
X0339000Y0061600D01*
X0339000Y0051600D02*
X0344200Y0051600D01*
X0344200Y0041600D02*
X0339000Y0041600D01*
X0339000Y0031600D02*
X0344200Y0031600D01*
X0344200Y0021600D02*
X0339000Y0021600D01*
X0379000Y0021600D02*
X0384200Y0021600D01*
X0384200Y0031600D02*
X0379000Y0031600D01*
X0379000Y0041600D02*
X0384200Y0041600D01*
X0384200Y0051600D02*
X0379000Y0051600D01*
X0379000Y0061600D02*
X0384200Y0061600D01*
X0384200Y0071600D02*
X0379000Y0071600D01*
X0379000Y0081600D02*
X0384200Y0081600D01*
X0384200Y0091600D02*
X0379000Y0091600D01*
X0379000Y0101600D02*
X0384200Y0101600D01*
D15*
X0384600Y0146600D02*
X0378600Y0146600D01*
X0378600Y0156600D02*
X0384600Y0156600D01*
X0384600Y0251600D02*
X0378600Y0251600D01*
X0378600Y0261600D02*
X0384600Y0261600D01*
X0384600Y0271600D02*
X0378600Y0271600D01*
X0014600Y0271600D02*
X0008600Y0271600D01*
X0008600Y0261600D02*
X0014600Y0261600D01*
X0014600Y0251600D02*
X0008600Y0251600D01*
X0008600Y0241600D02*
X0014600Y0241600D01*
X0014600Y0231600D02*
X0008600Y0231600D01*
X0008600Y0221600D02*
X0014600Y0221600D01*
X0014600Y0211600D02*
X0008600Y0211600D01*
X0008600Y0201600D02*
X0014600Y0201600D01*
X0014600Y0191600D02*
X0008600Y0191600D01*
X0008600Y0181600D02*
X0014600Y0181600D01*
X0014600Y0171600D02*
X0008600Y0171600D01*
X0008600Y0161600D02*
X0014600Y0161600D01*
X0014600Y0151600D02*
X0008600Y0151600D01*
X0008600Y0141600D02*
X0014600Y0141600D01*
X0014600Y0131600D02*
X0008600Y0131600D01*
X0008600Y0121600D02*
X0014600Y0121600D01*
X0014600Y0111600D02*
X0008600Y0111600D01*
X0008600Y0101600D02*
X0014600Y0101600D01*
X0014600Y0091600D02*
X0008600Y0091600D01*
X0008600Y0081600D02*
X0014600Y0081600D01*
X0014600Y0071600D02*
X0008600Y0071600D01*
X0008600Y0061600D02*
X0014600Y0061600D01*
X0014600Y0051600D02*
X0008600Y0051600D01*
X0008600Y0041600D02*
X0014600Y0041600D01*
X0014600Y0031600D02*
X0008600Y0031600D01*
X0008600Y0021600D02*
X0014600Y0021600D01*
X0014600Y0011600D02*
X0008600Y0011600D01*
X0008600Y0281600D02*
X0014600Y0281600D01*
X0014600Y0291600D02*
X0008600Y0291600D01*
X0008600Y0301600D02*
X0014600Y0301600D01*
D16*
X0266600Y0041206D03*
X0266600Y0021994D03*
D17*
X0154725Y0276800D02*
X0147675Y0276800D01*
X0147675Y0296400D02*
X0154725Y0296400D01*
X0105525Y0296400D02*
X0098475Y0296400D01*
X0098475Y0276800D02*
X0105525Y0276800D01*
D18*
X0281600Y0041600D02*
X0281206Y0041206D01*
X0266600Y0041206D01*
X0256206Y0041206D01*
X0251600Y0036600D01*
X0241600Y0036600D02*
X0241600Y0021600D01*
X0251600Y0011600D01*
X0291600Y0011600D01*
X0326600Y0011600D01*
X0336600Y0021600D01*
X0341600Y0021600D01*
X0281600Y0031600D02*
X0276206Y0031600D01*
X0266600Y0021994D01*
X0251994Y0021994D01*
X0251600Y0021600D01*
D19*
X0181600Y0051600D02*
X0177020Y0051600D01*
X0174620Y0054000D01*
X0168023Y0054000D01*
X0166023Y0056000D01*
X0157177Y0056000D01*
X0155343Y0054166D01*
X0108511Y0054166D01*
X0105946Y0051600D01*
X0101600Y0051600D01*
X0100600Y0052000D01*
X0099400Y0052000D01*
X0093700Y0057700D01*
X0161600Y0181600D02*
X0171600Y0191600D01*
X0171600Y0196600D01*
X0171388Y0196600D01*
X0163588Y0204400D01*
X0143800Y0204400D01*
X0141600Y0206600D01*
X0111600Y0206600D01*
X0141600Y0236600D01*
X0151600Y0246600D01*
X0152200Y0247600D01*
X0165400Y0260800D01*
X0223900Y0260800D01*
X0227200Y0264100D01*
X0227200Y0306600D01*
X0256600Y0306600D01*
X0256600Y0291600D01*
X0256600Y0306600D02*
X0271600Y0306600D01*
X0276600Y0301600D01*
X0276600Y0291600D01*
X0296600Y0291600D02*
X0296600Y0276600D01*
X0306600Y0266600D01*
X0316600Y0266600D02*
X0331600Y0266600D01*
X0356600Y0241600D01*
X0356600Y0231600D01*
X0366600Y0231600D01*
X0381600Y0216600D01*
X0381600Y0156600D01*
X0371600Y0146600D01*
X0371600Y0111600D01*
X0366600Y0106600D01*
X0311600Y0106600D01*
X0311600Y0096600D02*
X0306600Y0091600D01*
X0281600Y0091600D01*
X0311600Y0096600D02*
X0356600Y0096600D01*
X0341600Y0081600D01*
X0356600Y0096600D02*
X0361600Y0101600D01*
X0381600Y0101600D01*
X0381600Y0146600D01*
X0390101Y0148099D02*
X0390101Y0006800D01*
X0356400Y0006800D01*
X0341600Y0021600D01*
X0390101Y0148099D02*
X0381600Y0156600D01*
X0366600Y0231600D02*
X0366600Y0236600D01*
X0381600Y0251600D01*
X0381600Y0251812D01*
X0389400Y0259612D01*
X0389400Y0273588D01*
X0386588Y0276400D01*
X0381800Y0276400D01*
X0366600Y0291600D01*
X0236600Y0191600D02*
X0236600Y0186600D01*
X0241600Y0181600D01*
X0226600Y0191600D02*
X0211600Y0206600D01*
X0211600Y0216600D01*
X0211600Y0221600D01*
X0206600Y0226600D01*
X0166000Y0226600D01*
X0166000Y0251200D01*
X0163300Y0253900D01*
X0166000Y0226600D02*
X0141600Y0226600D01*
X0181600Y0191600D02*
X0226600Y0191600D01*
X0102000Y0276800D02*
X0096800Y0271600D01*
X0086600Y0271600D01*
X0086600Y0281600D02*
X0066600Y0281600D01*
X0086600Y0281600D02*
X0096298Y0291298D01*
X0095983Y0291400D01*
X0097000Y0291400D01*
X0102000Y0296400D01*
X0103000Y0295900D01*
X0104800Y0294100D01*
X0142000Y0294100D01*
X0144100Y0296200D01*
X0151000Y0296200D01*
X0151200Y0296400D01*
X0221600Y0306600D02*
X0227200Y0306600D01*
X0056500Y0191800D02*
X0056600Y0191600D01*
X0056500Y0191800D02*
X0026800Y0221500D01*
X0011800Y0221500D01*
X0011600Y0221600D01*
D20*
X0023800Y0244300D03*
X0020200Y0247900D03*
X0029800Y0248800D03*
X0032500Y0253600D03*
X0032500Y0261400D03*
X0061600Y0261400D03*
X0067300Y0255700D03*
X0111600Y0206600D03*
X0097900Y0190000D03*
X0115900Y0175600D03*
X0120700Y0174400D03*
X0151600Y0176600D03*
X0169300Y0165700D03*
X0187300Y0155500D03*
X0172698Y0202698D03*
X0151600Y0207700D03*
X0163300Y0253900D03*
X0186400Y0252700D03*
X0053800Y0186400D03*
X0090100Y0108100D03*
X0093700Y0057700D03*
X0145300Y0048700D03*
X0148900Y0048700D03*
X0145100Y0035600D03*
X0184000Y0096400D03*
X0258400Y0120700D03*
X0274300Y0124300D03*
X0275500Y0075700D03*
X0274300Y0072100D03*
X0363100Y0160300D03*
D21*
X0006200Y0008060D02*
X0006200Y0006200D01*
X0390701Y0006200D01*
X0390701Y0311961D01*
X0288261Y0311961D01*
X0303624Y0296598D01*
X0304447Y0297421D01*
X0305844Y0298000D01*
X0307356Y0298000D01*
X0308753Y0297421D01*
X0309821Y0296353D01*
X0310400Y0294956D01*
X0310400Y0289821D01*
X0313000Y0287221D01*
X0313000Y0268940D01*
X0314860Y0270800D01*
X0316400Y0270800D01*
X0316400Y0266800D01*
X0316800Y0266800D01*
X0316800Y0270800D01*
X0318340Y0270800D01*
X0320800Y0268340D01*
X0320800Y0266800D01*
X0316800Y0266800D01*
X0316800Y0266400D01*
X0320800Y0266400D01*
X0320800Y0264860D01*
X0320340Y0264400D01*
X0323521Y0264400D01*
X0324400Y0263521D01*
X0351700Y0236221D01*
X0351700Y0230821D01*
X0352400Y0230121D01*
X0352400Y0231400D01*
X0356400Y0231400D01*
X0356400Y0231800D01*
X0356400Y0238400D01*
X0356269Y0238400D01*
X0355616Y0238297D01*
X0354988Y0238092D01*
X0354399Y0237792D01*
X0353864Y0237404D01*
X0353396Y0236936D01*
X0353008Y0236401D01*
X0352708Y0235812D01*
X0352503Y0235184D01*
X0352400Y0234531D01*
X0352400Y0231800D01*
X0356400Y0231800D01*
X0356800Y0231800D01*
X0356800Y0238400D01*
X0356931Y0238400D01*
X0357584Y0238297D01*
X0358212Y0238092D01*
X0358801Y0237792D01*
X0359336Y0237404D01*
X0359804Y0236936D01*
X0360192Y0236401D01*
X0360492Y0235812D01*
X0360697Y0235184D01*
X0360800Y0234531D01*
X0360800Y0231800D01*
X0356800Y0231800D01*
X0356800Y0231400D01*
X0360800Y0231400D01*
X0360800Y0228669D01*
X0360697Y0228016D01*
X0360492Y0227388D01*
X0360192Y0226799D01*
X0359804Y0226264D01*
X0359336Y0225796D01*
X0358801Y0225408D01*
X0358212Y0225108D01*
X0357609Y0224912D01*
X0364600Y0217921D01*
X0364600Y0162589D01*
X0364623Y0162580D01*
X0365380Y0161823D01*
X0365789Y0160835D01*
X0365789Y0159765D01*
X0365380Y0158777D01*
X0364623Y0158020D01*
X0363635Y0157611D01*
X0362565Y0157611D01*
X0361577Y0158020D01*
X0360820Y0158777D01*
X0360411Y0159765D01*
X0360411Y0160835D01*
X0360820Y0161823D01*
X0361577Y0162580D01*
X0361600Y0162589D01*
X0361600Y0216679D01*
X0350293Y0227986D01*
X0349821Y0226847D01*
X0348753Y0225779D01*
X0347356Y0225200D01*
X0345844Y0225200D01*
X0344447Y0225779D01*
X0343886Y0226340D01*
X0332000Y0214454D01*
X0332000Y0168935D01*
X0293400Y0130335D01*
X0293400Y0115854D01*
X0288400Y0110854D01*
X0287724Y0110179D01*
X0287421Y0109447D01*
X0286353Y0108379D01*
X0284956Y0107800D01*
X0282121Y0107800D01*
X0279721Y0105400D01*
X0284956Y0105400D01*
X0286353Y0104821D01*
X0287421Y0103753D01*
X0288000Y0102356D01*
X0288000Y0100844D01*
X0287421Y0099447D01*
X0286353Y0098379D01*
X0284956Y0097800D01*
X0278244Y0097800D01*
X0277000Y0098315D01*
X0277000Y0094885D01*
X0278244Y0095400D01*
X0284956Y0095400D01*
X0286353Y0094821D01*
X0287174Y0094000D01*
X0305606Y0094000D01*
X0307800Y0096194D01*
X0307800Y0098174D01*
X0310026Y0100400D01*
X0313174Y0100400D01*
X0314574Y0099000D01*
X0336226Y0099000D01*
X0335779Y0099447D01*
X0335200Y0100844D01*
X0335200Y0102356D01*
X0335779Y0103753D01*
X0336847Y0104821D01*
X0338244Y0105400D01*
X0344956Y0105400D01*
X0346353Y0104821D01*
X0347421Y0103753D01*
X0348000Y0102356D01*
X0348000Y0100844D01*
X0347421Y0099447D01*
X0346974Y0099000D01*
X0355606Y0099000D01*
X0359565Y0102959D01*
X0359565Y0102959D01*
X0360241Y0103635D01*
X0361123Y0104000D01*
X0376026Y0104000D01*
X0376847Y0104821D01*
X0378244Y0105400D01*
X0379200Y0105400D01*
X0379200Y0142400D01*
X0377765Y0142400D01*
X0376221Y0143039D01*
X0375039Y0144221D01*
X0374400Y0145765D01*
X0374400Y0147435D01*
X0375039Y0148979D01*
X0376221Y0150161D01*
X0377765Y0150800D01*
X0385435Y0150800D01*
X0386979Y0150161D01*
X0388161Y0148979D01*
X0388800Y0147435D01*
X0388800Y0145765D01*
X0388161Y0144221D01*
X0386979Y0143039D01*
X0385435Y0142400D01*
X0384000Y0142400D01*
X0384000Y0105400D01*
X0384956Y0105400D01*
X0386353Y0104821D01*
X0387421Y0103753D01*
X0388000Y0102356D01*
X0388000Y0100844D01*
X0387421Y0099447D01*
X0386353Y0098379D01*
X0384956Y0097800D01*
X0378244Y0097800D01*
X0376847Y0098379D01*
X0376026Y0099200D01*
X0362594Y0099200D01*
X0358635Y0095241D01*
X0358635Y0095241D01*
X0347284Y0083890D01*
X0347421Y0083753D01*
X0348000Y0082356D01*
X0348000Y0080844D01*
X0347421Y0079447D01*
X0346353Y0078379D01*
X0344956Y0077800D01*
X0338244Y0077800D01*
X0336847Y0078379D01*
X0335779Y0079447D01*
X0335200Y0080844D01*
X0335200Y0082356D01*
X0335779Y0083753D01*
X0336847Y0084821D01*
X0338244Y0085400D01*
X0342006Y0085400D01*
X0344406Y0087800D01*
X0338244Y0087800D01*
X0336847Y0088379D01*
X0335779Y0089447D01*
X0335200Y0090844D01*
X0335200Y0092356D01*
X0335779Y0093753D01*
X0336226Y0094200D01*
X0314574Y0094200D01*
X0313174Y0092800D01*
X0311194Y0092800D01*
X0308635Y0090241D01*
X0307959Y0089565D01*
X0307077Y0089200D01*
X0287174Y0089200D01*
X0286353Y0088379D01*
X0284956Y0087800D01*
X0278244Y0087800D01*
X0277000Y0088315D01*
X0277000Y0084885D01*
X0278244Y0085400D01*
X0284956Y0085400D01*
X0286353Y0084821D01*
X0287421Y0083753D01*
X0288000Y0082356D01*
X0288000Y0080844D01*
X0287421Y0079447D01*
X0286353Y0078379D01*
X0284956Y0077800D01*
X0278244Y0077800D01*
X0277000Y0078315D01*
X0277000Y0077989D01*
X0277023Y0077980D01*
X0277780Y0077223D01*
X0278189Y0076235D01*
X0278189Y0075377D01*
X0278244Y0075400D01*
X0284956Y0075400D01*
X0286353Y0074821D01*
X0287421Y0073753D01*
X0288000Y0072356D01*
X0288000Y0070844D01*
X0287421Y0069447D01*
X0286353Y0068379D01*
X0284956Y0067800D01*
X0278244Y0067800D01*
X0276847Y0068379D01*
X0275779Y0069447D01*
X0275653Y0069750D01*
X0274835Y0069411D01*
X0273765Y0069411D01*
X0273400Y0069562D01*
X0273400Y0065854D01*
X0272346Y0064800D01*
X0257346Y0049800D01*
X0247567Y0049800D01*
X0247421Y0049447D01*
X0246353Y0048379D01*
X0244956Y0047800D01*
X0238244Y0047800D01*
X0236847Y0048379D01*
X0235779Y0049447D01*
X0235632Y0049800D01*
X0190320Y0049800D01*
X0188320Y0047800D01*
X0265579Y0047800D01*
X0276502Y0058724D01*
X0275779Y0059447D01*
X0275200Y0060844D01*
X0275200Y0062356D01*
X0275779Y0063753D01*
X0276847Y0064821D01*
X0278244Y0065400D01*
X0284956Y0065400D01*
X0286353Y0064821D01*
X0287421Y0063753D01*
X0287567Y0063400D01*
X0332880Y0063400D01*
X0336680Y0067200D01*
X0346520Y0067200D01*
X0350320Y0063400D01*
X0370854Y0063400D01*
X0376340Y0068886D01*
X0375779Y0069447D01*
X0375200Y0070844D01*
X0375200Y0072356D01*
X0375779Y0073753D01*
X0376847Y0074821D01*
X0378244Y0075400D01*
X0384956Y0075400D01*
X0386353Y0074821D01*
X0387421Y0073753D01*
X0388000Y0072356D01*
X0388000Y0070844D01*
X0387421Y0069447D01*
X0386353Y0068379D01*
X0384956Y0067800D01*
X0380346Y0067800D01*
X0377734Y0065189D01*
X0378244Y0065400D01*
X0384956Y0065400D01*
X0386353Y0064821D01*
X0387421Y0063753D01*
X0388000Y0062356D01*
X0388000Y0060844D01*
X0387421Y0059447D01*
X0386353Y0058379D01*
X0384956Y0057800D01*
X0380346Y0057800D01*
X0377734Y0055189D01*
X0378244Y0055400D01*
X0384956Y0055400D01*
X0386353Y0054821D01*
X0387421Y0053753D01*
X0388000Y0052356D01*
X0388000Y0050844D01*
X0387421Y0049447D01*
X0386353Y0048379D01*
X0384956Y0047800D01*
X0378244Y0047800D01*
X0376847Y0048379D01*
X0375779Y0049447D01*
X0375632Y0049800D01*
X0347567Y0049800D01*
X0347421Y0049447D01*
X0346353Y0048379D01*
X0344956Y0047800D01*
X0338244Y0047800D01*
X0336847Y0048379D01*
X0335779Y0049447D01*
X0335263Y0050692D01*
X0334372Y0049800D01*
X0287567Y0049800D01*
X0287421Y0049447D01*
X0286353Y0048379D01*
X0284956Y0047800D01*
X0278244Y0047800D01*
X0276847Y0048379D01*
X0275779Y0049447D01*
X0275200Y0050844D01*
X0275200Y0052356D01*
X0275779Y0053753D01*
X0276847Y0054821D01*
X0278244Y0055400D01*
X0284956Y0055400D01*
X0286353Y0054821D01*
X0287421Y0053753D01*
X0287567Y0053400D01*
X0332880Y0053400D01*
X0335626Y0056146D01*
X0336680Y0057200D01*
X0374654Y0057200D01*
X0376340Y0058886D01*
X0375779Y0059447D01*
X0375200Y0060844D01*
X0375200Y0062356D01*
X0375411Y0062866D01*
X0373400Y0060854D01*
X0372346Y0059800D01*
X0348828Y0059800D01*
X0347937Y0060692D01*
X0347421Y0059447D01*
X0346353Y0058379D01*
X0344956Y0057800D01*
X0338244Y0057800D01*
X0336847Y0058379D01*
X0335779Y0059447D01*
X0335263Y0060692D01*
X0334372Y0059800D01*
X0287567Y0059800D01*
X0287421Y0059447D01*
X0286353Y0058379D01*
X0284956Y0057800D01*
X0279821Y0057800D01*
X0266821Y0044800D01*
X0158479Y0044800D01*
X0157600Y0045679D01*
X0156079Y0047200D01*
X0151189Y0047200D01*
X0151180Y0047177D01*
X0150423Y0046420D01*
X0149435Y0046011D01*
X0148365Y0046011D01*
X0147377Y0046420D01*
X0147100Y0046697D01*
X0147100Y0037403D01*
X0147380Y0037123D01*
X0147789Y0036135D01*
X0147789Y0035065D01*
X0147380Y0034077D01*
X0146623Y0033320D01*
X0145635Y0032911D01*
X0144565Y0032911D01*
X0143577Y0033320D01*
X0142820Y0034077D01*
X0142411Y0035065D01*
X0142411Y0036135D01*
X0142820Y0037123D01*
X0143500Y0037803D01*
X0143500Y0046697D01*
X0143020Y0047177D01*
X0142611Y0048165D01*
X0142611Y0049235D01*
X0142845Y0049800D01*
X0110582Y0049800D01*
X0107574Y0044892D01*
X0107574Y0044654D01*
X0107197Y0044278D01*
X0106919Y0043824D01*
X0106688Y0043768D01*
X0106520Y0043600D01*
X0105987Y0043600D01*
X0105469Y0043476D01*
X0105266Y0043600D01*
X0097934Y0043600D01*
X0097731Y0043476D01*
X0097213Y0043600D01*
X0096680Y0043600D01*
X0096512Y0043768D01*
X0096281Y0043824D01*
X0096003Y0044278D01*
X0095626Y0044654D01*
X0095626Y0044892D01*
X0092618Y0049800D01*
X0018400Y0049800D01*
X0018161Y0049221D01*
X0016979Y0048039D01*
X0015435Y0047400D01*
X0007765Y0047400D01*
X0006221Y0048039D01*
X0006200Y0048060D01*
X0006200Y0045140D01*
X0006221Y0045161D01*
X0007765Y0045800D01*
X0015435Y0045800D01*
X0016979Y0045161D01*
X0018161Y0043979D01*
X0018800Y0042435D01*
X0018800Y0040765D01*
X0018161Y0039221D01*
X0016979Y0038039D01*
X0015435Y0037400D01*
X0007765Y0037400D01*
X0006221Y0038039D01*
X0006200Y0038060D01*
X0006200Y0035140D01*
X0006221Y0035161D01*
X0007765Y0035800D01*
X0015435Y0035800D01*
X0016979Y0035161D01*
X0018161Y0033979D01*
X0018800Y0032435D01*
X0018800Y0030765D01*
X0018161Y0029221D01*
X0016979Y0028039D01*
X0015435Y0027400D01*
X0007765Y0027400D01*
X0006221Y0028039D01*
X0006200Y0028060D01*
X0006200Y0025140D01*
X0006221Y0025161D01*
X0007765Y0025800D01*
X0015435Y0025800D01*
X0016979Y0025161D01*
X0018161Y0023979D01*
X0018800Y0022435D01*
X0018800Y0020765D01*
X0018161Y0019221D01*
X0016979Y0018039D01*
X0015435Y0017400D01*
X0007765Y0017400D01*
X0006221Y0018039D01*
X0006200Y0018060D01*
X0006200Y0015140D01*
X0006221Y0015161D01*
X0007765Y0015800D01*
X0015435Y0015800D01*
X0016979Y0015161D01*
X0018161Y0013979D01*
X0018800Y0012435D01*
X0018800Y0010765D01*
X0018161Y0009221D01*
X0016979Y0008039D01*
X0015435Y0007400D01*
X0007765Y0007400D01*
X0006221Y0008039D01*
X0006200Y0008060D01*
X0006200Y0007593D02*
X0007300Y0007593D01*
X0006200Y0006394D02*
X0390701Y0006394D01*
X0390701Y0007593D02*
X0015900Y0007593D01*
X0017731Y0008791D02*
X0390701Y0008791D01*
X0390701Y0009990D02*
X0018479Y0009990D01*
X0018800Y0011188D02*
X0390701Y0011188D01*
X0390701Y0012387D02*
X0018800Y0012387D01*
X0018324Y0013585D02*
X0390701Y0013585D01*
X0390701Y0014784D02*
X0017356Y0014784D01*
X0017319Y0018379D02*
X0238881Y0018379D01*
X0239860Y0017400D02*
X0237400Y0019860D01*
X0237400Y0021400D01*
X0241400Y0021400D01*
X0241800Y0021400D01*
X0241800Y0021800D01*
X0245800Y0021800D01*
X0245800Y0023340D01*
X0243340Y0025800D01*
X0241800Y0025800D01*
X0241800Y0021800D01*
X0241400Y0021800D01*
X0241400Y0025800D01*
X0239860Y0025800D01*
X0237400Y0023340D01*
X0237400Y0021800D01*
X0241400Y0021800D01*
X0241400Y0021400D01*
X0241400Y0017400D01*
X0239860Y0017400D01*
X0241400Y0018379D02*
X0241800Y0018379D01*
X0241800Y0017400D02*
X0243340Y0017400D01*
X0245800Y0019860D01*
X0245800Y0021400D01*
X0241800Y0021400D01*
X0241800Y0017400D01*
X0241800Y0019578D02*
X0241400Y0019578D01*
X0241400Y0020776D02*
X0241800Y0020776D01*
X0241800Y0021975D02*
X0241400Y0021975D01*
X0241400Y0023173D02*
X0241800Y0023173D01*
X0241800Y0024372D02*
X0241400Y0024372D01*
X0241400Y0025570D02*
X0241800Y0025570D01*
X0243569Y0025570D02*
X0266217Y0025570D01*
X0265724Y0025077D02*
X0265039Y0024794D01*
X0253780Y0024794D01*
X0253174Y0025400D01*
X0250026Y0025400D01*
X0247800Y0023174D01*
X0247800Y0020026D01*
X0250026Y0017800D01*
X0253174Y0017800D01*
X0254568Y0019194D01*
X0265039Y0019194D01*
X0265967Y0018809D01*
X0267233Y0018809D01*
X0268404Y0019294D01*
X0269299Y0020190D01*
X0269684Y0021118D01*
X0276916Y0028350D01*
X0278244Y0027800D01*
X0284956Y0027800D01*
X0286353Y0028379D01*
X0287421Y0029447D01*
X0288000Y0030844D01*
X0288000Y0032356D01*
X0287421Y0033753D01*
X0286353Y0034821D01*
X0284956Y0035400D01*
X0278244Y0035400D01*
X0276847Y0034821D01*
X0276426Y0034400D01*
X0275649Y0034400D01*
X0274620Y0033974D01*
X0265724Y0025077D01*
X0267415Y0026769D02*
X0006200Y0026769D01*
X0006200Y0027967D02*
X0006395Y0027967D01*
X0006200Y0025570D02*
X0007210Y0025570D01*
X0006200Y0017181D02*
X0390701Y0017181D01*
X0390701Y0018379D02*
X0386353Y0018379D01*
X0387421Y0019447D01*
X0388000Y0020844D01*
X0388000Y0022356D01*
X0387421Y0023753D01*
X0386353Y0024821D01*
X0384956Y0025400D01*
X0378244Y0025400D01*
X0376847Y0024821D01*
X0375779Y0023753D01*
X0375632Y0023400D01*
X0350320Y0023400D01*
X0347574Y0026146D01*
X0346520Y0027200D01*
X0335695Y0027200D01*
X0334640Y0026146D01*
X0331895Y0023400D01*
X0287567Y0023400D01*
X0287421Y0023753D01*
X0286353Y0024821D01*
X0284956Y0025400D01*
X0278244Y0025400D01*
X0276847Y0024821D01*
X0275779Y0023753D01*
X0275200Y0022356D01*
X0275200Y0020844D01*
X0275779Y0019447D01*
X0276847Y0018379D01*
X0253753Y0018379D01*
X0249447Y0018379D02*
X0244319Y0018379D01*
X0245517Y0019578D02*
X0248248Y0019578D01*
X0247800Y0020776D02*
X0245800Y0020776D01*
X0245800Y0021975D02*
X0247800Y0021975D01*
X0247800Y0023173D02*
X0245800Y0023173D01*
X0244768Y0024372D02*
X0248998Y0024372D01*
X0239631Y0025570D02*
X0015990Y0025570D01*
X0017768Y0024372D02*
X0238432Y0024372D01*
X0237400Y0023173D02*
X0018494Y0023173D01*
X0018800Y0021975D02*
X0237400Y0021975D01*
X0237400Y0020776D02*
X0018800Y0020776D01*
X0018308Y0019578D02*
X0237683Y0019578D01*
X0239860Y0032400D02*
X0237400Y0034860D01*
X0237400Y0036400D01*
X0241400Y0036400D01*
X0241800Y0036400D01*
X0241800Y0036800D01*
X0245800Y0036800D01*
X0245800Y0038340D01*
X0243340Y0040800D01*
X0241800Y0040800D01*
X0241800Y0036800D01*
X0241400Y0036800D01*
X0241400Y0040800D01*
X0239860Y0040800D01*
X0237400Y0038340D01*
X0237400Y0036800D01*
X0241400Y0036800D01*
X0241400Y0036400D01*
X0241400Y0032400D01*
X0239860Y0032400D01*
X0239499Y0032761D02*
X0018665Y0032761D01*
X0018800Y0031563D02*
X0272209Y0031563D01*
X0271011Y0030364D02*
X0018634Y0030364D01*
X0018105Y0029166D02*
X0269812Y0029166D01*
X0268614Y0027967D02*
X0016805Y0027967D01*
X0018169Y0033960D02*
X0142937Y0033960D01*
X0142411Y0035158D02*
X0016981Y0035158D01*
X0015810Y0037555D02*
X0143253Y0037555D01*
X0143500Y0038754D02*
X0017694Y0038754D01*
X0018464Y0039952D02*
X0143500Y0039952D01*
X0143500Y0041151D02*
X0018800Y0041151D01*
X0018800Y0042349D02*
X0143500Y0042349D01*
X0143500Y0043548D02*
X0105770Y0043548D01*
X0105351Y0043548D02*
X0097849Y0043548D01*
X0097430Y0043548D02*
X0018339Y0043548D01*
X0017393Y0044746D02*
X0095626Y0044746D01*
X0094981Y0045945D02*
X0006200Y0045945D01*
X0006200Y0047143D02*
X0094246Y0047143D01*
X0093512Y0048342D02*
X0017282Y0048342D01*
X0018293Y0049540D02*
X0092777Y0049540D01*
X0093626Y0051600D02*
X0097426Y0045400D01*
X0105774Y0045400D01*
X0109574Y0051600D01*
X0161600Y0051600D01*
X0173626Y0051600D01*
X0177426Y0047800D01*
X0185774Y0047800D01*
X0189574Y0051600D01*
X0241600Y0051600D01*
X0256600Y0051600D01*
X0271600Y0066600D01*
X0271600Y0131600D01*
X0281600Y0141600D01*
X0316600Y0176600D01*
X0316600Y0231600D01*
X0306600Y0231600D02*
X0306600Y0176600D01*
X0281600Y0151600D01*
X0281600Y0149574D01*
X0269800Y0137774D01*
X0269800Y0074800D01*
X0256600Y0061600D01*
X0241600Y0061600D01*
X0189574Y0061600D01*
X0185774Y0057800D01*
X0170828Y0057800D01*
X0167028Y0061600D01*
X0161600Y0061600D01*
X0156172Y0061600D01*
X0152372Y0057800D01*
X0097426Y0057800D01*
X0093626Y0061600D01*
X0011600Y0061600D01*
X0007765Y0057400D02*
X0015435Y0057400D01*
X0016979Y0058039D01*
X0018161Y0059221D01*
X0018400Y0059800D01*
X0092880Y0059800D01*
X0095626Y0057054D01*
X0096680Y0056000D01*
X0153117Y0056000D01*
X0156172Y0059054D01*
X0156847Y0058379D01*
X0158244Y0057800D01*
X0164956Y0057800D01*
X0166353Y0058379D01*
X0167028Y0059054D01*
X0169028Y0057054D01*
X0170083Y0056000D01*
X0186520Y0056000D01*
X0187574Y0057054D01*
X0190320Y0059800D01*
X0235632Y0059800D01*
X0235779Y0059447D01*
X0236847Y0058379D01*
X0238244Y0057800D01*
X0244956Y0057800D01*
X0246353Y0058379D01*
X0247421Y0059447D01*
X0247567Y0059800D01*
X0257346Y0059800D01*
X0269800Y0072254D01*
X0269800Y0067346D01*
X0255854Y0053400D01*
X0247567Y0053400D01*
X0247421Y0053753D01*
X0246353Y0054821D01*
X0244956Y0055400D01*
X0238244Y0055400D01*
X0236847Y0054821D01*
X0235779Y0053753D01*
X0235632Y0053400D01*
X0188828Y0053400D01*
X0188227Y0052798D01*
X0188092Y0053212D01*
X0187792Y0053801D01*
X0187404Y0054336D01*
X0186936Y0054804D01*
X0186401Y0055192D01*
X0185812Y0055492D01*
X0185184Y0055697D01*
X0184531Y0055800D01*
X0181800Y0055800D01*
X0181800Y0051800D01*
X0181400Y0051800D01*
X0181400Y0055800D01*
X0178669Y0055800D01*
X0178016Y0055697D01*
X0177388Y0055492D01*
X0176799Y0055192D01*
X0176264Y0054804D01*
X0175796Y0054336D01*
X0175408Y0053801D01*
X0175108Y0053212D01*
X0174973Y0052798D01*
X0174372Y0053400D01*
X0167567Y0053400D01*
X0167421Y0053753D01*
X0166353Y0054821D01*
X0164956Y0055400D01*
X0158244Y0055400D01*
X0156847Y0054821D01*
X0155779Y0053753D01*
X0155633Y0053400D01*
X0110082Y0053400D01*
X0109879Y0053524D01*
X0109361Y0053400D01*
X0108828Y0053400D01*
X0108660Y0053232D01*
X0108429Y0053176D01*
X0108217Y0052830D01*
X0108092Y0053212D01*
X0107792Y0053801D01*
X0107404Y0054336D01*
X0106936Y0054804D01*
X0106401Y0055192D01*
X0105812Y0055492D01*
X0105184Y0055697D01*
X0104531Y0055800D01*
X0101800Y0055800D01*
X0101800Y0051800D01*
X0101400Y0051800D01*
X0101400Y0055800D01*
X0098669Y0055800D01*
X0098016Y0055697D01*
X0097388Y0055492D01*
X0096799Y0055192D01*
X0096264Y0054804D01*
X0095796Y0054336D01*
X0095408Y0053801D01*
X0095108Y0053212D01*
X0094983Y0052830D01*
X0094771Y0053176D01*
X0094540Y0053232D01*
X0094372Y0053400D01*
X0093839Y0053400D01*
X0093321Y0053524D01*
X0093118Y0053400D01*
X0018400Y0053400D01*
X0018161Y0053979D01*
X0016979Y0055161D01*
X0015435Y0055800D01*
X0007765Y0055800D01*
X0006221Y0055161D01*
X0006200Y0055140D01*
X0006200Y0058060D01*
X0006221Y0058039D01*
X0007765Y0057400D01*
X0006485Y0057930D02*
X0006200Y0057930D01*
X0006200Y0056732D02*
X0095949Y0056732D01*
X0094750Y0057930D02*
X0016715Y0057930D01*
X0018068Y0059129D02*
X0093552Y0059129D01*
X0095795Y0054334D02*
X0017805Y0054334D01*
X0016080Y0055533D02*
X0097513Y0055533D01*
X0095083Y0053136D02*
X0094796Y0053136D01*
X0093626Y0051600D02*
X0011600Y0051600D01*
X0007120Y0055533D02*
X0006200Y0055533D01*
X0011600Y0071600D02*
X0093626Y0071600D01*
X0097426Y0067800D01*
X0152372Y0067800D01*
X0156172Y0071600D01*
X0161600Y0071600D01*
X0167028Y0071600D01*
X0170828Y0067800D01*
X0185774Y0067800D01*
X0189574Y0071600D01*
X0241600Y0071600D01*
X0251600Y0071600D01*
X0268000Y0088000D01*
X0268000Y0145974D01*
X0281600Y0159574D01*
X0281600Y0161600D01*
X0296600Y0176600D01*
X0296600Y0231600D01*
X0286600Y0231600D02*
X0286600Y0219146D01*
X0289800Y0215946D01*
X0289800Y0179800D01*
X0281600Y0171600D01*
X0266200Y0156200D01*
X0266200Y0101200D01*
X0246600Y0081600D01*
X0241600Y0081600D01*
X0189574Y0081600D01*
X0185774Y0077800D01*
X0170828Y0077800D01*
X0167028Y0081600D01*
X0161600Y0081600D01*
X0156172Y0081600D01*
X0152372Y0077800D01*
X0097426Y0077800D01*
X0093626Y0081600D01*
X0011600Y0081600D01*
X0011600Y0091600D02*
X0024054Y0091600D01*
X0027854Y0087800D01*
X0152372Y0087800D01*
X0156172Y0091600D01*
X0161600Y0091600D01*
X0167028Y0091600D01*
X0170828Y0087800D01*
X0185774Y0087800D01*
X0189574Y0091600D01*
X0241600Y0091600D01*
X0251600Y0091600D01*
X0264400Y0104400D01*
X0264400Y0169400D01*
X0276600Y0181600D01*
X0281600Y0181600D01*
X0281600Y0183626D01*
X0288000Y0190026D01*
X0288000Y0215200D01*
X0276600Y0226600D01*
X0276600Y0231600D01*
X0281600Y0211600D02*
X0271600Y0201600D01*
X0271600Y0182120D01*
X0260800Y0171320D01*
X0260800Y0165800D01*
X0256600Y0161600D01*
X0241600Y0161600D01*
X0189574Y0161600D01*
X0185774Y0157800D01*
X0170828Y0157800D01*
X0167028Y0161600D01*
X0161600Y0161600D01*
X0157426Y0165400D02*
X0153626Y0161600D01*
X0101600Y0161600D01*
X0101600Y0151600D02*
X0153626Y0151600D01*
X0157426Y0155400D01*
X0165774Y0155400D01*
X0169574Y0151600D01*
X0181600Y0151600D01*
X0185774Y0147800D02*
X0170828Y0147800D01*
X0167028Y0151600D01*
X0161600Y0151600D01*
X0157426Y0145400D02*
X0153626Y0141600D01*
X0101600Y0141600D01*
X0101600Y0131600D02*
X0153626Y0131600D01*
X0157426Y0135400D01*
X0165774Y0135400D01*
X0169574Y0131600D01*
X0181600Y0131600D01*
X0185774Y0127800D02*
X0170828Y0127800D01*
X0167028Y0131600D01*
X0161600Y0131600D01*
X0156172Y0131600D01*
X0152372Y0127800D01*
X0097426Y0127800D01*
X0093626Y0131600D01*
X0056600Y0131600D01*
X0050200Y0130026D02*
X0050200Y0173174D01*
X0052426Y0175400D01*
X0060774Y0175400D01*
X0064574Y0171600D01*
X0101600Y0171600D01*
X0153626Y0171600D01*
X0157426Y0167400D01*
X0165774Y0167400D01*
X0169574Y0171600D01*
X0181600Y0171600D01*
X0186374Y0178400D02*
X0187421Y0179447D01*
X0188000Y0180844D01*
X0188000Y0182356D01*
X0187421Y0183753D01*
X0186353Y0184821D01*
X0184956Y0185400D01*
X0180346Y0185400D01*
X0177200Y0188546D01*
X0177200Y0196940D01*
X0173868Y0200272D01*
X0174222Y0200419D01*
X0174978Y0201175D01*
X0175387Y0202164D01*
X0175387Y0203233D01*
X0174978Y0204222D01*
X0174498Y0204701D01*
X0174498Y0206953D01*
X0178886Y0211340D01*
X0179447Y0210779D01*
X0180844Y0210200D01*
X0182356Y0210200D01*
X0183753Y0210779D01*
X0184821Y0211847D01*
X0185400Y0213244D01*
X0185400Y0219956D01*
X0184821Y0221353D01*
X0183753Y0222421D01*
X0182356Y0223000D01*
X0180844Y0223000D01*
X0179447Y0222421D01*
X0178379Y0221353D01*
X0177800Y0219956D01*
X0177800Y0215346D01*
X0175189Y0212734D01*
X0175400Y0213244D01*
X0175400Y0219956D01*
X0174821Y0221353D01*
X0173753Y0222421D01*
X0172356Y0223000D01*
X0170844Y0223000D01*
X0169447Y0222421D01*
X0168624Y0221598D01*
X0166021Y0224200D01*
X0159379Y0224200D01*
X0158500Y0223321D01*
X0156400Y0221221D01*
X0156400Y0215821D01*
X0155400Y0214821D01*
X0155400Y0219956D01*
X0154821Y0221353D01*
X0153753Y0222421D01*
X0152356Y0223000D01*
X0150844Y0223000D01*
X0149447Y0222421D01*
X0148379Y0221353D01*
X0147800Y0219956D01*
X0147800Y0213244D01*
X0148379Y0211847D01*
X0149447Y0210779D01*
X0150727Y0210249D01*
X0150077Y0209980D01*
X0149320Y0209223D01*
X0148911Y0208235D01*
X0148911Y0207165D01*
X0149062Y0206800D01*
X0144794Y0206800D01*
X0142959Y0208635D01*
X0142077Y0209000D01*
X0117394Y0209000D01*
X0141194Y0232800D01*
X0143174Y0232800D01*
X0145400Y0235026D01*
X0145400Y0237006D01*
X0149310Y0240916D01*
X0149447Y0240779D01*
X0150844Y0240200D01*
X0152356Y0240200D01*
X0153753Y0240779D01*
X0154821Y0241847D01*
X0155400Y0243244D01*
X0155400Y0247406D01*
X0157800Y0249806D01*
X0157800Y0243244D01*
X0158379Y0241847D01*
X0159447Y0240779D01*
X0160844Y0240200D01*
X0162356Y0240200D01*
X0163753Y0240779D01*
X0164821Y0241847D01*
X0165400Y0243244D01*
X0165400Y0249956D01*
X0164821Y0251353D01*
X0163753Y0252421D01*
X0162356Y0253000D01*
X0160994Y0253000D01*
X0166394Y0258400D01*
X0224377Y0258400D01*
X0225259Y0258765D01*
X0228559Y0262065D01*
X0229235Y0262741D01*
X0229600Y0263623D01*
X0229600Y0304200D01*
X0254200Y0304200D01*
X0254200Y0297174D01*
X0253379Y0296353D01*
X0252800Y0294956D01*
X0252800Y0288244D01*
X0253379Y0286847D01*
X0254447Y0285779D01*
X0255844Y0285200D01*
X0257356Y0285200D01*
X0258753Y0285779D01*
X0259821Y0286847D01*
X0260400Y0288244D01*
X0260400Y0294956D01*
X0259821Y0296353D01*
X0259000Y0297174D01*
X0259000Y0304200D01*
X0270606Y0304200D01*
X0274200Y0300606D01*
X0274200Y0297174D01*
X0273379Y0296353D01*
X0272800Y0294956D01*
X0272800Y0288244D01*
X0273379Y0286847D01*
X0274447Y0285779D01*
X0275844Y0285200D01*
X0277356Y0285200D01*
X0278753Y0285779D01*
X0279821Y0286847D01*
X0280400Y0288244D01*
X0280400Y0294956D01*
X0279821Y0296353D01*
X0279000Y0297174D01*
X0279000Y0302077D01*
X0278635Y0302959D01*
X0277959Y0303635D01*
X0272959Y0308635D01*
X0272077Y0309000D01*
X0226018Y0309000D01*
X0225839Y0309432D01*
X0225271Y0310000D01*
X0285979Y0310000D01*
X0296779Y0299200D01*
X0291979Y0299200D01*
X0289476Y0296698D01*
X0288753Y0297421D01*
X0287356Y0298000D01*
X0285844Y0298000D01*
X0284447Y0297421D01*
X0283379Y0296353D01*
X0282800Y0294956D01*
X0282800Y0288244D01*
X0283379Y0286847D01*
X0284447Y0285779D01*
X0285844Y0285200D01*
X0287356Y0285200D01*
X0288753Y0285779D01*
X0289821Y0286847D01*
X0290400Y0288244D01*
X0290400Y0293379D01*
X0293221Y0296200D01*
X0293315Y0296200D01*
X0292800Y0294956D01*
X0292800Y0288244D01*
X0293379Y0286847D01*
X0294200Y0286026D01*
X0294200Y0276123D01*
X0294565Y0275241D01*
X0295241Y0274565D01*
X0302800Y0267006D01*
X0302800Y0265026D01*
X0305026Y0262800D01*
X0305679Y0262800D01*
X0297079Y0254200D01*
X0188689Y0254200D01*
X0188680Y0254223D01*
X0187923Y0254980D01*
X0186935Y0255389D01*
X0185865Y0255389D01*
X0184877Y0254980D01*
X0184120Y0254223D01*
X0183711Y0253235D01*
X0183711Y0252439D01*
X0182356Y0253000D01*
X0180844Y0253000D01*
X0179447Y0252421D01*
X0178379Y0251353D01*
X0177800Y0249956D01*
X0177800Y0243244D01*
X0178379Y0241847D01*
X0179447Y0240779D01*
X0180179Y0240476D01*
X0180854Y0239800D01*
X0185854Y0234800D01*
X0190854Y0234800D01*
X0197400Y0228254D01*
X0198454Y0227200D01*
X0206849Y0227200D01*
X0210733Y0223315D01*
X0210616Y0223297D01*
X0209988Y0223092D01*
X0209399Y0222792D01*
X0208864Y0222404D01*
X0208396Y0221936D01*
X0208008Y0221401D01*
X0207708Y0220812D01*
X0207503Y0220184D01*
X0207400Y0219531D01*
X0207400Y0216800D01*
X0211400Y0216800D01*
X0211400Y0222649D01*
X0211800Y0222249D01*
X0211800Y0216800D01*
X0215800Y0216800D01*
X0215800Y0218249D01*
X0246200Y0187849D01*
X0246200Y0184885D01*
X0244956Y0185400D01*
X0241194Y0185400D01*
X0239000Y0187594D01*
X0239000Y0188626D01*
X0240400Y0190026D01*
X0240400Y0193174D01*
X0238174Y0195400D01*
X0235026Y0195400D01*
X0232800Y0193174D01*
X0232800Y0190026D01*
X0234200Y0188626D01*
X0234200Y0186123D01*
X0234565Y0185241D01*
X0235241Y0184565D01*
X0235916Y0183890D01*
X0235779Y0183753D01*
X0235200Y0182356D01*
X0235200Y0180844D01*
X0235779Y0179447D01*
X0236826Y0178400D01*
X0186374Y0178400D01*
X0186954Y0178980D02*
X0236246Y0178980D01*
X0235476Y0180178D02*
X0187724Y0180178D01*
X0188000Y0181377D02*
X0235200Y0181377D01*
X0235291Y0182575D02*
X0187909Y0182575D01*
X0187400Y0183774D02*
X0235800Y0183774D01*
X0235241Y0184565D02*
X0235241Y0184565D01*
X0234834Y0184972D02*
X0185989Y0184972D01*
X0183340Y0187400D02*
X0185800Y0189860D01*
X0185800Y0191400D01*
X0181800Y0191400D01*
X0181800Y0191800D01*
X0185800Y0191800D01*
X0185800Y0193340D01*
X0183340Y0195800D01*
X0181800Y0195800D01*
X0181800Y0191800D01*
X0181400Y0191800D01*
X0181400Y0195800D01*
X0179860Y0195800D01*
X0177400Y0193340D01*
X0177400Y0191800D01*
X0181400Y0191800D01*
X0181400Y0191400D01*
X0181800Y0191400D01*
X0181800Y0187400D01*
X0183340Y0187400D01*
X0184507Y0188568D02*
X0223693Y0188568D01*
X0224860Y0187400D02*
X0226400Y0187400D01*
X0226400Y0191400D01*
X0226800Y0191400D01*
X0226800Y0191800D01*
X0230800Y0191800D01*
X0230800Y0193340D01*
X0228340Y0195800D01*
X0226800Y0195800D01*
X0226800Y0191800D01*
X0226400Y0191800D01*
X0226400Y0195800D01*
X0224860Y0195800D01*
X0222400Y0193340D01*
X0222400Y0191800D01*
X0226400Y0191800D01*
X0226400Y0191400D01*
X0222400Y0191400D01*
X0222400Y0189860D01*
X0224860Y0187400D01*
X0226400Y0188568D02*
X0226800Y0188568D01*
X0226800Y0187400D02*
X0228340Y0187400D01*
X0230800Y0189860D01*
X0230800Y0191400D01*
X0226800Y0191400D01*
X0226800Y0187400D01*
X0226800Y0189766D02*
X0226400Y0189766D01*
X0226400Y0190965D02*
X0226800Y0190965D01*
X0226800Y0192163D02*
X0226400Y0192163D01*
X0226400Y0193362D02*
X0226800Y0193362D01*
X0226800Y0194560D02*
X0226400Y0194560D01*
X0226400Y0195759D02*
X0226800Y0195759D01*
X0228381Y0195759D02*
X0238290Y0195759D01*
X0239014Y0194560D02*
X0239488Y0194560D01*
X0240212Y0193362D02*
X0240687Y0193362D01*
X0240400Y0192163D02*
X0241885Y0192163D01*
X0243084Y0190965D02*
X0240400Y0190965D01*
X0240140Y0189766D02*
X0244282Y0189766D01*
X0245481Y0188568D02*
X0239000Y0188568D01*
X0239225Y0187369D02*
X0246200Y0187369D01*
X0246200Y0186171D02*
X0240423Y0186171D01*
X0245989Y0184972D02*
X0246200Y0184972D01*
X0248000Y0188594D02*
X0207594Y0229000D01*
X0199200Y0229000D01*
X0191600Y0236600D01*
X0186600Y0236600D01*
X0181600Y0241600D01*
X0181600Y0246600D01*
X0177800Y0246096D02*
X0175400Y0246096D01*
X0175400Y0244898D02*
X0177800Y0244898D01*
X0177800Y0243699D02*
X0175400Y0243699D01*
X0175400Y0243244D02*
X0175400Y0249956D01*
X0174821Y0251353D01*
X0173753Y0252421D01*
X0172356Y0253000D01*
X0170844Y0253000D01*
X0169447Y0252421D01*
X0168379Y0251353D01*
X0167800Y0249956D01*
X0167800Y0243244D01*
X0168379Y0241847D01*
X0169447Y0240779D01*
X0170844Y0240200D01*
X0172356Y0240200D01*
X0173753Y0240779D01*
X0174821Y0241847D01*
X0175400Y0243244D01*
X0175092Y0242501D02*
X0178108Y0242501D01*
X0178924Y0241302D02*
X0174276Y0241302D01*
X0168924Y0241302D02*
X0164276Y0241302D01*
X0165092Y0242501D02*
X0168108Y0242501D01*
X0167800Y0243699D02*
X0165400Y0243699D01*
X0165400Y0244898D02*
X0167800Y0244898D01*
X0167800Y0246096D02*
X0165400Y0246096D01*
X0165400Y0247295D02*
X0167800Y0247295D01*
X0167800Y0248493D02*
X0165400Y0248493D01*
X0165400Y0249692D02*
X0167800Y0249692D01*
X0168187Y0250890D02*
X0165013Y0250890D01*
X0164085Y0252089D02*
X0169115Y0252089D01*
X0174085Y0252089D02*
X0179115Y0252089D01*
X0178187Y0250890D02*
X0175013Y0250890D01*
X0175400Y0249692D02*
X0177800Y0249692D01*
X0177800Y0248493D02*
X0175400Y0248493D01*
X0175400Y0247295D02*
X0177800Y0247295D01*
X0180551Y0240104D02*
X0148498Y0240104D01*
X0147299Y0238905D02*
X0181749Y0238905D01*
X0182948Y0237707D02*
X0146101Y0237707D01*
X0145400Y0236508D02*
X0184146Y0236508D01*
X0185345Y0235310D02*
X0145400Y0235310D01*
X0144485Y0234111D02*
X0191543Y0234111D01*
X0192742Y0232913D02*
X0143287Y0232913D01*
X0143340Y0230800D02*
X0141800Y0230800D01*
X0141800Y0226800D01*
X0141400Y0226800D01*
X0141400Y0230800D01*
X0139860Y0230800D01*
X0137400Y0228340D01*
X0137400Y0226800D01*
X0141400Y0226800D01*
X0141400Y0226400D01*
X0137400Y0226400D01*
X0137400Y0224860D01*
X0139860Y0222400D01*
X0141400Y0222400D01*
X0141400Y0226400D01*
X0141800Y0226400D01*
X0141800Y0226800D01*
X0145800Y0226800D01*
X0145800Y0228340D01*
X0143340Y0230800D01*
X0143624Y0230516D02*
X0195139Y0230516D01*
X0193940Y0231714D02*
X0140108Y0231714D01*
X0139576Y0230516D02*
X0138910Y0230516D01*
X0138377Y0229317D02*
X0137711Y0229317D01*
X0137400Y0228119D02*
X0136513Y0228119D01*
X0137400Y0226920D02*
X0135314Y0226920D01*
X0134116Y0225722D02*
X0137400Y0225722D01*
X0137737Y0224523D02*
X0132917Y0224523D01*
X0131719Y0223325D02*
X0138936Y0223325D01*
X0141400Y0223325D02*
X0141800Y0223325D01*
X0141800Y0222400D02*
X0143340Y0222400D01*
X0145800Y0224860D01*
X0145800Y0226400D01*
X0141800Y0226400D01*
X0141800Y0222400D01*
X0141800Y0224523D02*
X0141400Y0224523D01*
X0141400Y0225722D02*
X0141800Y0225722D01*
X0141800Y0226920D02*
X0141400Y0226920D01*
X0141400Y0228119D02*
X0141800Y0228119D01*
X0141800Y0229317D02*
X0141400Y0229317D01*
X0141400Y0230516D02*
X0141800Y0230516D01*
X0144823Y0229317D02*
X0196337Y0229317D01*
X0197536Y0228119D02*
X0145800Y0228119D01*
X0145800Y0226920D02*
X0207128Y0226920D01*
X0208327Y0225722D02*
X0145800Y0225722D01*
X0145463Y0224523D02*
X0209525Y0224523D01*
X0210724Y0223325D02*
X0166897Y0223325D01*
X0168095Y0222126D02*
X0169152Y0222126D01*
X0174048Y0222126D02*
X0179152Y0222126D01*
X0178202Y0220928D02*
X0174998Y0220928D01*
X0175400Y0219729D02*
X0177800Y0219729D01*
X0177800Y0218531D02*
X0175400Y0218531D01*
X0175400Y0217332D02*
X0177800Y0217332D01*
X0177800Y0216134D02*
X0175400Y0216134D01*
X0175400Y0214935D02*
X0177389Y0214935D01*
X0176191Y0213737D02*
X0175400Y0213737D01*
X0178885Y0211339D02*
X0178887Y0211339D01*
X0177687Y0210141D02*
X0209922Y0210141D01*
X0209988Y0210108D02*
X0210616Y0209903D01*
X0211269Y0209800D01*
X0211400Y0209800D01*
X0211400Y0216400D01*
X0211800Y0216400D01*
X0211800Y0216800D01*
X0211400Y0216800D01*
X0211400Y0216400D01*
X0207400Y0216400D01*
X0207400Y0213669D01*
X0207503Y0213016D01*
X0207708Y0212388D01*
X0208008Y0211799D01*
X0208396Y0211264D01*
X0208864Y0210796D01*
X0209399Y0210408D01*
X0209988Y0210108D01*
X0211400Y0210141D02*
X0211800Y0210141D01*
X0211800Y0209800D02*
X0211931Y0209800D01*
X0212584Y0209903D01*
X0213212Y0210108D01*
X0213801Y0210408D01*
X0214336Y0210796D01*
X0214804Y0211264D01*
X0215192Y0211799D01*
X0215492Y0212388D01*
X0215697Y0213016D01*
X0215800Y0213669D01*
X0215800Y0216400D01*
X0211800Y0216400D01*
X0211800Y0209800D01*
X0213278Y0210141D02*
X0223908Y0210141D01*
X0225106Y0208942D02*
X0176488Y0208942D01*
X0175290Y0207744D02*
X0226305Y0207744D01*
X0227503Y0206545D02*
X0174498Y0206545D01*
X0174498Y0205347D02*
X0228702Y0205347D01*
X0229900Y0204148D02*
X0175008Y0204148D01*
X0175387Y0202950D02*
X0231099Y0202950D01*
X0232297Y0201751D02*
X0175217Y0201751D01*
X0174356Y0200553D02*
X0233496Y0200553D01*
X0234694Y0199354D02*
X0174785Y0199354D01*
X0175984Y0198156D02*
X0235893Y0198156D01*
X0237091Y0196957D02*
X0177182Y0196957D01*
X0177200Y0195759D02*
X0179819Y0195759D01*
X0181400Y0195759D02*
X0181800Y0195759D01*
X0181800Y0194560D02*
X0181400Y0194560D01*
X0181400Y0193362D02*
X0181800Y0193362D01*
X0181800Y0192163D02*
X0181400Y0192163D01*
X0181400Y0191400D02*
X0177400Y0191400D01*
X0177400Y0189860D01*
X0179860Y0187400D01*
X0181400Y0187400D01*
X0181400Y0191400D01*
X0181400Y0190965D02*
X0181800Y0190965D01*
X0181800Y0189766D02*
X0181400Y0189766D01*
X0181400Y0188568D02*
X0181800Y0188568D01*
X0178693Y0188568D02*
X0177200Y0188568D01*
X0177200Y0189766D02*
X0177494Y0189766D01*
X0177400Y0190965D02*
X0177200Y0190965D01*
X0177200Y0192163D02*
X0177400Y0192163D01*
X0177422Y0193362D02*
X0177200Y0193362D01*
X0177200Y0194560D02*
X0178621Y0194560D01*
X0175400Y0196194D02*
X0161600Y0209994D01*
X0161600Y0216600D01*
X0156400Y0216134D02*
X0155400Y0216134D01*
X0155400Y0217332D02*
X0156400Y0217332D01*
X0156400Y0218531D02*
X0155400Y0218531D01*
X0155400Y0219729D02*
X0156400Y0219729D01*
X0156400Y0220928D02*
X0154998Y0220928D01*
X0154048Y0222126D02*
X0157305Y0222126D01*
X0158503Y0223325D02*
X0144264Y0223325D01*
X0148202Y0220928D02*
X0129322Y0220928D01*
X0130520Y0222126D02*
X0149152Y0222126D01*
X0147800Y0219729D02*
X0128123Y0219729D01*
X0126925Y0218531D02*
X0147800Y0218531D01*
X0147800Y0217332D02*
X0125726Y0217332D01*
X0124528Y0216134D02*
X0147800Y0216134D01*
X0147800Y0214935D02*
X0123329Y0214935D01*
X0122131Y0213737D02*
X0147800Y0213737D01*
X0148092Y0212538D02*
X0120932Y0212538D01*
X0119734Y0211339D02*
X0148887Y0211339D01*
X0150466Y0210141D02*
X0118535Y0210141D01*
X0115342Y0213737D02*
X0083485Y0213737D01*
X0082286Y0214935D02*
X0116541Y0214935D01*
X0117739Y0216134D02*
X0081088Y0216134D01*
X0079889Y0217332D02*
X0118938Y0217332D01*
X0120136Y0218531D02*
X0078691Y0218531D01*
X0077492Y0219729D02*
X0121335Y0219729D01*
X0122533Y0220928D02*
X0076294Y0220928D01*
X0075095Y0222126D02*
X0123732Y0222126D01*
X0124930Y0223325D02*
X0073897Y0223325D01*
X0072698Y0224523D02*
X0126129Y0224523D01*
X0127328Y0225722D02*
X0071500Y0225722D01*
X0070301Y0226920D02*
X0128526Y0226920D01*
X0129725Y0228119D02*
X0069103Y0228119D01*
X0068800Y0228421D02*
X0068800Y0253411D01*
X0068823Y0253420D01*
X0069580Y0254177D01*
X0069989Y0255165D01*
X0069989Y0256235D01*
X0069580Y0257223D01*
X0068823Y0257980D01*
X0067835Y0258389D01*
X0066765Y0258389D01*
X0065777Y0257980D01*
X0065020Y0257223D01*
X0064611Y0256235D01*
X0064611Y0255165D01*
X0065020Y0254177D01*
X0065777Y0253420D01*
X0065800Y0253411D01*
X0065800Y0228421D01*
X0065800Y0227821D01*
X0044200Y0249421D01*
X0043321Y0250300D01*
X0034921Y0250300D01*
X0035200Y0250579D01*
X0038471Y0253850D01*
X0038471Y0253850D01*
X0039350Y0254729D01*
X0039350Y0255971D01*
X0035421Y0259900D01*
X0059311Y0259900D01*
X0059320Y0259877D01*
X0060077Y0259120D01*
X0061065Y0258711D01*
X0062135Y0258711D01*
X0063123Y0259120D01*
X0063880Y0259877D01*
X0064289Y0260865D01*
X0064289Y0261935D01*
X0063880Y0262923D01*
X0063123Y0263680D01*
X0062135Y0264089D01*
X0061065Y0264089D01*
X0060077Y0263680D01*
X0059320Y0262923D01*
X0059311Y0262900D01*
X0034789Y0262900D01*
X0034780Y0262923D01*
X0034023Y0263680D01*
X0033035Y0264089D01*
X0031965Y0264089D01*
X0031611Y0263942D01*
X0031611Y0294490D01*
X0047771Y0310650D01*
X0121424Y0310650D01*
X0119691Y0308917D01*
X0118450Y0305921D01*
X0118450Y0302679D01*
X0119691Y0299683D01*
X0121983Y0297391D01*
X0124979Y0296150D01*
X0128221Y0296150D01*
X0131217Y0297391D01*
X0133509Y0299683D01*
X0134750Y0302679D01*
X0134750Y0305921D01*
X0133509Y0308917D01*
X0132426Y0310000D01*
X0217929Y0310000D01*
X0217361Y0309432D01*
X0216600Y0307595D01*
X0216600Y0305605D01*
X0217361Y0303768D01*
X0218768Y0302361D01*
X0220605Y0301600D01*
X0222595Y0301600D01*
X0224432Y0302361D01*
X0224800Y0302729D01*
X0224800Y0270471D01*
X0224432Y0270839D01*
X0222595Y0271600D01*
X0220605Y0271600D01*
X0218768Y0270839D01*
X0217361Y0269432D01*
X0216600Y0267595D01*
X0216600Y0265605D01*
X0217361Y0263768D01*
X0217929Y0263200D01*
X0164923Y0263200D01*
X0164041Y0262835D01*
X0163365Y0262159D01*
X0153664Y0252458D01*
X0152356Y0253000D01*
X0150844Y0253000D01*
X0149447Y0252421D01*
X0148379Y0251353D01*
X0147800Y0249956D01*
X0147800Y0246194D01*
X0142006Y0240400D01*
X0140026Y0240400D01*
X0137800Y0238174D01*
X0137800Y0236194D01*
X0110774Y0209169D01*
X0110077Y0208880D01*
X0109320Y0208123D01*
X0108911Y0207135D01*
X0108911Y0206065D01*
X0109320Y0205077D01*
X0110077Y0204320D01*
X0111065Y0203911D01*
X0112135Y0203911D01*
X0112833Y0204200D01*
X0140606Y0204200D01*
X0141765Y0203041D01*
X0142441Y0202365D01*
X0143323Y0202000D01*
X0162594Y0202000D01*
X0169200Y0195394D01*
X0169200Y0194574D01*
X0167800Y0193174D01*
X0167800Y0191194D01*
X0162006Y0185400D01*
X0158244Y0185400D01*
X0156847Y0184821D01*
X0155779Y0183753D01*
X0155200Y0182356D01*
X0155200Y0180844D01*
X0155779Y0179447D01*
X0156826Y0178400D01*
X0153603Y0178400D01*
X0153123Y0178880D01*
X0152135Y0179289D01*
X0151065Y0179289D01*
X0150077Y0178880D01*
X0149320Y0178123D01*
X0148911Y0177135D01*
X0148911Y0176065D01*
X0149320Y0175077D01*
X0150077Y0174320D01*
X0151065Y0173911D01*
X0152135Y0173911D01*
X0153123Y0174320D01*
X0153603Y0174800D01*
X0156826Y0174800D01*
X0155779Y0173753D01*
X0155263Y0172508D01*
X0154930Y0172841D01*
X0154461Y0173361D01*
X0154408Y0173363D01*
X0154372Y0173400D01*
X0153671Y0173400D01*
X0152971Y0173435D01*
X0152933Y0173400D01*
X0123196Y0173400D01*
X0123389Y0173865D01*
X0123389Y0174935D01*
X0122980Y0175923D01*
X0122223Y0176680D01*
X0121235Y0177089D01*
X0120165Y0177089D01*
X0120142Y0177079D01*
X0068800Y0228421D01*
X0068800Y0229317D02*
X0130923Y0229317D01*
X0132122Y0230516D02*
X0068800Y0230516D01*
X0068800Y0231714D02*
X0133320Y0231714D01*
X0134519Y0232913D02*
X0068800Y0232913D01*
X0068800Y0234111D02*
X0135717Y0234111D01*
X0136916Y0235310D02*
X0068800Y0235310D01*
X0068800Y0236508D02*
X0137800Y0236508D01*
X0137800Y0237707D02*
X0068800Y0237707D01*
X0068800Y0238905D02*
X0138531Y0238905D01*
X0139730Y0240104D02*
X0068800Y0240104D01*
X0068800Y0241302D02*
X0142908Y0241302D01*
X0144107Y0242501D02*
X0068800Y0242501D01*
X0068800Y0243699D02*
X0145305Y0243699D01*
X0146504Y0244898D02*
X0068800Y0244898D01*
X0068800Y0246096D02*
X0147702Y0246096D01*
X0147800Y0247295D02*
X0068800Y0247295D01*
X0068800Y0248493D02*
X0147800Y0248493D01*
X0147800Y0249692D02*
X0068800Y0249692D01*
X0068800Y0250890D02*
X0148187Y0250890D01*
X0149115Y0252089D02*
X0068800Y0252089D01*
X0068800Y0253287D02*
X0154493Y0253287D01*
X0155692Y0254486D02*
X0069708Y0254486D01*
X0069989Y0255684D02*
X0156890Y0255684D01*
X0158089Y0256883D02*
X0069721Y0256883D01*
X0068577Y0258081D02*
X0159287Y0258081D01*
X0160486Y0259280D02*
X0063283Y0259280D01*
X0064129Y0260478D02*
X0161684Y0260478D01*
X0162883Y0261677D02*
X0130459Y0261677D01*
X0131217Y0261991D02*
X0133509Y0264283D01*
X0134750Y0267279D01*
X0134750Y0270521D01*
X0133509Y0273517D01*
X0131526Y0275500D01*
X0143099Y0275500D01*
X0143669Y0274123D01*
X0144998Y0272794D01*
X0146735Y0272075D01*
X0155665Y0272075D01*
X0157401Y0272794D01*
X0158731Y0274123D01*
X0159450Y0275860D01*
X0159450Y0277740D01*
X0158731Y0279476D01*
X0157401Y0280806D01*
X0155665Y0281525D01*
X0146735Y0281525D01*
X0144998Y0280806D01*
X0143669Y0279476D01*
X0143265Y0278500D01*
X0109935Y0278500D01*
X0109531Y0279476D01*
X0108201Y0280806D01*
X0106465Y0281525D01*
X0097535Y0281525D01*
X0095798Y0280806D01*
X0094469Y0279476D01*
X0093750Y0277740D01*
X0093750Y0275860D01*
X0094469Y0274123D01*
X0094593Y0274000D01*
X0089574Y0274000D01*
X0088174Y0275400D01*
X0085026Y0275400D01*
X0082800Y0273174D01*
X0082800Y0270026D01*
X0085026Y0267800D01*
X0088174Y0267800D01*
X0089574Y0269200D01*
X0097277Y0269200D01*
X0098159Y0269565D01*
X0098835Y0270241D01*
X0100669Y0272075D01*
X0106465Y0272075D01*
X0108201Y0272794D01*
X0109531Y0274123D01*
X0110101Y0275500D01*
X0121674Y0275500D01*
X0119691Y0273517D01*
X0118450Y0270521D01*
X0118450Y0267279D01*
X0119691Y0264283D01*
X0121983Y0261991D01*
X0124979Y0260750D01*
X0128221Y0260750D01*
X0131217Y0261991D01*
X0132101Y0262875D02*
X0164139Y0262875D01*
X0166076Y0258081D02*
X0300960Y0258081D01*
X0299762Y0256883D02*
X0164877Y0256883D01*
X0163678Y0255684D02*
X0298563Y0255684D01*
X0297365Y0254486D02*
X0188417Y0254486D01*
X0184383Y0254486D02*
X0162480Y0254486D01*
X0161281Y0253287D02*
X0183733Y0253287D01*
X0157800Y0249692D02*
X0157686Y0249692D01*
X0157800Y0248493D02*
X0156487Y0248493D01*
X0155400Y0247295D02*
X0157800Y0247295D01*
X0157800Y0246096D02*
X0155400Y0246096D01*
X0155400Y0244898D02*
X0157800Y0244898D01*
X0157800Y0243699D02*
X0155400Y0243699D01*
X0155092Y0242501D02*
X0158108Y0242501D01*
X0158924Y0241302D02*
X0154276Y0241302D01*
X0133300Y0264074D02*
X0217234Y0264074D01*
X0216738Y0265272D02*
X0133919Y0265272D01*
X0134415Y0266471D02*
X0216600Y0266471D01*
X0216631Y0267670D02*
X0134750Y0267670D01*
X0134750Y0268868D02*
X0217127Y0268868D01*
X0217995Y0270067D02*
X0134750Y0270067D01*
X0134442Y0271265D02*
X0219797Y0271265D01*
X0223403Y0271265D02*
X0224800Y0271265D01*
X0224800Y0272464D02*
X0156603Y0272464D01*
X0158269Y0273662D02*
X0224800Y0273662D01*
X0224800Y0274861D02*
X0159036Y0274861D01*
X0159450Y0276059D02*
X0224800Y0276059D01*
X0224800Y0277258D02*
X0159450Y0277258D01*
X0159153Y0278456D02*
X0224800Y0278456D01*
X0224800Y0279655D02*
X0158553Y0279655D01*
X0157287Y0280853D02*
X0224800Y0280853D01*
X0224800Y0282052D02*
X0071350Y0282052D01*
X0071350Y0281800D02*
X0071350Y0283568D01*
X0068568Y0286350D01*
X0066800Y0286350D01*
X0066800Y0281800D01*
X0066400Y0281800D01*
X0066400Y0286350D01*
X0064632Y0286350D01*
X0061850Y0283568D01*
X0061850Y0281800D01*
X0066400Y0281800D01*
X0066400Y0281400D01*
X0061850Y0281400D01*
X0061850Y0279632D01*
X0064632Y0276850D01*
X0066400Y0276850D01*
X0066400Y0281400D01*
X0066800Y0281400D01*
X0066800Y0281800D01*
X0071350Y0281800D01*
X0071350Y0281400D02*
X0066800Y0281400D01*
X0066800Y0276850D01*
X0068568Y0276850D01*
X0071350Y0279632D01*
X0071350Y0281400D01*
X0071350Y0280853D02*
X0095913Y0280853D01*
X0094647Y0279655D02*
X0071350Y0279655D01*
X0070174Y0278456D02*
X0094047Y0278456D01*
X0093750Y0277258D02*
X0068975Y0277258D01*
X0066800Y0277258D02*
X0066400Y0277258D01*
X0066400Y0278456D02*
X0066800Y0278456D01*
X0066800Y0279655D02*
X0066400Y0279655D01*
X0066400Y0280853D02*
X0066800Y0280853D01*
X0066800Y0282052D02*
X0066400Y0282052D01*
X0066400Y0283250D02*
X0066800Y0283250D01*
X0066800Y0284449D02*
X0066400Y0284449D01*
X0066400Y0285647D02*
X0066800Y0285647D01*
X0067465Y0287250D02*
X0069064Y0287912D01*
X0070288Y0289136D01*
X0070950Y0290735D01*
X0070950Y0292465D01*
X0070288Y0294064D01*
X0069064Y0295288D01*
X0067465Y0295950D01*
X0065735Y0295950D01*
X0064136Y0295288D01*
X0062912Y0294064D01*
X0062250Y0292465D01*
X0062250Y0290735D01*
X0062912Y0289136D01*
X0064136Y0287912D01*
X0065735Y0287250D01*
X0067465Y0287250D01*
X0069196Y0288044D02*
X0224800Y0288044D01*
X0224800Y0286846D02*
X0031611Y0286846D01*
X0031611Y0288044D02*
X0064004Y0288044D01*
X0062868Y0289243D02*
X0031611Y0289243D01*
X0031611Y0290441D02*
X0062372Y0290441D01*
X0062250Y0291640D02*
X0031611Y0291640D01*
X0031611Y0292838D02*
X0062405Y0292838D01*
X0062901Y0294037D02*
X0031611Y0294037D01*
X0032357Y0295235D02*
X0064083Y0295235D01*
X0069117Y0295235D02*
X0093471Y0295235D01*
X0093476Y0295200D02*
X0093725Y0294433D01*
X0094092Y0293714D01*
X0094566Y0293061D01*
X0095136Y0292491D01*
X0095789Y0292017D01*
X0096508Y0291650D01*
X0097275Y0291401D01*
X0098072Y0291275D01*
X0101425Y0291275D01*
X0101425Y0295825D01*
X0102575Y0295825D01*
X0102575Y0296975D01*
X0101425Y0296975D01*
X0101425Y0301525D01*
X0098072Y0301525D01*
X0097275Y0301399D01*
X0096508Y0301150D01*
X0095789Y0300783D01*
X0095136Y0300309D01*
X0094566Y0299739D01*
X0094092Y0299086D01*
X0093725Y0298367D01*
X0093476Y0297600D01*
X0093377Y0296975D01*
X0101425Y0296975D01*
X0101425Y0295825D01*
X0093377Y0295825D01*
X0093476Y0295200D01*
X0093927Y0294037D02*
X0070299Y0294037D01*
X0070795Y0292838D02*
X0094789Y0292838D01*
X0096541Y0291640D02*
X0070950Y0291640D01*
X0070828Y0290441D02*
X0224800Y0290441D01*
X0224800Y0289243D02*
X0070332Y0289243D01*
X0069270Y0285647D02*
X0224800Y0285647D01*
X0224800Y0284449D02*
X0070469Y0284449D01*
X0071350Y0283250D02*
X0224800Y0283250D01*
X0229600Y0283250D02*
X0294200Y0283250D01*
X0294200Y0282052D02*
X0229600Y0282052D01*
X0229600Y0280853D02*
X0294200Y0280853D01*
X0294200Y0279655D02*
X0229600Y0279655D01*
X0229600Y0278456D02*
X0294200Y0278456D01*
X0294200Y0277258D02*
X0229600Y0277258D01*
X0229600Y0276059D02*
X0294226Y0276059D01*
X0294945Y0274861D02*
X0229600Y0274861D01*
X0229600Y0273662D02*
X0296144Y0273662D01*
X0297342Y0272464D02*
X0229600Y0272464D01*
X0229600Y0271265D02*
X0298541Y0271265D01*
X0299739Y0270067D02*
X0229600Y0270067D01*
X0229600Y0268868D02*
X0300938Y0268868D01*
X0302136Y0267670D02*
X0229600Y0267670D01*
X0229600Y0266471D02*
X0302800Y0266471D01*
X0302800Y0265272D02*
X0229600Y0265272D01*
X0229600Y0264074D02*
X0303752Y0264074D01*
X0304951Y0262875D02*
X0229291Y0262875D01*
X0228171Y0261677D02*
X0304556Y0261677D01*
X0303357Y0260478D02*
X0226973Y0260478D01*
X0225774Y0259280D02*
X0302159Y0259280D01*
X0313000Y0270067D02*
X0314127Y0270067D01*
X0313000Y0271265D02*
X0369389Y0271265D01*
X0368191Y0272464D02*
X0313000Y0272464D01*
X0313000Y0273662D02*
X0366992Y0273662D01*
X0365794Y0274861D02*
X0313000Y0274861D01*
X0313000Y0276059D02*
X0364595Y0276059D01*
X0363397Y0277258D02*
X0313000Y0277258D01*
X0313000Y0278456D02*
X0362198Y0278456D01*
X0361000Y0279655D02*
X0313000Y0279655D01*
X0313000Y0280853D02*
X0314801Y0280853D01*
X0314800Y0280854D02*
X0315854Y0279800D01*
X0360854Y0279800D01*
X0375857Y0264797D01*
X0375039Y0263979D01*
X0374400Y0262435D01*
X0374400Y0260765D01*
X0375039Y0259221D01*
X0376221Y0258039D01*
X0377765Y0257400D01*
X0385435Y0257400D01*
X0386979Y0258039D01*
X0388161Y0259221D01*
X0388800Y0260765D01*
X0388800Y0262435D01*
X0388161Y0263979D01*
X0386979Y0265161D01*
X0385435Y0265800D01*
X0379946Y0265800D01*
X0378346Y0267400D01*
X0385435Y0267400D01*
X0386979Y0268039D01*
X0388161Y0269221D01*
X0388800Y0270765D01*
X0388800Y0272435D01*
X0388161Y0273979D01*
X0386979Y0275161D01*
X0385435Y0275800D01*
X0377765Y0275800D01*
X0376221Y0275161D01*
X0375903Y0274843D01*
X0365885Y0284861D01*
X0366269Y0284800D01*
X0366400Y0284800D01*
X0366400Y0291400D01*
X0362400Y0291400D01*
X0362400Y0288669D01*
X0362461Y0288285D01*
X0360400Y0290346D01*
X0360400Y0294956D01*
X0359821Y0296353D01*
X0358753Y0297421D01*
X0357356Y0298000D01*
X0355844Y0298000D01*
X0354447Y0297421D01*
X0353379Y0296353D01*
X0352800Y0294956D01*
X0352800Y0288244D01*
X0353379Y0286847D01*
X0354447Y0285779D01*
X0355844Y0285200D01*
X0357356Y0285200D01*
X0358753Y0285779D01*
X0359314Y0286340D01*
X0362254Y0283400D01*
X0318400Y0283400D01*
X0318400Y0285632D01*
X0318753Y0285779D01*
X0319821Y0286847D01*
X0320400Y0288244D01*
X0320400Y0294956D01*
X0319821Y0296353D01*
X0318753Y0297421D01*
X0317356Y0298000D01*
X0315844Y0298000D01*
X0314447Y0297421D01*
X0313379Y0296353D01*
X0312800Y0294956D01*
X0312800Y0288244D01*
X0313379Y0286847D01*
X0314447Y0285779D01*
X0314800Y0285632D01*
X0314800Y0280854D01*
X0314800Y0282052D02*
X0313000Y0282052D01*
X0313000Y0283250D02*
X0314800Y0283250D01*
X0314800Y0284449D02*
X0313000Y0284449D01*
X0313000Y0285647D02*
X0314765Y0285647D01*
X0313380Y0286846D02*
X0313000Y0286846D01*
X0312883Y0288044D02*
X0312177Y0288044D01*
X0312800Y0289243D02*
X0310979Y0289243D01*
X0310400Y0290441D02*
X0312800Y0290441D01*
X0312800Y0291640D02*
X0310400Y0291640D01*
X0310400Y0292838D02*
X0312800Y0292838D01*
X0312800Y0294037D02*
X0310400Y0294037D01*
X0310284Y0295235D02*
X0312916Y0295235D01*
X0313460Y0296434D02*
X0309740Y0296434D01*
X0308244Y0297632D02*
X0314956Y0297632D01*
X0318244Y0297632D02*
X0324956Y0297632D01*
X0324447Y0297421D02*
X0323379Y0296353D01*
X0322800Y0294956D01*
X0322800Y0288244D01*
X0323379Y0286847D01*
X0324447Y0285779D01*
X0325844Y0285200D01*
X0327356Y0285200D01*
X0328753Y0285779D01*
X0329821Y0286847D01*
X0330400Y0288244D01*
X0330400Y0294956D01*
X0329821Y0296353D01*
X0328753Y0297421D01*
X0327356Y0298000D01*
X0325844Y0298000D01*
X0324447Y0297421D01*
X0323460Y0296434D02*
X0319740Y0296434D01*
X0320284Y0295235D02*
X0322916Y0295235D01*
X0322800Y0294037D02*
X0320400Y0294037D01*
X0320400Y0292838D02*
X0322800Y0292838D01*
X0322800Y0291640D02*
X0320400Y0291640D01*
X0320400Y0290441D02*
X0322800Y0290441D01*
X0322800Y0289243D02*
X0320400Y0289243D01*
X0320317Y0288044D02*
X0322883Y0288044D01*
X0323380Y0286846D02*
X0319820Y0286846D01*
X0318435Y0285647D02*
X0324765Y0285647D01*
X0328435Y0285647D02*
X0334765Y0285647D01*
X0334447Y0285779D02*
X0335844Y0285200D01*
X0337356Y0285200D01*
X0338753Y0285779D01*
X0339821Y0286847D01*
X0340400Y0288244D01*
X0340400Y0294956D01*
X0339821Y0296353D01*
X0338753Y0297421D01*
X0337356Y0298000D01*
X0335844Y0298000D01*
X0334447Y0297421D01*
X0333379Y0296353D01*
X0332800Y0294956D01*
X0332800Y0288244D01*
X0333379Y0286847D01*
X0334447Y0285779D01*
X0333380Y0286846D02*
X0329820Y0286846D01*
X0330317Y0288044D02*
X0332883Y0288044D01*
X0332800Y0289243D02*
X0330400Y0289243D01*
X0330400Y0290441D02*
X0332800Y0290441D01*
X0332800Y0291640D02*
X0330400Y0291640D01*
X0330400Y0292838D02*
X0332800Y0292838D01*
X0332800Y0294037D02*
X0330400Y0294037D01*
X0330284Y0295235D02*
X0332916Y0295235D01*
X0333460Y0296434D02*
X0329740Y0296434D01*
X0328244Y0297632D02*
X0334956Y0297632D01*
X0338244Y0297632D02*
X0344956Y0297632D01*
X0344447Y0297421D02*
X0343379Y0296353D01*
X0342800Y0294956D01*
X0342800Y0288244D01*
X0343379Y0286847D01*
X0344447Y0285779D01*
X0345844Y0285200D01*
X0347356Y0285200D01*
X0348753Y0285779D01*
X0349821Y0286847D01*
X0350400Y0288244D01*
X0350400Y0294956D01*
X0349821Y0296353D01*
X0348753Y0297421D01*
X0347356Y0298000D01*
X0345844Y0298000D01*
X0344447Y0297421D01*
X0343460Y0296434D02*
X0339740Y0296434D01*
X0340284Y0295235D02*
X0342916Y0295235D01*
X0342800Y0294037D02*
X0340400Y0294037D01*
X0340400Y0292838D02*
X0342800Y0292838D01*
X0342800Y0291640D02*
X0340400Y0291640D01*
X0340400Y0290441D02*
X0342800Y0290441D01*
X0342800Y0289243D02*
X0340400Y0289243D01*
X0340317Y0288044D02*
X0342883Y0288044D01*
X0343380Y0286846D02*
X0339820Y0286846D01*
X0338435Y0285647D02*
X0344765Y0285647D01*
X0348435Y0285647D02*
X0354765Y0285647D01*
X0353380Y0286846D02*
X0349820Y0286846D01*
X0350317Y0288044D02*
X0352883Y0288044D01*
X0352800Y0289243D02*
X0350400Y0289243D01*
X0350400Y0290441D02*
X0352800Y0290441D01*
X0352800Y0291640D02*
X0350400Y0291640D01*
X0350400Y0292838D02*
X0352800Y0292838D01*
X0352800Y0294037D02*
X0350400Y0294037D01*
X0350284Y0295235D02*
X0352916Y0295235D01*
X0353460Y0296434D02*
X0349740Y0296434D01*
X0348244Y0297632D02*
X0354956Y0297632D01*
X0358244Y0297632D02*
X0364179Y0297632D01*
X0364399Y0297792D02*
X0363864Y0297404D01*
X0363396Y0296936D01*
X0363008Y0296401D01*
X0362708Y0295812D01*
X0362503Y0295184D01*
X0362400Y0294531D01*
X0362400Y0291800D01*
X0366400Y0291800D01*
X0366400Y0298400D01*
X0366269Y0298400D01*
X0365616Y0298297D01*
X0364988Y0298092D01*
X0364399Y0297792D01*
X0363031Y0296434D02*
X0359740Y0296434D01*
X0360284Y0295235D02*
X0362520Y0295235D01*
X0362400Y0294037D02*
X0360400Y0294037D01*
X0360400Y0292838D02*
X0362400Y0292838D01*
X0360400Y0291640D02*
X0366400Y0291640D01*
X0366400Y0291800D02*
X0366400Y0291400D01*
X0366800Y0291400D01*
X0366800Y0291800D01*
X0366400Y0291800D01*
X0366800Y0291800D02*
X0366800Y0298400D01*
X0366931Y0298400D01*
X0367584Y0298297D01*
X0368212Y0298092D01*
X0368801Y0297792D01*
X0369336Y0297404D01*
X0369804Y0296936D01*
X0370192Y0296401D01*
X0370492Y0295812D01*
X0370697Y0295184D01*
X0370800Y0294531D01*
X0370800Y0291800D01*
X0366800Y0291800D01*
X0366800Y0291640D02*
X0390701Y0291640D01*
X0390701Y0292838D02*
X0370800Y0292838D01*
X0370800Y0294037D02*
X0390701Y0294037D01*
X0390701Y0295235D02*
X0370680Y0295235D01*
X0370169Y0296434D02*
X0390701Y0296434D01*
X0390701Y0297632D02*
X0369021Y0297632D01*
X0366800Y0297632D02*
X0366400Y0297632D01*
X0366400Y0296434D02*
X0366800Y0296434D01*
X0366800Y0295235D02*
X0366400Y0295235D01*
X0366400Y0294037D02*
X0366800Y0294037D01*
X0366800Y0292838D02*
X0366400Y0292838D01*
X0366800Y0291400D02*
X0370800Y0291400D01*
X0370800Y0288669D01*
X0370697Y0288016D01*
X0370492Y0287388D01*
X0370192Y0286799D01*
X0369804Y0286264D01*
X0369336Y0285796D01*
X0368801Y0285408D01*
X0368212Y0285108D01*
X0367584Y0284903D01*
X0366931Y0284800D01*
X0366800Y0284800D01*
X0366800Y0291400D01*
X0366800Y0290441D02*
X0366400Y0290441D01*
X0366400Y0289243D02*
X0366800Y0289243D01*
X0366800Y0288044D02*
X0366400Y0288044D01*
X0366400Y0286846D02*
X0366800Y0286846D01*
X0366800Y0285647D02*
X0366400Y0285647D01*
X0366297Y0284449D02*
X0390701Y0284449D01*
X0390701Y0285647D02*
X0369131Y0285647D01*
X0370216Y0286846D02*
X0390701Y0286846D01*
X0390701Y0288044D02*
X0370701Y0288044D01*
X0370800Y0289243D02*
X0390701Y0289243D01*
X0390701Y0290441D02*
X0370800Y0290441D01*
X0367495Y0283250D02*
X0390701Y0283250D01*
X0390701Y0282052D02*
X0368694Y0282052D01*
X0369892Y0280853D02*
X0390701Y0280853D01*
X0390701Y0279655D02*
X0371091Y0279655D01*
X0372289Y0278456D02*
X0390701Y0278456D01*
X0390701Y0277258D02*
X0373488Y0277258D01*
X0374686Y0276059D02*
X0390701Y0276059D01*
X0390701Y0274861D02*
X0387279Y0274861D01*
X0388292Y0273662D02*
X0390701Y0273662D01*
X0390701Y0272464D02*
X0388788Y0272464D01*
X0388800Y0271265D02*
X0390701Y0271265D01*
X0390701Y0270067D02*
X0388511Y0270067D01*
X0387808Y0268868D02*
X0390701Y0268868D01*
X0390701Y0267670D02*
X0386086Y0267670D01*
X0386709Y0265272D02*
X0390701Y0265272D01*
X0390701Y0264074D02*
X0388066Y0264074D01*
X0388618Y0262875D02*
X0390701Y0262875D01*
X0390701Y0261677D02*
X0388800Y0261677D01*
X0388681Y0260478D02*
X0390701Y0260478D01*
X0390701Y0259280D02*
X0388185Y0259280D01*
X0387021Y0258081D02*
X0390701Y0258081D01*
X0390701Y0256883D02*
X0331038Y0256883D01*
X0329840Y0258081D02*
X0376179Y0258081D01*
X0375015Y0259280D02*
X0328641Y0259280D01*
X0327443Y0260478D02*
X0374519Y0260478D01*
X0374400Y0261677D02*
X0326244Y0261677D01*
X0325046Y0262875D02*
X0374582Y0262875D01*
X0375134Y0264074D02*
X0323847Y0264074D01*
X0320800Y0265272D02*
X0375382Y0265272D01*
X0374183Y0266471D02*
X0316800Y0266471D01*
X0316800Y0267670D02*
X0316400Y0267670D01*
X0316400Y0268868D02*
X0316800Y0268868D01*
X0316800Y0270067D02*
X0316400Y0270067D01*
X0319073Y0270067D02*
X0370588Y0270067D01*
X0371786Y0268868D02*
X0320272Y0268868D01*
X0320800Y0267670D02*
X0372985Y0267670D01*
X0376600Y0271600D02*
X0381600Y0271600D01*
X0376600Y0271600D02*
X0356600Y0291600D01*
X0360400Y0290441D02*
X0362400Y0290441D01*
X0362400Y0289243D02*
X0361503Y0289243D01*
X0360007Y0285647D02*
X0358435Y0285647D01*
X0361206Y0284449D02*
X0318400Y0284449D01*
X0316600Y0281600D02*
X0316600Y0291600D01*
X0316600Y0281600D02*
X0361600Y0281600D01*
X0381600Y0261600D01*
X0379275Y0266471D02*
X0390701Y0266471D01*
X0390701Y0255684D02*
X0386716Y0255684D01*
X0387011Y0255534D02*
X0386366Y0255863D01*
X0385677Y0256087D01*
X0384962Y0256200D01*
X0382000Y0256200D01*
X0382000Y0252000D01*
X0381200Y0252000D01*
X0381200Y0256200D01*
X0378238Y0256200D01*
X0377523Y0256087D01*
X0376834Y0255863D01*
X0376189Y0255534D01*
X0375603Y0255109D01*
X0375091Y0254597D01*
X0374666Y0254011D01*
X0374337Y0253366D01*
X0374113Y0252677D01*
X0374006Y0252000D01*
X0381200Y0252000D01*
X0381200Y0251200D01*
X0382000Y0251200D01*
X0382000Y0252000D01*
X0389194Y0252000D01*
X0389087Y0252677D01*
X0388863Y0253366D01*
X0388534Y0254011D01*
X0388109Y0254597D01*
X0387597Y0255109D01*
X0387011Y0255534D01*
X0388189Y0254486D02*
X0390701Y0254486D01*
X0390701Y0253287D02*
X0388888Y0253287D01*
X0389180Y0252089D02*
X0390701Y0252089D01*
X0390701Y0250890D02*
X0389145Y0250890D01*
X0389194Y0251200D02*
X0382000Y0251200D01*
X0382000Y0247000D01*
X0384962Y0247000D01*
X0385677Y0247113D01*
X0386366Y0247337D01*
X0387011Y0247666D01*
X0387597Y0248091D01*
X0388109Y0248603D01*
X0388534Y0249189D01*
X0388863Y0249834D01*
X0389087Y0250523D01*
X0389194Y0251200D01*
X0388790Y0249692D02*
X0390701Y0249692D01*
X0390701Y0248493D02*
X0387999Y0248493D01*
X0386236Y0247295D02*
X0390701Y0247295D01*
X0390701Y0246096D02*
X0341825Y0246096D01*
X0343024Y0244898D02*
X0390701Y0244898D01*
X0390701Y0243699D02*
X0344222Y0243699D01*
X0345421Y0242501D02*
X0390701Y0242501D01*
X0390701Y0241302D02*
X0346619Y0241302D01*
X0347818Y0240104D02*
X0390701Y0240104D01*
X0390701Y0238905D02*
X0349016Y0238905D01*
X0350215Y0237707D02*
X0354281Y0237707D01*
X0353086Y0236508D02*
X0351413Y0236508D01*
X0351700Y0235310D02*
X0352544Y0235310D01*
X0352400Y0234111D02*
X0351700Y0234111D01*
X0351700Y0232913D02*
X0352400Y0232913D01*
X0351700Y0231714D02*
X0356400Y0231714D01*
X0356800Y0231714D02*
X0366400Y0231714D01*
X0366400Y0231800D02*
X0366400Y0231400D01*
X0362400Y0231400D01*
X0362400Y0228669D01*
X0362503Y0228016D01*
X0362708Y0227388D01*
X0363008Y0226799D01*
X0363396Y0226264D01*
X0363864Y0225796D01*
X0364399Y0225408D01*
X0364988Y0225108D01*
X0365616Y0224903D01*
X0366269Y0224800D01*
X0366400Y0224800D01*
X0366400Y0231400D01*
X0366800Y0231400D01*
X0366800Y0231800D01*
X0366400Y0231800D01*
X0366400Y0238400D01*
X0366269Y0238400D01*
X0365616Y0238297D01*
X0364988Y0238092D01*
X0364399Y0237792D01*
X0363864Y0237404D01*
X0363396Y0236936D01*
X0363008Y0236401D01*
X0362708Y0235812D01*
X0362503Y0235184D01*
X0362400Y0234531D01*
X0362400Y0231800D01*
X0366400Y0231800D01*
X0366800Y0231800D02*
X0366800Y0238400D01*
X0366931Y0238400D01*
X0367584Y0238297D01*
X0368212Y0238092D01*
X0368801Y0237792D01*
X0369336Y0237404D01*
X0369804Y0236936D01*
X0370192Y0236401D01*
X0370492Y0235812D01*
X0370697Y0235184D01*
X0370800Y0234531D01*
X0370800Y0231800D01*
X0366800Y0231800D01*
X0366800Y0231714D02*
X0390701Y0231714D01*
X0390701Y0230516D02*
X0370800Y0230516D01*
X0370800Y0231400D02*
X0366800Y0231400D01*
X0366800Y0224800D01*
X0366931Y0224800D01*
X0367584Y0224903D01*
X0368212Y0225108D01*
X0368801Y0225408D01*
X0369336Y0225796D01*
X0369804Y0226264D01*
X0370192Y0226799D01*
X0370492Y0227388D01*
X0370697Y0228016D01*
X0370800Y0228669D01*
X0370800Y0231400D01*
X0370800Y0232913D02*
X0390701Y0232913D01*
X0390701Y0234111D02*
X0370800Y0234111D01*
X0370656Y0235310D02*
X0390701Y0235310D01*
X0390701Y0236508D02*
X0370114Y0236508D01*
X0368919Y0237707D02*
X0390701Y0237707D01*
X0390701Y0229317D02*
X0370800Y0229317D01*
X0370713Y0228119D02*
X0390701Y0228119D01*
X0390701Y0226920D02*
X0370254Y0226920D01*
X0369233Y0225722D02*
X0390701Y0225722D01*
X0390701Y0224523D02*
X0357998Y0224523D01*
X0359197Y0223325D02*
X0390701Y0223325D01*
X0390701Y0222126D02*
X0360395Y0222126D01*
X0361594Y0220928D02*
X0390701Y0220928D01*
X0390701Y0219729D02*
X0362792Y0219729D01*
X0363991Y0218531D02*
X0390701Y0218531D01*
X0390701Y0217332D02*
X0364600Y0217332D01*
X0364600Y0216134D02*
X0390701Y0216134D01*
X0390701Y0214935D02*
X0364600Y0214935D01*
X0364600Y0213737D02*
X0390701Y0213737D01*
X0390701Y0212538D02*
X0364600Y0212538D01*
X0364600Y0211339D02*
X0390701Y0211339D01*
X0390701Y0210141D02*
X0364600Y0210141D01*
X0364600Y0208942D02*
X0390701Y0208942D01*
X0390701Y0207744D02*
X0364600Y0207744D01*
X0364600Y0206545D02*
X0390701Y0206545D01*
X0390701Y0205347D02*
X0364600Y0205347D01*
X0364600Y0204148D02*
X0390701Y0204148D01*
X0390701Y0202950D02*
X0364600Y0202950D01*
X0364600Y0201751D02*
X0390701Y0201751D01*
X0390701Y0200553D02*
X0364600Y0200553D01*
X0364600Y0199354D02*
X0390701Y0199354D01*
X0390701Y0198156D02*
X0364600Y0198156D01*
X0364600Y0196957D02*
X0390701Y0196957D01*
X0390701Y0195759D02*
X0364600Y0195759D01*
X0364600Y0194560D02*
X0390701Y0194560D01*
X0390701Y0193362D02*
X0364600Y0193362D01*
X0364600Y0192163D02*
X0390701Y0192163D01*
X0390701Y0190965D02*
X0364600Y0190965D01*
X0364600Y0189766D02*
X0390701Y0189766D01*
X0390701Y0188568D02*
X0364600Y0188568D01*
X0364600Y0187369D02*
X0390701Y0187369D01*
X0390701Y0186171D02*
X0364600Y0186171D01*
X0364600Y0184972D02*
X0390701Y0184972D01*
X0390701Y0183774D02*
X0364600Y0183774D01*
X0364600Y0182575D02*
X0390701Y0182575D01*
X0390701Y0181377D02*
X0364600Y0181377D01*
X0364600Y0180178D02*
X0390701Y0180178D01*
X0390701Y0178980D02*
X0364600Y0178980D01*
X0364600Y0177781D02*
X0390701Y0177781D01*
X0390701Y0176583D02*
X0364600Y0176583D01*
X0364600Y0175384D02*
X0390701Y0175384D01*
X0390701Y0174186D02*
X0364600Y0174186D01*
X0364600Y0172987D02*
X0390701Y0172987D01*
X0390701Y0171789D02*
X0364600Y0171789D01*
X0364600Y0170590D02*
X0390701Y0170590D01*
X0390701Y0169392D02*
X0364600Y0169392D01*
X0364600Y0168193D02*
X0390701Y0168193D01*
X0390701Y0166995D02*
X0364600Y0166995D01*
X0364600Y0165796D02*
X0390701Y0165796D01*
X0390701Y0164598D02*
X0364600Y0164598D01*
X0364600Y0163399D02*
X0390701Y0163399D01*
X0390701Y0162201D02*
X0365002Y0162201D01*
X0365720Y0161002D02*
X0377262Y0161002D01*
X0377523Y0161087D02*
X0376834Y0160863D01*
X0376189Y0160534D01*
X0375603Y0160109D01*
X0375091Y0159597D01*
X0374666Y0159011D01*
X0374337Y0158366D01*
X0374113Y0157677D01*
X0374006Y0157000D01*
X0381200Y0157000D01*
X0381200Y0161200D01*
X0378238Y0161200D01*
X0377523Y0161087D01*
X0375298Y0159803D02*
X0365789Y0159803D01*
X0365208Y0158605D02*
X0374459Y0158605D01*
X0374070Y0157406D02*
X0320472Y0157406D01*
X0319273Y0156208D02*
X0381200Y0156208D01*
X0381200Y0156200D02*
X0374006Y0156200D01*
X0374113Y0155523D01*
X0374337Y0154834D01*
X0374666Y0154189D01*
X0375091Y0153603D01*
X0375603Y0153091D01*
X0376189Y0152666D01*
X0376834Y0152337D01*
X0377523Y0152113D01*
X0378238Y0152000D01*
X0381200Y0152000D01*
X0381200Y0156200D01*
X0382000Y0156200D01*
X0382000Y0157000D01*
X0381200Y0157000D01*
X0381200Y0156200D01*
X0382000Y0156200D02*
X0382000Y0152000D01*
X0384962Y0152000D01*
X0385677Y0152113D01*
X0386366Y0152337D01*
X0387011Y0152666D01*
X0387597Y0153091D01*
X0388109Y0153603D01*
X0388534Y0154189D01*
X0388863Y0154834D01*
X0389087Y0155523D01*
X0389194Y0156200D01*
X0382000Y0156200D01*
X0382000Y0156208D02*
X0390701Y0156208D01*
X0390701Y0157406D02*
X0389130Y0157406D01*
X0389087Y0157677D02*
X0388863Y0158366D01*
X0388534Y0159011D01*
X0388109Y0159597D01*
X0387597Y0160109D01*
X0387011Y0160534D01*
X0386366Y0160863D01*
X0385677Y0161087D01*
X0384962Y0161200D01*
X0382000Y0161200D01*
X0382000Y0157000D01*
X0389194Y0157000D01*
X0389087Y0157677D01*
X0388741Y0158605D02*
X0390701Y0158605D01*
X0390701Y0159803D02*
X0387902Y0159803D01*
X0385938Y0161002D02*
X0390701Y0161002D01*
X0390701Y0155009D02*
X0388920Y0155009D01*
X0388260Y0153811D02*
X0390701Y0153811D01*
X0390701Y0152612D02*
X0386906Y0152612D01*
X0386847Y0150215D02*
X0390701Y0150215D01*
X0390701Y0149017D02*
X0388123Y0149017D01*
X0388641Y0147818D02*
X0390701Y0147818D01*
X0390701Y0146620D02*
X0388800Y0146620D01*
X0388658Y0145421D02*
X0390701Y0145421D01*
X0390701Y0144223D02*
X0388161Y0144223D01*
X0386943Y0143024D02*
X0390701Y0143024D01*
X0390701Y0141826D02*
X0384000Y0141826D01*
X0384000Y0140627D02*
X0390701Y0140627D01*
X0390701Y0139429D02*
X0384000Y0139429D01*
X0384000Y0138230D02*
X0390701Y0138230D01*
X0390701Y0137032D02*
X0384000Y0137032D01*
X0384000Y0135833D02*
X0390701Y0135833D01*
X0390701Y0134635D02*
X0384000Y0134635D01*
X0384000Y0133436D02*
X0390701Y0133436D01*
X0390701Y0132238D02*
X0384000Y0132238D01*
X0384000Y0131039D02*
X0390701Y0131039D01*
X0390701Y0129841D02*
X0384000Y0129841D01*
X0384000Y0128642D02*
X0390701Y0128642D01*
X0390701Y0127444D02*
X0384000Y0127444D01*
X0384000Y0126245D02*
X0390701Y0126245D01*
X0390701Y0125047D02*
X0384000Y0125047D01*
X0384000Y0123848D02*
X0390701Y0123848D01*
X0390701Y0122650D02*
X0384000Y0122650D01*
X0384000Y0121451D02*
X0390701Y0121451D01*
X0390701Y0120253D02*
X0384000Y0120253D01*
X0384000Y0119054D02*
X0390701Y0119054D01*
X0390701Y0117856D02*
X0384000Y0117856D01*
X0384000Y0116657D02*
X0390701Y0116657D01*
X0390701Y0115459D02*
X0384000Y0115459D01*
X0384000Y0114260D02*
X0390701Y0114260D01*
X0390701Y0113062D02*
X0384000Y0113062D01*
X0384000Y0111863D02*
X0390701Y0111863D01*
X0390701Y0110665D02*
X0384000Y0110665D01*
X0384000Y0109466D02*
X0390701Y0109466D01*
X0390701Y0108268D02*
X0384000Y0108268D01*
X0384000Y0107069D02*
X0390701Y0107069D01*
X0390701Y0105870D02*
X0384000Y0105870D01*
X0386502Y0104672D02*
X0390701Y0104672D01*
X0390701Y0103473D02*
X0387537Y0103473D01*
X0388000Y0102275D02*
X0390701Y0102275D01*
X0390701Y0101076D02*
X0388000Y0101076D01*
X0387600Y0099878D02*
X0390701Y0099878D01*
X0390701Y0098679D02*
X0386653Y0098679D01*
X0390701Y0097481D02*
X0360875Y0097481D01*
X0362074Y0098679D02*
X0376547Y0098679D01*
X0376698Y0104672D02*
X0346502Y0104672D01*
X0347537Y0103473D02*
X0360079Y0103473D01*
X0358881Y0102275D02*
X0348000Y0102275D01*
X0348000Y0101076D02*
X0357682Y0101076D01*
X0356484Y0099878D02*
X0347600Y0099878D01*
X0344956Y0107800D02*
X0346353Y0108379D01*
X0347421Y0109447D01*
X0348000Y0110844D01*
X0348000Y0112356D01*
X0347421Y0113753D01*
X0346353Y0114821D01*
X0344956Y0115400D01*
X0338244Y0115400D01*
X0336847Y0114821D01*
X0335779Y0113753D01*
X0335200Y0112356D01*
X0335200Y0110844D01*
X0335779Y0109447D01*
X0336847Y0108379D01*
X0338244Y0107800D01*
X0344956Y0107800D01*
X0346085Y0108268D02*
X0379200Y0108268D01*
X0379200Y0109466D02*
X0347429Y0109466D01*
X0347926Y0110665D02*
X0379200Y0110665D01*
X0379200Y0111863D02*
X0348000Y0111863D01*
X0347708Y0113062D02*
X0379200Y0113062D01*
X0379200Y0114260D02*
X0346914Y0114260D01*
X0345090Y0117856D02*
X0379200Y0117856D01*
X0379200Y0119054D02*
X0347028Y0119054D01*
X0347421Y0119447D02*
X0348000Y0120844D01*
X0348000Y0122356D01*
X0347421Y0123753D01*
X0346353Y0124821D01*
X0344956Y0125400D01*
X0338244Y0125400D01*
X0336847Y0124821D01*
X0335779Y0123753D01*
X0335200Y0122356D01*
X0335200Y0120844D01*
X0335779Y0119447D01*
X0336847Y0118379D01*
X0338244Y0117800D01*
X0344956Y0117800D01*
X0346353Y0118379D01*
X0347421Y0119447D01*
X0347755Y0120253D02*
X0379200Y0120253D01*
X0379200Y0121451D02*
X0348000Y0121451D01*
X0347878Y0122650D02*
X0379200Y0122650D01*
X0379200Y0123848D02*
X0347326Y0123848D01*
X0345809Y0125047D02*
X0379200Y0125047D01*
X0379200Y0126245D02*
X0293400Y0126245D01*
X0293400Y0125047D02*
X0337391Y0125047D01*
X0335874Y0123848D02*
X0293400Y0123848D01*
X0293400Y0122650D02*
X0335322Y0122650D01*
X0335200Y0121451D02*
X0293400Y0121451D01*
X0293400Y0120253D02*
X0335445Y0120253D01*
X0336172Y0119054D02*
X0293400Y0119054D01*
X0293400Y0117856D02*
X0338110Y0117856D01*
X0336286Y0114260D02*
X0291806Y0114260D01*
X0293004Y0115459D02*
X0379200Y0115459D01*
X0379200Y0116657D02*
X0293400Y0116657D01*
X0291600Y0116600D02*
X0286600Y0111600D01*
X0281600Y0111600D01*
X0286085Y0108268D02*
X0307400Y0108268D01*
X0307400Y0108340D02*
X0307400Y0106800D01*
X0311400Y0106800D01*
X0311400Y0110800D01*
X0309860Y0110800D01*
X0307400Y0108340D01*
X0307400Y0107069D02*
X0281390Y0107069D01*
X0280192Y0105870D02*
X0307400Y0105870D01*
X0307400Y0106400D02*
X0307400Y0104860D01*
X0309860Y0102400D01*
X0311400Y0102400D01*
X0311400Y0106400D01*
X0307400Y0106400D01*
X0307588Y0104672D02*
X0286502Y0104672D01*
X0287537Y0103473D02*
X0308787Y0103473D01*
X0311400Y0103473D02*
X0311800Y0103473D01*
X0311800Y0102400D02*
X0313340Y0102400D01*
X0315800Y0104860D01*
X0315800Y0106400D01*
X0311800Y0106400D01*
X0311800Y0106800D01*
X0311400Y0106800D01*
X0311400Y0106400D01*
X0311800Y0106400D01*
X0311800Y0102400D01*
X0311800Y0104672D02*
X0311400Y0104672D01*
X0311400Y0105870D02*
X0311800Y0105870D01*
X0311800Y0106800D02*
X0315800Y0106800D01*
X0315800Y0108340D01*
X0313340Y0110800D01*
X0311800Y0110800D01*
X0311800Y0106800D01*
X0311800Y0107069D02*
X0311400Y0107069D01*
X0311400Y0108268D02*
X0311800Y0108268D01*
X0311800Y0109466D02*
X0311400Y0109466D01*
X0311400Y0110665D02*
X0311800Y0110665D01*
X0313475Y0110665D02*
X0335274Y0110665D01*
X0335200Y0111863D02*
X0289409Y0111863D01*
X0290607Y0113062D02*
X0335492Y0113062D01*
X0335771Y0109466D02*
X0314674Y0109466D01*
X0315800Y0108268D02*
X0337115Y0108268D01*
X0336698Y0104672D02*
X0315612Y0104672D01*
X0315800Y0105870D02*
X0379200Y0105870D01*
X0379200Y0107069D02*
X0315800Y0107069D01*
X0314413Y0103473D02*
X0335663Y0103473D01*
X0335200Y0102275D02*
X0288000Y0102275D01*
X0288000Y0101076D02*
X0335200Y0101076D01*
X0335600Y0099878D02*
X0313696Y0099878D01*
X0309504Y0099878D02*
X0287600Y0099878D01*
X0286653Y0098679D02*
X0308305Y0098679D01*
X0307800Y0097481D02*
X0277000Y0097481D01*
X0277000Y0096282D02*
X0307800Y0096282D01*
X0306690Y0095084D02*
X0285719Y0095084D01*
X0287065Y0089091D02*
X0336135Y0089091D01*
X0335430Y0090290D02*
X0308684Y0090290D01*
X0309882Y0091488D02*
X0335200Y0091488D01*
X0335337Y0092687D02*
X0311081Y0092687D01*
X0314259Y0093885D02*
X0335911Y0093885D01*
X0338020Y0087893D02*
X0285180Y0087893D01*
X0286877Y0084297D02*
X0336323Y0084297D01*
X0335508Y0083099D02*
X0287692Y0083099D01*
X0288000Y0081900D02*
X0335200Y0081900D01*
X0335259Y0080702D02*
X0287941Y0080702D01*
X0287445Y0079503D02*
X0335755Y0079503D01*
X0337026Y0078305D02*
X0286174Y0078305D01*
X0286465Y0074709D02*
X0336735Y0074709D01*
X0336847Y0074821D02*
X0335779Y0073753D01*
X0335200Y0072356D01*
X0335200Y0070844D01*
X0335779Y0069447D01*
X0336847Y0068379D01*
X0338244Y0067800D01*
X0344956Y0067800D01*
X0346353Y0068379D01*
X0347421Y0069447D01*
X0348000Y0070844D01*
X0348000Y0072356D01*
X0347421Y0073753D01*
X0346353Y0074821D01*
X0344956Y0075400D01*
X0338244Y0075400D01*
X0336847Y0074821D01*
X0335678Y0073511D02*
X0287522Y0073511D01*
X0288000Y0072312D02*
X0335200Y0072312D01*
X0335200Y0071114D02*
X0288000Y0071114D01*
X0287615Y0069915D02*
X0335585Y0069915D01*
X0336509Y0068717D02*
X0286691Y0068717D01*
X0285629Y0065121D02*
X0334602Y0065121D01*
X0335800Y0066320D02*
X0273400Y0066320D01*
X0273400Y0067518D02*
X0374973Y0067518D01*
X0376171Y0068717D02*
X0346691Y0068717D01*
X0347615Y0069915D02*
X0375585Y0069915D01*
X0375200Y0071114D02*
X0348000Y0071114D01*
X0348000Y0072312D02*
X0375200Y0072312D01*
X0375678Y0073511D02*
X0347522Y0073511D01*
X0346465Y0074709D02*
X0376735Y0074709D01*
X0378244Y0077800D02*
X0384956Y0077800D01*
X0386353Y0078379D01*
X0387421Y0079447D01*
X0388000Y0080844D01*
X0388000Y0082356D01*
X0387421Y0083753D01*
X0386353Y0084821D01*
X0384956Y0085400D01*
X0378244Y0085400D01*
X0376847Y0084821D01*
X0375779Y0083753D01*
X0375200Y0082356D01*
X0375200Y0080844D01*
X0375779Y0079447D01*
X0376847Y0078379D01*
X0378244Y0077800D01*
X0377026Y0078305D02*
X0346174Y0078305D01*
X0347445Y0079503D02*
X0375755Y0079503D01*
X0375259Y0080702D02*
X0347941Y0080702D01*
X0348000Y0081900D02*
X0375200Y0081900D01*
X0375508Y0083099D02*
X0347692Y0083099D01*
X0347691Y0084297D02*
X0376323Y0084297D01*
X0378020Y0087893D02*
X0351287Y0087893D01*
X0352485Y0089091D02*
X0376135Y0089091D01*
X0375779Y0089447D02*
X0376847Y0088379D01*
X0378244Y0087800D01*
X0384956Y0087800D01*
X0386353Y0088379D01*
X0387421Y0089447D01*
X0388000Y0090844D01*
X0388000Y0092356D01*
X0387421Y0093753D01*
X0386353Y0094821D01*
X0384956Y0095400D01*
X0378244Y0095400D01*
X0376847Y0094821D01*
X0375779Y0093753D01*
X0375200Y0092356D01*
X0375200Y0090844D01*
X0375779Y0089447D01*
X0375430Y0090290D02*
X0353684Y0090290D01*
X0354882Y0091488D02*
X0375200Y0091488D01*
X0375337Y0092687D02*
X0356081Y0092687D01*
X0357279Y0093885D02*
X0375911Y0093885D01*
X0377481Y0095084D02*
X0358478Y0095084D01*
X0359676Y0096282D02*
X0390701Y0096282D01*
X0390701Y0095084D02*
X0385719Y0095084D01*
X0387289Y0093885D02*
X0390701Y0093885D01*
X0390701Y0092687D02*
X0387863Y0092687D01*
X0388000Y0091488D02*
X0390701Y0091488D01*
X0390701Y0090290D02*
X0387770Y0090290D01*
X0387065Y0089091D02*
X0390701Y0089091D01*
X0390701Y0087893D02*
X0385180Y0087893D01*
X0386877Y0084297D02*
X0390701Y0084297D01*
X0390701Y0083099D02*
X0387692Y0083099D01*
X0388000Y0081900D02*
X0390701Y0081900D01*
X0390701Y0080702D02*
X0387941Y0080702D01*
X0387445Y0079503D02*
X0390701Y0079503D01*
X0390701Y0078305D02*
X0386174Y0078305D01*
X0386465Y0074709D02*
X0390701Y0074709D01*
X0390701Y0073511D02*
X0387522Y0073511D01*
X0388000Y0072312D02*
X0390701Y0072312D01*
X0390701Y0071114D02*
X0388000Y0071114D01*
X0387615Y0069915D02*
X0390701Y0069915D01*
X0390701Y0068717D02*
X0386691Y0068717D01*
X0385629Y0065121D02*
X0390701Y0065121D01*
X0390701Y0063923D02*
X0387251Y0063923D01*
X0387847Y0062724D02*
X0390701Y0062724D01*
X0390701Y0061526D02*
X0388000Y0061526D01*
X0387786Y0060327D02*
X0390701Y0060327D01*
X0390701Y0059129D02*
X0387103Y0059129D01*
X0385270Y0057930D02*
X0390701Y0057930D01*
X0390701Y0056732D02*
X0379277Y0056732D01*
X0378079Y0055533D02*
X0390701Y0055533D01*
X0390701Y0054334D02*
X0386839Y0054334D01*
X0387677Y0053136D02*
X0390701Y0053136D01*
X0390701Y0051937D02*
X0388000Y0051937D01*
X0387956Y0050739D02*
X0390701Y0050739D01*
X0390701Y0049540D02*
X0387460Y0049540D01*
X0386264Y0048342D02*
X0390701Y0048342D01*
X0390701Y0047143D02*
X0269165Y0047143D01*
X0267966Y0045945D02*
X0390701Y0045945D01*
X0390701Y0044746D02*
X0386428Y0044746D01*
X0386353Y0044821D02*
X0384956Y0045400D01*
X0378244Y0045400D01*
X0376847Y0044821D01*
X0375779Y0043753D01*
X0375632Y0043400D01*
X0347567Y0043400D01*
X0347421Y0043753D01*
X0346353Y0044821D01*
X0344956Y0045400D01*
X0338244Y0045400D01*
X0336847Y0044821D01*
X0335779Y0043753D01*
X0335200Y0042356D01*
X0335200Y0040844D01*
X0335779Y0039447D01*
X0336847Y0038379D01*
X0338244Y0037800D01*
X0344956Y0037800D01*
X0346353Y0038379D01*
X0347421Y0039447D01*
X0347567Y0039800D01*
X0375632Y0039800D01*
X0375779Y0039447D01*
X0376847Y0038379D01*
X0378244Y0037800D01*
X0384956Y0037800D01*
X0386353Y0038379D01*
X0387421Y0039447D01*
X0388000Y0040844D01*
X0388000Y0042356D01*
X0387421Y0043753D01*
X0386353Y0044821D01*
X0387506Y0043548D02*
X0390701Y0043548D01*
X0390701Y0042349D02*
X0388000Y0042349D01*
X0388000Y0041151D02*
X0390701Y0041151D01*
X0390701Y0039952D02*
X0387631Y0039952D01*
X0386728Y0038754D02*
X0390701Y0038754D01*
X0390701Y0037555D02*
X0256515Y0037555D01*
X0257366Y0038406D02*
X0255400Y0036440D01*
X0255400Y0035026D01*
X0253174Y0032800D01*
X0250026Y0032800D01*
X0247800Y0035026D01*
X0247800Y0038174D01*
X0250026Y0040400D01*
X0251440Y0040400D01*
X0254620Y0043580D01*
X0255649Y0044006D01*
X0265039Y0044006D01*
X0265967Y0044391D01*
X0267233Y0044391D01*
X0268161Y0044006D01*
X0276032Y0044006D01*
X0276847Y0044821D01*
X0278244Y0045400D01*
X0284956Y0045400D01*
X0286353Y0044821D01*
X0287421Y0043753D01*
X0288000Y0042356D01*
X0288000Y0040844D01*
X0287421Y0039447D01*
X0286353Y0038379D01*
X0284956Y0037800D01*
X0278244Y0037800D01*
X0276847Y0038379D01*
X0276820Y0038406D01*
X0268161Y0038406D01*
X0267233Y0038022D01*
X0265967Y0038022D01*
X0265039Y0038406D01*
X0257366Y0038406D01*
X0255400Y0036357D02*
X0390701Y0036357D01*
X0390701Y0035158D02*
X0385539Y0035158D01*
X0384956Y0035400D02*
X0378244Y0035400D01*
X0376847Y0034821D01*
X0375779Y0033753D01*
X0375632Y0033400D01*
X0347567Y0033400D01*
X0347421Y0033753D01*
X0346353Y0034821D01*
X0344956Y0035400D01*
X0338244Y0035400D01*
X0336847Y0034821D01*
X0335779Y0033753D01*
X0335200Y0032356D01*
X0335200Y0030844D01*
X0335779Y0029447D01*
X0336847Y0028379D01*
X0338244Y0027800D01*
X0344956Y0027800D01*
X0346353Y0028379D01*
X0347421Y0029447D01*
X0347567Y0029800D01*
X0375632Y0029800D01*
X0375779Y0029447D01*
X0376847Y0028379D01*
X0378244Y0027800D01*
X0384956Y0027800D01*
X0386353Y0028379D01*
X0387421Y0029447D01*
X0388000Y0030844D01*
X0388000Y0032356D01*
X0387421Y0033753D01*
X0386353Y0034821D01*
X0384956Y0035400D01*
X0387214Y0033960D02*
X0390701Y0033960D01*
X0390701Y0032761D02*
X0387832Y0032761D01*
X0388000Y0031563D02*
X0390701Y0031563D01*
X0390701Y0030364D02*
X0387801Y0030364D01*
X0387140Y0029166D02*
X0390701Y0029166D01*
X0390701Y0027967D02*
X0385360Y0027967D01*
X0386802Y0024372D02*
X0390701Y0024372D01*
X0390701Y0025570D02*
X0348149Y0025570D01*
X0346951Y0026769D02*
X0390701Y0026769D01*
X0390701Y0023173D02*
X0387661Y0023173D01*
X0388000Y0021975D02*
X0390701Y0021975D01*
X0390701Y0020776D02*
X0387972Y0020776D01*
X0387475Y0019578D02*
X0390701Y0019578D01*
X0390701Y0015982D02*
X0006200Y0015982D01*
X0006200Y0035158D02*
X0006219Y0035158D01*
X0006200Y0036357D02*
X0142503Y0036357D01*
X0145100Y0035600D02*
X0145300Y0035800D01*
X0145300Y0048700D01*
X0142738Y0049540D02*
X0110423Y0049540D01*
X0109688Y0048342D02*
X0142611Y0048342D01*
X0143054Y0047143D02*
X0108954Y0047143D01*
X0108219Y0045945D02*
X0143500Y0045945D01*
X0143500Y0044746D02*
X0107574Y0044746D01*
X0104766Y0047200D02*
X0098434Y0047200D01*
X0098273Y0047463D01*
X0098669Y0047400D01*
X0101400Y0047400D01*
X0101400Y0051400D01*
X0101800Y0051400D01*
X0107340Y0051400D01*
X0107585Y0051800D01*
X0101800Y0051800D01*
X0101800Y0051400D01*
X0101800Y0047400D01*
X0104531Y0047400D01*
X0104927Y0047463D01*
X0104766Y0047200D01*
X0101800Y0048342D02*
X0101400Y0048342D01*
X0101400Y0049540D02*
X0101800Y0049540D01*
X0101800Y0050739D02*
X0101400Y0050739D01*
X0101400Y0051937D02*
X0101800Y0051937D01*
X0101800Y0053136D02*
X0101400Y0053136D01*
X0101400Y0054334D02*
X0101800Y0054334D01*
X0101800Y0055533D02*
X0101400Y0055533D01*
X0105687Y0055533D02*
X0177513Y0055533D01*
X0175795Y0054334D02*
X0166839Y0054334D01*
X0169351Y0056732D02*
X0153849Y0056732D01*
X0155047Y0057930D02*
X0157930Y0057930D01*
X0156360Y0054334D02*
X0107405Y0054334D01*
X0108117Y0053136D02*
X0108404Y0053136D01*
X0101600Y0061600D02*
X0153626Y0061600D01*
X0157426Y0065400D01*
X0165774Y0065400D01*
X0169574Y0061600D01*
X0181600Y0061600D01*
X0181400Y0055533D02*
X0181800Y0055533D01*
X0181800Y0054334D02*
X0181400Y0054334D01*
X0181400Y0053136D02*
X0181800Y0053136D01*
X0181800Y0051937D02*
X0181400Y0051937D01*
X0181400Y0051800D02*
X0175972Y0051800D01*
X0176372Y0051400D01*
X0181400Y0051400D01*
X0181400Y0051800D01*
X0185687Y0055533D02*
X0257987Y0055533D01*
X0256789Y0054334D02*
X0246839Y0054334D01*
X0245270Y0057930D02*
X0260384Y0057930D01*
X0259186Y0056732D02*
X0187251Y0056732D01*
X0188450Y0057930D02*
X0237930Y0057930D01*
X0236097Y0059129D02*
X0189648Y0059129D01*
X0187405Y0054334D02*
X0236360Y0054334D01*
X0235740Y0049540D02*
X0190060Y0049540D01*
X0188862Y0048342D02*
X0236936Y0048342D01*
X0246264Y0048342D02*
X0266121Y0048342D01*
X0267319Y0049540D02*
X0247460Y0049540D01*
X0254588Y0043548D02*
X0147100Y0043548D01*
X0147100Y0044746D02*
X0276772Y0044746D01*
X0276936Y0048342D02*
X0270363Y0048342D01*
X0271562Y0049540D02*
X0275740Y0049540D01*
X0275244Y0050739D02*
X0272760Y0050739D01*
X0273959Y0051937D02*
X0275200Y0051937D01*
X0275157Y0053136D02*
X0275523Y0053136D01*
X0276356Y0054334D02*
X0276360Y0054334D01*
X0277554Y0055533D02*
X0335013Y0055533D01*
X0333815Y0054334D02*
X0286839Y0054334D01*
X0285270Y0057930D02*
X0337930Y0057930D01*
X0336212Y0056732D02*
X0278753Y0056732D01*
X0275709Y0057930D02*
X0265476Y0057930D01*
X0266674Y0059129D02*
X0276097Y0059129D01*
X0275414Y0060327D02*
X0267873Y0060327D01*
X0269071Y0061526D02*
X0275200Y0061526D01*
X0275353Y0062724D02*
X0270270Y0062724D01*
X0271468Y0063923D02*
X0275949Y0063923D01*
X0277571Y0065121D02*
X0272667Y0065121D01*
X0273400Y0068717D02*
X0276509Y0068717D01*
X0269800Y0068717D02*
X0266262Y0068717D01*
X0267461Y0069915D02*
X0269800Y0069915D01*
X0269800Y0071114D02*
X0268659Y0071114D01*
X0269800Y0067518D02*
X0265064Y0067518D01*
X0263865Y0066320D02*
X0268774Y0066320D01*
X0267576Y0065121D02*
X0262667Y0065121D01*
X0261468Y0063923D02*
X0266377Y0063923D01*
X0265178Y0062724D02*
X0260270Y0062724D01*
X0259071Y0061526D02*
X0263980Y0061526D01*
X0262781Y0060327D02*
X0257873Y0060327D01*
X0261583Y0059129D02*
X0247103Y0059129D01*
X0258285Y0050739D02*
X0268518Y0050739D01*
X0269716Y0051937D02*
X0259483Y0051937D01*
X0260682Y0053136D02*
X0270915Y0053136D01*
X0272113Y0054334D02*
X0261880Y0054334D01*
X0263079Y0055533D02*
X0273312Y0055533D01*
X0274510Y0056732D02*
X0264277Y0056732D01*
X0281600Y0061600D02*
X0333626Y0061600D01*
X0337426Y0065400D01*
X0345774Y0065400D01*
X0349574Y0061600D01*
X0371600Y0061600D01*
X0381600Y0071600D01*
X0380064Y0067518D02*
X0390701Y0067518D01*
X0390701Y0066320D02*
X0378865Y0066320D01*
X0375353Y0062724D02*
X0375270Y0062724D01*
X0375200Y0061526D02*
X0374071Y0061526D01*
X0372873Y0060327D02*
X0375414Y0060327D01*
X0376097Y0059129D02*
X0347103Y0059129D01*
X0347786Y0060327D02*
X0348301Y0060327D01*
X0345270Y0057930D02*
X0375384Y0057930D01*
X0375400Y0055400D02*
X0337426Y0055400D01*
X0333626Y0051600D01*
X0281600Y0051600D01*
X0286264Y0048342D02*
X0336936Y0048342D01*
X0335740Y0049540D02*
X0287460Y0049540D01*
X0286428Y0044746D02*
X0336772Y0044746D01*
X0335694Y0043548D02*
X0287506Y0043548D01*
X0288000Y0042349D02*
X0335200Y0042349D01*
X0335200Y0041151D02*
X0288000Y0041151D01*
X0287631Y0039952D02*
X0335569Y0039952D01*
X0336472Y0038754D02*
X0286728Y0038754D01*
X0285539Y0035158D02*
X0337661Y0035158D01*
X0335986Y0033960D02*
X0287214Y0033960D01*
X0287832Y0032761D02*
X0335368Y0032761D01*
X0335200Y0031563D02*
X0288000Y0031563D01*
X0287801Y0030364D02*
X0335399Y0030364D01*
X0336060Y0029166D02*
X0287140Y0029166D01*
X0285360Y0027967D02*
X0337840Y0027967D01*
X0335263Y0026769D02*
X0275335Y0026769D01*
X0276533Y0027967D02*
X0277840Y0027967D01*
X0276398Y0024372D02*
X0272938Y0024372D01*
X0274136Y0025570D02*
X0334065Y0025570D01*
X0332866Y0024372D02*
X0286802Y0024372D01*
X0287567Y0019800D02*
X0333386Y0019800D01*
X0334808Y0021222D01*
X0334903Y0020616D01*
X0335108Y0019988D01*
X0335408Y0019399D01*
X0335796Y0018864D01*
X0336264Y0018396D01*
X0336799Y0018008D01*
X0337388Y0017708D01*
X0338016Y0017503D01*
X0338669Y0017400D01*
X0341400Y0017400D01*
X0341400Y0021400D01*
X0341800Y0021400D01*
X0341800Y0017400D01*
X0344531Y0017400D01*
X0345184Y0017503D01*
X0345812Y0017708D01*
X0346401Y0018008D01*
X0346936Y0018396D01*
X0347404Y0018864D01*
X0347792Y0019399D01*
X0348092Y0019988D01*
X0348227Y0020402D01*
X0348828Y0019800D01*
X0375632Y0019800D01*
X0375779Y0019447D01*
X0376847Y0018379D01*
X0346912Y0018379D01*
X0347883Y0019578D02*
X0375725Y0019578D01*
X0376847Y0018379D02*
X0378244Y0017800D01*
X0384956Y0017800D01*
X0386353Y0018379D01*
X0381600Y0021600D02*
X0349574Y0021600D01*
X0345774Y0025400D01*
X0336440Y0025400D01*
X0332640Y0021600D01*
X0281600Y0021600D01*
X0278244Y0017800D02*
X0284956Y0017800D01*
X0286353Y0018379D01*
X0336288Y0018379D01*
X0335317Y0019578D02*
X0287475Y0019578D01*
X0287421Y0019447D02*
X0287567Y0019800D01*
X0287421Y0019447D02*
X0286353Y0018379D01*
X0278244Y0017800D02*
X0276847Y0018379D01*
X0275725Y0019578D02*
X0268687Y0019578D01*
X0269542Y0020776D02*
X0275228Y0020776D01*
X0275200Y0021975D02*
X0270541Y0021975D01*
X0271739Y0023173D02*
X0275539Y0023173D01*
X0273408Y0032761D02*
X0243701Y0032761D01*
X0243340Y0032400D02*
X0245800Y0034860D01*
X0245800Y0036400D01*
X0241800Y0036400D01*
X0241800Y0032400D01*
X0243340Y0032400D01*
X0241800Y0032761D02*
X0241400Y0032761D01*
X0241400Y0033960D02*
X0241800Y0033960D01*
X0241800Y0035158D02*
X0241400Y0035158D01*
X0241400Y0036357D02*
X0241800Y0036357D01*
X0241800Y0037555D02*
X0241400Y0037555D01*
X0241400Y0038754D02*
X0241800Y0038754D01*
X0241800Y0039952D02*
X0241400Y0039952D01*
X0239013Y0039952D02*
X0147100Y0039952D01*
X0147100Y0038754D02*
X0237814Y0038754D01*
X0237400Y0037555D02*
X0147100Y0037555D01*
X0147697Y0036357D02*
X0237400Y0036357D01*
X0237400Y0035158D02*
X0147789Y0035158D01*
X0147263Y0033960D02*
X0238300Y0033960D01*
X0244899Y0033960D02*
X0248866Y0033960D01*
X0247800Y0035158D02*
X0245800Y0035158D01*
X0245800Y0036357D02*
X0247800Y0036357D01*
X0247800Y0037555D02*
X0245800Y0037555D01*
X0245386Y0038754D02*
X0248380Y0038754D01*
X0249578Y0039952D02*
X0244187Y0039952D01*
X0252191Y0041151D02*
X0147100Y0041151D01*
X0147100Y0042349D02*
X0253390Y0042349D01*
X0255400Y0035158D02*
X0277661Y0035158D01*
X0274606Y0033960D02*
X0254334Y0033960D01*
X0287103Y0059129D02*
X0336097Y0059129D01*
X0335414Y0060327D02*
X0334899Y0060327D01*
X0333403Y0063923D02*
X0287251Y0063923D01*
X0278189Y0075908D02*
X0390701Y0075908D01*
X0390701Y0077106D02*
X0277828Y0077106D01*
X0277026Y0078305D02*
X0277000Y0078305D01*
X0277000Y0085496D02*
X0342102Y0085496D01*
X0343300Y0086694D02*
X0277000Y0086694D01*
X0277000Y0087893D02*
X0278020Y0087893D01*
X0277481Y0095084D02*
X0277000Y0095084D01*
X0287429Y0109466D02*
X0308526Y0109466D01*
X0309725Y0110665D02*
X0288210Y0110665D01*
X0291600Y0116600D02*
X0291600Y0131080D01*
X0330200Y0169680D01*
X0330200Y0215200D01*
X0346600Y0231600D01*
X0352006Y0230516D02*
X0352400Y0230516D01*
X0351359Y0226920D02*
X0349852Y0226920D01*
X0348615Y0225722D02*
X0352557Y0225722D01*
X0353756Y0224523D02*
X0342069Y0224523D01*
X0343267Y0225722D02*
X0344585Y0225722D01*
X0340870Y0223325D02*
X0354954Y0223325D01*
X0356153Y0222126D02*
X0339672Y0222126D01*
X0338473Y0220928D02*
X0357351Y0220928D01*
X0358550Y0219729D02*
X0337275Y0219729D01*
X0336076Y0218531D02*
X0359748Y0218531D01*
X0360947Y0217332D02*
X0334878Y0217332D01*
X0333679Y0216134D02*
X0361600Y0216134D01*
X0361600Y0214935D02*
X0346078Y0214935D01*
X0346353Y0214821D02*
X0344956Y0215400D01*
X0338244Y0215400D01*
X0336847Y0214821D01*
X0335779Y0213753D01*
X0335200Y0212356D01*
X0335200Y0210844D01*
X0335779Y0209447D01*
X0336847Y0208379D01*
X0338244Y0207800D01*
X0344956Y0207800D01*
X0346353Y0208379D01*
X0347421Y0209447D01*
X0348000Y0210844D01*
X0348000Y0212356D01*
X0347421Y0213753D01*
X0346353Y0214821D01*
X0347428Y0213737D02*
X0361600Y0213737D01*
X0361600Y0212538D02*
X0347925Y0212538D01*
X0348000Y0211339D02*
X0361600Y0211339D01*
X0361600Y0210141D02*
X0347709Y0210141D01*
X0346916Y0208942D02*
X0361600Y0208942D01*
X0361600Y0207744D02*
X0332000Y0207744D01*
X0332000Y0208942D02*
X0336284Y0208942D01*
X0335491Y0210141D02*
X0332000Y0210141D01*
X0332000Y0211339D02*
X0335200Y0211339D01*
X0335275Y0212538D02*
X0332000Y0212538D01*
X0332000Y0213737D02*
X0335772Y0213737D01*
X0337122Y0214935D02*
X0332481Y0214935D01*
X0328400Y0218400D02*
X0336600Y0226600D01*
X0336600Y0231600D01*
X0326600Y0231600D02*
X0326600Y0176600D01*
X0281600Y0131600D01*
X0281600Y0123626D02*
X0328400Y0170426D01*
X0328400Y0218400D01*
X0332000Y0206545D02*
X0361600Y0206545D01*
X0361600Y0205347D02*
X0345084Y0205347D01*
X0344956Y0205400D02*
X0338244Y0205400D01*
X0336847Y0204821D01*
X0335779Y0203753D01*
X0335200Y0202356D01*
X0335200Y0200844D01*
X0335779Y0199447D01*
X0336847Y0198379D01*
X0338244Y0197800D01*
X0344956Y0197800D01*
X0346353Y0198379D01*
X0347421Y0199447D01*
X0348000Y0200844D01*
X0348000Y0202356D01*
X0347421Y0203753D01*
X0346353Y0204821D01*
X0344956Y0205400D01*
X0347026Y0204148D02*
X0361600Y0204148D01*
X0361600Y0202950D02*
X0347754Y0202950D01*
X0348000Y0201751D02*
X0361600Y0201751D01*
X0361600Y0200553D02*
X0347879Y0200553D01*
X0347328Y0199354D02*
X0361600Y0199354D01*
X0361600Y0198156D02*
X0345815Y0198156D01*
X0344956Y0195400D02*
X0338244Y0195400D01*
X0336847Y0194821D01*
X0335779Y0193753D01*
X0335200Y0192356D01*
X0335200Y0190844D01*
X0335779Y0189447D01*
X0336847Y0188379D01*
X0338244Y0187800D01*
X0344956Y0187800D01*
X0346353Y0188379D01*
X0347421Y0189447D01*
X0348000Y0190844D01*
X0348000Y0192356D01*
X0347421Y0193753D01*
X0346353Y0194821D01*
X0344956Y0195400D01*
X0346614Y0194560D02*
X0361600Y0194560D01*
X0361600Y0193362D02*
X0347583Y0193362D01*
X0348000Y0192163D02*
X0361600Y0192163D01*
X0361600Y0190965D02*
X0348000Y0190965D01*
X0347554Y0189766D02*
X0361600Y0189766D01*
X0361600Y0188568D02*
X0346542Y0188568D01*
X0344956Y0185400D02*
X0338244Y0185400D01*
X0336847Y0184821D01*
X0335779Y0183753D01*
X0335200Y0182356D01*
X0335200Y0180844D01*
X0335779Y0179447D01*
X0336847Y0178379D01*
X0338244Y0177800D01*
X0344956Y0177800D01*
X0346353Y0178379D01*
X0347421Y0179447D01*
X0348000Y0180844D01*
X0348000Y0182356D01*
X0347421Y0183753D01*
X0346353Y0184821D01*
X0344956Y0185400D01*
X0345989Y0184972D02*
X0361600Y0184972D01*
X0361600Y0183774D02*
X0347400Y0183774D01*
X0347909Y0182575D02*
X0361600Y0182575D01*
X0361600Y0181377D02*
X0348000Y0181377D01*
X0347724Y0180178D02*
X0361600Y0180178D01*
X0361600Y0178980D02*
X0346954Y0178980D01*
X0344994Y0175384D02*
X0361600Y0175384D01*
X0361600Y0174186D02*
X0346988Y0174186D01*
X0347421Y0173753D02*
X0346353Y0174821D01*
X0344956Y0175400D01*
X0338244Y0175400D01*
X0336847Y0174821D01*
X0335779Y0173753D01*
X0335200Y0172356D01*
X0335200Y0170844D01*
X0335779Y0169447D01*
X0336847Y0168379D01*
X0338244Y0167800D01*
X0344956Y0167800D01*
X0346353Y0168379D01*
X0347421Y0169447D01*
X0348000Y0170844D01*
X0348000Y0172356D01*
X0347421Y0173753D01*
X0347739Y0172987D02*
X0361600Y0172987D01*
X0361600Y0171789D02*
X0348000Y0171789D01*
X0347895Y0170590D02*
X0361600Y0170590D01*
X0361600Y0169392D02*
X0347366Y0169392D01*
X0345905Y0168193D02*
X0361600Y0168193D01*
X0361600Y0166995D02*
X0330060Y0166995D01*
X0331258Y0168193D02*
X0337295Y0168193D01*
X0335834Y0169392D02*
X0332000Y0169392D01*
X0332000Y0170590D02*
X0335305Y0170590D01*
X0335200Y0171789D02*
X0332000Y0171789D01*
X0332000Y0172987D02*
X0335461Y0172987D01*
X0336212Y0174186D02*
X0332000Y0174186D01*
X0332000Y0175384D02*
X0338206Y0175384D01*
X0336246Y0178980D02*
X0332000Y0178980D01*
X0332000Y0180178D02*
X0335476Y0180178D01*
X0335200Y0181377D02*
X0332000Y0181377D01*
X0332000Y0182575D02*
X0335291Y0182575D01*
X0335800Y0183774D02*
X0332000Y0183774D01*
X0332000Y0184972D02*
X0337211Y0184972D01*
X0336658Y0188568D02*
X0332000Y0188568D01*
X0332000Y0189766D02*
X0335646Y0189766D01*
X0335200Y0190965D02*
X0332000Y0190965D01*
X0332000Y0192163D02*
X0335200Y0192163D01*
X0335617Y0193362D02*
X0332000Y0193362D01*
X0332000Y0194560D02*
X0336586Y0194560D01*
X0337385Y0198156D02*
X0332000Y0198156D01*
X0332000Y0199354D02*
X0335872Y0199354D01*
X0335321Y0200553D02*
X0332000Y0200553D01*
X0332000Y0201751D02*
X0335200Y0201751D01*
X0335446Y0202950D02*
X0332000Y0202950D01*
X0332000Y0204148D02*
X0336174Y0204148D01*
X0338116Y0205347D02*
X0332000Y0205347D01*
X0332000Y0196957D02*
X0361600Y0196957D01*
X0361600Y0195759D02*
X0332000Y0195759D01*
X0332000Y0187369D02*
X0361600Y0187369D01*
X0361600Y0186171D02*
X0332000Y0186171D01*
X0332000Y0177781D02*
X0361600Y0177781D01*
X0361600Y0176583D02*
X0332000Y0176583D01*
X0328861Y0165796D02*
X0361600Y0165796D01*
X0361600Y0164598D02*
X0346576Y0164598D01*
X0346353Y0164821D02*
X0347421Y0163753D01*
X0348000Y0162356D01*
X0348000Y0160844D01*
X0347421Y0159447D01*
X0346353Y0158379D01*
X0344956Y0157800D01*
X0338244Y0157800D01*
X0336847Y0158379D01*
X0335779Y0159447D01*
X0335200Y0160844D01*
X0335200Y0162356D01*
X0335779Y0163753D01*
X0336847Y0164821D01*
X0338244Y0165400D01*
X0344956Y0165400D01*
X0346353Y0164821D01*
X0347568Y0163399D02*
X0361600Y0163399D01*
X0361198Y0162201D02*
X0348000Y0162201D01*
X0348000Y0161002D02*
X0360480Y0161002D01*
X0360411Y0159803D02*
X0347569Y0159803D01*
X0346579Y0158605D02*
X0360992Y0158605D01*
X0374280Y0155009D02*
X0345899Y0155009D01*
X0346353Y0154821D02*
X0344956Y0155400D01*
X0338244Y0155400D01*
X0336847Y0154821D01*
X0335779Y0153753D01*
X0335200Y0152356D01*
X0335200Y0150844D01*
X0335779Y0149447D01*
X0336847Y0148379D01*
X0338244Y0147800D01*
X0344956Y0147800D01*
X0346353Y0148379D01*
X0347421Y0149447D01*
X0348000Y0150844D01*
X0348000Y0152356D01*
X0347421Y0153753D01*
X0346353Y0154821D01*
X0347363Y0153811D02*
X0374940Y0153811D01*
X0376294Y0152612D02*
X0347894Y0152612D01*
X0348000Y0151414D02*
X0390701Y0151414D01*
X0382000Y0152612D02*
X0381200Y0152612D01*
X0381200Y0153811D02*
X0382000Y0153811D01*
X0382000Y0155009D02*
X0381200Y0155009D01*
X0381200Y0157406D02*
X0382000Y0157406D01*
X0382000Y0158605D02*
X0381200Y0158605D01*
X0381200Y0159803D02*
X0382000Y0159803D01*
X0382000Y0161002D02*
X0381200Y0161002D01*
X0376353Y0150215D02*
X0347740Y0150215D01*
X0346991Y0149017D02*
X0375077Y0149017D01*
X0374559Y0147818D02*
X0345000Y0147818D01*
X0344956Y0145400D02*
X0338244Y0145400D01*
X0336847Y0144821D01*
X0335779Y0143753D01*
X0335200Y0142356D01*
X0335200Y0140844D01*
X0335779Y0139447D01*
X0336847Y0138379D01*
X0338244Y0137800D01*
X0344956Y0137800D01*
X0346353Y0138379D01*
X0347421Y0139447D01*
X0348000Y0140844D01*
X0348000Y0142356D01*
X0347421Y0143753D01*
X0346353Y0144821D01*
X0344956Y0145400D01*
X0346951Y0144223D02*
X0375039Y0144223D01*
X0374542Y0145421D02*
X0308487Y0145421D01*
X0309685Y0146620D02*
X0374400Y0146620D01*
X0376257Y0143024D02*
X0347723Y0143024D01*
X0348000Y0141826D02*
X0379200Y0141826D01*
X0379200Y0140627D02*
X0347910Y0140627D01*
X0347403Y0139429D02*
X0379200Y0139429D01*
X0379200Y0138230D02*
X0345995Y0138230D01*
X0344956Y0135400D02*
X0338244Y0135400D01*
X0336847Y0134821D01*
X0335779Y0133753D01*
X0335200Y0132356D01*
X0335200Y0130844D01*
X0335779Y0129447D01*
X0336847Y0128379D01*
X0338244Y0127800D01*
X0344956Y0127800D01*
X0346353Y0128379D01*
X0347421Y0129447D01*
X0348000Y0130844D01*
X0348000Y0132356D01*
X0347421Y0133753D01*
X0346353Y0134821D01*
X0344956Y0135400D01*
X0346539Y0134635D02*
X0379200Y0134635D01*
X0379200Y0135833D02*
X0298898Y0135833D01*
X0297700Y0134635D02*
X0336661Y0134635D01*
X0335648Y0133436D02*
X0296501Y0133436D01*
X0295303Y0132238D02*
X0335200Y0132238D01*
X0335200Y0131039D02*
X0294104Y0131039D01*
X0293400Y0129841D02*
X0335616Y0129841D01*
X0336584Y0128642D02*
X0293400Y0128642D01*
X0293400Y0127444D02*
X0379200Y0127444D01*
X0379200Y0128642D02*
X0346616Y0128642D01*
X0347584Y0129841D02*
X0379200Y0129841D01*
X0379200Y0131039D02*
X0348000Y0131039D01*
X0348000Y0132238D02*
X0379200Y0132238D01*
X0379200Y0133436D02*
X0347552Y0133436D01*
X0337205Y0138230D02*
X0301295Y0138230D01*
X0300097Y0137032D02*
X0379200Y0137032D01*
X0338200Y0147818D02*
X0310884Y0147818D01*
X0312082Y0149017D02*
X0336209Y0149017D01*
X0335460Y0150215D02*
X0313281Y0150215D01*
X0314479Y0151414D02*
X0335200Y0151414D01*
X0335306Y0152612D02*
X0315678Y0152612D01*
X0316876Y0153811D02*
X0335837Y0153811D01*
X0337301Y0155009D02*
X0318075Y0155009D01*
X0321670Y0158605D02*
X0336621Y0158605D01*
X0335631Y0159803D02*
X0322869Y0159803D01*
X0324067Y0161002D02*
X0335200Y0161002D01*
X0335200Y0162201D02*
X0325266Y0162201D01*
X0326464Y0163399D02*
X0335632Y0163399D01*
X0336624Y0164598D02*
X0327663Y0164598D01*
X0336249Y0144223D02*
X0307288Y0144223D01*
X0306090Y0143024D02*
X0335477Y0143024D01*
X0335200Y0141826D02*
X0304891Y0141826D01*
X0303693Y0140627D02*
X0335290Y0140627D01*
X0335797Y0139429D02*
X0302494Y0139429D01*
X0281600Y0123626D02*
X0281600Y0121600D01*
X0262600Y0112600D02*
X0262600Y0170574D01*
X0281600Y0189574D01*
X0281600Y0191600D01*
X0248000Y0188594D02*
X0248000Y0180026D01*
X0241600Y0173626D01*
X0241600Y0171600D01*
X0236600Y0176600D01*
X0151600Y0176600D01*
X0148911Y0176583D02*
X0122320Y0176583D01*
X0123203Y0175384D02*
X0149193Y0175384D01*
X0150402Y0174186D02*
X0123389Y0174186D01*
X0119440Y0177781D02*
X0149179Y0177781D01*
X0150318Y0178980D02*
X0118242Y0178980D01*
X0117043Y0180178D02*
X0155476Y0180178D01*
X0155200Y0181377D02*
X0115845Y0181377D01*
X0114646Y0182575D02*
X0155291Y0182575D01*
X0155800Y0183774D02*
X0113448Y0183774D01*
X0112249Y0184972D02*
X0157211Y0184972D01*
X0162777Y0186171D02*
X0111051Y0186171D01*
X0109852Y0187369D02*
X0163975Y0187369D01*
X0165174Y0188568D02*
X0108654Y0188568D01*
X0107455Y0189766D02*
X0166372Y0189766D01*
X0167571Y0190965D02*
X0106257Y0190965D01*
X0105058Y0192163D02*
X0167800Y0192163D01*
X0167988Y0193362D02*
X0103859Y0193362D01*
X0102661Y0194560D02*
X0169186Y0194560D01*
X0168835Y0195759D02*
X0101462Y0195759D01*
X0100264Y0196957D02*
X0167637Y0196957D01*
X0166438Y0198156D02*
X0099065Y0198156D01*
X0097867Y0199354D02*
X0165240Y0199354D01*
X0164041Y0200553D02*
X0096668Y0200553D01*
X0095470Y0201751D02*
X0162843Y0201751D01*
X0172698Y0202698D02*
X0172698Y0207698D01*
X0181600Y0216600D01*
X0185400Y0216134D02*
X0187800Y0216134D01*
X0187800Y0217332D02*
X0185400Y0217332D01*
X0185400Y0218531D02*
X0187800Y0218531D01*
X0187800Y0219729D02*
X0185400Y0219729D01*
X0184998Y0220928D02*
X0188202Y0220928D01*
X0188379Y0221353D02*
X0187800Y0219956D01*
X0187800Y0213244D01*
X0188379Y0211847D01*
X0189447Y0210779D01*
X0190844Y0210200D01*
X0192356Y0210200D01*
X0193753Y0210779D01*
X0194821Y0211847D01*
X0195400Y0213244D01*
X0195400Y0219956D01*
X0194821Y0221353D01*
X0193753Y0222421D01*
X0192356Y0223000D01*
X0190844Y0223000D01*
X0189447Y0222421D01*
X0188379Y0221353D01*
X0189152Y0222126D02*
X0184048Y0222126D01*
X0185400Y0214935D02*
X0187800Y0214935D01*
X0187800Y0213737D02*
X0185400Y0213737D01*
X0185107Y0212538D02*
X0188092Y0212538D01*
X0188887Y0211339D02*
X0184313Y0211339D01*
X0194313Y0211339D02*
X0198887Y0211339D01*
X0198379Y0211847D02*
X0199447Y0210779D01*
X0200844Y0210200D01*
X0202356Y0210200D01*
X0203753Y0210779D01*
X0204821Y0211847D01*
X0205400Y0213244D01*
X0205400Y0219956D01*
X0204821Y0221353D01*
X0203753Y0222421D01*
X0202356Y0223000D01*
X0200844Y0223000D01*
X0199447Y0222421D01*
X0198379Y0221353D01*
X0197800Y0219956D01*
X0197800Y0213244D01*
X0198379Y0211847D01*
X0198092Y0212538D02*
X0195107Y0212538D01*
X0195400Y0213737D02*
X0197800Y0213737D01*
X0197800Y0214935D02*
X0195400Y0214935D01*
X0195400Y0216134D02*
X0197800Y0216134D01*
X0197800Y0217332D02*
X0195400Y0217332D01*
X0195400Y0218531D02*
X0197800Y0218531D01*
X0197800Y0219729D02*
X0195400Y0219729D01*
X0194998Y0220928D02*
X0198202Y0220928D01*
X0199152Y0222126D02*
X0194048Y0222126D01*
X0204048Y0222126D02*
X0208586Y0222126D01*
X0207766Y0220928D02*
X0204998Y0220928D01*
X0205400Y0219729D02*
X0207431Y0219729D01*
X0207400Y0218531D02*
X0205400Y0218531D01*
X0205400Y0217332D02*
X0207400Y0217332D01*
X0207400Y0216134D02*
X0205400Y0216134D01*
X0205400Y0214935D02*
X0207400Y0214935D01*
X0207400Y0213737D02*
X0205400Y0213737D01*
X0205107Y0212538D02*
X0207659Y0212538D01*
X0208341Y0211339D02*
X0204313Y0211339D01*
X0211400Y0211339D02*
X0211800Y0211339D01*
X0211800Y0212538D02*
X0211400Y0212538D01*
X0211400Y0213737D02*
X0211800Y0213737D01*
X0211800Y0214935D02*
X0211400Y0214935D01*
X0211400Y0216134D02*
X0211800Y0216134D01*
X0211800Y0217332D02*
X0211400Y0217332D01*
X0211400Y0218531D02*
X0211800Y0218531D01*
X0211800Y0219729D02*
X0211400Y0219729D01*
X0211400Y0220928D02*
X0211800Y0220928D01*
X0211800Y0222126D02*
X0211400Y0222126D01*
X0215800Y0217332D02*
X0216716Y0217332D01*
X0215800Y0216134D02*
X0217915Y0216134D01*
X0219114Y0214935D02*
X0215800Y0214935D01*
X0215800Y0213737D02*
X0220312Y0213737D01*
X0221511Y0212538D02*
X0215541Y0212538D01*
X0214858Y0211339D02*
X0222709Y0211339D01*
X0224819Y0195759D02*
X0183381Y0195759D01*
X0184579Y0194560D02*
X0223621Y0194560D01*
X0222422Y0193362D02*
X0185778Y0193362D01*
X0185800Y0192163D02*
X0222400Y0192163D01*
X0222400Y0190965D02*
X0185800Y0190965D01*
X0185706Y0189766D02*
X0222494Y0189766D01*
X0229507Y0188568D02*
X0234200Y0188568D01*
X0234200Y0187369D02*
X0178376Y0187369D01*
X0179575Y0186171D02*
X0234200Y0186171D01*
X0233060Y0189766D02*
X0230706Y0189766D01*
X0230800Y0190965D02*
X0232800Y0190965D01*
X0232800Y0192163D02*
X0230800Y0192163D01*
X0230778Y0193362D02*
X0232988Y0193362D01*
X0234186Y0194560D02*
X0229579Y0194560D01*
X0181600Y0181600D02*
X0175400Y0187800D01*
X0175400Y0196194D01*
X0156246Y0178980D02*
X0152882Y0178980D01*
X0152798Y0174186D02*
X0156212Y0174186D01*
X0155461Y0172987D02*
X0154798Y0172987D01*
X0157426Y0165400D02*
X0165774Y0165400D01*
X0169574Y0161600D01*
X0181600Y0161600D01*
X0189574Y0151600D02*
X0185774Y0147800D01*
X0189574Y0151600D02*
X0241600Y0151600D01*
X0241600Y0141600D02*
X0189574Y0141600D01*
X0185774Y0137800D01*
X0170828Y0137800D01*
X0167028Y0141600D01*
X0161600Y0141600D01*
X0157426Y0145400D02*
X0165774Y0145400D01*
X0169574Y0141600D01*
X0181600Y0141600D01*
X0189574Y0131600D02*
X0185774Y0127800D01*
X0189574Y0131600D02*
X0241600Y0131600D01*
X0241600Y0121600D02*
X0189574Y0121600D01*
X0185774Y0117800D01*
X0170828Y0117800D01*
X0167028Y0121600D01*
X0161600Y0121600D01*
X0156172Y0121600D01*
X0152372Y0117800D01*
X0052426Y0117800D01*
X0044826Y0125400D01*
X0017800Y0125400D01*
X0011600Y0131600D01*
X0011600Y0121600D02*
X0016600Y0121600D01*
X0026600Y0111600D01*
X0101600Y0111600D01*
X0153626Y0111600D01*
X0157426Y0115400D01*
X0165774Y0115400D01*
X0169574Y0111600D01*
X0181600Y0111600D01*
X0185774Y0107800D02*
X0170828Y0107800D01*
X0167028Y0111600D01*
X0161600Y0111600D01*
X0156080Y0106600D02*
X0152880Y0103400D01*
X0107567Y0103400D01*
X0107421Y0103753D01*
X0106353Y0104821D01*
X0104956Y0105400D01*
X0098244Y0105400D01*
X0096847Y0104821D01*
X0095779Y0103753D01*
X0095632Y0103400D01*
X0049340Y0103400D01*
X0050800Y0104860D01*
X0050800Y0106400D01*
X0046800Y0106400D01*
X0046800Y0106800D01*
X0050800Y0106800D01*
X0050800Y0108340D01*
X0049340Y0109800D01*
X0087997Y0109800D01*
X0087820Y0109623D01*
X0087411Y0108635D01*
X0087411Y0107565D01*
X0087820Y0106577D01*
X0088577Y0105820D01*
X0089565Y0105411D01*
X0090635Y0105411D01*
X0091623Y0105820D01*
X0092380Y0106577D01*
X0092389Y0106600D01*
X0156080Y0106600D01*
X0155351Y0105870D02*
X0091673Y0105870D01*
X0088527Y0105870D02*
X0050800Y0105870D01*
X0050800Y0107069D02*
X0087617Y0107069D01*
X0087411Y0108268D02*
X0050800Y0108268D01*
X0049674Y0109466D02*
X0087755Y0109466D01*
X0095663Y0103473D02*
X0049413Y0103473D01*
X0050612Y0104672D02*
X0096698Y0104672D01*
X0101600Y0101600D02*
X0026600Y0101600D01*
X0016600Y0111600D01*
X0011600Y0111600D01*
X0011600Y0101600D02*
X0016600Y0101600D01*
X0026600Y0091600D01*
X0101600Y0091600D01*
X0153626Y0091600D01*
X0157426Y0095400D01*
X0165774Y0095400D01*
X0169574Y0091600D01*
X0181600Y0091600D01*
X0181600Y0081600D02*
X0169574Y0081600D01*
X0165774Y0085400D01*
X0157426Y0085400D01*
X0153626Y0081600D01*
X0101600Y0081600D01*
X0101600Y0071600D02*
X0153626Y0071600D01*
X0157426Y0075400D01*
X0165774Y0075400D01*
X0169574Y0071600D01*
X0181600Y0071600D01*
X0168153Y0057930D02*
X0165270Y0057930D01*
X0174636Y0053136D02*
X0175083Y0053136D01*
X0188117Y0053136D02*
X0188564Y0053136D01*
X0157334Y0045945D02*
X0147100Y0045945D01*
X0151146Y0047143D02*
X0156135Y0047143D01*
X0153626Y0101600D02*
X0101600Y0101600D01*
X0106502Y0104672D02*
X0154152Y0104672D01*
X0152954Y0103473D02*
X0107537Y0103473D01*
X0101600Y0121600D02*
X0153626Y0121600D01*
X0157426Y0125400D01*
X0165774Y0125400D01*
X0169574Y0121600D01*
X0181600Y0121600D01*
X0189574Y0111600D02*
X0185774Y0107800D01*
X0189574Y0111600D02*
X0241600Y0111600D01*
X0241600Y0101600D02*
X0251600Y0101600D01*
X0262600Y0112600D01*
X0181600Y0101600D02*
X0169574Y0101600D01*
X0165774Y0105400D01*
X0157426Y0105400D01*
X0153626Y0101600D01*
X0114297Y0173400D02*
X0107567Y0173400D01*
X0107421Y0173753D01*
X0106353Y0174821D01*
X0104956Y0175400D01*
X0098244Y0175400D01*
X0096847Y0174821D01*
X0095779Y0173753D01*
X0095632Y0173400D01*
X0065320Y0173400D01*
X0062220Y0176500D01*
X0086521Y0176500D01*
X0097342Y0187321D01*
X0097365Y0187311D01*
X0098435Y0187311D01*
X0099423Y0187720D01*
X0100180Y0188477D01*
X0100391Y0188988D01*
X0103579Y0185800D01*
X0101800Y0185800D01*
X0101800Y0181800D01*
X0101400Y0181800D01*
X0101400Y0185800D01*
X0098669Y0185800D01*
X0098016Y0185697D01*
X0097388Y0185492D01*
X0096799Y0185192D01*
X0096264Y0184804D01*
X0095796Y0184336D01*
X0095408Y0183801D01*
X0095108Y0183212D01*
X0094903Y0182584D01*
X0094800Y0181931D01*
X0094800Y0181800D01*
X0101400Y0181800D01*
X0101400Y0181400D01*
X0101800Y0181400D01*
X0101800Y0177400D01*
X0104531Y0177400D01*
X0105184Y0177503D01*
X0105812Y0177708D01*
X0106401Y0178008D01*
X0106936Y0178396D01*
X0107404Y0178864D01*
X0107792Y0179399D01*
X0108092Y0179988D01*
X0108297Y0180616D01*
X0108360Y0181018D01*
X0113221Y0176158D01*
X0113211Y0176135D01*
X0113211Y0175065D01*
X0113620Y0174077D01*
X0114297Y0173400D01*
X0113575Y0174186D02*
X0106988Y0174186D01*
X0104994Y0175384D02*
X0113211Y0175384D01*
X0112796Y0176583D02*
X0086604Y0176583D01*
X0087802Y0177781D02*
X0097244Y0177781D01*
X0097388Y0177708D02*
X0098016Y0177503D01*
X0098669Y0177400D01*
X0101400Y0177400D01*
X0101400Y0181400D01*
X0094800Y0181400D01*
X0094800Y0181269D01*
X0094903Y0180616D01*
X0095108Y0179988D01*
X0095408Y0179399D01*
X0095796Y0178864D01*
X0096264Y0178396D01*
X0096799Y0178008D01*
X0097388Y0177708D01*
X0095712Y0178980D02*
X0089001Y0178980D01*
X0090199Y0180178D02*
X0095046Y0180178D01*
X0094800Y0181377D02*
X0091398Y0181377D01*
X0092597Y0182575D02*
X0094902Y0182575D01*
X0095394Y0183774D02*
X0093795Y0183774D01*
X0094994Y0184972D02*
X0096496Y0184972D01*
X0096192Y0186171D02*
X0103208Y0186171D01*
X0102009Y0187369D02*
X0098575Y0187369D01*
X0100217Y0188568D02*
X0100811Y0188568D01*
X0101400Y0184972D02*
X0101800Y0184972D01*
X0101800Y0183774D02*
X0101400Y0183774D01*
X0101400Y0182575D02*
X0101800Y0182575D01*
X0101800Y0181377D02*
X0101400Y0181377D01*
X0101400Y0180178D02*
X0101800Y0180178D01*
X0101800Y0178980D02*
X0101400Y0178980D01*
X0101400Y0177781D02*
X0101800Y0177781D01*
X0105956Y0177781D02*
X0111598Y0177781D01*
X0110399Y0178980D02*
X0107488Y0178980D01*
X0108154Y0180178D02*
X0109200Y0180178D01*
X0098206Y0175384D02*
X0063335Y0175384D01*
X0064534Y0174186D02*
X0096212Y0174186D01*
X0094271Y0202950D02*
X0141856Y0202950D01*
X0140657Y0204148D02*
X0112708Y0204148D01*
X0110492Y0204148D02*
X0093073Y0204148D01*
X0091874Y0205347D02*
X0109209Y0205347D01*
X0108911Y0206545D02*
X0090676Y0206545D01*
X0089477Y0207744D02*
X0109163Y0207744D01*
X0110229Y0208942D02*
X0088279Y0208942D01*
X0087080Y0210141D02*
X0111747Y0210141D01*
X0112945Y0211339D02*
X0085882Y0211339D01*
X0084683Y0212538D02*
X0114144Y0212538D01*
X0142216Y0208942D02*
X0149204Y0208942D01*
X0148911Y0207744D02*
X0143850Y0207744D01*
X0155400Y0214935D02*
X0155514Y0214935D01*
X0122741Y0261677D02*
X0064289Y0261677D01*
X0063899Y0262875D02*
X0121099Y0262875D01*
X0119900Y0264074D02*
X0062171Y0264074D01*
X0061029Y0264074D02*
X0033071Y0264074D01*
X0031929Y0264074D02*
X0031611Y0264074D01*
X0031611Y0265272D02*
X0119281Y0265272D01*
X0118785Y0266471D02*
X0031611Y0266471D01*
X0031611Y0267670D02*
X0118450Y0267670D01*
X0118450Y0268868D02*
X0089242Y0268868D01*
X0083958Y0268868D02*
X0031611Y0268868D01*
X0031611Y0270067D02*
X0082800Y0270067D01*
X0082800Y0271265D02*
X0031611Y0271265D01*
X0031611Y0272464D02*
X0082800Y0272464D01*
X0083288Y0273662D02*
X0031611Y0273662D01*
X0031611Y0274861D02*
X0084487Y0274861D01*
X0088713Y0274861D02*
X0094164Y0274861D01*
X0093750Y0276059D02*
X0031611Y0276059D01*
X0031611Y0277258D02*
X0064225Y0277258D01*
X0063026Y0278456D02*
X0031611Y0278456D01*
X0031611Y0279655D02*
X0061850Y0279655D01*
X0061850Y0280853D02*
X0031611Y0280853D01*
X0031611Y0282052D02*
X0061850Y0282052D01*
X0061850Y0283250D02*
X0031611Y0283250D01*
X0031611Y0284449D02*
X0062731Y0284449D01*
X0063930Y0285647D02*
X0031611Y0285647D01*
X0033555Y0296434D02*
X0101425Y0296434D01*
X0102575Y0296434D02*
X0124294Y0296434D01*
X0121742Y0297632D02*
X0110513Y0297632D01*
X0110524Y0297600D02*
X0110275Y0298367D01*
X0109908Y0299086D01*
X0109434Y0299739D01*
X0108864Y0300309D01*
X0108211Y0300783D01*
X0107492Y0301150D01*
X0106725Y0301399D01*
X0105928Y0301525D01*
X0102575Y0301525D01*
X0102575Y0296975D01*
X0110623Y0296975D01*
X0110524Y0297600D01*
X0110038Y0298831D02*
X0120543Y0298831D01*
X0119547Y0300029D02*
X0109144Y0300029D01*
X0107251Y0301228D02*
X0119051Y0301228D01*
X0118555Y0302426D02*
X0090400Y0302426D01*
X0090400Y0303174D02*
X0088174Y0305400D01*
X0085026Y0305400D01*
X0082800Y0303174D01*
X0082800Y0300026D01*
X0085026Y0297800D01*
X0088174Y0297800D01*
X0090400Y0300026D01*
X0090400Y0303174D01*
X0089949Y0303625D02*
X0118450Y0303625D01*
X0118450Y0304823D02*
X0088751Y0304823D01*
X0090400Y0301228D02*
X0096749Y0301228D01*
X0094856Y0300029D02*
X0090400Y0300029D01*
X0089205Y0298831D02*
X0093962Y0298831D01*
X0093487Y0297632D02*
X0034754Y0297632D01*
X0035952Y0298831D02*
X0083995Y0298831D01*
X0082800Y0300029D02*
X0037151Y0300029D01*
X0038349Y0301228D02*
X0082800Y0301228D01*
X0082800Y0302426D02*
X0039548Y0302426D01*
X0040746Y0303625D02*
X0083251Y0303625D01*
X0084449Y0304823D02*
X0041945Y0304823D01*
X0043143Y0306022D02*
X0118492Y0306022D01*
X0118988Y0307220D02*
X0044342Y0307220D01*
X0045540Y0308419D02*
X0119485Y0308419D01*
X0120392Y0309617D02*
X0046739Y0309617D01*
X0098661Y0270067D02*
X0118450Y0270067D01*
X0118758Y0271265D02*
X0099859Y0271265D01*
X0098835Y0270241D02*
X0098835Y0270241D01*
X0107403Y0272464D02*
X0119255Y0272464D01*
X0119836Y0273662D02*
X0109069Y0273662D01*
X0109836Y0274861D02*
X0121035Y0274861D01*
X0132165Y0274861D02*
X0143364Y0274861D01*
X0144131Y0273662D02*
X0133364Y0273662D01*
X0133945Y0272464D02*
X0145797Y0272464D01*
X0143847Y0279655D02*
X0109353Y0279655D01*
X0108087Y0280853D02*
X0145113Y0280853D01*
X0146475Y0291401D02*
X0147272Y0291275D01*
X0150625Y0291275D01*
X0150625Y0295825D01*
X0151775Y0295825D01*
X0151775Y0296975D01*
X0150625Y0296975D01*
X0150625Y0301525D01*
X0147272Y0301525D01*
X0146475Y0301399D01*
X0145708Y0301150D01*
X0144989Y0300783D01*
X0144336Y0300309D01*
X0143766Y0299739D01*
X0143292Y0299086D01*
X0142925Y0298367D01*
X0142676Y0297600D01*
X0142577Y0296975D01*
X0150625Y0296975D01*
X0150625Y0295825D01*
X0142577Y0295825D01*
X0142676Y0295200D01*
X0142925Y0294433D01*
X0143292Y0293714D01*
X0143766Y0293061D01*
X0144336Y0292491D01*
X0144989Y0292017D01*
X0145708Y0291650D01*
X0146475Y0291401D01*
X0145741Y0291640D02*
X0107459Y0291640D01*
X0107492Y0291650D02*
X0108211Y0292017D01*
X0108864Y0292491D01*
X0109434Y0293061D01*
X0109908Y0293714D01*
X0110275Y0294433D01*
X0110524Y0295200D01*
X0110623Y0295825D01*
X0102575Y0295825D01*
X0102575Y0291275D01*
X0105928Y0291275D01*
X0106725Y0291401D01*
X0107492Y0291650D01*
X0109211Y0292838D02*
X0143989Y0292838D01*
X0143127Y0294037D02*
X0110073Y0294037D01*
X0110529Y0295235D02*
X0142671Y0295235D01*
X0142687Y0297632D02*
X0131458Y0297632D01*
X0132657Y0298831D02*
X0143162Y0298831D01*
X0144056Y0300029D02*
X0133653Y0300029D01*
X0134149Y0301228D02*
X0145949Y0301228D01*
X0150625Y0301228D02*
X0151775Y0301228D01*
X0151775Y0301525D02*
X0151775Y0296975D01*
X0159823Y0296975D01*
X0159724Y0297600D01*
X0159475Y0298367D01*
X0159108Y0299086D01*
X0158634Y0299739D01*
X0158064Y0300309D01*
X0157411Y0300783D01*
X0156692Y0301150D01*
X0155925Y0301399D01*
X0155128Y0301525D01*
X0151775Y0301525D01*
X0151775Y0300029D02*
X0150625Y0300029D01*
X0150625Y0298831D02*
X0151775Y0298831D01*
X0151775Y0297632D02*
X0150625Y0297632D01*
X0150625Y0296434D02*
X0128906Y0296434D01*
X0134645Y0302426D02*
X0218703Y0302426D01*
X0217504Y0303625D02*
X0134750Y0303625D01*
X0134750Y0304823D02*
X0216924Y0304823D01*
X0216600Y0306022D02*
X0134708Y0306022D01*
X0134212Y0307220D02*
X0216600Y0307220D01*
X0216941Y0308419D02*
X0133715Y0308419D01*
X0132808Y0309617D02*
X0217546Y0309617D01*
X0225654Y0309617D02*
X0286361Y0309617D01*
X0287560Y0308419D02*
X0273175Y0308419D01*
X0274374Y0307220D02*
X0288758Y0307220D01*
X0289957Y0306022D02*
X0275572Y0306022D01*
X0276771Y0304823D02*
X0291155Y0304823D01*
X0292354Y0303625D02*
X0277969Y0303625D01*
X0278855Y0302426D02*
X0293552Y0302426D01*
X0294751Y0301228D02*
X0279000Y0301228D01*
X0279000Y0300029D02*
X0295949Y0300029D01*
X0297795Y0302426D02*
X0390701Y0302426D01*
X0390701Y0301228D02*
X0298993Y0301228D01*
X0300192Y0300029D02*
X0390701Y0300029D01*
X0390701Y0298831D02*
X0301390Y0298831D01*
X0302589Y0297632D02*
X0304956Y0297632D01*
X0296596Y0303625D02*
X0390701Y0303625D01*
X0390701Y0304823D02*
X0295398Y0304823D01*
X0294199Y0306022D02*
X0390701Y0306022D01*
X0390701Y0307220D02*
X0293001Y0307220D01*
X0291802Y0308419D02*
X0390701Y0308419D01*
X0390701Y0309617D02*
X0290604Y0309617D01*
X0289405Y0310816D02*
X0390701Y0310816D01*
X0375921Y0274861D02*
X0375885Y0274861D01*
X0376484Y0255684D02*
X0332237Y0255684D01*
X0333435Y0254486D02*
X0375011Y0254486D01*
X0374312Y0253287D02*
X0334634Y0253287D01*
X0335832Y0252089D02*
X0374020Y0252089D01*
X0374006Y0251200D02*
X0374113Y0250523D01*
X0374337Y0249834D01*
X0374666Y0249189D01*
X0375091Y0248603D01*
X0375603Y0248091D01*
X0376189Y0247666D01*
X0376834Y0247337D01*
X0377523Y0247113D01*
X0378238Y0247000D01*
X0381200Y0247000D01*
X0381200Y0251200D01*
X0374006Y0251200D01*
X0374055Y0250890D02*
X0337031Y0250890D01*
X0338229Y0249692D02*
X0374410Y0249692D01*
X0375201Y0248493D02*
X0339428Y0248493D01*
X0340626Y0247295D02*
X0376964Y0247295D01*
X0381200Y0247295D02*
X0382000Y0247295D01*
X0382000Y0248493D02*
X0381200Y0248493D01*
X0381200Y0249692D02*
X0382000Y0249692D01*
X0382000Y0250890D02*
X0381200Y0250890D01*
X0381200Y0252089D02*
X0382000Y0252089D01*
X0382000Y0253287D02*
X0381200Y0253287D01*
X0381200Y0254486D02*
X0382000Y0254486D01*
X0382000Y0255684D02*
X0381200Y0255684D01*
X0366800Y0237707D02*
X0366400Y0237707D01*
X0366400Y0236508D02*
X0366800Y0236508D01*
X0366800Y0235310D02*
X0366400Y0235310D01*
X0366400Y0234111D02*
X0366800Y0234111D01*
X0366800Y0232913D02*
X0366400Y0232913D01*
X0366400Y0230516D02*
X0366800Y0230516D01*
X0366800Y0229317D02*
X0366400Y0229317D01*
X0366400Y0228119D02*
X0366800Y0228119D01*
X0366800Y0226920D02*
X0366400Y0226920D01*
X0366400Y0225722D02*
X0366800Y0225722D01*
X0363967Y0225722D02*
X0359233Y0225722D01*
X0360254Y0226920D02*
X0362946Y0226920D01*
X0362487Y0228119D02*
X0360713Y0228119D01*
X0360800Y0229317D02*
X0362400Y0229317D01*
X0362400Y0230516D02*
X0360800Y0230516D01*
X0360800Y0232913D02*
X0362400Y0232913D01*
X0362400Y0234111D02*
X0360800Y0234111D01*
X0360656Y0235310D02*
X0362544Y0235310D01*
X0363086Y0236508D02*
X0360114Y0236508D01*
X0358919Y0237707D02*
X0364281Y0237707D01*
X0356800Y0237707D02*
X0356400Y0237707D01*
X0356400Y0236508D02*
X0356800Y0236508D01*
X0356800Y0235310D02*
X0356400Y0235310D01*
X0356400Y0234111D02*
X0356800Y0234111D01*
X0356800Y0232913D02*
X0356400Y0232913D01*
X0294200Y0284449D02*
X0229600Y0284449D01*
X0229600Y0285647D02*
X0254765Y0285647D01*
X0253380Y0286846D02*
X0229600Y0286846D01*
X0229600Y0288044D02*
X0252883Y0288044D01*
X0252800Y0289243D02*
X0229600Y0289243D01*
X0229600Y0290441D02*
X0252800Y0290441D01*
X0252800Y0291640D02*
X0229600Y0291640D01*
X0229600Y0292838D02*
X0252800Y0292838D01*
X0252800Y0294037D02*
X0229600Y0294037D01*
X0229600Y0295235D02*
X0252916Y0295235D01*
X0253460Y0296434D02*
X0229600Y0296434D01*
X0229600Y0297632D02*
X0254200Y0297632D01*
X0254200Y0298831D02*
X0229600Y0298831D01*
X0229600Y0300029D02*
X0254200Y0300029D01*
X0254200Y0301228D02*
X0229600Y0301228D01*
X0229600Y0302426D02*
X0254200Y0302426D01*
X0254200Y0303625D02*
X0229600Y0303625D01*
X0224800Y0302426D02*
X0224497Y0302426D01*
X0224800Y0301228D02*
X0156451Y0301228D01*
X0158344Y0300029D02*
X0224800Y0300029D01*
X0224800Y0298831D02*
X0159238Y0298831D01*
X0159713Y0297632D02*
X0224800Y0297632D01*
X0224800Y0296434D02*
X0151775Y0296434D01*
X0151775Y0295825D02*
X0159823Y0295825D01*
X0159724Y0295200D01*
X0159475Y0294433D01*
X0159108Y0293714D01*
X0158634Y0293061D01*
X0158064Y0292491D01*
X0157411Y0292017D01*
X0156692Y0291650D01*
X0155925Y0291401D01*
X0155128Y0291275D01*
X0151775Y0291275D01*
X0151775Y0295825D01*
X0151775Y0295235D02*
X0150625Y0295235D01*
X0150625Y0294037D02*
X0151775Y0294037D01*
X0151775Y0292838D02*
X0150625Y0292838D01*
X0150625Y0291640D02*
X0151775Y0291640D01*
X0156659Y0291640D02*
X0224800Y0291640D01*
X0224800Y0292838D02*
X0158411Y0292838D01*
X0159273Y0294037D02*
X0224800Y0294037D01*
X0224800Y0295235D02*
X0159729Y0295235D01*
X0102575Y0295235D02*
X0101425Y0295235D01*
X0101425Y0294037D02*
X0102575Y0294037D01*
X0102575Y0292838D02*
X0101425Y0292838D01*
X0101425Y0291640D02*
X0102575Y0291640D01*
X0102575Y0297632D02*
X0101425Y0297632D01*
X0101425Y0298831D02*
X0102575Y0298831D01*
X0102575Y0300029D02*
X0101425Y0300029D01*
X0101425Y0301228D02*
X0102575Y0301228D01*
X0066023Y0258081D02*
X0037240Y0258081D01*
X0038438Y0256883D02*
X0064879Y0256883D01*
X0064611Y0255684D02*
X0039350Y0255684D01*
X0039107Y0254486D02*
X0064892Y0254486D01*
X0065800Y0253287D02*
X0037909Y0253287D01*
X0036710Y0252089D02*
X0065800Y0252089D01*
X0065800Y0250890D02*
X0035512Y0250890D01*
X0036041Y0259280D02*
X0059917Y0259280D01*
X0065800Y0249692D02*
X0043929Y0249692D01*
X0045128Y0248493D02*
X0065800Y0248493D01*
X0065800Y0247295D02*
X0046326Y0247295D01*
X0047525Y0246096D02*
X0065800Y0246096D01*
X0065800Y0244898D02*
X0048724Y0244898D01*
X0049922Y0243699D02*
X0065800Y0243699D01*
X0065800Y0242501D02*
X0051121Y0242501D01*
X0052319Y0241302D02*
X0065800Y0241302D01*
X0065800Y0240104D02*
X0053518Y0240104D01*
X0054716Y0238905D02*
X0065800Y0238905D01*
X0065800Y0237707D02*
X0055915Y0237707D01*
X0057113Y0236508D02*
X0065800Y0236508D01*
X0065800Y0235310D02*
X0058312Y0235310D01*
X0059510Y0234111D02*
X0065800Y0234111D01*
X0065800Y0232913D02*
X0060709Y0232913D01*
X0061907Y0231714D02*
X0065800Y0231714D01*
X0065800Y0230516D02*
X0063106Y0230516D01*
X0064304Y0229317D02*
X0065800Y0229317D01*
X0065800Y0228119D02*
X0065503Y0228119D01*
X0045935Y0207744D02*
X0016266Y0207744D01*
X0016979Y0208039D02*
X0018161Y0209221D01*
X0018800Y0210765D01*
X0018800Y0212435D01*
X0018161Y0213979D01*
X0016979Y0215161D01*
X0015435Y0215800D01*
X0007765Y0215800D01*
X0006221Y0215161D01*
X0006200Y0215140D01*
X0006200Y0217660D01*
X0006834Y0217337D01*
X0007523Y0217113D01*
X0008238Y0217000D01*
X0011200Y0217000D01*
X0011200Y0221200D01*
X0012000Y0221200D01*
X0012000Y0222000D01*
X0011200Y0222000D01*
X0011200Y0226200D01*
X0008238Y0226200D01*
X0007523Y0226087D01*
X0006834Y0225863D01*
X0006200Y0225540D01*
X0006200Y0228060D01*
X0006221Y0228039D01*
X0007765Y0227400D01*
X0015435Y0227400D01*
X0016979Y0228039D01*
X0018161Y0229221D01*
X0018800Y0230765D01*
X0018800Y0232435D01*
X0018161Y0233979D01*
X0017180Y0234959D01*
X0020200Y0237979D01*
X0020200Y0242179D01*
X0021309Y0243288D01*
X0021520Y0242777D01*
X0022277Y0242020D01*
X0022300Y0242011D01*
X0022300Y0231379D01*
X0023179Y0230500D01*
X0057879Y0195800D01*
X0056800Y0195800D01*
X0056800Y0191800D01*
X0056400Y0191800D01*
X0056400Y0195800D01*
X0053669Y0195800D01*
X0053016Y0195697D01*
X0052388Y0195492D01*
X0051799Y0195192D01*
X0051264Y0194804D01*
X0050796Y0194336D01*
X0050408Y0193801D01*
X0050108Y0193212D01*
X0049903Y0192584D01*
X0049800Y0191931D01*
X0049800Y0191800D01*
X0056400Y0191800D01*
X0056400Y0191400D01*
X0049800Y0191400D01*
X0049800Y0191269D01*
X0049903Y0190616D01*
X0050108Y0189988D01*
X0050408Y0189399D01*
X0050796Y0188864D01*
X0051264Y0188396D01*
X0051687Y0188089D01*
X0051520Y0187923D01*
X0051111Y0186935D01*
X0051111Y0185865D01*
X0051520Y0184877D01*
X0051712Y0184686D01*
X0050779Y0183753D01*
X0050632Y0183400D01*
X0045320Y0183400D01*
X0031520Y0197200D01*
X0018546Y0197200D01*
X0017343Y0198403D01*
X0018161Y0199221D01*
X0018800Y0200765D01*
X0018800Y0202435D01*
X0018161Y0203979D01*
X0016979Y0205161D01*
X0015435Y0205800D01*
X0007765Y0205800D01*
X0006221Y0205161D01*
X0006200Y0205140D01*
X0006200Y0208060D01*
X0006221Y0208039D01*
X0007765Y0207400D01*
X0015435Y0207400D01*
X0016979Y0208039D01*
X0017882Y0208942D02*
X0044736Y0208942D01*
X0043538Y0210141D02*
X0018542Y0210141D01*
X0018800Y0211339D02*
X0042339Y0211339D01*
X0041141Y0212538D02*
X0018758Y0212538D01*
X0018261Y0213737D02*
X0039942Y0213737D01*
X0038744Y0214935D02*
X0017205Y0214935D01*
X0016366Y0217337D02*
X0015677Y0217113D01*
X0014962Y0217000D01*
X0012000Y0217000D01*
X0012000Y0221200D01*
X0019194Y0221200D01*
X0019087Y0220523D01*
X0018863Y0219834D01*
X0018534Y0219189D01*
X0018109Y0218603D01*
X0017597Y0218091D01*
X0017011Y0217666D01*
X0016366Y0217337D01*
X0016350Y0217332D02*
X0036347Y0217332D01*
X0037545Y0216134D02*
X0006200Y0216134D01*
X0006200Y0217332D02*
X0006849Y0217332D01*
X0011200Y0217332D02*
X0012000Y0217332D01*
X0012000Y0218531D02*
X0011200Y0218531D01*
X0011200Y0219729D02*
X0012000Y0219729D01*
X0012000Y0220928D02*
X0011200Y0220928D01*
X0011200Y0222126D02*
X0012000Y0222126D01*
X0012000Y0222000D02*
X0012000Y0226200D01*
X0014962Y0226200D01*
X0015677Y0226087D01*
X0016366Y0225863D01*
X0017011Y0225534D01*
X0017597Y0225109D01*
X0018109Y0224597D01*
X0018534Y0224011D01*
X0018863Y0223366D01*
X0019087Y0222677D01*
X0019194Y0222000D01*
X0012000Y0222000D01*
X0012000Y0223325D02*
X0011200Y0223325D01*
X0011200Y0224523D02*
X0012000Y0224523D01*
X0012000Y0225722D02*
X0011200Y0225722D01*
X0006557Y0225722D02*
X0006200Y0225722D01*
X0006200Y0226920D02*
X0026759Y0226920D01*
X0027957Y0225722D02*
X0016643Y0225722D01*
X0018162Y0224523D02*
X0029156Y0224523D01*
X0030354Y0223325D02*
X0018876Y0223325D01*
X0019174Y0222126D02*
X0031553Y0222126D01*
X0032751Y0220928D02*
X0019151Y0220928D01*
X0018809Y0219729D02*
X0033950Y0219729D01*
X0035148Y0218531D02*
X0018036Y0218531D01*
X0017058Y0228119D02*
X0025560Y0228119D01*
X0024362Y0229317D02*
X0018200Y0229317D01*
X0018697Y0230516D02*
X0023163Y0230516D01*
X0023179Y0230500D02*
X0023179Y0230500D01*
X0022300Y0231714D02*
X0018800Y0231714D01*
X0018602Y0232913D02*
X0022300Y0232913D01*
X0022300Y0234111D02*
X0018028Y0234111D01*
X0017531Y0235310D02*
X0022300Y0235310D01*
X0022300Y0236508D02*
X0018730Y0236508D01*
X0019928Y0237707D02*
X0022300Y0237707D01*
X0022300Y0238905D02*
X0020200Y0238905D01*
X0020200Y0240104D02*
X0022300Y0240104D01*
X0022300Y0241302D02*
X0020200Y0241302D01*
X0020522Y0242501D02*
X0021796Y0242501D01*
X0006934Y0207744D02*
X0006200Y0207744D01*
X0006200Y0206545D02*
X0047133Y0206545D01*
X0048332Y0205347D02*
X0016529Y0205347D01*
X0017991Y0204148D02*
X0049530Y0204148D01*
X0050729Y0202950D02*
X0018587Y0202950D01*
X0018800Y0201751D02*
X0051927Y0201751D01*
X0053126Y0200553D02*
X0018712Y0200553D01*
X0018216Y0199354D02*
X0054324Y0199354D01*
X0055523Y0198156D02*
X0017590Y0198156D01*
X0017800Y0195400D02*
X0030774Y0195400D01*
X0044574Y0181600D01*
X0056600Y0181600D01*
X0051481Y0184972D02*
X0043747Y0184972D01*
X0042549Y0186171D02*
X0051111Y0186171D01*
X0051291Y0187369D02*
X0041350Y0187369D01*
X0040152Y0188568D02*
X0051093Y0188568D01*
X0050221Y0189766D02*
X0038953Y0189766D01*
X0037755Y0190965D02*
X0049848Y0190965D01*
X0049837Y0192163D02*
X0036556Y0192163D01*
X0035358Y0193362D02*
X0050184Y0193362D01*
X0051021Y0194560D02*
X0034159Y0194560D01*
X0032961Y0195759D02*
X0053410Y0195759D01*
X0056400Y0195759D02*
X0056800Y0195759D01*
X0056800Y0194560D02*
X0056400Y0194560D01*
X0056400Y0193362D02*
X0056800Y0193362D01*
X0056800Y0192163D02*
X0056400Y0192163D01*
X0056721Y0196957D02*
X0031762Y0196957D01*
X0026600Y0191600D02*
X0011600Y0191600D01*
X0017800Y0195400D02*
X0011600Y0201600D01*
X0006671Y0205347D02*
X0006200Y0205347D01*
X0011600Y0181600D02*
X0026600Y0181600D01*
X0026600Y0171600D02*
X0011600Y0171600D01*
X0011600Y0161600D02*
X0026600Y0161600D01*
X0026600Y0151600D02*
X0011600Y0151600D01*
X0011600Y0141600D02*
X0026600Y0141600D01*
X0050200Y0130026D02*
X0056600Y0123626D01*
X0056600Y0121600D01*
X0043860Y0109800D02*
X0042400Y0108340D01*
X0042400Y0106800D01*
X0046400Y0106800D01*
X0046400Y0106400D01*
X0042400Y0106400D01*
X0042400Y0104860D01*
X0043860Y0103400D01*
X0038774Y0103400D01*
X0040400Y0105026D01*
X0040400Y0108174D01*
X0038774Y0109800D01*
X0043860Y0109800D01*
X0043526Y0109466D02*
X0039108Y0109466D01*
X0040306Y0108268D02*
X0042400Y0108268D01*
X0042400Y0107069D02*
X0040400Y0107069D01*
X0040400Y0105870D02*
X0042400Y0105870D01*
X0042588Y0104672D02*
X0040046Y0104672D01*
X0038847Y0103473D02*
X0043787Y0103473D01*
X0007390Y0037555D02*
X0006200Y0037555D01*
X0044946Y0183774D02*
X0050800Y0183774D01*
X0258435Y0285647D02*
X0264765Y0285647D01*
X0264447Y0285779D02*
X0265844Y0285200D01*
X0267356Y0285200D01*
X0268753Y0285779D01*
X0269821Y0286847D01*
X0270400Y0288244D01*
X0270400Y0294956D01*
X0269821Y0296353D01*
X0268753Y0297421D01*
X0267356Y0298000D01*
X0265844Y0298000D01*
X0264447Y0297421D01*
X0263379Y0296353D01*
X0262800Y0294956D01*
X0262800Y0288244D01*
X0263379Y0286847D01*
X0264447Y0285779D01*
X0263380Y0286846D02*
X0259820Y0286846D01*
X0260317Y0288044D02*
X0262883Y0288044D01*
X0262800Y0289243D02*
X0260400Y0289243D01*
X0260400Y0290441D02*
X0262800Y0290441D01*
X0262800Y0291640D02*
X0260400Y0291640D01*
X0260400Y0292838D02*
X0262800Y0292838D01*
X0262800Y0294037D02*
X0260400Y0294037D01*
X0260284Y0295235D02*
X0262916Y0295235D01*
X0263460Y0296434D02*
X0259740Y0296434D01*
X0259000Y0297632D02*
X0264956Y0297632D01*
X0268244Y0297632D02*
X0274200Y0297632D01*
X0274200Y0298831D02*
X0259000Y0298831D01*
X0259000Y0300029D02*
X0274200Y0300029D01*
X0273578Y0301228D02*
X0259000Y0301228D01*
X0259000Y0302426D02*
X0272380Y0302426D01*
X0271181Y0303625D02*
X0259000Y0303625D01*
X0269740Y0296434D02*
X0273460Y0296434D01*
X0272916Y0295235D02*
X0270284Y0295235D01*
X0270400Y0294037D02*
X0272800Y0294037D01*
X0272800Y0292838D02*
X0270400Y0292838D01*
X0270400Y0291640D02*
X0272800Y0291640D01*
X0272800Y0290441D02*
X0270400Y0290441D01*
X0270400Y0289243D02*
X0272800Y0289243D01*
X0272883Y0288044D02*
X0270317Y0288044D01*
X0269820Y0286846D02*
X0273380Y0286846D01*
X0274765Y0285647D02*
X0268435Y0285647D01*
X0278435Y0285647D02*
X0284765Y0285647D01*
X0283380Y0286846D02*
X0279820Y0286846D01*
X0280317Y0288044D02*
X0282883Y0288044D01*
X0282800Y0289243D02*
X0280400Y0289243D01*
X0280400Y0290441D02*
X0282800Y0290441D01*
X0282800Y0291640D02*
X0280400Y0291640D01*
X0280400Y0292838D02*
X0282800Y0292838D01*
X0282800Y0294037D02*
X0280400Y0294037D01*
X0280284Y0295235D02*
X0282916Y0295235D01*
X0283460Y0296434D02*
X0279740Y0296434D01*
X0279000Y0297632D02*
X0284956Y0297632D01*
X0288244Y0297632D02*
X0290411Y0297632D01*
X0291609Y0298831D02*
X0279000Y0298831D01*
X0290400Y0292838D02*
X0292800Y0292838D01*
X0292800Y0291640D02*
X0290400Y0291640D01*
X0290400Y0290441D02*
X0292800Y0290441D01*
X0292800Y0289243D02*
X0290400Y0289243D01*
X0290317Y0288044D02*
X0292883Y0288044D01*
X0293380Y0286846D02*
X0289820Y0286846D01*
X0288435Y0285647D02*
X0294200Y0285647D01*
X0292800Y0294037D02*
X0291058Y0294037D01*
X0292257Y0295235D02*
X0292916Y0295235D01*
X0350088Y0086694D02*
X0390701Y0086694D01*
X0390701Y0085496D02*
X0348890Y0085496D01*
X0347400Y0066320D02*
X0373774Y0066320D01*
X0372576Y0065121D02*
X0348598Y0065121D01*
X0349797Y0063923D02*
X0371377Y0063923D01*
X0375400Y0055400D02*
X0381600Y0061600D01*
X0381600Y0051600D02*
X0341600Y0051600D01*
X0346264Y0048342D02*
X0376936Y0048342D01*
X0375740Y0049540D02*
X0347460Y0049540D01*
X0346428Y0044746D02*
X0376772Y0044746D01*
X0375694Y0043548D02*
X0347506Y0043548D01*
X0346728Y0038754D02*
X0376472Y0038754D01*
X0377661Y0035158D02*
X0345539Y0035158D01*
X0347214Y0033960D02*
X0375986Y0033960D01*
X0376060Y0029166D02*
X0347140Y0029166D01*
X0345360Y0027967D02*
X0377840Y0027967D01*
X0376398Y0024372D02*
X0349348Y0024372D01*
X0341400Y0021800D02*
X0335386Y0021800D01*
X0334986Y0021400D01*
X0341400Y0021400D01*
X0341400Y0021800D01*
X0341400Y0020776D02*
X0341800Y0020776D01*
X0341800Y0019578D02*
X0341400Y0019578D01*
X0341400Y0018379D02*
X0341800Y0018379D01*
X0334878Y0020776D02*
X0334362Y0020776D01*
X0341600Y0031600D02*
X0381600Y0031600D01*
X0381600Y0041600D02*
X0341600Y0041600D01*
D22*
X0281600Y0061600D02*
X0281200Y0061300D01*
X0266200Y0046300D01*
X0159100Y0046300D01*
X0156700Y0048700D01*
X0148900Y0048700D01*
X0184000Y0096400D02*
X0192700Y0105100D01*
X0242800Y0105100D01*
X0258400Y0120700D01*
X0274300Y0124300D02*
X0281600Y0131600D01*
X0281600Y0121600D02*
X0281200Y0121300D01*
X0281200Y0118900D01*
X0273100Y0110800D01*
X0273100Y0073300D01*
X0274300Y0072100D01*
X0275500Y0075700D02*
X0275500Y0103300D01*
X0281500Y0109300D01*
X0281500Y0111100D01*
X0281600Y0111600D01*
X0243400Y0165700D02*
X0169300Y0165700D01*
X0161600Y0161600D02*
X0161200Y0161200D01*
X0159100Y0161200D01*
X0155800Y0157900D01*
X0097600Y0157900D01*
X0094000Y0161500D01*
X0056800Y0161500D01*
X0056600Y0161600D01*
X0048700Y0156100D02*
X0048700Y0173800D01*
X0052900Y0178000D01*
X0085900Y0178000D01*
X0097900Y0190000D01*
X0115900Y0175600D02*
X0042700Y0248800D01*
X0029800Y0248800D01*
X0027100Y0251200D02*
X0018700Y0242800D01*
X0018700Y0238600D01*
X0011800Y0231700D01*
X0011600Y0231600D01*
X0023800Y0232000D02*
X0062800Y0193000D01*
X0062800Y0190000D01*
X0059200Y0186400D01*
X0053800Y0186400D01*
X0048700Y0156100D02*
X0026800Y0134200D01*
X0026800Y0131800D01*
X0026600Y0131600D01*
X0056600Y0151600D02*
X0094000Y0151600D01*
X0099100Y0156700D01*
X0156400Y0156700D01*
X0156700Y0157000D01*
X0169300Y0157000D01*
X0170800Y0155500D01*
X0187300Y0155500D01*
X0161600Y0111600D02*
X0161200Y0111400D01*
X0157900Y0108100D01*
X0090100Y0108100D01*
X0120700Y0174400D02*
X0067300Y0227800D01*
X0067300Y0255700D01*
X0061600Y0261400D02*
X0032500Y0261400D01*
X0030111Y0260410D02*
X0030111Y0295111D01*
X0047150Y0312150D01*
X0129852Y0312150D01*
X0130502Y0311500D01*
X0286600Y0311500D01*
X0306400Y0291700D01*
X0306600Y0291600D01*
X0306700Y0291400D01*
X0311500Y0286600D01*
X0311500Y0266500D01*
X0315100Y0262900D01*
X0322900Y0262900D01*
X0350200Y0235600D01*
X0350200Y0230200D01*
X0363100Y0217300D01*
X0363100Y0160300D01*
X0297700Y0252700D02*
X0310300Y0265300D01*
X0310300Y0271300D01*
X0300100Y0281500D01*
X0300100Y0295900D01*
X0298300Y0297700D01*
X0292600Y0297700D01*
X0286600Y0291700D01*
X0286600Y0291600D01*
X0297700Y0252700D02*
X0186400Y0252700D01*
X0211600Y0246600D02*
X0211600Y0227200D01*
X0249700Y0189100D01*
X0249700Y0172000D01*
X0243400Y0165700D01*
X0171600Y0216600D02*
X0171400Y0216700D01*
X0165400Y0222700D01*
X0160000Y0222700D01*
X0157900Y0220600D01*
X0157900Y0215200D01*
X0151600Y0208900D01*
X0151600Y0207700D01*
X0151200Y0276800D02*
X0151000Y0277000D01*
X0103000Y0277000D01*
X0102000Y0276800D01*
X0037850Y0255350D02*
X0034189Y0259011D01*
X0031510Y0259011D01*
X0030111Y0260410D01*
X0032500Y0254800D02*
X0018700Y0268600D01*
X0018700Y0274600D01*
X0011800Y0281500D01*
X0011600Y0281600D01*
X0011600Y0271600D02*
X0011800Y0271600D01*
X0011800Y0270100D01*
X0020200Y0261700D01*
X0020200Y0247900D01*
X0023800Y0244300D02*
X0023800Y0232000D01*
X0027100Y0251200D02*
X0033700Y0251200D01*
X0037850Y0255350D01*
X0032500Y0254800D02*
X0032500Y0253600D01*
X0011800Y0291700D02*
X0011600Y0291600D01*
M02*
