G75*
%MOIN*%
%OFA0B0*%
%FSLAX25Y25*%
%IPPOS*%
%LPD*%
%AMOC8*
5,1,8,0,0,1.08239X$1,22.5*
%
%ADD10C,0.00000*%
D10*
X0001600Y0001600D02*
X0001600Y0316561D01*
X0395301Y0316561D01*
X0395301Y0001600D01*
X0001600Y0001600D01*
X0123050Y0268900D02*
X0123052Y0269019D01*
X0123058Y0269137D01*
X0123068Y0269255D01*
X0123082Y0269373D01*
X0123099Y0269490D01*
X0123121Y0269607D01*
X0123147Y0269723D01*
X0123176Y0269838D01*
X0123209Y0269952D01*
X0123246Y0270064D01*
X0123287Y0270176D01*
X0123332Y0270286D01*
X0123380Y0270394D01*
X0123432Y0270501D01*
X0123487Y0270606D01*
X0123546Y0270709D01*
X0123608Y0270810D01*
X0123673Y0270909D01*
X0123742Y0271006D01*
X0123814Y0271100D01*
X0123889Y0271192D01*
X0123967Y0271281D01*
X0124048Y0271368D01*
X0124132Y0271452D01*
X0124219Y0271533D01*
X0124308Y0271611D01*
X0124400Y0271686D01*
X0124494Y0271758D01*
X0124591Y0271827D01*
X0124690Y0271892D01*
X0124791Y0271954D01*
X0124894Y0272013D01*
X0124999Y0272068D01*
X0125106Y0272120D01*
X0125214Y0272168D01*
X0125324Y0272213D01*
X0125436Y0272254D01*
X0125548Y0272291D01*
X0125662Y0272324D01*
X0125777Y0272353D01*
X0125893Y0272379D01*
X0126010Y0272401D01*
X0126127Y0272418D01*
X0126245Y0272432D01*
X0126363Y0272442D01*
X0126481Y0272448D01*
X0126600Y0272450D01*
X0126719Y0272448D01*
X0126837Y0272442D01*
X0126955Y0272432D01*
X0127073Y0272418D01*
X0127190Y0272401D01*
X0127307Y0272379D01*
X0127423Y0272353D01*
X0127538Y0272324D01*
X0127652Y0272291D01*
X0127764Y0272254D01*
X0127876Y0272213D01*
X0127986Y0272168D01*
X0128094Y0272120D01*
X0128201Y0272068D01*
X0128306Y0272013D01*
X0128409Y0271954D01*
X0128510Y0271892D01*
X0128609Y0271827D01*
X0128706Y0271758D01*
X0128800Y0271686D01*
X0128892Y0271611D01*
X0128981Y0271533D01*
X0129068Y0271452D01*
X0129152Y0271368D01*
X0129233Y0271281D01*
X0129311Y0271192D01*
X0129386Y0271100D01*
X0129458Y0271006D01*
X0129527Y0270909D01*
X0129592Y0270810D01*
X0129654Y0270709D01*
X0129713Y0270606D01*
X0129768Y0270501D01*
X0129820Y0270394D01*
X0129868Y0270286D01*
X0129913Y0270176D01*
X0129954Y0270064D01*
X0129991Y0269952D01*
X0130024Y0269838D01*
X0130053Y0269723D01*
X0130079Y0269607D01*
X0130101Y0269490D01*
X0130118Y0269373D01*
X0130132Y0269255D01*
X0130142Y0269137D01*
X0130148Y0269019D01*
X0130150Y0268900D01*
X0130148Y0268781D01*
X0130142Y0268663D01*
X0130132Y0268545D01*
X0130118Y0268427D01*
X0130101Y0268310D01*
X0130079Y0268193D01*
X0130053Y0268077D01*
X0130024Y0267962D01*
X0129991Y0267848D01*
X0129954Y0267736D01*
X0129913Y0267624D01*
X0129868Y0267514D01*
X0129820Y0267406D01*
X0129768Y0267299D01*
X0129713Y0267194D01*
X0129654Y0267091D01*
X0129592Y0266990D01*
X0129527Y0266891D01*
X0129458Y0266794D01*
X0129386Y0266700D01*
X0129311Y0266608D01*
X0129233Y0266519D01*
X0129152Y0266432D01*
X0129068Y0266348D01*
X0128981Y0266267D01*
X0128892Y0266189D01*
X0128800Y0266114D01*
X0128706Y0266042D01*
X0128609Y0265973D01*
X0128510Y0265908D01*
X0128409Y0265846D01*
X0128306Y0265787D01*
X0128201Y0265732D01*
X0128094Y0265680D01*
X0127986Y0265632D01*
X0127876Y0265587D01*
X0127764Y0265546D01*
X0127652Y0265509D01*
X0127538Y0265476D01*
X0127423Y0265447D01*
X0127307Y0265421D01*
X0127190Y0265399D01*
X0127073Y0265382D01*
X0126955Y0265368D01*
X0126837Y0265358D01*
X0126719Y0265352D01*
X0126600Y0265350D01*
X0126481Y0265352D01*
X0126363Y0265358D01*
X0126245Y0265368D01*
X0126127Y0265382D01*
X0126010Y0265399D01*
X0125893Y0265421D01*
X0125777Y0265447D01*
X0125662Y0265476D01*
X0125548Y0265509D01*
X0125436Y0265546D01*
X0125324Y0265587D01*
X0125214Y0265632D01*
X0125106Y0265680D01*
X0124999Y0265732D01*
X0124894Y0265787D01*
X0124791Y0265846D01*
X0124690Y0265908D01*
X0124591Y0265973D01*
X0124494Y0266042D01*
X0124400Y0266114D01*
X0124308Y0266189D01*
X0124219Y0266267D01*
X0124132Y0266348D01*
X0124048Y0266432D01*
X0123967Y0266519D01*
X0123889Y0266608D01*
X0123814Y0266700D01*
X0123742Y0266794D01*
X0123673Y0266891D01*
X0123608Y0266990D01*
X0123546Y0267091D01*
X0123487Y0267194D01*
X0123432Y0267299D01*
X0123380Y0267406D01*
X0123332Y0267514D01*
X0123287Y0267624D01*
X0123246Y0267736D01*
X0123209Y0267848D01*
X0123176Y0267962D01*
X0123147Y0268077D01*
X0123121Y0268193D01*
X0123099Y0268310D01*
X0123082Y0268427D01*
X0123068Y0268545D01*
X0123058Y0268663D01*
X0123052Y0268781D01*
X0123050Y0268900D01*
X0123050Y0304300D02*
X0123052Y0304419D01*
X0123058Y0304537D01*
X0123068Y0304655D01*
X0123082Y0304773D01*
X0123099Y0304890D01*
X0123121Y0305007D01*
X0123147Y0305123D01*
X0123176Y0305238D01*
X0123209Y0305352D01*
X0123246Y0305464D01*
X0123287Y0305576D01*
X0123332Y0305686D01*
X0123380Y0305794D01*
X0123432Y0305901D01*
X0123487Y0306006D01*
X0123546Y0306109D01*
X0123608Y0306210D01*
X0123673Y0306309D01*
X0123742Y0306406D01*
X0123814Y0306500D01*
X0123889Y0306592D01*
X0123967Y0306681D01*
X0124048Y0306768D01*
X0124132Y0306852D01*
X0124219Y0306933D01*
X0124308Y0307011D01*
X0124400Y0307086D01*
X0124494Y0307158D01*
X0124591Y0307227D01*
X0124690Y0307292D01*
X0124791Y0307354D01*
X0124894Y0307413D01*
X0124999Y0307468D01*
X0125106Y0307520D01*
X0125214Y0307568D01*
X0125324Y0307613D01*
X0125436Y0307654D01*
X0125548Y0307691D01*
X0125662Y0307724D01*
X0125777Y0307753D01*
X0125893Y0307779D01*
X0126010Y0307801D01*
X0126127Y0307818D01*
X0126245Y0307832D01*
X0126363Y0307842D01*
X0126481Y0307848D01*
X0126600Y0307850D01*
X0126719Y0307848D01*
X0126837Y0307842D01*
X0126955Y0307832D01*
X0127073Y0307818D01*
X0127190Y0307801D01*
X0127307Y0307779D01*
X0127423Y0307753D01*
X0127538Y0307724D01*
X0127652Y0307691D01*
X0127764Y0307654D01*
X0127876Y0307613D01*
X0127986Y0307568D01*
X0128094Y0307520D01*
X0128201Y0307468D01*
X0128306Y0307413D01*
X0128409Y0307354D01*
X0128510Y0307292D01*
X0128609Y0307227D01*
X0128706Y0307158D01*
X0128800Y0307086D01*
X0128892Y0307011D01*
X0128981Y0306933D01*
X0129068Y0306852D01*
X0129152Y0306768D01*
X0129233Y0306681D01*
X0129311Y0306592D01*
X0129386Y0306500D01*
X0129458Y0306406D01*
X0129527Y0306309D01*
X0129592Y0306210D01*
X0129654Y0306109D01*
X0129713Y0306006D01*
X0129768Y0305901D01*
X0129820Y0305794D01*
X0129868Y0305686D01*
X0129913Y0305576D01*
X0129954Y0305464D01*
X0129991Y0305352D01*
X0130024Y0305238D01*
X0130053Y0305123D01*
X0130079Y0305007D01*
X0130101Y0304890D01*
X0130118Y0304773D01*
X0130132Y0304655D01*
X0130142Y0304537D01*
X0130148Y0304419D01*
X0130150Y0304300D01*
X0130148Y0304181D01*
X0130142Y0304063D01*
X0130132Y0303945D01*
X0130118Y0303827D01*
X0130101Y0303710D01*
X0130079Y0303593D01*
X0130053Y0303477D01*
X0130024Y0303362D01*
X0129991Y0303248D01*
X0129954Y0303136D01*
X0129913Y0303024D01*
X0129868Y0302914D01*
X0129820Y0302806D01*
X0129768Y0302699D01*
X0129713Y0302594D01*
X0129654Y0302491D01*
X0129592Y0302390D01*
X0129527Y0302291D01*
X0129458Y0302194D01*
X0129386Y0302100D01*
X0129311Y0302008D01*
X0129233Y0301919D01*
X0129152Y0301832D01*
X0129068Y0301748D01*
X0128981Y0301667D01*
X0128892Y0301589D01*
X0128800Y0301514D01*
X0128706Y0301442D01*
X0128609Y0301373D01*
X0128510Y0301308D01*
X0128409Y0301246D01*
X0128306Y0301187D01*
X0128201Y0301132D01*
X0128094Y0301080D01*
X0127986Y0301032D01*
X0127876Y0300987D01*
X0127764Y0300946D01*
X0127652Y0300909D01*
X0127538Y0300876D01*
X0127423Y0300847D01*
X0127307Y0300821D01*
X0127190Y0300799D01*
X0127073Y0300782D01*
X0126955Y0300768D01*
X0126837Y0300758D01*
X0126719Y0300752D01*
X0126600Y0300750D01*
X0126481Y0300752D01*
X0126363Y0300758D01*
X0126245Y0300768D01*
X0126127Y0300782D01*
X0126010Y0300799D01*
X0125893Y0300821D01*
X0125777Y0300847D01*
X0125662Y0300876D01*
X0125548Y0300909D01*
X0125436Y0300946D01*
X0125324Y0300987D01*
X0125214Y0301032D01*
X0125106Y0301080D01*
X0124999Y0301132D01*
X0124894Y0301187D01*
X0124791Y0301246D01*
X0124690Y0301308D01*
X0124591Y0301373D01*
X0124494Y0301442D01*
X0124400Y0301514D01*
X0124308Y0301589D01*
X0124219Y0301667D01*
X0124132Y0301748D01*
X0124048Y0301832D01*
X0123967Y0301919D01*
X0123889Y0302008D01*
X0123814Y0302100D01*
X0123742Y0302194D01*
X0123673Y0302291D01*
X0123608Y0302390D01*
X0123546Y0302491D01*
X0123487Y0302594D01*
X0123432Y0302699D01*
X0123380Y0302806D01*
X0123332Y0302914D01*
X0123287Y0303024D01*
X0123246Y0303136D01*
X0123209Y0303248D01*
X0123176Y0303362D01*
X0123147Y0303477D01*
X0123121Y0303593D01*
X0123099Y0303710D01*
X0123082Y0303827D01*
X0123068Y0303945D01*
X0123058Y0304063D01*
X0123052Y0304181D01*
X0123050Y0304300D01*
M02*
