%
M48
M72
T01C0.01378
T02C0.01969
T03C0.03200
T04C0.04000
T05C0.04400
T06C0.04700
T07C0.07100
%
T01
X93700Y57700
X145300Y48700
X148900Y48700
X145100Y35600
X184000Y96400
X187300Y155500
X169300Y165700
X151600Y176600
X120700Y174400
X115900Y175600
X97900Y190000
X111600Y206600
X151600Y207700
X172698Y202698
X186400Y252700
X163300Y253900
X67300Y255700
X61600Y261400
X32500Y261400
X32500Y253600
X29800Y248800
X23800Y244300
X20200Y247900
X53800Y186400
X90100Y108100
X258400Y120700
X274300Y124300
X275500Y75700
X274300Y72100
X363100Y160300
T02
X266600Y41206
X266600Y21994
T03
X251600Y21600
X241600Y21600
X241600Y36600
X251600Y36600
X241600Y51600
X241600Y61600
X241600Y71600
X241600Y81600
X241600Y91600
X241600Y101600
X241600Y111600
X241600Y121600
X241600Y131600
X241600Y141600
X241600Y151600
X241600Y161600
X241600Y171600
X241600Y181600
X236600Y191600
X226600Y191600
X211600Y216600
X201600Y216600
X191600Y216600
X181600Y216600
X171600Y216600
X161600Y216600
X151600Y216600
X141600Y226600
X141600Y236600
X151600Y246600
X161600Y246600
X171600Y246600
X181600Y246600
X191600Y246600
X201600Y246600
X211600Y246600
X256600Y231600
X266600Y231600
X276600Y231600
X286600Y231600
X296600Y231600
X306600Y231600
X316600Y231600
X326600Y231600
X336600Y231600
X346600Y231600
X356600Y231600
X366600Y231600
X341600Y211600
X341600Y201600
X341600Y191600
X341600Y181600
X341600Y171600
X341600Y161600
X341600Y151600
X341600Y141600
X341600Y131600
X341600Y121600
X341600Y111600
X341600Y101600
X341600Y91600
X341600Y81600
X341600Y71600
X341600Y61600
X341600Y51600
X341600Y41600
X341600Y31600
X341600Y21600
X381600Y21600
X381600Y31600
X381600Y41600
X381600Y51600
X381600Y61600
X381600Y71600
X381600Y81600
X381600Y91600
X381600Y101600
X311600Y96600
X311600Y106600
X281600Y101600
X281600Y91600
X281600Y81600
X281600Y71600
X281600Y61600
X281600Y51600
X281600Y41600
X281600Y31600
X281600Y21600
X181600Y51600
X181600Y61600
X181600Y71600
X181600Y81600
X181600Y91600
X181600Y101600
X181600Y111600
X181600Y121600
X181600Y131600
X181600Y141600
X181600Y151600
X181600Y161600
X181600Y171600
X181600Y181600
X181600Y191600
X171600Y191600
X161600Y181600
X161600Y171600
X161600Y161600
X161600Y151600
X161600Y141600
X161600Y131600
X161600Y121600
X161600Y111600
X161600Y101600
X161600Y91600
X161600Y81600
X161600Y71600
X161600Y61600
X161600Y51600
X101600Y51600
X101600Y61600
X101600Y71600
X101600Y81600
X101600Y91600
X101600Y101600
X101600Y111600
X101600Y121600
X101600Y131600
X101600Y141600
X101600Y151600
X101600Y161600
X101600Y171600
X101600Y181600
X56600Y181600
X56600Y191600
X56600Y171600
X56600Y161600
X56600Y151600
X56600Y141600
X56600Y131600
X56600Y121600
X46600Y106600
X36600Y106600
X26600Y121600
X26600Y131600
X26600Y141600
X26600Y151600
X26600Y161600
X26600Y171600
X26600Y181600
X26600Y191600
X86600Y271600
X66600Y281600
X66600Y291600
X86600Y301600
X256600Y291600
X266600Y291600
X276600Y291600
X286600Y291600
X296600Y291600
X306600Y291600
X316600Y291600
X326600Y291600
X336600Y291600
X346600Y291600
X356600Y291600
X366600Y291600
X316600Y266600
X306600Y266600
X281600Y211600
X281600Y201600
X281600Y191600
X281600Y181600
X281600Y171600
X281600Y161600
X281600Y151600
X281600Y141600
X281600Y131600
X281600Y121600
X281600Y111600
T04
X11600Y11600
X11600Y21600
X11600Y31600
X11600Y41600
X11600Y51600
X11600Y61600
X11600Y71600
X11600Y81600
X11600Y91600
X11600Y101600
X11600Y111600
X11600Y121600
X11600Y131600
X11600Y141600
X11600Y151600
X11600Y161600
X11600Y171600
X11600Y181600
X11600Y191600
X11600Y201600
X11600Y211600
X11600Y221600
X11600Y231600
X11600Y241600
X11600Y251600
X11600Y261600
X11600Y271600
X11600Y281600
X11600Y291600
X11600Y301600
X381600Y271600
X381600Y261600
X381600Y251600
X381600Y156600
X381600Y146600
T05
X221600Y266600
X221600Y306600
T06
X151200Y296400
X151200Y276800
X102000Y276800
X102000Y296400
T07
X126600Y304300
X126600Y268900
M30
