%
M48
M72
T01C0.01378
T02C0.01969
T03C0.03200
T04C0.04000
T05C0.04400
T06C0.04700
T07C0.07100
%
T01
X97500Y57100
X147600Y48100
X153300Y83800
X147600Y84400
X187800Y95800
X191100Y154900
X173100Y165100
X153300Y173800
X176498Y202098
X155400Y207100
X101700Y189400
X99000Y202600
X53700Y184600
X22500Y215800
X31500Y255100
X36300Y260200
X46500Y255100
X49800Y260200
X167100Y253300
X190200Y252100
X278100Y123700
X262200Y120100
X279300Y75100
X278100Y71500
X371100Y109300
X383700Y96700
X384300Y79600
X93900Y107500
T02
X270400Y40606
X270400Y21394
T03
X255400Y21000
X245400Y21000
X245400Y36000
X255400Y36000
X245400Y51000
X245400Y61000
X245400Y71000
X245400Y81000
X245400Y91000
X245400Y101000
X245400Y111000
X245400Y121000
X245400Y131000
X245400Y141000
X245400Y151000
X245400Y161000
X245400Y171000
X245400Y181000
X240400Y191000
X230400Y191000
X215400Y216000
X205400Y216000
X195400Y216000
X185400Y216000
X175400Y216000
X165400Y216000
X155400Y216000
X145400Y226000
X145400Y236000
X155400Y246000
X165400Y246000
X175400Y246000
X185400Y246000
X195400Y246000
X205400Y246000
X215400Y246000
X190400Y276000
X190400Y306000
X260400Y291000
X270400Y291000
X280400Y291000
X290400Y291000
X300400Y291000
X310400Y291000
X320400Y291000
X330400Y291000
X340400Y291000
X350400Y291000
X360400Y291000
X370400Y291000
X320400Y266000
X310400Y266000
X310400Y231000
X320400Y231000
X330400Y231000
X340400Y231000
X350400Y231000
X360400Y231000
X370400Y231000
X345400Y211000
X345400Y201000
X345400Y191000
X345400Y181000
X345400Y171000
X345400Y161000
X345400Y151000
X345400Y141000
X345400Y131000
X345400Y121000
X345400Y111000
X345400Y101000
X345400Y91000
X345400Y81000
X345400Y71000
X345400Y61000
X345400Y51000
X345400Y41000
X345400Y31000
X345400Y21000
X285400Y21000
X285400Y31000
X285400Y41000
X285400Y51000
X285400Y61000
X285400Y71000
X285400Y81000
X285400Y91000
X285400Y101000
X285400Y111000
X285400Y121000
X285400Y131000
X285400Y141000
X285400Y151000
X285400Y161000
X285400Y171000
X285400Y181000
X285400Y191000
X285400Y201000
X285400Y211000
X280400Y231000
X270400Y231000
X260400Y231000
X290400Y231000
X300400Y231000
X185400Y191000
X185400Y181000
X175400Y191000
X165400Y181000
X165400Y171000
X165400Y161000
X165400Y151000
X165400Y141000
X165400Y131000
X165400Y121000
X165400Y111000
X165400Y101000
X165400Y91000
X165400Y81000
X165400Y71000
X165400Y61000
X165400Y51000
X185400Y51000
X185400Y61000
X185400Y71000
X185400Y81000
X185400Y91000
X185400Y101000
X185400Y111000
X185400Y121000
X185400Y131000
X185400Y141000
X185400Y151000
X185400Y161000
X185400Y171000
X105400Y171000
X105400Y161000
X105400Y151000
X105400Y141000
X105400Y131000
X105400Y121000
X105400Y111000
X105400Y101000
X105400Y91000
X105400Y81000
X105400Y71000
X105400Y61000
X105400Y51000
X50400Y106000
X40400Y106000
X30400Y121000
X30400Y131000
X30400Y141000
X30400Y151000
X30400Y161000
X30400Y171000
X30400Y181000
X30400Y191000
X60400Y191000
X60400Y181000
X60400Y171000
X60400Y161000
X60400Y151000
X60400Y141000
X60400Y131000
X60400Y121000
X105400Y181000
X90400Y271000
X70400Y281000
X70400Y291000
X90400Y301000
X315400Y106000
X315400Y96000
T04
X15400Y11000
X15400Y21000
X15400Y31000
X15400Y41000
X15400Y51000
X15400Y61000
X15400Y71000
X15400Y81000
X15400Y91000
X15400Y101000
X15400Y111000
X15400Y121000
X15400Y131000
X15400Y141000
X15400Y151000
X15400Y161000
X15400Y171000
X15400Y181000
X15400Y191000
X15400Y201000
X15400Y211000
X15400Y221000
X15400Y231000
X15400Y241000
X15400Y251000
X15400Y261000
X15400Y271000
X15400Y281000
X15400Y291000
X15400Y301000
X95400Y196000
X105400Y196000
X115400Y196000
X145400Y196000
X155400Y196000
X165400Y196000
X365400Y51000
X375400Y51000
X385400Y51000
X380400Y66000
X370400Y66000
X370400Y86000
X380400Y86000
X385400Y106000
X385400Y116000
X380400Y36000
X370400Y36000
X370400Y21000
X380400Y21000
X385400Y251000
X385400Y261000
X385400Y271000
T05
X225400Y266000
X225400Y306000
T06
X155000Y295800
X155000Y276200
X105800Y276200
X105800Y295800
T07
X130400Y303700
X130400Y268300
M30
