G75*
%MOIN*%
%OFA0B0*%
%FSLAX25Y25*%
%IPPOS*%
%LPD*%
%AMOC8*
5,1,8,0,0,1.08239X$1,22.5*
%
%ADD10C,0.00000*%
%ADD11C,0.00600*%
%ADD12C,0.00500*%
%ADD13C,0.01000*%
%ADD14R,0.10000X0.02000*%
%ADD15R,0.03000X0.07500*%
%ADD16C,0.00700*%
%ADD17C,0.00300*%
%ADD18C,0.00200*%
%ADD19R,0.08500X0.02000*%
D10*
X0005400Y0001000D02*
X0005400Y0315961D01*
X0399101Y0315961D01*
X0399101Y0001000D01*
X0005400Y0001000D01*
X0126850Y0268300D02*
X0126852Y0268419D01*
X0126858Y0268537D01*
X0126868Y0268655D01*
X0126882Y0268773D01*
X0126899Y0268890D01*
X0126921Y0269007D01*
X0126947Y0269123D01*
X0126976Y0269238D01*
X0127009Y0269352D01*
X0127046Y0269464D01*
X0127087Y0269576D01*
X0127132Y0269686D01*
X0127180Y0269794D01*
X0127232Y0269901D01*
X0127287Y0270006D01*
X0127346Y0270109D01*
X0127408Y0270210D01*
X0127473Y0270309D01*
X0127542Y0270406D01*
X0127614Y0270500D01*
X0127689Y0270592D01*
X0127767Y0270681D01*
X0127848Y0270768D01*
X0127932Y0270852D01*
X0128019Y0270933D01*
X0128108Y0271011D01*
X0128200Y0271086D01*
X0128294Y0271158D01*
X0128391Y0271227D01*
X0128490Y0271292D01*
X0128591Y0271354D01*
X0128694Y0271413D01*
X0128799Y0271468D01*
X0128906Y0271520D01*
X0129014Y0271568D01*
X0129124Y0271613D01*
X0129236Y0271654D01*
X0129348Y0271691D01*
X0129462Y0271724D01*
X0129577Y0271753D01*
X0129693Y0271779D01*
X0129810Y0271801D01*
X0129927Y0271818D01*
X0130045Y0271832D01*
X0130163Y0271842D01*
X0130281Y0271848D01*
X0130400Y0271850D01*
X0130519Y0271848D01*
X0130637Y0271842D01*
X0130755Y0271832D01*
X0130873Y0271818D01*
X0130990Y0271801D01*
X0131107Y0271779D01*
X0131223Y0271753D01*
X0131338Y0271724D01*
X0131452Y0271691D01*
X0131564Y0271654D01*
X0131676Y0271613D01*
X0131786Y0271568D01*
X0131894Y0271520D01*
X0132001Y0271468D01*
X0132106Y0271413D01*
X0132209Y0271354D01*
X0132310Y0271292D01*
X0132409Y0271227D01*
X0132506Y0271158D01*
X0132600Y0271086D01*
X0132692Y0271011D01*
X0132781Y0270933D01*
X0132868Y0270852D01*
X0132952Y0270768D01*
X0133033Y0270681D01*
X0133111Y0270592D01*
X0133186Y0270500D01*
X0133258Y0270406D01*
X0133327Y0270309D01*
X0133392Y0270210D01*
X0133454Y0270109D01*
X0133513Y0270006D01*
X0133568Y0269901D01*
X0133620Y0269794D01*
X0133668Y0269686D01*
X0133713Y0269576D01*
X0133754Y0269464D01*
X0133791Y0269352D01*
X0133824Y0269238D01*
X0133853Y0269123D01*
X0133879Y0269007D01*
X0133901Y0268890D01*
X0133918Y0268773D01*
X0133932Y0268655D01*
X0133942Y0268537D01*
X0133948Y0268419D01*
X0133950Y0268300D01*
X0133948Y0268181D01*
X0133942Y0268063D01*
X0133932Y0267945D01*
X0133918Y0267827D01*
X0133901Y0267710D01*
X0133879Y0267593D01*
X0133853Y0267477D01*
X0133824Y0267362D01*
X0133791Y0267248D01*
X0133754Y0267136D01*
X0133713Y0267024D01*
X0133668Y0266914D01*
X0133620Y0266806D01*
X0133568Y0266699D01*
X0133513Y0266594D01*
X0133454Y0266491D01*
X0133392Y0266390D01*
X0133327Y0266291D01*
X0133258Y0266194D01*
X0133186Y0266100D01*
X0133111Y0266008D01*
X0133033Y0265919D01*
X0132952Y0265832D01*
X0132868Y0265748D01*
X0132781Y0265667D01*
X0132692Y0265589D01*
X0132600Y0265514D01*
X0132506Y0265442D01*
X0132409Y0265373D01*
X0132310Y0265308D01*
X0132209Y0265246D01*
X0132106Y0265187D01*
X0132001Y0265132D01*
X0131894Y0265080D01*
X0131786Y0265032D01*
X0131676Y0264987D01*
X0131564Y0264946D01*
X0131452Y0264909D01*
X0131338Y0264876D01*
X0131223Y0264847D01*
X0131107Y0264821D01*
X0130990Y0264799D01*
X0130873Y0264782D01*
X0130755Y0264768D01*
X0130637Y0264758D01*
X0130519Y0264752D01*
X0130400Y0264750D01*
X0130281Y0264752D01*
X0130163Y0264758D01*
X0130045Y0264768D01*
X0129927Y0264782D01*
X0129810Y0264799D01*
X0129693Y0264821D01*
X0129577Y0264847D01*
X0129462Y0264876D01*
X0129348Y0264909D01*
X0129236Y0264946D01*
X0129124Y0264987D01*
X0129014Y0265032D01*
X0128906Y0265080D01*
X0128799Y0265132D01*
X0128694Y0265187D01*
X0128591Y0265246D01*
X0128490Y0265308D01*
X0128391Y0265373D01*
X0128294Y0265442D01*
X0128200Y0265514D01*
X0128108Y0265589D01*
X0128019Y0265667D01*
X0127932Y0265748D01*
X0127848Y0265832D01*
X0127767Y0265919D01*
X0127689Y0266008D01*
X0127614Y0266100D01*
X0127542Y0266194D01*
X0127473Y0266291D01*
X0127408Y0266390D01*
X0127346Y0266491D01*
X0127287Y0266594D01*
X0127232Y0266699D01*
X0127180Y0266806D01*
X0127132Y0266914D01*
X0127087Y0267024D01*
X0127046Y0267136D01*
X0127009Y0267248D01*
X0126976Y0267362D01*
X0126947Y0267477D01*
X0126921Y0267593D01*
X0126899Y0267710D01*
X0126882Y0267827D01*
X0126868Y0267945D01*
X0126858Y0268063D01*
X0126852Y0268181D01*
X0126850Y0268300D01*
X0126850Y0303700D02*
X0126852Y0303819D01*
X0126858Y0303937D01*
X0126868Y0304055D01*
X0126882Y0304173D01*
X0126899Y0304290D01*
X0126921Y0304407D01*
X0126947Y0304523D01*
X0126976Y0304638D01*
X0127009Y0304752D01*
X0127046Y0304864D01*
X0127087Y0304976D01*
X0127132Y0305086D01*
X0127180Y0305194D01*
X0127232Y0305301D01*
X0127287Y0305406D01*
X0127346Y0305509D01*
X0127408Y0305610D01*
X0127473Y0305709D01*
X0127542Y0305806D01*
X0127614Y0305900D01*
X0127689Y0305992D01*
X0127767Y0306081D01*
X0127848Y0306168D01*
X0127932Y0306252D01*
X0128019Y0306333D01*
X0128108Y0306411D01*
X0128200Y0306486D01*
X0128294Y0306558D01*
X0128391Y0306627D01*
X0128490Y0306692D01*
X0128591Y0306754D01*
X0128694Y0306813D01*
X0128799Y0306868D01*
X0128906Y0306920D01*
X0129014Y0306968D01*
X0129124Y0307013D01*
X0129236Y0307054D01*
X0129348Y0307091D01*
X0129462Y0307124D01*
X0129577Y0307153D01*
X0129693Y0307179D01*
X0129810Y0307201D01*
X0129927Y0307218D01*
X0130045Y0307232D01*
X0130163Y0307242D01*
X0130281Y0307248D01*
X0130400Y0307250D01*
X0130519Y0307248D01*
X0130637Y0307242D01*
X0130755Y0307232D01*
X0130873Y0307218D01*
X0130990Y0307201D01*
X0131107Y0307179D01*
X0131223Y0307153D01*
X0131338Y0307124D01*
X0131452Y0307091D01*
X0131564Y0307054D01*
X0131676Y0307013D01*
X0131786Y0306968D01*
X0131894Y0306920D01*
X0132001Y0306868D01*
X0132106Y0306813D01*
X0132209Y0306754D01*
X0132310Y0306692D01*
X0132409Y0306627D01*
X0132506Y0306558D01*
X0132600Y0306486D01*
X0132692Y0306411D01*
X0132781Y0306333D01*
X0132868Y0306252D01*
X0132952Y0306168D01*
X0133033Y0306081D01*
X0133111Y0305992D01*
X0133186Y0305900D01*
X0133258Y0305806D01*
X0133327Y0305709D01*
X0133392Y0305610D01*
X0133454Y0305509D01*
X0133513Y0305406D01*
X0133568Y0305301D01*
X0133620Y0305194D01*
X0133668Y0305086D01*
X0133713Y0304976D01*
X0133754Y0304864D01*
X0133791Y0304752D01*
X0133824Y0304638D01*
X0133853Y0304523D01*
X0133879Y0304407D01*
X0133901Y0304290D01*
X0133918Y0304173D01*
X0133932Y0304055D01*
X0133942Y0303937D01*
X0133948Y0303819D01*
X0133950Y0303700D01*
X0133948Y0303581D01*
X0133942Y0303463D01*
X0133932Y0303345D01*
X0133918Y0303227D01*
X0133901Y0303110D01*
X0133879Y0302993D01*
X0133853Y0302877D01*
X0133824Y0302762D01*
X0133791Y0302648D01*
X0133754Y0302536D01*
X0133713Y0302424D01*
X0133668Y0302314D01*
X0133620Y0302206D01*
X0133568Y0302099D01*
X0133513Y0301994D01*
X0133454Y0301891D01*
X0133392Y0301790D01*
X0133327Y0301691D01*
X0133258Y0301594D01*
X0133186Y0301500D01*
X0133111Y0301408D01*
X0133033Y0301319D01*
X0132952Y0301232D01*
X0132868Y0301148D01*
X0132781Y0301067D01*
X0132692Y0300989D01*
X0132600Y0300914D01*
X0132506Y0300842D01*
X0132409Y0300773D01*
X0132310Y0300708D01*
X0132209Y0300646D01*
X0132106Y0300587D01*
X0132001Y0300532D01*
X0131894Y0300480D01*
X0131786Y0300432D01*
X0131676Y0300387D01*
X0131564Y0300346D01*
X0131452Y0300309D01*
X0131338Y0300276D01*
X0131223Y0300247D01*
X0131107Y0300221D01*
X0130990Y0300199D01*
X0130873Y0300182D01*
X0130755Y0300168D01*
X0130637Y0300158D01*
X0130519Y0300152D01*
X0130400Y0300150D01*
X0130281Y0300152D01*
X0130163Y0300158D01*
X0130045Y0300168D01*
X0129927Y0300182D01*
X0129810Y0300199D01*
X0129693Y0300221D01*
X0129577Y0300247D01*
X0129462Y0300276D01*
X0129348Y0300309D01*
X0129236Y0300346D01*
X0129124Y0300387D01*
X0129014Y0300432D01*
X0128906Y0300480D01*
X0128799Y0300532D01*
X0128694Y0300587D01*
X0128591Y0300646D01*
X0128490Y0300708D01*
X0128391Y0300773D01*
X0128294Y0300842D01*
X0128200Y0300914D01*
X0128108Y0300989D01*
X0128019Y0301067D01*
X0127932Y0301148D01*
X0127848Y0301232D01*
X0127767Y0301319D01*
X0127689Y0301408D01*
X0127614Y0301500D01*
X0127542Y0301594D01*
X0127473Y0301691D01*
X0127408Y0301790D01*
X0127346Y0301891D01*
X0127287Y0301994D01*
X0127232Y0302099D01*
X0127180Y0302206D01*
X0127132Y0302314D01*
X0127087Y0302424D01*
X0127046Y0302536D01*
X0127009Y0302648D01*
X0126976Y0302762D01*
X0126947Y0302877D01*
X0126921Y0302993D01*
X0126899Y0303110D01*
X0126882Y0303227D01*
X0126868Y0303345D01*
X0126858Y0303463D01*
X0126852Y0303581D01*
X0126850Y0303700D01*
D11*
X0126400Y0310000D02*
X0123400Y0310000D01*
X0110400Y0310000D01*
X0111400Y0311000D01*
X0123400Y0311000D01*
X0123400Y0310000D01*
X0126400Y0310000D02*
X0126400Y0311500D01*
X0134400Y0311500D01*
X0134400Y0310000D01*
X0137400Y0310000D01*
X0137400Y0311000D01*
X0149400Y0311000D01*
X0150400Y0310000D01*
X0137400Y0310000D01*
X0134400Y0310000D02*
X0126400Y0310000D01*
X0110400Y0310000D02*
X0106400Y0306000D01*
X0106400Y0301000D01*
X0106400Y0290500D02*
X0106400Y0281500D01*
X0106400Y0271000D02*
X0106400Y0266000D01*
X0110400Y0262000D01*
X0111400Y0261000D01*
X0123400Y0261000D01*
X0123400Y0262000D01*
X0126400Y0262000D01*
X0126400Y0260500D01*
X0134400Y0260500D01*
X0134400Y0262000D01*
X0137400Y0262000D01*
X0137400Y0261000D01*
X0149400Y0261000D01*
X0150400Y0262000D01*
X0154400Y0266000D01*
X0154400Y0271000D01*
X0150400Y0262000D02*
X0137400Y0262000D01*
X0134400Y0262000D02*
X0126400Y0262000D01*
X0123400Y0262000D02*
X0110400Y0262000D01*
X0094900Y0274500D02*
X0094900Y0276000D01*
X0094400Y0276500D01*
X0094400Y0295500D01*
X0094900Y0296000D01*
X0094900Y0297500D01*
X0094898Y0297560D01*
X0094893Y0297621D01*
X0094884Y0297680D01*
X0094871Y0297739D01*
X0094855Y0297798D01*
X0094835Y0297855D01*
X0094812Y0297910D01*
X0094785Y0297965D01*
X0094756Y0298017D01*
X0094723Y0298068D01*
X0094687Y0298117D01*
X0094649Y0298163D01*
X0094607Y0298207D01*
X0094563Y0298249D01*
X0094517Y0298287D01*
X0094468Y0298323D01*
X0094417Y0298356D01*
X0094365Y0298385D01*
X0094310Y0298412D01*
X0094255Y0298435D01*
X0094198Y0298455D01*
X0094139Y0298471D01*
X0094080Y0298484D01*
X0094021Y0298493D01*
X0093960Y0298498D01*
X0093900Y0298500D01*
X0086900Y0298500D02*
X0086840Y0298498D01*
X0086779Y0298493D01*
X0086720Y0298484D01*
X0086661Y0298471D01*
X0086602Y0298455D01*
X0086545Y0298435D01*
X0086490Y0298412D01*
X0086435Y0298385D01*
X0086383Y0298356D01*
X0086332Y0298323D01*
X0086283Y0298287D01*
X0086237Y0298249D01*
X0086193Y0298207D01*
X0086151Y0298163D01*
X0086113Y0298117D01*
X0086077Y0298068D01*
X0086044Y0298017D01*
X0086015Y0297965D01*
X0085988Y0297910D01*
X0085965Y0297855D01*
X0085945Y0297798D01*
X0085929Y0297739D01*
X0085916Y0297680D01*
X0085907Y0297621D01*
X0085902Y0297560D01*
X0085900Y0297500D01*
X0085900Y0296000D01*
X0086400Y0295500D01*
X0086400Y0276500D01*
X0085900Y0276000D01*
X0085900Y0274500D01*
X0085902Y0274440D01*
X0085907Y0274379D01*
X0085916Y0274320D01*
X0085929Y0274261D01*
X0085945Y0274202D01*
X0085965Y0274145D01*
X0085988Y0274090D01*
X0086015Y0274035D01*
X0086044Y0273983D01*
X0086077Y0273932D01*
X0086113Y0273883D01*
X0086151Y0273837D01*
X0086193Y0273793D01*
X0086237Y0273751D01*
X0086283Y0273713D01*
X0086332Y0273677D01*
X0086383Y0273644D01*
X0086435Y0273615D01*
X0086490Y0273588D01*
X0086545Y0273565D01*
X0086602Y0273545D01*
X0086661Y0273529D01*
X0086720Y0273516D01*
X0086779Y0273507D01*
X0086840Y0273502D01*
X0086900Y0273500D01*
X0093900Y0273500D02*
X0093960Y0273502D01*
X0094021Y0273507D01*
X0094080Y0273516D01*
X0094139Y0273529D01*
X0094198Y0273545D01*
X0094255Y0273565D01*
X0094310Y0273588D01*
X0094365Y0273615D01*
X0094417Y0273644D01*
X0094468Y0273677D01*
X0094517Y0273713D01*
X0094563Y0273751D01*
X0094607Y0273793D01*
X0094649Y0273837D01*
X0094687Y0273883D01*
X0094723Y0273932D01*
X0094756Y0273983D01*
X0094785Y0274035D01*
X0094812Y0274090D01*
X0094835Y0274145D01*
X0094855Y0274202D01*
X0094871Y0274261D01*
X0094884Y0274320D01*
X0094893Y0274379D01*
X0094898Y0274440D01*
X0094900Y0274500D01*
X0059400Y0286000D02*
X0059403Y0286270D01*
X0059413Y0286540D01*
X0059430Y0286809D01*
X0059453Y0287078D01*
X0059483Y0287347D01*
X0059519Y0287614D01*
X0059562Y0287881D01*
X0059611Y0288146D01*
X0059667Y0288410D01*
X0059730Y0288673D01*
X0059798Y0288934D01*
X0059874Y0289193D01*
X0059955Y0289450D01*
X0060043Y0289706D01*
X0060137Y0289959D01*
X0060237Y0290210D01*
X0060344Y0290458D01*
X0060456Y0290703D01*
X0060575Y0290946D01*
X0060699Y0291185D01*
X0060829Y0291422D01*
X0060965Y0291655D01*
X0061107Y0291885D01*
X0061254Y0292111D01*
X0061407Y0292334D01*
X0061565Y0292553D01*
X0061728Y0292768D01*
X0061897Y0292978D01*
X0062071Y0293185D01*
X0062250Y0293387D01*
X0062433Y0293585D01*
X0062622Y0293778D01*
X0062815Y0293967D01*
X0063013Y0294150D01*
X0063215Y0294329D01*
X0063422Y0294503D01*
X0063632Y0294672D01*
X0063847Y0294835D01*
X0064066Y0294993D01*
X0064289Y0295146D01*
X0064515Y0295293D01*
X0064745Y0295435D01*
X0064978Y0295571D01*
X0065215Y0295701D01*
X0065454Y0295825D01*
X0065697Y0295944D01*
X0065942Y0296056D01*
X0066190Y0296163D01*
X0066441Y0296263D01*
X0066694Y0296357D01*
X0066950Y0296445D01*
X0067207Y0296526D01*
X0067466Y0296602D01*
X0067727Y0296670D01*
X0067990Y0296733D01*
X0068254Y0296789D01*
X0068519Y0296838D01*
X0068786Y0296881D01*
X0069053Y0296917D01*
X0069322Y0296947D01*
X0069591Y0296970D01*
X0069860Y0296987D01*
X0070130Y0296997D01*
X0070400Y0297000D01*
X0070670Y0296997D01*
X0070940Y0296987D01*
X0071209Y0296970D01*
X0071478Y0296947D01*
X0071747Y0296917D01*
X0072014Y0296881D01*
X0072281Y0296838D01*
X0072546Y0296789D01*
X0072810Y0296733D01*
X0073073Y0296670D01*
X0073334Y0296602D01*
X0073593Y0296526D01*
X0073850Y0296445D01*
X0074106Y0296357D01*
X0074359Y0296263D01*
X0074610Y0296163D01*
X0074858Y0296056D01*
X0075103Y0295944D01*
X0075346Y0295825D01*
X0075585Y0295701D01*
X0075822Y0295571D01*
X0076055Y0295435D01*
X0076285Y0295293D01*
X0076511Y0295146D01*
X0076734Y0294993D01*
X0076953Y0294835D01*
X0077168Y0294672D01*
X0077378Y0294503D01*
X0077585Y0294329D01*
X0077787Y0294150D01*
X0077985Y0293967D01*
X0078178Y0293778D01*
X0078367Y0293585D01*
X0078550Y0293387D01*
X0078729Y0293185D01*
X0078903Y0292978D01*
X0079072Y0292768D01*
X0079235Y0292553D01*
X0079393Y0292334D01*
X0079546Y0292111D01*
X0079693Y0291885D01*
X0079835Y0291655D01*
X0079971Y0291422D01*
X0080101Y0291185D01*
X0080225Y0290946D01*
X0080344Y0290703D01*
X0080456Y0290458D01*
X0080563Y0290210D01*
X0080663Y0289959D01*
X0080757Y0289706D01*
X0080845Y0289450D01*
X0080926Y0289193D01*
X0081002Y0288934D01*
X0081070Y0288673D01*
X0081133Y0288410D01*
X0081189Y0288146D01*
X0081238Y0287881D01*
X0081281Y0287614D01*
X0081317Y0287347D01*
X0081347Y0287078D01*
X0081370Y0286809D01*
X0081387Y0286540D01*
X0081397Y0286270D01*
X0081400Y0286000D01*
X0081397Y0285730D01*
X0081387Y0285460D01*
X0081370Y0285191D01*
X0081347Y0284922D01*
X0081317Y0284653D01*
X0081281Y0284386D01*
X0081238Y0284119D01*
X0081189Y0283854D01*
X0081133Y0283590D01*
X0081070Y0283327D01*
X0081002Y0283066D01*
X0080926Y0282807D01*
X0080845Y0282550D01*
X0080757Y0282294D01*
X0080663Y0282041D01*
X0080563Y0281790D01*
X0080456Y0281542D01*
X0080344Y0281297D01*
X0080225Y0281054D01*
X0080101Y0280815D01*
X0079971Y0280578D01*
X0079835Y0280345D01*
X0079693Y0280115D01*
X0079546Y0279889D01*
X0079393Y0279666D01*
X0079235Y0279447D01*
X0079072Y0279232D01*
X0078903Y0279022D01*
X0078729Y0278815D01*
X0078550Y0278613D01*
X0078367Y0278415D01*
X0078178Y0278222D01*
X0077985Y0278033D01*
X0077787Y0277850D01*
X0077585Y0277671D01*
X0077378Y0277497D01*
X0077168Y0277328D01*
X0076953Y0277165D01*
X0076734Y0277007D01*
X0076511Y0276854D01*
X0076285Y0276707D01*
X0076055Y0276565D01*
X0075822Y0276429D01*
X0075585Y0276299D01*
X0075346Y0276175D01*
X0075103Y0276056D01*
X0074858Y0275944D01*
X0074610Y0275837D01*
X0074359Y0275737D01*
X0074106Y0275643D01*
X0073850Y0275555D01*
X0073593Y0275474D01*
X0073334Y0275398D01*
X0073073Y0275330D01*
X0072810Y0275267D01*
X0072546Y0275211D01*
X0072281Y0275162D01*
X0072014Y0275119D01*
X0071747Y0275083D01*
X0071478Y0275053D01*
X0071209Y0275030D01*
X0070940Y0275013D01*
X0070670Y0275003D01*
X0070400Y0275000D01*
X0070130Y0275003D01*
X0069860Y0275013D01*
X0069591Y0275030D01*
X0069322Y0275053D01*
X0069053Y0275083D01*
X0068786Y0275119D01*
X0068519Y0275162D01*
X0068254Y0275211D01*
X0067990Y0275267D01*
X0067727Y0275330D01*
X0067466Y0275398D01*
X0067207Y0275474D01*
X0066950Y0275555D01*
X0066694Y0275643D01*
X0066441Y0275737D01*
X0066190Y0275837D01*
X0065942Y0275944D01*
X0065697Y0276056D01*
X0065454Y0276175D01*
X0065215Y0276299D01*
X0064978Y0276429D01*
X0064745Y0276565D01*
X0064515Y0276707D01*
X0064289Y0276854D01*
X0064066Y0277007D01*
X0063847Y0277165D01*
X0063632Y0277328D01*
X0063422Y0277497D01*
X0063215Y0277671D01*
X0063013Y0277850D01*
X0062815Y0278033D01*
X0062622Y0278222D01*
X0062433Y0278415D01*
X0062250Y0278613D01*
X0062071Y0278815D01*
X0061897Y0279022D01*
X0061728Y0279232D01*
X0061565Y0279447D01*
X0061407Y0279666D01*
X0061254Y0279889D01*
X0061107Y0280115D01*
X0060965Y0280345D01*
X0060829Y0280578D01*
X0060699Y0280815D01*
X0060575Y0281054D01*
X0060456Y0281297D01*
X0060344Y0281542D01*
X0060237Y0281790D01*
X0060137Y0282041D01*
X0060043Y0282294D01*
X0059955Y0282550D01*
X0059874Y0282807D01*
X0059798Y0283066D01*
X0059730Y0283327D01*
X0059667Y0283590D01*
X0059611Y0283854D01*
X0059562Y0284119D01*
X0059519Y0284386D01*
X0059483Y0284653D01*
X0059453Y0284922D01*
X0059430Y0285191D01*
X0059413Y0285460D01*
X0059403Y0285730D01*
X0059400Y0286000D01*
X0065400Y0281000D02*
X0065400Y0279500D01*
X0063900Y0279500D01*
X0065400Y0279500D02*
X0065400Y0278000D01*
X0065400Y0279500D02*
X0066900Y0279500D01*
X0020400Y0278500D02*
X0020400Y0283500D01*
X0017900Y0286000D01*
X0020400Y0288500D01*
X0020400Y0293500D01*
X0017900Y0296000D01*
X0020400Y0298500D01*
X0020400Y0303500D01*
X0017900Y0306000D01*
X0012900Y0306000D01*
X0010400Y0303500D01*
X0010400Y0298500D01*
X0012900Y0296000D01*
X0017900Y0296000D01*
X0012900Y0296000D02*
X0010400Y0293500D01*
X0010400Y0288500D01*
X0012900Y0286000D01*
X0017900Y0286000D01*
X0012900Y0286000D02*
X0010400Y0283500D01*
X0010400Y0278500D01*
X0012900Y0276000D01*
X0017900Y0276000D01*
X0020400Y0278500D01*
X0017900Y0276000D02*
X0020400Y0273500D01*
X0020400Y0268500D01*
X0017900Y0266000D01*
X0020400Y0263500D01*
X0020400Y0258500D01*
X0017900Y0256000D01*
X0012900Y0256000D01*
X0010400Y0258500D01*
X0010400Y0263500D01*
X0012900Y0266000D01*
X0010400Y0268500D01*
X0010400Y0273500D01*
X0012900Y0276000D01*
X0012900Y0266000D02*
X0017900Y0266000D01*
X0017900Y0256000D02*
X0020400Y0253500D01*
X0020400Y0248500D01*
X0017900Y0246000D01*
X0012900Y0246000D01*
X0010400Y0248500D01*
X0010400Y0253500D01*
X0012900Y0256000D01*
X0012900Y0246000D02*
X0010400Y0243500D01*
X0010400Y0238500D01*
X0012900Y0236000D01*
X0017900Y0236000D01*
X0020400Y0238500D01*
X0020400Y0243500D01*
X0017900Y0246000D01*
X0017900Y0236000D02*
X0020400Y0233500D01*
X0020400Y0228500D01*
X0017900Y0226000D01*
X0012900Y0226000D01*
X0010400Y0228500D01*
X0010400Y0233500D01*
X0012900Y0236000D01*
X0012900Y0226000D02*
X0010400Y0223500D01*
X0010400Y0218500D01*
X0012900Y0216000D01*
X0017900Y0216000D01*
X0020400Y0218500D01*
X0020400Y0223500D01*
X0017900Y0226000D01*
X0017900Y0216000D02*
X0020400Y0213500D01*
X0020400Y0208500D01*
X0017900Y0206000D01*
X0012900Y0206000D01*
X0010400Y0208500D01*
X0010400Y0213500D01*
X0012900Y0216000D01*
X0012900Y0206000D02*
X0010400Y0203500D01*
X0010400Y0198500D01*
X0012900Y0196000D01*
X0017900Y0196000D01*
X0020400Y0198500D01*
X0020400Y0203500D01*
X0017900Y0206000D01*
X0017900Y0196000D02*
X0020400Y0193500D01*
X0020400Y0188500D01*
X0017900Y0186000D01*
X0020400Y0183500D01*
X0020400Y0178500D01*
X0017900Y0176000D01*
X0020400Y0173500D01*
X0020400Y0168500D01*
X0017900Y0166000D01*
X0020400Y0163500D01*
X0020400Y0158500D01*
X0017900Y0156000D01*
X0020400Y0153500D01*
X0020400Y0148500D01*
X0017900Y0146000D01*
X0020400Y0143500D01*
X0020400Y0138500D01*
X0017900Y0136000D01*
X0020400Y0133500D01*
X0020400Y0128500D01*
X0017900Y0126000D01*
X0020400Y0123500D01*
X0020400Y0118500D01*
X0017900Y0116000D01*
X0020400Y0113500D01*
X0020400Y0108500D01*
X0017900Y0106000D01*
X0020400Y0103500D01*
X0020400Y0098500D01*
X0017900Y0096000D01*
X0020400Y0093500D01*
X0020400Y0088500D01*
X0017900Y0086000D01*
X0020400Y0083500D01*
X0020400Y0078500D01*
X0017900Y0076000D01*
X0020400Y0073500D01*
X0020400Y0068500D01*
X0017900Y0066000D01*
X0020400Y0063500D01*
X0020400Y0058500D01*
X0017900Y0056000D01*
X0020400Y0053500D01*
X0020400Y0048500D01*
X0017900Y0046000D01*
X0020400Y0043500D01*
X0020400Y0038500D01*
X0017900Y0036000D01*
X0020400Y0033500D01*
X0020400Y0028500D01*
X0017900Y0026000D01*
X0020400Y0023500D01*
X0020400Y0018500D01*
X0017900Y0016000D01*
X0020400Y0013500D01*
X0020400Y0008500D01*
X0017900Y0006000D01*
X0012900Y0006000D01*
X0010400Y0008500D01*
X0010400Y0013500D01*
X0012900Y0016000D01*
X0010400Y0018500D01*
X0010400Y0023500D01*
X0012900Y0026000D01*
X0017900Y0026000D01*
X0012900Y0026000D02*
X0010400Y0028500D01*
X0010400Y0033500D01*
X0012900Y0036000D01*
X0010400Y0038500D01*
X0010400Y0043500D01*
X0012900Y0046000D01*
X0010400Y0048500D01*
X0010400Y0053500D01*
X0012900Y0056000D01*
X0017900Y0056000D01*
X0012900Y0056000D02*
X0010400Y0058500D01*
X0010400Y0063500D01*
X0012900Y0066000D01*
X0010400Y0068500D01*
X0010400Y0073500D01*
X0012900Y0076000D01*
X0010400Y0078500D01*
X0010400Y0083500D01*
X0012900Y0086000D01*
X0017900Y0086000D01*
X0012900Y0086000D02*
X0010400Y0088500D01*
X0010400Y0093500D01*
X0012900Y0096000D01*
X0010400Y0098500D01*
X0010400Y0103500D01*
X0012900Y0106000D01*
X0010400Y0108500D01*
X0010400Y0113500D01*
X0012900Y0116000D01*
X0017900Y0116000D01*
X0012900Y0116000D02*
X0010400Y0118500D01*
X0010400Y0123500D01*
X0012900Y0126000D01*
X0010400Y0128500D01*
X0010400Y0133500D01*
X0012900Y0136000D01*
X0010400Y0138500D01*
X0010400Y0143500D01*
X0012900Y0146000D01*
X0017900Y0146000D01*
X0012900Y0146000D02*
X0010400Y0148500D01*
X0010400Y0153500D01*
X0012900Y0156000D01*
X0010400Y0158500D01*
X0010400Y0163500D01*
X0012900Y0166000D01*
X0010400Y0168500D01*
X0010400Y0173500D01*
X0012900Y0176000D01*
X0017900Y0176000D01*
X0012900Y0176000D02*
X0010400Y0178500D01*
X0010400Y0183500D01*
X0012900Y0186000D01*
X0010400Y0188500D01*
X0010400Y0193500D01*
X0012900Y0196000D01*
X0012900Y0186000D02*
X0017900Y0186000D01*
X0033900Y0196000D02*
X0056900Y0196000D01*
X0056900Y0116000D01*
X0049400Y0116000D01*
X0049398Y0116126D01*
X0049392Y0116251D01*
X0049382Y0116376D01*
X0049368Y0116501D01*
X0049351Y0116626D01*
X0049329Y0116750D01*
X0049304Y0116873D01*
X0049274Y0116995D01*
X0049241Y0117116D01*
X0049204Y0117236D01*
X0049164Y0117355D01*
X0049119Y0117472D01*
X0049071Y0117589D01*
X0049019Y0117703D01*
X0048964Y0117816D01*
X0048905Y0117927D01*
X0048843Y0118036D01*
X0048777Y0118143D01*
X0048708Y0118248D01*
X0048636Y0118351D01*
X0048561Y0118452D01*
X0048482Y0118550D01*
X0048400Y0118645D01*
X0048316Y0118738D01*
X0048228Y0118828D01*
X0048138Y0118916D01*
X0048045Y0119000D01*
X0047950Y0119082D01*
X0047852Y0119161D01*
X0047751Y0119236D01*
X0047648Y0119308D01*
X0047543Y0119377D01*
X0047436Y0119443D01*
X0047327Y0119505D01*
X0047216Y0119564D01*
X0047103Y0119619D01*
X0046989Y0119671D01*
X0046872Y0119719D01*
X0046755Y0119764D01*
X0046636Y0119804D01*
X0046516Y0119841D01*
X0046395Y0119874D01*
X0046273Y0119904D01*
X0046150Y0119929D01*
X0046026Y0119951D01*
X0045901Y0119968D01*
X0045776Y0119982D01*
X0045651Y0119992D01*
X0045526Y0119998D01*
X0045400Y0120000D01*
X0045274Y0119998D01*
X0045149Y0119992D01*
X0045024Y0119982D01*
X0044899Y0119968D01*
X0044774Y0119951D01*
X0044650Y0119929D01*
X0044527Y0119904D01*
X0044405Y0119874D01*
X0044284Y0119841D01*
X0044164Y0119804D01*
X0044045Y0119764D01*
X0043928Y0119719D01*
X0043811Y0119671D01*
X0043697Y0119619D01*
X0043584Y0119564D01*
X0043473Y0119505D01*
X0043364Y0119443D01*
X0043257Y0119377D01*
X0043152Y0119308D01*
X0043049Y0119236D01*
X0042948Y0119161D01*
X0042850Y0119082D01*
X0042755Y0119000D01*
X0042662Y0118916D01*
X0042572Y0118828D01*
X0042484Y0118738D01*
X0042400Y0118645D01*
X0042318Y0118550D01*
X0042239Y0118452D01*
X0042164Y0118351D01*
X0042092Y0118248D01*
X0042023Y0118143D01*
X0041957Y0118036D01*
X0041895Y0117927D01*
X0041836Y0117816D01*
X0041781Y0117703D01*
X0041729Y0117589D01*
X0041681Y0117472D01*
X0041636Y0117355D01*
X0041596Y0117236D01*
X0041559Y0117116D01*
X0041526Y0116995D01*
X0041496Y0116873D01*
X0041471Y0116750D01*
X0041449Y0116626D01*
X0041432Y0116501D01*
X0041418Y0116376D01*
X0041408Y0116251D01*
X0041402Y0116126D01*
X0041400Y0116000D01*
X0033900Y0116000D01*
X0033900Y0196000D01*
X0017900Y0166000D02*
X0012900Y0166000D01*
X0012900Y0156000D02*
X0017900Y0156000D01*
X0017900Y0136000D02*
X0012900Y0136000D01*
X0012900Y0126000D02*
X0017900Y0126000D01*
X0035900Y0111000D02*
X0035900Y0101000D01*
X0035902Y0100940D01*
X0035907Y0100879D01*
X0035916Y0100820D01*
X0035929Y0100761D01*
X0035945Y0100702D01*
X0035965Y0100645D01*
X0035988Y0100590D01*
X0036015Y0100535D01*
X0036044Y0100483D01*
X0036077Y0100432D01*
X0036113Y0100383D01*
X0036151Y0100337D01*
X0036193Y0100293D01*
X0036237Y0100251D01*
X0036283Y0100213D01*
X0036332Y0100177D01*
X0036383Y0100144D01*
X0036435Y0100115D01*
X0036490Y0100088D01*
X0036545Y0100065D01*
X0036602Y0100045D01*
X0036661Y0100029D01*
X0036720Y0100016D01*
X0036779Y0100007D01*
X0036840Y0100002D01*
X0036900Y0100000D01*
X0053900Y0100000D01*
X0053960Y0100002D01*
X0054021Y0100007D01*
X0054080Y0100016D01*
X0054139Y0100029D01*
X0054198Y0100045D01*
X0054255Y0100065D01*
X0054310Y0100088D01*
X0054365Y0100115D01*
X0054417Y0100144D01*
X0054468Y0100177D01*
X0054517Y0100213D01*
X0054563Y0100251D01*
X0054607Y0100293D01*
X0054649Y0100337D01*
X0054687Y0100383D01*
X0054723Y0100432D01*
X0054756Y0100483D01*
X0054785Y0100535D01*
X0054812Y0100590D01*
X0054835Y0100645D01*
X0054855Y0100702D01*
X0054871Y0100761D01*
X0054884Y0100820D01*
X0054893Y0100879D01*
X0054898Y0100940D01*
X0054900Y0101000D01*
X0054900Y0111000D01*
X0054898Y0111060D01*
X0054893Y0111121D01*
X0054884Y0111180D01*
X0054871Y0111239D01*
X0054855Y0111298D01*
X0054835Y0111355D01*
X0054812Y0111410D01*
X0054785Y0111465D01*
X0054756Y0111517D01*
X0054723Y0111568D01*
X0054687Y0111617D01*
X0054649Y0111663D01*
X0054607Y0111707D01*
X0054563Y0111749D01*
X0054517Y0111787D01*
X0054468Y0111823D01*
X0054417Y0111856D01*
X0054365Y0111885D01*
X0054310Y0111912D01*
X0054255Y0111935D01*
X0054198Y0111955D01*
X0054139Y0111971D01*
X0054080Y0111984D01*
X0054021Y0111993D01*
X0053960Y0111998D01*
X0053900Y0112000D01*
X0036900Y0112000D01*
X0036840Y0111998D01*
X0036779Y0111993D01*
X0036720Y0111984D01*
X0036661Y0111971D01*
X0036602Y0111955D01*
X0036545Y0111935D01*
X0036490Y0111912D01*
X0036435Y0111885D01*
X0036383Y0111856D01*
X0036332Y0111823D01*
X0036283Y0111787D01*
X0036237Y0111749D01*
X0036193Y0111707D01*
X0036151Y0111663D01*
X0036113Y0111617D01*
X0036077Y0111568D01*
X0036044Y0111517D01*
X0036015Y0111465D01*
X0035988Y0111410D01*
X0035965Y0111355D01*
X0035945Y0111298D01*
X0035929Y0111239D01*
X0035916Y0111180D01*
X0035907Y0111121D01*
X0035902Y0111060D01*
X0035900Y0111000D01*
X0043900Y0106000D02*
X0044400Y0106000D01*
X0046400Y0106000D02*
X0046900Y0106000D01*
X0017900Y0106000D02*
X0012900Y0106000D01*
X0012900Y0096000D02*
X0017900Y0096000D01*
X0017900Y0076000D02*
X0012900Y0076000D01*
X0012900Y0066000D02*
X0017900Y0066000D01*
X0017900Y0046000D02*
X0012900Y0046000D01*
X0012900Y0036000D02*
X0017900Y0036000D01*
X0017900Y0016000D02*
X0012900Y0016000D01*
X0108900Y0046000D02*
X0161900Y0046000D01*
X0161900Y0186000D01*
X0139400Y0186000D01*
X0139398Y0185874D01*
X0139392Y0185749D01*
X0139382Y0185624D01*
X0139368Y0185499D01*
X0139351Y0185374D01*
X0139329Y0185250D01*
X0139304Y0185127D01*
X0139274Y0185005D01*
X0139241Y0184884D01*
X0139204Y0184764D01*
X0139164Y0184645D01*
X0139119Y0184528D01*
X0139071Y0184411D01*
X0139019Y0184297D01*
X0138964Y0184184D01*
X0138905Y0184073D01*
X0138843Y0183964D01*
X0138777Y0183857D01*
X0138708Y0183752D01*
X0138636Y0183649D01*
X0138561Y0183548D01*
X0138482Y0183450D01*
X0138400Y0183355D01*
X0138316Y0183262D01*
X0138228Y0183172D01*
X0138138Y0183084D01*
X0138045Y0183000D01*
X0137950Y0182918D01*
X0137852Y0182839D01*
X0137751Y0182764D01*
X0137648Y0182692D01*
X0137543Y0182623D01*
X0137436Y0182557D01*
X0137327Y0182495D01*
X0137216Y0182436D01*
X0137103Y0182381D01*
X0136989Y0182329D01*
X0136872Y0182281D01*
X0136755Y0182236D01*
X0136636Y0182196D01*
X0136516Y0182159D01*
X0136395Y0182126D01*
X0136273Y0182096D01*
X0136150Y0182071D01*
X0136026Y0182049D01*
X0135901Y0182032D01*
X0135776Y0182018D01*
X0135651Y0182008D01*
X0135526Y0182002D01*
X0135400Y0182000D01*
X0135274Y0182002D01*
X0135149Y0182008D01*
X0135024Y0182018D01*
X0134899Y0182032D01*
X0134774Y0182049D01*
X0134650Y0182071D01*
X0134527Y0182096D01*
X0134405Y0182126D01*
X0134284Y0182159D01*
X0134164Y0182196D01*
X0134045Y0182236D01*
X0133928Y0182281D01*
X0133811Y0182329D01*
X0133697Y0182381D01*
X0133584Y0182436D01*
X0133473Y0182495D01*
X0133364Y0182557D01*
X0133257Y0182623D01*
X0133152Y0182692D01*
X0133049Y0182764D01*
X0132948Y0182839D01*
X0132850Y0182918D01*
X0132755Y0183000D01*
X0132662Y0183084D01*
X0132572Y0183172D01*
X0132484Y0183262D01*
X0132400Y0183355D01*
X0132318Y0183450D01*
X0132239Y0183548D01*
X0132164Y0183649D01*
X0132092Y0183752D01*
X0132023Y0183857D01*
X0131957Y0183964D01*
X0131895Y0184073D01*
X0131836Y0184184D01*
X0131781Y0184297D01*
X0131729Y0184411D01*
X0131681Y0184528D01*
X0131636Y0184645D01*
X0131596Y0184764D01*
X0131559Y0184884D01*
X0131526Y0185005D01*
X0131496Y0185127D01*
X0131471Y0185250D01*
X0131449Y0185374D01*
X0131432Y0185499D01*
X0131418Y0185624D01*
X0131408Y0185749D01*
X0131402Y0185874D01*
X0131400Y0186000D01*
X0108900Y0186000D01*
X0108900Y0046000D01*
X0189400Y0046500D02*
X0189400Y0185500D01*
X0210400Y0185500D01*
X0210402Y0185360D01*
X0210408Y0185220D01*
X0210418Y0185080D01*
X0210431Y0184940D01*
X0210449Y0184801D01*
X0210471Y0184662D01*
X0210496Y0184525D01*
X0210525Y0184387D01*
X0210558Y0184251D01*
X0210595Y0184116D01*
X0210636Y0183982D01*
X0210681Y0183849D01*
X0210729Y0183717D01*
X0210781Y0183587D01*
X0210836Y0183458D01*
X0210895Y0183331D01*
X0210958Y0183205D01*
X0211024Y0183081D01*
X0211093Y0182960D01*
X0211166Y0182840D01*
X0211243Y0182722D01*
X0211322Y0182607D01*
X0211405Y0182493D01*
X0211491Y0182383D01*
X0211580Y0182274D01*
X0211672Y0182168D01*
X0211767Y0182065D01*
X0211864Y0181964D01*
X0211965Y0181867D01*
X0212068Y0181772D01*
X0212174Y0181680D01*
X0212283Y0181591D01*
X0212393Y0181505D01*
X0212507Y0181422D01*
X0212622Y0181343D01*
X0212740Y0181266D01*
X0212860Y0181193D01*
X0212981Y0181124D01*
X0213105Y0181058D01*
X0213231Y0180995D01*
X0213358Y0180936D01*
X0213487Y0180881D01*
X0213617Y0180829D01*
X0213749Y0180781D01*
X0213882Y0180736D01*
X0214016Y0180695D01*
X0214151Y0180658D01*
X0214287Y0180625D01*
X0214425Y0180596D01*
X0214562Y0180571D01*
X0214701Y0180549D01*
X0214840Y0180531D01*
X0214980Y0180518D01*
X0215120Y0180508D01*
X0215260Y0180502D01*
X0215400Y0180500D01*
X0215540Y0180502D01*
X0215680Y0180508D01*
X0215820Y0180518D01*
X0215960Y0180531D01*
X0216099Y0180549D01*
X0216238Y0180571D01*
X0216375Y0180596D01*
X0216513Y0180625D01*
X0216649Y0180658D01*
X0216784Y0180695D01*
X0216918Y0180736D01*
X0217051Y0180781D01*
X0217183Y0180829D01*
X0217313Y0180881D01*
X0217442Y0180936D01*
X0217569Y0180995D01*
X0217695Y0181058D01*
X0217819Y0181124D01*
X0217940Y0181193D01*
X0218060Y0181266D01*
X0218178Y0181343D01*
X0218293Y0181422D01*
X0218407Y0181505D01*
X0218517Y0181591D01*
X0218626Y0181680D01*
X0218732Y0181772D01*
X0218835Y0181867D01*
X0218936Y0181964D01*
X0219033Y0182065D01*
X0219128Y0182168D01*
X0219220Y0182274D01*
X0219309Y0182383D01*
X0219395Y0182493D01*
X0219478Y0182607D01*
X0219557Y0182722D01*
X0219634Y0182840D01*
X0219707Y0182960D01*
X0219776Y0183081D01*
X0219842Y0183205D01*
X0219905Y0183331D01*
X0219964Y0183458D01*
X0220019Y0183587D01*
X0220071Y0183717D01*
X0220119Y0183849D01*
X0220164Y0183982D01*
X0220205Y0184116D01*
X0220242Y0184251D01*
X0220275Y0184387D01*
X0220304Y0184525D01*
X0220329Y0184662D01*
X0220351Y0184801D01*
X0220369Y0184940D01*
X0220382Y0185080D01*
X0220392Y0185220D01*
X0220398Y0185360D01*
X0220400Y0185500D01*
X0241400Y0185500D01*
X0241400Y0046500D01*
X0189400Y0046500D01*
X0240900Y0041000D02*
X0240900Y0031000D01*
X0240902Y0030940D01*
X0240907Y0030879D01*
X0240916Y0030820D01*
X0240929Y0030761D01*
X0240945Y0030702D01*
X0240965Y0030645D01*
X0240988Y0030590D01*
X0241015Y0030535D01*
X0241044Y0030483D01*
X0241077Y0030432D01*
X0241113Y0030383D01*
X0241151Y0030337D01*
X0241193Y0030293D01*
X0241237Y0030251D01*
X0241283Y0030213D01*
X0241332Y0030177D01*
X0241383Y0030144D01*
X0241435Y0030115D01*
X0241490Y0030088D01*
X0241545Y0030065D01*
X0241602Y0030045D01*
X0241661Y0030029D01*
X0241720Y0030016D01*
X0241779Y0030007D01*
X0241840Y0030002D01*
X0241900Y0030000D01*
X0258900Y0030000D01*
X0258960Y0030002D01*
X0259021Y0030007D01*
X0259080Y0030016D01*
X0259139Y0030029D01*
X0259198Y0030045D01*
X0259255Y0030065D01*
X0259310Y0030088D01*
X0259365Y0030115D01*
X0259417Y0030144D01*
X0259468Y0030177D01*
X0259517Y0030213D01*
X0259563Y0030251D01*
X0259607Y0030293D01*
X0259649Y0030337D01*
X0259687Y0030383D01*
X0259723Y0030432D01*
X0259756Y0030483D01*
X0259785Y0030535D01*
X0259812Y0030590D01*
X0259835Y0030645D01*
X0259855Y0030702D01*
X0259871Y0030761D01*
X0259884Y0030820D01*
X0259893Y0030879D01*
X0259898Y0030940D01*
X0259900Y0031000D01*
X0259900Y0041000D01*
X0259898Y0041060D01*
X0259893Y0041121D01*
X0259884Y0041180D01*
X0259871Y0041239D01*
X0259855Y0041298D01*
X0259835Y0041355D01*
X0259812Y0041410D01*
X0259785Y0041465D01*
X0259756Y0041517D01*
X0259723Y0041568D01*
X0259687Y0041617D01*
X0259649Y0041663D01*
X0259607Y0041707D01*
X0259563Y0041749D01*
X0259517Y0041787D01*
X0259468Y0041823D01*
X0259417Y0041856D01*
X0259365Y0041885D01*
X0259310Y0041912D01*
X0259255Y0041935D01*
X0259198Y0041955D01*
X0259139Y0041971D01*
X0259080Y0041984D01*
X0259021Y0041993D01*
X0258960Y0041998D01*
X0258900Y0042000D01*
X0241900Y0042000D01*
X0241840Y0041998D01*
X0241779Y0041993D01*
X0241720Y0041984D01*
X0241661Y0041971D01*
X0241602Y0041955D01*
X0241545Y0041935D01*
X0241490Y0041912D01*
X0241435Y0041885D01*
X0241383Y0041856D01*
X0241332Y0041823D01*
X0241283Y0041787D01*
X0241237Y0041749D01*
X0241193Y0041707D01*
X0241151Y0041663D01*
X0241113Y0041617D01*
X0241077Y0041568D01*
X0241044Y0041517D01*
X0241015Y0041465D01*
X0240988Y0041410D01*
X0240965Y0041355D01*
X0240945Y0041298D01*
X0240929Y0041239D01*
X0240916Y0041180D01*
X0240907Y0041121D01*
X0240902Y0041060D01*
X0240900Y0041000D01*
X0248900Y0036000D02*
X0249400Y0036000D01*
X0251400Y0036000D02*
X0251900Y0036000D01*
X0258900Y0027000D02*
X0241900Y0027000D01*
X0241840Y0026998D01*
X0241779Y0026993D01*
X0241720Y0026984D01*
X0241661Y0026971D01*
X0241602Y0026955D01*
X0241545Y0026935D01*
X0241490Y0026912D01*
X0241435Y0026885D01*
X0241383Y0026856D01*
X0241332Y0026823D01*
X0241283Y0026787D01*
X0241237Y0026749D01*
X0241193Y0026707D01*
X0241151Y0026663D01*
X0241113Y0026617D01*
X0241077Y0026568D01*
X0241044Y0026517D01*
X0241015Y0026465D01*
X0240988Y0026410D01*
X0240965Y0026355D01*
X0240945Y0026298D01*
X0240929Y0026239D01*
X0240916Y0026180D01*
X0240907Y0026121D01*
X0240902Y0026060D01*
X0240900Y0026000D01*
X0240900Y0016000D01*
X0240902Y0015940D01*
X0240907Y0015879D01*
X0240916Y0015820D01*
X0240929Y0015761D01*
X0240945Y0015702D01*
X0240965Y0015645D01*
X0240988Y0015590D01*
X0241015Y0015535D01*
X0241044Y0015483D01*
X0241077Y0015432D01*
X0241113Y0015383D01*
X0241151Y0015337D01*
X0241193Y0015293D01*
X0241237Y0015251D01*
X0241283Y0015213D01*
X0241332Y0015177D01*
X0241383Y0015144D01*
X0241435Y0015115D01*
X0241490Y0015088D01*
X0241545Y0015065D01*
X0241602Y0015045D01*
X0241661Y0015029D01*
X0241720Y0015016D01*
X0241779Y0015007D01*
X0241840Y0015002D01*
X0241900Y0015000D01*
X0258900Y0015000D01*
X0258960Y0015002D01*
X0259021Y0015007D01*
X0259080Y0015016D01*
X0259139Y0015029D01*
X0259198Y0015045D01*
X0259255Y0015065D01*
X0259310Y0015088D01*
X0259365Y0015115D01*
X0259417Y0015144D01*
X0259468Y0015177D01*
X0259517Y0015213D01*
X0259563Y0015251D01*
X0259607Y0015293D01*
X0259649Y0015337D01*
X0259687Y0015383D01*
X0259723Y0015432D01*
X0259756Y0015483D01*
X0259785Y0015535D01*
X0259812Y0015590D01*
X0259835Y0015645D01*
X0259855Y0015702D01*
X0259871Y0015761D01*
X0259884Y0015820D01*
X0259893Y0015879D01*
X0259898Y0015940D01*
X0259900Y0016000D01*
X0259900Y0026000D01*
X0259898Y0026060D01*
X0259893Y0026121D01*
X0259884Y0026180D01*
X0259871Y0026239D01*
X0259855Y0026298D01*
X0259835Y0026355D01*
X0259812Y0026410D01*
X0259785Y0026465D01*
X0259756Y0026517D01*
X0259723Y0026568D01*
X0259687Y0026617D01*
X0259649Y0026663D01*
X0259607Y0026707D01*
X0259563Y0026749D01*
X0259517Y0026787D01*
X0259468Y0026823D01*
X0259417Y0026856D01*
X0259365Y0026885D01*
X0259310Y0026912D01*
X0259255Y0026935D01*
X0259198Y0026955D01*
X0259139Y0026971D01*
X0259080Y0026984D01*
X0259021Y0026993D01*
X0258960Y0026998D01*
X0258900Y0027000D01*
X0251900Y0021000D02*
X0251400Y0021000D01*
X0249400Y0021000D02*
X0248900Y0021000D01*
X0288900Y0016000D02*
X0311900Y0016000D01*
X0311902Y0016126D01*
X0311908Y0016251D01*
X0311918Y0016376D01*
X0311932Y0016501D01*
X0311949Y0016626D01*
X0311971Y0016750D01*
X0311996Y0016873D01*
X0312026Y0016995D01*
X0312059Y0017116D01*
X0312096Y0017236D01*
X0312136Y0017355D01*
X0312181Y0017472D01*
X0312229Y0017589D01*
X0312281Y0017703D01*
X0312336Y0017816D01*
X0312395Y0017927D01*
X0312457Y0018036D01*
X0312523Y0018143D01*
X0312592Y0018248D01*
X0312664Y0018351D01*
X0312739Y0018452D01*
X0312818Y0018550D01*
X0312900Y0018645D01*
X0312984Y0018738D01*
X0313072Y0018828D01*
X0313162Y0018916D01*
X0313255Y0019000D01*
X0313350Y0019082D01*
X0313448Y0019161D01*
X0313549Y0019236D01*
X0313652Y0019308D01*
X0313757Y0019377D01*
X0313864Y0019443D01*
X0313973Y0019505D01*
X0314084Y0019564D01*
X0314197Y0019619D01*
X0314311Y0019671D01*
X0314428Y0019719D01*
X0314545Y0019764D01*
X0314664Y0019804D01*
X0314784Y0019841D01*
X0314905Y0019874D01*
X0315027Y0019904D01*
X0315150Y0019929D01*
X0315274Y0019951D01*
X0315399Y0019968D01*
X0315524Y0019982D01*
X0315649Y0019992D01*
X0315774Y0019998D01*
X0315900Y0020000D01*
X0316026Y0019998D01*
X0316151Y0019992D01*
X0316276Y0019982D01*
X0316401Y0019968D01*
X0316526Y0019951D01*
X0316650Y0019929D01*
X0316773Y0019904D01*
X0316895Y0019874D01*
X0317016Y0019841D01*
X0317136Y0019804D01*
X0317255Y0019764D01*
X0317372Y0019719D01*
X0317489Y0019671D01*
X0317603Y0019619D01*
X0317716Y0019564D01*
X0317827Y0019505D01*
X0317936Y0019443D01*
X0318043Y0019377D01*
X0318148Y0019308D01*
X0318251Y0019236D01*
X0318352Y0019161D01*
X0318450Y0019082D01*
X0318545Y0019000D01*
X0318638Y0018916D01*
X0318728Y0018828D01*
X0318816Y0018738D01*
X0318900Y0018645D01*
X0318982Y0018550D01*
X0319061Y0018452D01*
X0319136Y0018351D01*
X0319208Y0018248D01*
X0319277Y0018143D01*
X0319343Y0018036D01*
X0319405Y0017927D01*
X0319464Y0017816D01*
X0319519Y0017703D01*
X0319571Y0017589D01*
X0319619Y0017472D01*
X0319664Y0017355D01*
X0319704Y0017236D01*
X0319741Y0017116D01*
X0319774Y0016995D01*
X0319804Y0016873D01*
X0319829Y0016750D01*
X0319851Y0016626D01*
X0319868Y0016501D01*
X0319882Y0016376D01*
X0319892Y0016251D01*
X0319898Y0016126D01*
X0319900Y0016000D01*
X0341900Y0016000D01*
X0341900Y0216000D01*
X0288900Y0216000D01*
X0288900Y0016000D01*
X0328560Y0013700D02*
X0329982Y0013700D01*
X0329271Y0013700D02*
X0329271Y0007300D01*
X0328560Y0007300D02*
X0329982Y0007300D01*
X0332401Y0008722D02*
X0332401Y0012278D01*
X0332403Y0012352D01*
X0332409Y0012427D01*
X0332419Y0012500D01*
X0332432Y0012574D01*
X0332449Y0012646D01*
X0332471Y0012717D01*
X0332495Y0012788D01*
X0332524Y0012856D01*
X0332556Y0012924D01*
X0332592Y0012989D01*
X0332630Y0013052D01*
X0332673Y0013114D01*
X0332718Y0013173D01*
X0332766Y0013229D01*
X0332817Y0013284D01*
X0332871Y0013335D01*
X0332928Y0013383D01*
X0332987Y0013428D01*
X0333049Y0013471D01*
X0333112Y0013509D01*
X0333177Y0013545D01*
X0333245Y0013577D01*
X0333313Y0013606D01*
X0333384Y0013630D01*
X0333455Y0013652D01*
X0333527Y0013669D01*
X0333601Y0013682D01*
X0333674Y0013692D01*
X0333749Y0013698D01*
X0333823Y0013700D01*
X0335245Y0013700D01*
X0337544Y0012278D02*
X0339322Y0013700D01*
X0339322Y0007300D01*
X0337544Y0007300D02*
X0341100Y0007300D01*
X0335245Y0007300D02*
X0333823Y0007300D01*
X0333749Y0007302D01*
X0333674Y0007308D01*
X0333601Y0007318D01*
X0333527Y0007331D01*
X0333455Y0007348D01*
X0333384Y0007370D01*
X0333313Y0007394D01*
X0333245Y0007423D01*
X0333177Y0007455D01*
X0333112Y0007491D01*
X0333049Y0007529D01*
X0332987Y0007572D01*
X0332928Y0007617D01*
X0332871Y0007665D01*
X0332817Y0007716D01*
X0332766Y0007770D01*
X0332718Y0007827D01*
X0332673Y0007886D01*
X0332630Y0007948D01*
X0332592Y0008011D01*
X0332556Y0008076D01*
X0332524Y0008144D01*
X0332495Y0008212D01*
X0332471Y0008283D01*
X0332449Y0008354D01*
X0332432Y0008426D01*
X0332419Y0008500D01*
X0332409Y0008573D01*
X0332403Y0008648D01*
X0332401Y0008722D01*
X0365400Y0018500D02*
X0367900Y0016000D01*
X0372900Y0016000D01*
X0375400Y0018500D01*
X0377900Y0016000D01*
X0382900Y0016000D01*
X0385400Y0018500D01*
X0385400Y0023500D01*
X0382900Y0026000D01*
X0377900Y0026000D01*
X0375400Y0023500D01*
X0375400Y0018500D01*
X0375400Y0023500D02*
X0372900Y0026000D01*
X0367900Y0026000D01*
X0365400Y0023500D01*
X0365400Y0018500D01*
X0367900Y0031000D02*
X0372900Y0031000D01*
X0375400Y0033500D01*
X0377900Y0031000D01*
X0382900Y0031000D01*
X0385400Y0033500D01*
X0385400Y0038500D01*
X0382900Y0041000D01*
X0377900Y0041000D01*
X0375400Y0038500D01*
X0375400Y0033500D01*
X0375400Y0038500D02*
X0372900Y0041000D01*
X0367900Y0041000D01*
X0365400Y0038500D01*
X0365400Y0033500D01*
X0367900Y0031000D01*
X0367900Y0046000D02*
X0362900Y0046000D01*
X0360400Y0048500D01*
X0360400Y0053500D01*
X0362900Y0056000D01*
X0367900Y0056000D01*
X0370400Y0053500D01*
X0372900Y0056000D01*
X0377900Y0056000D01*
X0380400Y0053500D01*
X0382900Y0056000D01*
X0387900Y0056000D01*
X0390400Y0053500D01*
X0390400Y0048500D01*
X0387900Y0046000D01*
X0382900Y0046000D01*
X0380400Y0048500D01*
X0377900Y0046000D01*
X0372900Y0046000D01*
X0370400Y0048500D01*
X0367900Y0046000D01*
X0370400Y0048500D02*
X0370400Y0053500D01*
X0380400Y0053500D02*
X0380400Y0048500D01*
X0377900Y0061000D02*
X0375400Y0063500D01*
X0372900Y0061000D01*
X0367900Y0061000D01*
X0365400Y0063500D01*
X0365400Y0068500D01*
X0367900Y0071000D01*
X0372900Y0071000D01*
X0375400Y0068500D01*
X0377900Y0071000D01*
X0382900Y0071000D01*
X0385400Y0068500D01*
X0385400Y0063500D01*
X0382900Y0061000D01*
X0377900Y0061000D01*
X0375400Y0063500D02*
X0375400Y0068500D01*
X0372900Y0081000D02*
X0367900Y0081000D01*
X0365400Y0083500D01*
X0365400Y0088500D01*
X0367900Y0091000D01*
X0372900Y0091000D01*
X0375400Y0088500D01*
X0377900Y0091000D01*
X0382900Y0091000D01*
X0385400Y0088500D01*
X0385400Y0083500D01*
X0382900Y0081000D01*
X0377900Y0081000D01*
X0375400Y0083500D01*
X0372900Y0081000D01*
X0375400Y0083500D02*
X0375400Y0088500D01*
X0382900Y0101000D02*
X0380400Y0103500D01*
X0380400Y0108500D01*
X0382900Y0111000D01*
X0380400Y0113500D01*
X0380400Y0118500D01*
X0382900Y0121000D01*
X0387900Y0121000D01*
X0390400Y0118500D01*
X0390400Y0113500D01*
X0387900Y0111000D01*
X0390400Y0108500D01*
X0390400Y0103500D01*
X0387900Y0101000D01*
X0382900Y0101000D01*
X0382900Y0111000D02*
X0387900Y0111000D01*
X0321400Y0109500D02*
X0321400Y0092500D01*
X0321398Y0092440D01*
X0321393Y0092379D01*
X0321384Y0092320D01*
X0321371Y0092261D01*
X0321355Y0092202D01*
X0321335Y0092145D01*
X0321312Y0092090D01*
X0321285Y0092035D01*
X0321256Y0091983D01*
X0321223Y0091932D01*
X0321187Y0091883D01*
X0321149Y0091837D01*
X0321107Y0091793D01*
X0321063Y0091751D01*
X0321017Y0091713D01*
X0320968Y0091677D01*
X0320917Y0091644D01*
X0320865Y0091615D01*
X0320810Y0091588D01*
X0320755Y0091565D01*
X0320698Y0091545D01*
X0320639Y0091529D01*
X0320580Y0091516D01*
X0320521Y0091507D01*
X0320460Y0091502D01*
X0320400Y0091500D01*
X0310400Y0091500D01*
X0310340Y0091502D01*
X0310279Y0091507D01*
X0310220Y0091516D01*
X0310161Y0091529D01*
X0310102Y0091545D01*
X0310045Y0091565D01*
X0309990Y0091588D01*
X0309935Y0091615D01*
X0309883Y0091644D01*
X0309832Y0091677D01*
X0309783Y0091713D01*
X0309737Y0091751D01*
X0309693Y0091793D01*
X0309651Y0091837D01*
X0309613Y0091883D01*
X0309577Y0091932D01*
X0309544Y0091983D01*
X0309515Y0092035D01*
X0309488Y0092090D01*
X0309465Y0092145D01*
X0309445Y0092202D01*
X0309429Y0092261D01*
X0309416Y0092320D01*
X0309407Y0092379D01*
X0309402Y0092440D01*
X0309400Y0092500D01*
X0309400Y0109500D01*
X0309402Y0109560D01*
X0309407Y0109621D01*
X0309416Y0109680D01*
X0309429Y0109739D01*
X0309445Y0109798D01*
X0309465Y0109855D01*
X0309488Y0109910D01*
X0309515Y0109965D01*
X0309544Y0110017D01*
X0309577Y0110068D01*
X0309613Y0110117D01*
X0309651Y0110163D01*
X0309693Y0110207D01*
X0309737Y0110249D01*
X0309783Y0110287D01*
X0309832Y0110323D01*
X0309883Y0110356D01*
X0309935Y0110385D01*
X0309990Y0110412D01*
X0310045Y0110435D01*
X0310102Y0110455D01*
X0310161Y0110471D01*
X0310220Y0110484D01*
X0310279Y0110493D01*
X0310340Y0110498D01*
X0310400Y0110500D01*
X0320400Y0110500D01*
X0320460Y0110498D01*
X0320521Y0110493D01*
X0320580Y0110484D01*
X0320639Y0110471D01*
X0320698Y0110455D01*
X0320755Y0110435D01*
X0320810Y0110412D01*
X0320865Y0110385D01*
X0320917Y0110356D01*
X0320968Y0110323D01*
X0321017Y0110287D01*
X0321063Y0110249D01*
X0321107Y0110207D01*
X0321149Y0110163D01*
X0321187Y0110117D01*
X0321223Y0110068D01*
X0321256Y0110017D01*
X0321285Y0109965D01*
X0321312Y0109910D01*
X0321335Y0109855D01*
X0321355Y0109798D01*
X0321371Y0109739D01*
X0321384Y0109680D01*
X0321393Y0109621D01*
X0321398Y0109560D01*
X0321400Y0109500D01*
X0315400Y0102500D02*
X0315400Y0102000D01*
X0315400Y0100000D02*
X0315400Y0099500D01*
X0243900Y0185000D02*
X0226900Y0185000D01*
X0226840Y0185002D01*
X0226779Y0185007D01*
X0226720Y0185016D01*
X0226661Y0185029D01*
X0226602Y0185045D01*
X0226545Y0185065D01*
X0226490Y0185088D01*
X0226435Y0185115D01*
X0226383Y0185144D01*
X0226332Y0185177D01*
X0226283Y0185213D01*
X0226237Y0185251D01*
X0226193Y0185293D01*
X0226151Y0185337D01*
X0226113Y0185383D01*
X0226077Y0185432D01*
X0226044Y0185483D01*
X0226015Y0185535D01*
X0225988Y0185590D01*
X0225965Y0185645D01*
X0225945Y0185702D01*
X0225929Y0185761D01*
X0225916Y0185820D01*
X0225907Y0185879D01*
X0225902Y0185940D01*
X0225900Y0186000D01*
X0225900Y0196000D01*
X0225902Y0196060D01*
X0225907Y0196121D01*
X0225916Y0196180D01*
X0225929Y0196239D01*
X0225945Y0196298D01*
X0225965Y0196355D01*
X0225988Y0196410D01*
X0226015Y0196465D01*
X0226044Y0196517D01*
X0226077Y0196568D01*
X0226113Y0196617D01*
X0226151Y0196663D01*
X0226193Y0196707D01*
X0226237Y0196749D01*
X0226283Y0196787D01*
X0226332Y0196823D01*
X0226383Y0196856D01*
X0226435Y0196885D01*
X0226490Y0196912D01*
X0226545Y0196935D01*
X0226602Y0196955D01*
X0226661Y0196971D01*
X0226720Y0196984D01*
X0226779Y0196993D01*
X0226840Y0196998D01*
X0226900Y0197000D01*
X0243900Y0197000D01*
X0243960Y0196998D01*
X0244021Y0196993D01*
X0244080Y0196984D01*
X0244139Y0196971D01*
X0244198Y0196955D01*
X0244255Y0196935D01*
X0244310Y0196912D01*
X0244365Y0196885D01*
X0244417Y0196856D01*
X0244468Y0196823D01*
X0244517Y0196787D01*
X0244563Y0196749D01*
X0244607Y0196707D01*
X0244649Y0196663D01*
X0244687Y0196617D01*
X0244723Y0196568D01*
X0244756Y0196517D01*
X0244785Y0196465D01*
X0244812Y0196410D01*
X0244835Y0196355D01*
X0244855Y0196298D01*
X0244871Y0196239D01*
X0244884Y0196180D01*
X0244893Y0196121D01*
X0244898Y0196060D01*
X0244900Y0196000D01*
X0244900Y0186000D01*
X0244898Y0185940D01*
X0244893Y0185879D01*
X0244884Y0185820D01*
X0244871Y0185761D01*
X0244855Y0185702D01*
X0244835Y0185645D01*
X0244812Y0185590D01*
X0244785Y0185535D01*
X0244756Y0185483D01*
X0244723Y0185432D01*
X0244687Y0185383D01*
X0244649Y0185337D01*
X0244607Y0185293D01*
X0244563Y0185251D01*
X0244517Y0185213D01*
X0244468Y0185177D01*
X0244417Y0185144D01*
X0244365Y0185115D01*
X0244310Y0185088D01*
X0244255Y0185065D01*
X0244198Y0185045D01*
X0244139Y0185029D01*
X0244080Y0185016D01*
X0244021Y0185007D01*
X0243960Y0185002D01*
X0243900Y0185000D01*
X0236900Y0191000D02*
X0236400Y0191000D01*
X0234400Y0191000D02*
X0233900Y0191000D01*
X0220400Y0219500D02*
X0220400Y0242500D01*
X0150400Y0242500D01*
X0150400Y0235000D01*
X0151400Y0239500D02*
X0151398Y0239560D01*
X0151393Y0239621D01*
X0151384Y0239680D01*
X0151371Y0239739D01*
X0151355Y0239798D01*
X0151335Y0239855D01*
X0151312Y0239910D01*
X0151285Y0239965D01*
X0151256Y0240017D01*
X0151223Y0240068D01*
X0151187Y0240117D01*
X0151149Y0240163D01*
X0151107Y0240207D01*
X0151063Y0240249D01*
X0151017Y0240287D01*
X0150968Y0240323D01*
X0150917Y0240356D01*
X0150865Y0240385D01*
X0150810Y0240412D01*
X0150755Y0240435D01*
X0150698Y0240455D01*
X0150639Y0240471D01*
X0150580Y0240484D01*
X0150521Y0240493D01*
X0150460Y0240498D01*
X0150400Y0240500D01*
X0140400Y0240500D01*
X0140340Y0240498D01*
X0140279Y0240493D01*
X0140220Y0240484D01*
X0140161Y0240471D01*
X0140102Y0240455D01*
X0140045Y0240435D01*
X0139990Y0240412D01*
X0139935Y0240385D01*
X0139883Y0240356D01*
X0139832Y0240323D01*
X0139783Y0240287D01*
X0139737Y0240249D01*
X0139693Y0240207D01*
X0139651Y0240163D01*
X0139613Y0240117D01*
X0139577Y0240068D01*
X0139544Y0240017D01*
X0139515Y0239965D01*
X0139488Y0239910D01*
X0139465Y0239855D01*
X0139445Y0239798D01*
X0139429Y0239739D01*
X0139416Y0239680D01*
X0139407Y0239621D01*
X0139402Y0239560D01*
X0139400Y0239500D01*
X0139400Y0222500D01*
X0139402Y0222440D01*
X0139407Y0222379D01*
X0139416Y0222320D01*
X0139429Y0222261D01*
X0139445Y0222202D01*
X0139465Y0222145D01*
X0139488Y0222090D01*
X0139515Y0222035D01*
X0139544Y0221983D01*
X0139577Y0221932D01*
X0139613Y0221883D01*
X0139651Y0221837D01*
X0139693Y0221793D01*
X0139737Y0221751D01*
X0139783Y0221713D01*
X0139832Y0221677D01*
X0139883Y0221644D01*
X0139935Y0221615D01*
X0139990Y0221588D01*
X0140045Y0221565D01*
X0140102Y0221545D01*
X0140161Y0221529D01*
X0140220Y0221516D01*
X0140279Y0221507D01*
X0140340Y0221502D01*
X0140400Y0221500D01*
X0150400Y0221500D01*
X0150460Y0221502D01*
X0150521Y0221507D01*
X0150580Y0221516D01*
X0150639Y0221529D01*
X0150698Y0221545D01*
X0150755Y0221565D01*
X0150810Y0221588D01*
X0150865Y0221615D01*
X0150917Y0221644D01*
X0150968Y0221677D01*
X0151017Y0221713D01*
X0151063Y0221751D01*
X0151107Y0221793D01*
X0151149Y0221837D01*
X0151187Y0221883D01*
X0151223Y0221932D01*
X0151256Y0221983D01*
X0151285Y0222035D01*
X0151312Y0222090D01*
X0151335Y0222145D01*
X0151355Y0222202D01*
X0151371Y0222261D01*
X0151384Y0222320D01*
X0151393Y0222379D01*
X0151398Y0222440D01*
X0151400Y0222500D01*
X0151400Y0239500D01*
X0145400Y0232500D02*
X0145400Y0232000D01*
X0145400Y0230000D02*
X0145400Y0229500D01*
X0150400Y0227000D02*
X0150526Y0227002D01*
X0150651Y0227008D01*
X0150776Y0227018D01*
X0150901Y0227032D01*
X0151026Y0227049D01*
X0151150Y0227071D01*
X0151273Y0227096D01*
X0151395Y0227126D01*
X0151516Y0227159D01*
X0151636Y0227196D01*
X0151755Y0227236D01*
X0151872Y0227281D01*
X0151989Y0227329D01*
X0152103Y0227381D01*
X0152216Y0227436D01*
X0152327Y0227495D01*
X0152436Y0227557D01*
X0152543Y0227623D01*
X0152648Y0227692D01*
X0152751Y0227764D01*
X0152852Y0227839D01*
X0152950Y0227918D01*
X0153045Y0228000D01*
X0153138Y0228084D01*
X0153228Y0228172D01*
X0153316Y0228262D01*
X0153400Y0228355D01*
X0153482Y0228450D01*
X0153561Y0228548D01*
X0153636Y0228649D01*
X0153708Y0228752D01*
X0153777Y0228857D01*
X0153843Y0228964D01*
X0153905Y0229073D01*
X0153964Y0229184D01*
X0154019Y0229297D01*
X0154071Y0229411D01*
X0154119Y0229528D01*
X0154164Y0229645D01*
X0154204Y0229764D01*
X0154241Y0229884D01*
X0154274Y0230005D01*
X0154304Y0230127D01*
X0154329Y0230250D01*
X0154351Y0230374D01*
X0154368Y0230499D01*
X0154382Y0230624D01*
X0154392Y0230749D01*
X0154398Y0230874D01*
X0154400Y0231000D01*
X0154398Y0231126D01*
X0154392Y0231251D01*
X0154382Y0231376D01*
X0154368Y0231501D01*
X0154351Y0231626D01*
X0154329Y0231750D01*
X0154304Y0231873D01*
X0154274Y0231995D01*
X0154241Y0232116D01*
X0154204Y0232236D01*
X0154164Y0232355D01*
X0154119Y0232472D01*
X0154071Y0232589D01*
X0154019Y0232703D01*
X0153964Y0232816D01*
X0153905Y0232927D01*
X0153843Y0233036D01*
X0153777Y0233143D01*
X0153708Y0233248D01*
X0153636Y0233351D01*
X0153561Y0233452D01*
X0153482Y0233550D01*
X0153400Y0233645D01*
X0153316Y0233738D01*
X0153228Y0233828D01*
X0153138Y0233916D01*
X0153045Y0234000D01*
X0152950Y0234082D01*
X0152852Y0234161D01*
X0152751Y0234236D01*
X0152648Y0234308D01*
X0152543Y0234377D01*
X0152436Y0234443D01*
X0152327Y0234505D01*
X0152216Y0234564D01*
X0152103Y0234619D01*
X0151989Y0234671D01*
X0151872Y0234719D01*
X0151755Y0234764D01*
X0151636Y0234804D01*
X0151516Y0234841D01*
X0151395Y0234874D01*
X0151273Y0234904D01*
X0151150Y0234929D01*
X0151026Y0234951D01*
X0150901Y0234968D01*
X0150776Y0234982D01*
X0150651Y0234992D01*
X0150526Y0234998D01*
X0150400Y0235000D01*
X0150400Y0227000D02*
X0150400Y0219500D01*
X0220400Y0219500D01*
X0188900Y0197000D02*
X0171900Y0197000D01*
X0171840Y0196998D01*
X0171779Y0196993D01*
X0171720Y0196984D01*
X0171661Y0196971D01*
X0171602Y0196955D01*
X0171545Y0196935D01*
X0171490Y0196912D01*
X0171435Y0196885D01*
X0171383Y0196856D01*
X0171332Y0196823D01*
X0171283Y0196787D01*
X0171237Y0196749D01*
X0171193Y0196707D01*
X0171151Y0196663D01*
X0171113Y0196617D01*
X0171077Y0196568D01*
X0171044Y0196517D01*
X0171015Y0196465D01*
X0170988Y0196410D01*
X0170965Y0196355D01*
X0170945Y0196298D01*
X0170929Y0196239D01*
X0170916Y0196180D01*
X0170907Y0196121D01*
X0170902Y0196060D01*
X0170900Y0196000D01*
X0170900Y0186000D01*
X0170902Y0185940D01*
X0170907Y0185879D01*
X0170916Y0185820D01*
X0170929Y0185761D01*
X0170945Y0185702D01*
X0170965Y0185645D01*
X0170988Y0185590D01*
X0171015Y0185535D01*
X0171044Y0185483D01*
X0171077Y0185432D01*
X0171113Y0185383D01*
X0171151Y0185337D01*
X0171193Y0185293D01*
X0171237Y0185251D01*
X0171283Y0185213D01*
X0171332Y0185177D01*
X0171383Y0185144D01*
X0171435Y0185115D01*
X0171490Y0185088D01*
X0171545Y0185065D01*
X0171602Y0185045D01*
X0171661Y0185029D01*
X0171720Y0185016D01*
X0171779Y0185007D01*
X0171840Y0185002D01*
X0171900Y0185000D01*
X0188900Y0185000D01*
X0188960Y0185002D01*
X0189021Y0185007D01*
X0189080Y0185016D01*
X0189139Y0185029D01*
X0189198Y0185045D01*
X0189255Y0185065D01*
X0189310Y0185088D01*
X0189365Y0185115D01*
X0189417Y0185144D01*
X0189468Y0185177D01*
X0189517Y0185213D01*
X0189563Y0185251D01*
X0189607Y0185293D01*
X0189649Y0185337D01*
X0189687Y0185383D01*
X0189723Y0185432D01*
X0189756Y0185483D01*
X0189785Y0185535D01*
X0189812Y0185590D01*
X0189835Y0185645D01*
X0189855Y0185702D01*
X0189871Y0185761D01*
X0189884Y0185820D01*
X0189893Y0185879D01*
X0189898Y0185940D01*
X0189900Y0186000D01*
X0189900Y0196000D01*
X0189898Y0196060D01*
X0189893Y0196121D01*
X0189884Y0196180D01*
X0189871Y0196239D01*
X0189855Y0196298D01*
X0189835Y0196355D01*
X0189812Y0196410D01*
X0189785Y0196465D01*
X0189756Y0196517D01*
X0189723Y0196568D01*
X0189687Y0196617D01*
X0189649Y0196663D01*
X0189607Y0196707D01*
X0189563Y0196749D01*
X0189517Y0196787D01*
X0189468Y0196823D01*
X0189417Y0196856D01*
X0189365Y0196885D01*
X0189310Y0196912D01*
X0189255Y0196935D01*
X0189198Y0196955D01*
X0189139Y0196971D01*
X0189080Y0196984D01*
X0189021Y0196993D01*
X0188960Y0196998D01*
X0188900Y0197000D01*
X0181900Y0191000D02*
X0181400Y0191000D01*
X0179400Y0191000D02*
X0178900Y0191000D01*
X0170400Y0193500D02*
X0170400Y0198500D01*
X0167900Y0201000D01*
X0162900Y0201000D01*
X0160400Y0198500D01*
X0160400Y0193500D01*
X0162900Y0191000D01*
X0167900Y0191000D01*
X0170400Y0193500D01*
X0160400Y0193500D02*
X0157900Y0191000D01*
X0152900Y0191000D01*
X0150400Y0193500D01*
X0147900Y0191000D01*
X0142900Y0191000D01*
X0140400Y0193500D01*
X0140400Y0198500D01*
X0142900Y0201000D01*
X0147900Y0201000D01*
X0150400Y0198500D01*
X0152900Y0201000D01*
X0157900Y0201000D01*
X0160400Y0198500D01*
X0150400Y0198500D02*
X0150400Y0193500D01*
X0124948Y0187800D02*
X0121393Y0187800D01*
X0123170Y0187800D02*
X0123170Y0194200D01*
X0121393Y0192778D01*
X0120400Y0193500D02*
X0117900Y0191000D01*
X0112900Y0191000D01*
X0110400Y0193500D01*
X0107900Y0191000D01*
X0102900Y0191000D01*
X0100400Y0193500D01*
X0097900Y0191000D01*
X0092900Y0191000D01*
X0090400Y0193500D01*
X0090400Y0198500D01*
X0092900Y0201000D01*
X0097900Y0201000D01*
X0100400Y0198500D01*
X0102900Y0201000D01*
X0107900Y0201000D01*
X0110400Y0198500D01*
X0112900Y0201000D01*
X0117900Y0201000D01*
X0120400Y0198500D01*
X0120400Y0193500D01*
X0117427Y0194200D02*
X0117427Y0187800D01*
X0117960Y0188511D02*
X0118023Y0188525D01*
X0118085Y0188542D01*
X0118145Y0188563D01*
X0118205Y0188587D01*
X0118262Y0188616D01*
X0118318Y0188647D01*
X0118372Y0188682D01*
X0118424Y0188720D01*
X0118474Y0188761D01*
X0118520Y0188805D01*
X0118564Y0188852D01*
X0118605Y0188902D01*
X0118643Y0188953D01*
X0118678Y0189007D01*
X0118710Y0189063D01*
X0118738Y0189121D01*
X0118762Y0189181D01*
X0118783Y0189241D01*
X0118800Y0189303D01*
X0118814Y0189366D01*
X0118823Y0189430D01*
X0118829Y0189494D01*
X0118831Y0189558D01*
X0118829Y0189622D01*
X0118823Y0189686D01*
X0118813Y0189749D01*
X0118800Y0189812D01*
X0118782Y0189874D01*
X0118761Y0189935D01*
X0118736Y0189994D01*
X0118708Y0190052D01*
X0118676Y0190108D01*
X0118641Y0190162D01*
X0118603Y0190213D01*
X0118562Y0190262D01*
X0118518Y0190309D01*
X0118471Y0190353D01*
X0118421Y0190394D01*
X0118369Y0190432D01*
X0118315Y0190467D01*
X0118316Y0190467D02*
X0117427Y0191000D01*
X0116538Y0191533D01*
X0116005Y0188866D02*
X0116093Y0188816D01*
X0116182Y0188768D01*
X0116274Y0188724D01*
X0116367Y0188683D01*
X0116461Y0188646D01*
X0116557Y0188612D01*
X0116654Y0188581D01*
X0116752Y0188554D01*
X0116851Y0188530D01*
X0116950Y0188510D01*
X0117050Y0188494D01*
X0117151Y0188481D01*
X0117252Y0188472D01*
X0117354Y0188467D01*
X0117455Y0188465D01*
X0117557Y0188467D01*
X0117658Y0188472D01*
X0117759Y0188482D01*
X0117860Y0188494D01*
X0117960Y0188511D01*
X0118849Y0193134D02*
X0118761Y0193184D01*
X0118671Y0193232D01*
X0118580Y0193276D01*
X0118487Y0193317D01*
X0118393Y0193354D01*
X0118297Y0193388D01*
X0118200Y0193419D01*
X0118102Y0193446D01*
X0118003Y0193470D01*
X0117904Y0193490D01*
X0117804Y0193506D01*
X0117703Y0193519D01*
X0117602Y0193528D01*
X0117500Y0193533D01*
X0117399Y0193535D01*
X0117297Y0193533D01*
X0117196Y0193528D01*
X0117095Y0193518D01*
X0116994Y0193506D01*
X0116894Y0193489D01*
X0116893Y0193489D02*
X0116830Y0193475D01*
X0116768Y0193458D01*
X0116708Y0193437D01*
X0116648Y0193413D01*
X0116591Y0193384D01*
X0116535Y0193353D01*
X0116481Y0193318D01*
X0116429Y0193280D01*
X0116380Y0193239D01*
X0116333Y0193195D01*
X0116289Y0193148D01*
X0116248Y0193098D01*
X0116210Y0193047D01*
X0116175Y0192993D01*
X0116143Y0192937D01*
X0116115Y0192879D01*
X0116091Y0192819D01*
X0116070Y0192759D01*
X0116053Y0192697D01*
X0116039Y0192634D01*
X0116030Y0192570D01*
X0116024Y0192506D01*
X0116022Y0192442D01*
X0116024Y0192378D01*
X0116030Y0192314D01*
X0116040Y0192251D01*
X0116053Y0192188D01*
X0116071Y0192126D01*
X0116092Y0192065D01*
X0116117Y0192006D01*
X0116145Y0191948D01*
X0116177Y0191892D01*
X0116212Y0191838D01*
X0116250Y0191787D01*
X0116291Y0191738D01*
X0116335Y0191691D01*
X0116382Y0191647D01*
X0116432Y0191606D01*
X0116484Y0191568D01*
X0116538Y0191533D01*
X0113256Y0189578D02*
X0113256Y0194200D01*
X0110400Y0193500D02*
X0110400Y0198500D01*
X0109700Y0194200D02*
X0109700Y0189578D01*
X0109702Y0189495D01*
X0109708Y0189412D01*
X0109718Y0189329D01*
X0109731Y0189246D01*
X0109749Y0189165D01*
X0109770Y0189084D01*
X0109795Y0189005D01*
X0109824Y0188927D01*
X0109856Y0188850D01*
X0109892Y0188775D01*
X0109931Y0188701D01*
X0109974Y0188630D01*
X0110020Y0188560D01*
X0110070Y0188493D01*
X0110122Y0188428D01*
X0110177Y0188366D01*
X0110236Y0188306D01*
X0110297Y0188249D01*
X0110360Y0188195D01*
X0110426Y0188144D01*
X0110495Y0188097D01*
X0110565Y0188052D01*
X0110638Y0188011D01*
X0110712Y0187974D01*
X0110788Y0187939D01*
X0110866Y0187909D01*
X0110944Y0187882D01*
X0111025Y0187859D01*
X0111106Y0187839D01*
X0111188Y0187824D01*
X0111270Y0187812D01*
X0111353Y0187804D01*
X0111436Y0187800D01*
X0111520Y0187800D01*
X0111603Y0187804D01*
X0111686Y0187812D01*
X0111768Y0187824D01*
X0111850Y0187839D01*
X0111931Y0187859D01*
X0112012Y0187882D01*
X0112090Y0187909D01*
X0112168Y0187939D01*
X0112244Y0187974D01*
X0112318Y0188011D01*
X0112391Y0188052D01*
X0112461Y0188097D01*
X0112530Y0188144D01*
X0112596Y0188195D01*
X0112659Y0188249D01*
X0112720Y0188306D01*
X0112779Y0188366D01*
X0112834Y0188428D01*
X0112886Y0188493D01*
X0112936Y0188560D01*
X0112982Y0188630D01*
X0113025Y0188701D01*
X0113064Y0188775D01*
X0113100Y0188850D01*
X0113132Y0188927D01*
X0113161Y0189005D01*
X0113186Y0189084D01*
X0113207Y0189165D01*
X0113225Y0189246D01*
X0113238Y0189329D01*
X0113248Y0189412D01*
X0113254Y0189495D01*
X0113256Y0189578D01*
X0100400Y0193500D02*
X0100400Y0198500D01*
X0122900Y0278500D02*
X0122900Y0293500D01*
X0137900Y0293500D01*
X0137900Y0278500D01*
X0122900Y0278500D01*
X0116400Y0286000D02*
X0116404Y0286344D01*
X0116417Y0286687D01*
X0116438Y0287030D01*
X0116467Y0287372D01*
X0116505Y0287714D01*
X0116552Y0288054D01*
X0116606Y0288393D01*
X0116669Y0288731D01*
X0116740Y0289067D01*
X0116820Y0289402D01*
X0116907Y0289734D01*
X0117003Y0290064D01*
X0117107Y0290392D01*
X0117218Y0290716D01*
X0117338Y0291039D01*
X0117466Y0291358D01*
X0117601Y0291673D01*
X0117744Y0291986D01*
X0117895Y0292295D01*
X0118053Y0292600D01*
X0118219Y0292901D01*
X0118392Y0293197D01*
X0118572Y0293490D01*
X0118759Y0293778D01*
X0118954Y0294061D01*
X0119155Y0294340D01*
X0119363Y0294613D01*
X0119578Y0294882D01*
X0119799Y0295144D01*
X0120027Y0295402D01*
X0120261Y0295654D01*
X0120501Y0295899D01*
X0120746Y0296139D01*
X0120998Y0296373D01*
X0121256Y0296601D01*
X0121518Y0296822D01*
X0121787Y0297037D01*
X0122060Y0297245D01*
X0122339Y0297446D01*
X0122622Y0297641D01*
X0122910Y0297828D01*
X0123203Y0298008D01*
X0123499Y0298181D01*
X0123800Y0298347D01*
X0124105Y0298505D01*
X0124414Y0298656D01*
X0124727Y0298799D01*
X0125042Y0298934D01*
X0125361Y0299062D01*
X0125684Y0299182D01*
X0126008Y0299293D01*
X0126336Y0299397D01*
X0126666Y0299493D01*
X0126998Y0299580D01*
X0127333Y0299660D01*
X0127669Y0299731D01*
X0128007Y0299794D01*
X0128346Y0299848D01*
X0128686Y0299895D01*
X0129028Y0299933D01*
X0129370Y0299962D01*
X0129713Y0299983D01*
X0130056Y0299996D01*
X0130400Y0300000D01*
X0130744Y0299996D01*
X0131087Y0299983D01*
X0131430Y0299962D01*
X0131772Y0299933D01*
X0132114Y0299895D01*
X0132454Y0299848D01*
X0132793Y0299794D01*
X0133131Y0299731D01*
X0133467Y0299660D01*
X0133802Y0299580D01*
X0134134Y0299493D01*
X0134464Y0299397D01*
X0134792Y0299293D01*
X0135116Y0299182D01*
X0135439Y0299062D01*
X0135758Y0298934D01*
X0136073Y0298799D01*
X0136386Y0298656D01*
X0136695Y0298505D01*
X0137000Y0298347D01*
X0137301Y0298181D01*
X0137597Y0298008D01*
X0137890Y0297828D01*
X0138178Y0297641D01*
X0138461Y0297446D01*
X0138740Y0297245D01*
X0139013Y0297037D01*
X0139282Y0296822D01*
X0139544Y0296601D01*
X0139802Y0296373D01*
X0140054Y0296139D01*
X0140299Y0295899D01*
X0140539Y0295654D01*
X0140773Y0295402D01*
X0141001Y0295144D01*
X0141222Y0294882D01*
X0141437Y0294613D01*
X0141645Y0294340D01*
X0141846Y0294061D01*
X0142041Y0293778D01*
X0142228Y0293490D01*
X0142408Y0293197D01*
X0142581Y0292901D01*
X0142747Y0292600D01*
X0142905Y0292295D01*
X0143056Y0291986D01*
X0143199Y0291673D01*
X0143334Y0291358D01*
X0143462Y0291039D01*
X0143582Y0290716D01*
X0143693Y0290392D01*
X0143797Y0290064D01*
X0143893Y0289734D01*
X0143980Y0289402D01*
X0144060Y0289067D01*
X0144131Y0288731D01*
X0144194Y0288393D01*
X0144248Y0288054D01*
X0144295Y0287714D01*
X0144333Y0287372D01*
X0144362Y0287030D01*
X0144383Y0286687D01*
X0144396Y0286344D01*
X0144400Y0286000D01*
X0144396Y0285656D01*
X0144383Y0285313D01*
X0144362Y0284970D01*
X0144333Y0284628D01*
X0144295Y0284286D01*
X0144248Y0283946D01*
X0144194Y0283607D01*
X0144131Y0283269D01*
X0144060Y0282933D01*
X0143980Y0282598D01*
X0143893Y0282266D01*
X0143797Y0281936D01*
X0143693Y0281608D01*
X0143582Y0281284D01*
X0143462Y0280961D01*
X0143334Y0280642D01*
X0143199Y0280327D01*
X0143056Y0280014D01*
X0142905Y0279705D01*
X0142747Y0279400D01*
X0142581Y0279099D01*
X0142408Y0278803D01*
X0142228Y0278510D01*
X0142041Y0278222D01*
X0141846Y0277939D01*
X0141645Y0277660D01*
X0141437Y0277387D01*
X0141222Y0277118D01*
X0141001Y0276856D01*
X0140773Y0276598D01*
X0140539Y0276346D01*
X0140299Y0276101D01*
X0140054Y0275861D01*
X0139802Y0275627D01*
X0139544Y0275399D01*
X0139282Y0275178D01*
X0139013Y0274963D01*
X0138740Y0274755D01*
X0138461Y0274554D01*
X0138178Y0274359D01*
X0137890Y0274172D01*
X0137597Y0273992D01*
X0137301Y0273819D01*
X0137000Y0273653D01*
X0136695Y0273495D01*
X0136386Y0273344D01*
X0136073Y0273201D01*
X0135758Y0273066D01*
X0135439Y0272938D01*
X0135116Y0272818D01*
X0134792Y0272707D01*
X0134464Y0272603D01*
X0134134Y0272507D01*
X0133802Y0272420D01*
X0133467Y0272340D01*
X0133131Y0272269D01*
X0132793Y0272206D01*
X0132454Y0272152D01*
X0132114Y0272105D01*
X0131772Y0272067D01*
X0131430Y0272038D01*
X0131087Y0272017D01*
X0130744Y0272004D01*
X0130400Y0272000D01*
X0130056Y0272004D01*
X0129713Y0272017D01*
X0129370Y0272038D01*
X0129028Y0272067D01*
X0128686Y0272105D01*
X0128346Y0272152D01*
X0128007Y0272206D01*
X0127669Y0272269D01*
X0127333Y0272340D01*
X0126998Y0272420D01*
X0126666Y0272507D01*
X0126336Y0272603D01*
X0126008Y0272707D01*
X0125684Y0272818D01*
X0125361Y0272938D01*
X0125042Y0273066D01*
X0124727Y0273201D01*
X0124414Y0273344D01*
X0124105Y0273495D01*
X0123800Y0273653D01*
X0123499Y0273819D01*
X0123203Y0273992D01*
X0122910Y0274172D01*
X0122622Y0274359D01*
X0122339Y0274554D01*
X0122060Y0274755D01*
X0121787Y0274963D01*
X0121518Y0275178D01*
X0121256Y0275399D01*
X0120998Y0275627D01*
X0120746Y0275861D01*
X0120501Y0276101D01*
X0120261Y0276346D01*
X0120027Y0276598D01*
X0119799Y0276856D01*
X0119578Y0277118D01*
X0119363Y0277387D01*
X0119155Y0277660D01*
X0118954Y0277939D01*
X0118759Y0278222D01*
X0118572Y0278510D01*
X0118392Y0278803D01*
X0118219Y0279099D01*
X0118053Y0279400D01*
X0117895Y0279705D01*
X0117744Y0280014D01*
X0117601Y0280327D01*
X0117466Y0280642D01*
X0117338Y0280961D01*
X0117218Y0281284D01*
X0117107Y0281608D01*
X0117003Y0281936D01*
X0116907Y0282266D01*
X0116820Y0282598D01*
X0116740Y0282933D01*
X0116669Y0283269D01*
X0116606Y0283607D01*
X0116552Y0283946D01*
X0116505Y0284286D01*
X0116467Y0284628D01*
X0116438Y0284970D01*
X0116417Y0285313D01*
X0116404Y0285656D01*
X0116400Y0286000D01*
X0150400Y0310000D02*
X0154400Y0306000D01*
X0154400Y0301000D01*
X0154400Y0290500D02*
X0154400Y0281500D01*
X0185900Y0281000D02*
X0185900Y0279500D01*
X0185902Y0279440D01*
X0185907Y0279379D01*
X0185916Y0279320D01*
X0185929Y0279261D01*
X0185945Y0279202D01*
X0185965Y0279145D01*
X0185988Y0279090D01*
X0186015Y0279035D01*
X0186044Y0278983D01*
X0186077Y0278932D01*
X0186113Y0278883D01*
X0186151Y0278837D01*
X0186193Y0278793D01*
X0186237Y0278751D01*
X0186283Y0278713D01*
X0186332Y0278677D01*
X0186383Y0278644D01*
X0186435Y0278615D01*
X0186490Y0278588D01*
X0186545Y0278565D01*
X0186602Y0278545D01*
X0186661Y0278529D01*
X0186720Y0278516D01*
X0186779Y0278507D01*
X0186840Y0278502D01*
X0186900Y0278500D01*
X0185900Y0281000D02*
X0186400Y0281500D01*
X0186400Y0300500D01*
X0185900Y0301000D01*
X0185900Y0302500D01*
X0185902Y0302560D01*
X0185907Y0302621D01*
X0185916Y0302680D01*
X0185929Y0302739D01*
X0185945Y0302798D01*
X0185965Y0302855D01*
X0185988Y0302910D01*
X0186015Y0302965D01*
X0186044Y0303017D01*
X0186077Y0303068D01*
X0186113Y0303117D01*
X0186151Y0303163D01*
X0186193Y0303207D01*
X0186237Y0303249D01*
X0186283Y0303287D01*
X0186332Y0303323D01*
X0186383Y0303356D01*
X0186435Y0303385D01*
X0186490Y0303412D01*
X0186545Y0303435D01*
X0186602Y0303455D01*
X0186661Y0303471D01*
X0186720Y0303484D01*
X0186779Y0303493D01*
X0186840Y0303498D01*
X0186900Y0303500D01*
X0193900Y0303500D02*
X0193960Y0303498D01*
X0194021Y0303493D01*
X0194080Y0303484D01*
X0194139Y0303471D01*
X0194198Y0303455D01*
X0194255Y0303435D01*
X0194310Y0303412D01*
X0194365Y0303385D01*
X0194417Y0303356D01*
X0194468Y0303323D01*
X0194517Y0303287D01*
X0194563Y0303249D01*
X0194607Y0303207D01*
X0194649Y0303163D01*
X0194687Y0303117D01*
X0194723Y0303068D01*
X0194756Y0303017D01*
X0194785Y0302965D01*
X0194812Y0302910D01*
X0194835Y0302855D01*
X0194855Y0302798D01*
X0194871Y0302739D01*
X0194884Y0302680D01*
X0194893Y0302621D01*
X0194898Y0302560D01*
X0194900Y0302500D01*
X0194900Y0301000D01*
X0194400Y0300500D01*
X0194400Y0281500D01*
X0194900Y0281000D01*
X0194900Y0279500D01*
X0194898Y0279440D01*
X0194893Y0279379D01*
X0194884Y0279320D01*
X0194871Y0279261D01*
X0194855Y0279202D01*
X0194835Y0279145D01*
X0194812Y0279090D01*
X0194785Y0279035D01*
X0194756Y0278983D01*
X0194723Y0278932D01*
X0194687Y0278883D01*
X0194649Y0278837D01*
X0194607Y0278793D01*
X0194563Y0278751D01*
X0194517Y0278713D01*
X0194468Y0278677D01*
X0194417Y0278644D01*
X0194365Y0278615D01*
X0194310Y0278588D01*
X0194255Y0278565D01*
X0194198Y0278545D01*
X0194139Y0278529D01*
X0194080Y0278516D01*
X0194021Y0278507D01*
X0193960Y0278502D01*
X0193900Y0278500D01*
X0220400Y0278000D02*
X0230400Y0278000D01*
X0230400Y0294000D01*
X0220400Y0294000D01*
X0220400Y0278000D01*
X0222900Y0282000D02*
X0225400Y0286000D01*
X0222900Y0286000D01*
X0225400Y0286000D02*
X0225400Y0288500D01*
X0225400Y0286000D02*
X0227900Y0286000D01*
X0225400Y0286000D02*
X0227900Y0282000D01*
X0222900Y0282000D01*
X0225400Y0280000D02*
X0225400Y0286000D01*
X0255400Y0287500D02*
X0255400Y0234500D01*
X0375400Y0234500D01*
X0375400Y0257000D01*
X0375274Y0257002D01*
X0375149Y0257008D01*
X0375024Y0257018D01*
X0374899Y0257032D01*
X0374774Y0257049D01*
X0374650Y0257071D01*
X0374527Y0257096D01*
X0374405Y0257126D01*
X0374284Y0257159D01*
X0374164Y0257196D01*
X0374045Y0257236D01*
X0373928Y0257281D01*
X0373811Y0257329D01*
X0373697Y0257381D01*
X0373584Y0257436D01*
X0373473Y0257495D01*
X0373364Y0257557D01*
X0373257Y0257623D01*
X0373152Y0257692D01*
X0373049Y0257764D01*
X0372948Y0257839D01*
X0372850Y0257918D01*
X0372755Y0258000D01*
X0372662Y0258084D01*
X0372572Y0258172D01*
X0372484Y0258262D01*
X0372400Y0258355D01*
X0372318Y0258450D01*
X0372239Y0258548D01*
X0372164Y0258649D01*
X0372092Y0258752D01*
X0372023Y0258857D01*
X0371957Y0258964D01*
X0371895Y0259073D01*
X0371836Y0259184D01*
X0371781Y0259297D01*
X0371729Y0259411D01*
X0371681Y0259528D01*
X0371636Y0259645D01*
X0371596Y0259764D01*
X0371559Y0259884D01*
X0371526Y0260005D01*
X0371496Y0260127D01*
X0371471Y0260250D01*
X0371449Y0260374D01*
X0371432Y0260499D01*
X0371418Y0260624D01*
X0371408Y0260749D01*
X0371402Y0260874D01*
X0371400Y0261000D01*
X0371402Y0261126D01*
X0371408Y0261251D01*
X0371418Y0261376D01*
X0371432Y0261501D01*
X0371449Y0261626D01*
X0371471Y0261750D01*
X0371496Y0261873D01*
X0371526Y0261995D01*
X0371559Y0262116D01*
X0371596Y0262236D01*
X0371636Y0262355D01*
X0371681Y0262472D01*
X0371729Y0262589D01*
X0371781Y0262703D01*
X0371836Y0262816D01*
X0371895Y0262927D01*
X0371957Y0263036D01*
X0372023Y0263143D01*
X0372092Y0263248D01*
X0372164Y0263351D01*
X0372239Y0263452D01*
X0372318Y0263550D01*
X0372400Y0263645D01*
X0372484Y0263738D01*
X0372572Y0263828D01*
X0372662Y0263916D01*
X0372755Y0264000D01*
X0372850Y0264082D01*
X0372948Y0264161D01*
X0373049Y0264236D01*
X0373152Y0264308D01*
X0373257Y0264377D01*
X0373364Y0264443D01*
X0373473Y0264505D01*
X0373584Y0264564D01*
X0373697Y0264619D01*
X0373811Y0264671D01*
X0373928Y0264719D01*
X0374045Y0264764D01*
X0374164Y0264804D01*
X0374284Y0264841D01*
X0374405Y0264874D01*
X0374527Y0264904D01*
X0374650Y0264929D01*
X0374774Y0264951D01*
X0374899Y0264968D01*
X0375024Y0264982D01*
X0375149Y0264992D01*
X0375274Y0264998D01*
X0375400Y0265000D01*
X0375400Y0287500D01*
X0255400Y0287500D01*
X0305900Y0271000D02*
X0305900Y0261000D01*
X0305902Y0260940D01*
X0305907Y0260879D01*
X0305916Y0260820D01*
X0305929Y0260761D01*
X0305945Y0260702D01*
X0305965Y0260645D01*
X0305988Y0260590D01*
X0306015Y0260535D01*
X0306044Y0260483D01*
X0306077Y0260432D01*
X0306113Y0260383D01*
X0306151Y0260337D01*
X0306193Y0260293D01*
X0306237Y0260251D01*
X0306283Y0260213D01*
X0306332Y0260177D01*
X0306383Y0260144D01*
X0306435Y0260115D01*
X0306490Y0260088D01*
X0306545Y0260065D01*
X0306602Y0260045D01*
X0306661Y0260029D01*
X0306720Y0260016D01*
X0306779Y0260007D01*
X0306840Y0260002D01*
X0306900Y0260000D01*
X0323900Y0260000D01*
X0323960Y0260002D01*
X0324021Y0260007D01*
X0324080Y0260016D01*
X0324139Y0260029D01*
X0324198Y0260045D01*
X0324255Y0260065D01*
X0324310Y0260088D01*
X0324365Y0260115D01*
X0324417Y0260144D01*
X0324468Y0260177D01*
X0324517Y0260213D01*
X0324563Y0260251D01*
X0324607Y0260293D01*
X0324649Y0260337D01*
X0324687Y0260383D01*
X0324723Y0260432D01*
X0324756Y0260483D01*
X0324785Y0260535D01*
X0324812Y0260590D01*
X0324835Y0260645D01*
X0324855Y0260702D01*
X0324871Y0260761D01*
X0324884Y0260820D01*
X0324893Y0260879D01*
X0324898Y0260940D01*
X0324900Y0261000D01*
X0324900Y0271000D01*
X0324898Y0271060D01*
X0324893Y0271121D01*
X0324884Y0271180D01*
X0324871Y0271239D01*
X0324855Y0271298D01*
X0324835Y0271355D01*
X0324812Y0271410D01*
X0324785Y0271465D01*
X0324756Y0271517D01*
X0324723Y0271568D01*
X0324687Y0271617D01*
X0324649Y0271663D01*
X0324607Y0271707D01*
X0324563Y0271749D01*
X0324517Y0271787D01*
X0324468Y0271823D01*
X0324417Y0271856D01*
X0324365Y0271885D01*
X0324310Y0271912D01*
X0324255Y0271935D01*
X0324198Y0271955D01*
X0324139Y0271971D01*
X0324080Y0271984D01*
X0324021Y0271993D01*
X0323960Y0271998D01*
X0323900Y0272000D01*
X0306900Y0272000D01*
X0306840Y0271998D01*
X0306779Y0271993D01*
X0306720Y0271984D01*
X0306661Y0271971D01*
X0306602Y0271955D01*
X0306545Y0271935D01*
X0306490Y0271912D01*
X0306435Y0271885D01*
X0306383Y0271856D01*
X0306332Y0271823D01*
X0306283Y0271787D01*
X0306237Y0271749D01*
X0306193Y0271707D01*
X0306151Y0271663D01*
X0306113Y0271617D01*
X0306077Y0271568D01*
X0306044Y0271517D01*
X0306015Y0271465D01*
X0305988Y0271410D01*
X0305965Y0271355D01*
X0305945Y0271298D01*
X0305929Y0271239D01*
X0305916Y0271180D01*
X0305907Y0271121D01*
X0305902Y0271060D01*
X0305900Y0271000D01*
X0313900Y0266000D02*
X0314400Y0266000D01*
X0316400Y0266000D02*
X0316900Y0266000D01*
X0380400Y0263500D02*
X0380400Y0258500D01*
X0382900Y0256000D01*
X0380400Y0253500D01*
X0380400Y0248500D01*
X0382900Y0246000D01*
X0387900Y0246000D01*
X0390400Y0248500D01*
X0390400Y0253500D01*
X0387900Y0256000D01*
X0382900Y0256000D01*
X0387900Y0256000D02*
X0390400Y0258500D01*
X0390400Y0263500D01*
X0387900Y0266000D01*
X0382900Y0266000D01*
X0380400Y0263500D01*
X0382900Y0266000D02*
X0380400Y0268500D01*
X0380400Y0273500D01*
X0382900Y0276000D01*
X0387900Y0276000D01*
X0390400Y0273500D01*
X0390400Y0268500D01*
X0387900Y0266000D01*
D12*
X0392850Y0266540D02*
X0392850Y0267540D01*
X0392850Y0267040D02*
X0397350Y0267040D01*
X0397350Y0266540D02*
X0397350Y0267540D01*
X0397350Y0269140D02*
X0392850Y0270640D01*
X0397350Y0272140D01*
X0396225Y0271765D02*
X0396225Y0269515D01*
X0397350Y0274050D02*
X0392850Y0274050D01*
X0397350Y0274050D02*
X0397350Y0276050D01*
X0397350Y0264723D02*
X0395350Y0263723D01*
X0395350Y0263473D02*
X0395350Y0262223D01*
X0395350Y0263473D02*
X0395348Y0263542D01*
X0395342Y0263611D01*
X0395333Y0263679D01*
X0395320Y0263746D01*
X0395303Y0263813D01*
X0395282Y0263879D01*
X0395258Y0263943D01*
X0395230Y0264006D01*
X0395199Y0264068D01*
X0395165Y0264128D01*
X0395127Y0264185D01*
X0395086Y0264241D01*
X0395043Y0264294D01*
X0394996Y0264345D01*
X0394947Y0264393D01*
X0394895Y0264438D01*
X0394840Y0264480D01*
X0394784Y0264519D01*
X0394725Y0264556D01*
X0394664Y0264588D01*
X0394602Y0264618D01*
X0394538Y0264644D01*
X0394473Y0264666D01*
X0394407Y0264685D01*
X0394340Y0264700D01*
X0394272Y0264711D01*
X0394203Y0264719D01*
X0394134Y0264723D01*
X0394066Y0264723D01*
X0393997Y0264719D01*
X0393928Y0264711D01*
X0393860Y0264700D01*
X0393793Y0264685D01*
X0393727Y0264666D01*
X0393662Y0264644D01*
X0393598Y0264618D01*
X0393536Y0264588D01*
X0393475Y0264556D01*
X0393416Y0264519D01*
X0393360Y0264480D01*
X0393305Y0264438D01*
X0393253Y0264393D01*
X0393204Y0264345D01*
X0393157Y0264294D01*
X0393114Y0264241D01*
X0393073Y0264185D01*
X0393035Y0264128D01*
X0393001Y0264068D01*
X0392970Y0264006D01*
X0392942Y0263943D01*
X0392918Y0263879D01*
X0392897Y0263813D01*
X0392880Y0263746D01*
X0392867Y0263679D01*
X0392858Y0263611D01*
X0392852Y0263542D01*
X0392850Y0263473D01*
X0392850Y0262223D01*
X0397350Y0262223D01*
X0397350Y0260300D02*
X0397350Y0258300D01*
X0392850Y0258300D01*
X0392850Y0260300D01*
X0394850Y0259800D02*
X0394850Y0258300D01*
X0395475Y0255790D02*
X0394725Y0254415D01*
X0392850Y0254915D02*
X0392852Y0254995D01*
X0392857Y0255076D01*
X0392866Y0255156D01*
X0392878Y0255235D01*
X0392893Y0255314D01*
X0392912Y0255392D01*
X0392934Y0255470D01*
X0392959Y0255546D01*
X0392988Y0255621D01*
X0393020Y0255695D01*
X0393055Y0255767D01*
X0393093Y0255838D01*
X0393134Y0255907D01*
X0393178Y0255975D01*
X0393225Y0256040D01*
X0394725Y0254415D02*
X0394692Y0254363D01*
X0394656Y0254312D01*
X0394617Y0254264D01*
X0394575Y0254219D01*
X0394530Y0254176D01*
X0394482Y0254136D01*
X0394433Y0254099D01*
X0394381Y0254065D01*
X0394327Y0254034D01*
X0394271Y0254006D01*
X0394214Y0253982D01*
X0394155Y0253962D01*
X0394096Y0253945D01*
X0394035Y0253932D01*
X0393974Y0253923D01*
X0393912Y0253917D01*
X0393850Y0253915D01*
X0393790Y0253917D01*
X0393729Y0253922D01*
X0393670Y0253931D01*
X0393611Y0253944D01*
X0393552Y0253960D01*
X0393495Y0253980D01*
X0393440Y0254003D01*
X0393385Y0254030D01*
X0393333Y0254059D01*
X0393282Y0254092D01*
X0393233Y0254128D01*
X0393187Y0254166D01*
X0393143Y0254208D01*
X0393101Y0254252D01*
X0393063Y0254298D01*
X0393027Y0254347D01*
X0392994Y0254398D01*
X0392965Y0254450D01*
X0392938Y0254505D01*
X0392915Y0254560D01*
X0392895Y0254617D01*
X0392879Y0254676D01*
X0392866Y0254735D01*
X0392857Y0254794D01*
X0392852Y0254855D01*
X0392850Y0254915D01*
X0396725Y0253790D02*
X0396786Y0253853D01*
X0396844Y0253918D01*
X0396900Y0253986D01*
X0396953Y0254057D01*
X0397002Y0254129D01*
X0397049Y0254203D01*
X0397093Y0254279D01*
X0397133Y0254357D01*
X0397170Y0254437D01*
X0397204Y0254518D01*
X0397234Y0254600D01*
X0397261Y0254684D01*
X0397285Y0254769D01*
X0397305Y0254854D01*
X0397321Y0254940D01*
X0397334Y0255027D01*
X0397343Y0255115D01*
X0397348Y0255202D01*
X0397350Y0255290D01*
X0397348Y0255350D01*
X0397343Y0255411D01*
X0397334Y0255470D01*
X0397321Y0255529D01*
X0397305Y0255588D01*
X0397285Y0255645D01*
X0397262Y0255700D01*
X0397235Y0255755D01*
X0397206Y0255807D01*
X0397173Y0255858D01*
X0397137Y0255907D01*
X0397099Y0255953D01*
X0397057Y0255997D01*
X0397013Y0256039D01*
X0396967Y0256077D01*
X0396918Y0256113D01*
X0396867Y0256146D01*
X0396815Y0256175D01*
X0396760Y0256202D01*
X0396705Y0256225D01*
X0396648Y0256245D01*
X0396589Y0256261D01*
X0396530Y0256274D01*
X0396471Y0256283D01*
X0396410Y0256288D01*
X0396350Y0256290D01*
X0396288Y0256288D01*
X0396226Y0256282D01*
X0396165Y0256273D01*
X0396104Y0256260D01*
X0396045Y0256243D01*
X0395986Y0256223D01*
X0395929Y0256199D01*
X0395873Y0256171D01*
X0395819Y0256140D01*
X0395767Y0256106D01*
X0395718Y0256069D01*
X0395670Y0256029D01*
X0395625Y0255986D01*
X0395583Y0255941D01*
X0395544Y0255893D01*
X0395508Y0255842D01*
X0395475Y0255790D01*
X0312915Y0278250D02*
X0311665Y0273750D01*
X0308650Y0273750D02*
X0307650Y0273750D01*
X0307590Y0273752D01*
X0307529Y0273757D01*
X0307470Y0273766D01*
X0307411Y0273779D01*
X0307352Y0273795D01*
X0307295Y0273815D01*
X0307240Y0273838D01*
X0307185Y0273865D01*
X0307133Y0273894D01*
X0307082Y0273927D01*
X0307033Y0273963D01*
X0306987Y0274001D01*
X0306943Y0274043D01*
X0306901Y0274087D01*
X0306863Y0274133D01*
X0306827Y0274182D01*
X0306794Y0274233D01*
X0306765Y0274285D01*
X0306738Y0274340D01*
X0306715Y0274395D01*
X0306695Y0274452D01*
X0306679Y0274511D01*
X0306666Y0274570D01*
X0306657Y0274629D01*
X0306652Y0274690D01*
X0306650Y0274750D01*
X0306650Y0277250D01*
X0306652Y0277310D01*
X0306657Y0277371D01*
X0306666Y0277430D01*
X0306679Y0277489D01*
X0306695Y0277548D01*
X0306715Y0277605D01*
X0306738Y0277660D01*
X0306765Y0277715D01*
X0306794Y0277767D01*
X0306827Y0277818D01*
X0306863Y0277867D01*
X0306901Y0277913D01*
X0306943Y0277957D01*
X0306987Y0277999D01*
X0307033Y0278037D01*
X0307082Y0278073D01*
X0307133Y0278106D01*
X0307185Y0278135D01*
X0307240Y0278162D01*
X0307295Y0278185D01*
X0307352Y0278205D01*
X0307411Y0278221D01*
X0307470Y0278234D01*
X0307529Y0278243D01*
X0307590Y0278248D01*
X0307650Y0278250D01*
X0308650Y0278250D01*
X0310415Y0278250D02*
X0312915Y0278250D01*
X0310415Y0278250D02*
X0310415Y0277750D01*
X0236650Y0286600D02*
X0236650Y0287850D01*
X0236650Y0286600D02*
X0232150Y0286600D01*
X0232150Y0287850D01*
X0232152Y0287918D01*
X0232157Y0287985D01*
X0232166Y0288052D01*
X0232179Y0288119D01*
X0232196Y0288184D01*
X0232215Y0288249D01*
X0232239Y0288313D01*
X0232266Y0288375D01*
X0232296Y0288436D01*
X0232329Y0288494D01*
X0232365Y0288551D01*
X0232405Y0288606D01*
X0232447Y0288659D01*
X0232493Y0288710D01*
X0232540Y0288757D01*
X0232591Y0288803D01*
X0232644Y0288845D01*
X0232699Y0288885D01*
X0232756Y0288921D01*
X0232814Y0288954D01*
X0232875Y0288984D01*
X0232937Y0289011D01*
X0233001Y0289035D01*
X0233066Y0289054D01*
X0233131Y0289071D01*
X0233198Y0289084D01*
X0233265Y0289093D01*
X0233332Y0289098D01*
X0233400Y0289100D01*
X0235400Y0289100D01*
X0235468Y0289098D01*
X0235535Y0289093D01*
X0235602Y0289084D01*
X0235669Y0289071D01*
X0235734Y0289054D01*
X0235799Y0289035D01*
X0235863Y0289011D01*
X0235925Y0288984D01*
X0235986Y0288954D01*
X0236044Y0288921D01*
X0236101Y0288885D01*
X0236156Y0288845D01*
X0236209Y0288803D01*
X0236260Y0288757D01*
X0236307Y0288710D01*
X0236353Y0288659D01*
X0236395Y0288606D01*
X0236435Y0288551D01*
X0236471Y0288494D01*
X0236504Y0288436D01*
X0236534Y0288375D01*
X0236561Y0288313D01*
X0236585Y0288249D01*
X0236604Y0288184D01*
X0236621Y0288119D01*
X0236634Y0288052D01*
X0236643Y0287985D01*
X0236648Y0287918D01*
X0236650Y0287850D01*
X0236650Y0291250D02*
X0236650Y0293750D01*
X0236650Y0292500D02*
X0232150Y0292500D01*
X0233150Y0291250D01*
X0200650Y0293783D02*
X0196150Y0293783D01*
X0196150Y0295033D01*
X0196152Y0295102D01*
X0196158Y0295171D01*
X0196167Y0295239D01*
X0196180Y0295306D01*
X0196197Y0295373D01*
X0196218Y0295439D01*
X0196242Y0295503D01*
X0196270Y0295566D01*
X0196301Y0295628D01*
X0196335Y0295688D01*
X0196373Y0295745D01*
X0196414Y0295801D01*
X0196457Y0295854D01*
X0196504Y0295905D01*
X0196553Y0295953D01*
X0196605Y0295998D01*
X0196660Y0296040D01*
X0196716Y0296079D01*
X0196775Y0296116D01*
X0196836Y0296148D01*
X0196898Y0296178D01*
X0196962Y0296204D01*
X0197027Y0296226D01*
X0197093Y0296245D01*
X0197160Y0296260D01*
X0197228Y0296271D01*
X0197297Y0296279D01*
X0197366Y0296283D01*
X0197434Y0296283D01*
X0197503Y0296279D01*
X0197572Y0296271D01*
X0197640Y0296260D01*
X0197707Y0296245D01*
X0197773Y0296226D01*
X0197838Y0296204D01*
X0197902Y0296178D01*
X0197964Y0296148D01*
X0198025Y0296116D01*
X0198084Y0296079D01*
X0198140Y0296040D01*
X0198195Y0295998D01*
X0198247Y0295953D01*
X0198296Y0295905D01*
X0198343Y0295854D01*
X0198386Y0295801D01*
X0198427Y0295745D01*
X0198465Y0295688D01*
X0198499Y0295628D01*
X0198530Y0295566D01*
X0198558Y0295503D01*
X0198582Y0295439D01*
X0198603Y0295373D01*
X0198620Y0295306D01*
X0198633Y0295239D01*
X0198642Y0295171D01*
X0198648Y0295102D01*
X0198650Y0295033D01*
X0198650Y0293783D01*
X0198650Y0295283D02*
X0200650Y0296283D01*
X0199650Y0298250D02*
X0199650Y0300750D01*
X0198650Y0300000D02*
X0200650Y0300000D01*
X0199650Y0298250D02*
X0196150Y0299250D01*
X0149650Y0302250D02*
X0148650Y0302250D01*
X0149650Y0302250D02*
X0149712Y0302252D01*
X0149773Y0302258D01*
X0149834Y0302267D01*
X0149894Y0302280D01*
X0149953Y0302297D01*
X0150011Y0302318D01*
X0150068Y0302342D01*
X0150123Y0302369D01*
X0150176Y0302400D01*
X0150228Y0302434D01*
X0150277Y0302471D01*
X0150324Y0302511D01*
X0150368Y0302554D01*
X0150409Y0302599D01*
X0150448Y0302647D01*
X0150484Y0302698D01*
X0150516Y0302750D01*
X0150545Y0302804D01*
X0150571Y0302860D01*
X0150593Y0302918D01*
X0150612Y0302976D01*
X0150627Y0303036D01*
X0150638Y0303097D01*
X0150646Y0303158D01*
X0150650Y0303219D01*
X0150650Y0303281D01*
X0150646Y0303342D01*
X0150638Y0303403D01*
X0150627Y0303464D01*
X0150612Y0303524D01*
X0150593Y0303582D01*
X0150571Y0303640D01*
X0150545Y0303696D01*
X0150516Y0303750D01*
X0150484Y0303802D01*
X0150448Y0303853D01*
X0150409Y0303901D01*
X0150368Y0303946D01*
X0150324Y0303989D01*
X0150277Y0304029D01*
X0150228Y0304066D01*
X0150176Y0304100D01*
X0150123Y0304131D01*
X0150068Y0304158D01*
X0150011Y0304182D01*
X0149953Y0304203D01*
X0149894Y0304220D01*
X0149834Y0304233D01*
X0149773Y0304242D01*
X0149712Y0304248D01*
X0149650Y0304250D01*
X0148150Y0304250D01*
X0149400Y0302250D02*
X0149469Y0302248D01*
X0149538Y0302242D01*
X0149606Y0302233D01*
X0149673Y0302220D01*
X0149740Y0302203D01*
X0149806Y0302182D01*
X0149870Y0302158D01*
X0149933Y0302130D01*
X0149995Y0302099D01*
X0150055Y0302065D01*
X0150112Y0302027D01*
X0150168Y0301986D01*
X0150221Y0301943D01*
X0150272Y0301896D01*
X0150320Y0301847D01*
X0150365Y0301795D01*
X0150407Y0301740D01*
X0150446Y0301684D01*
X0150483Y0301625D01*
X0150515Y0301564D01*
X0150545Y0301502D01*
X0150571Y0301438D01*
X0150593Y0301373D01*
X0150612Y0301307D01*
X0150627Y0301240D01*
X0150638Y0301172D01*
X0150646Y0301103D01*
X0150650Y0301034D01*
X0150650Y0300966D01*
X0150646Y0300897D01*
X0150638Y0300828D01*
X0150627Y0300760D01*
X0150612Y0300693D01*
X0150593Y0300627D01*
X0150571Y0300562D01*
X0150545Y0300498D01*
X0150515Y0300436D01*
X0150483Y0300375D01*
X0150446Y0300316D01*
X0150407Y0300260D01*
X0150365Y0300205D01*
X0150320Y0300153D01*
X0150272Y0300104D01*
X0150221Y0300057D01*
X0150168Y0300014D01*
X0150112Y0299973D01*
X0150055Y0299935D01*
X0149995Y0299901D01*
X0149933Y0299870D01*
X0149870Y0299842D01*
X0149806Y0299818D01*
X0149740Y0299797D01*
X0149673Y0299780D01*
X0149606Y0299767D01*
X0149538Y0299758D01*
X0149469Y0299752D01*
X0149400Y0299750D01*
X0148150Y0299750D01*
X0149400Y0272750D02*
X0149400Y0268250D01*
X0148150Y0268250D02*
X0150650Y0268250D01*
X0148150Y0271750D02*
X0149400Y0272750D01*
X0148900Y0258250D02*
X0147650Y0257250D01*
X0148900Y0258250D02*
X0148900Y0253750D01*
X0147650Y0253750D02*
X0150150Y0253750D01*
X0145300Y0255625D02*
X0143925Y0256375D01*
X0144425Y0258250D02*
X0144505Y0258248D01*
X0144586Y0258243D01*
X0144666Y0258234D01*
X0144745Y0258222D01*
X0144824Y0258207D01*
X0144902Y0258188D01*
X0144980Y0258166D01*
X0145056Y0258141D01*
X0145131Y0258112D01*
X0145205Y0258080D01*
X0145277Y0258045D01*
X0145348Y0258007D01*
X0145417Y0257966D01*
X0145485Y0257922D01*
X0145550Y0257875D01*
X0143925Y0256375D02*
X0143873Y0256408D01*
X0143822Y0256444D01*
X0143774Y0256483D01*
X0143729Y0256525D01*
X0143686Y0256570D01*
X0143646Y0256618D01*
X0143609Y0256667D01*
X0143575Y0256719D01*
X0143544Y0256773D01*
X0143516Y0256829D01*
X0143492Y0256886D01*
X0143472Y0256945D01*
X0143455Y0257004D01*
X0143442Y0257065D01*
X0143433Y0257126D01*
X0143427Y0257188D01*
X0143425Y0257250D01*
X0143427Y0257310D01*
X0143432Y0257371D01*
X0143441Y0257430D01*
X0143454Y0257489D01*
X0143470Y0257548D01*
X0143490Y0257605D01*
X0143513Y0257660D01*
X0143540Y0257715D01*
X0143569Y0257767D01*
X0143602Y0257818D01*
X0143638Y0257867D01*
X0143676Y0257913D01*
X0143718Y0257957D01*
X0143762Y0257999D01*
X0143808Y0258037D01*
X0143857Y0258073D01*
X0143908Y0258106D01*
X0143960Y0258135D01*
X0144015Y0258162D01*
X0144070Y0258185D01*
X0144127Y0258205D01*
X0144186Y0258221D01*
X0144245Y0258234D01*
X0144304Y0258243D01*
X0144365Y0258248D01*
X0144425Y0258250D01*
X0143300Y0254374D02*
X0143363Y0254313D01*
X0143428Y0254255D01*
X0143496Y0254199D01*
X0143567Y0254146D01*
X0143639Y0254097D01*
X0143713Y0254050D01*
X0143789Y0254006D01*
X0143867Y0253966D01*
X0143947Y0253929D01*
X0144028Y0253895D01*
X0144110Y0253865D01*
X0144194Y0253838D01*
X0144279Y0253814D01*
X0144364Y0253794D01*
X0144450Y0253778D01*
X0144537Y0253765D01*
X0144625Y0253756D01*
X0144712Y0253751D01*
X0144800Y0253749D01*
X0144800Y0253750D02*
X0144860Y0253752D01*
X0144921Y0253757D01*
X0144980Y0253766D01*
X0145039Y0253779D01*
X0145098Y0253795D01*
X0145155Y0253815D01*
X0145210Y0253838D01*
X0145265Y0253865D01*
X0145317Y0253894D01*
X0145368Y0253927D01*
X0145417Y0253963D01*
X0145463Y0254001D01*
X0145507Y0254043D01*
X0145549Y0254087D01*
X0145587Y0254133D01*
X0145623Y0254182D01*
X0145656Y0254233D01*
X0145685Y0254285D01*
X0145712Y0254340D01*
X0145735Y0254395D01*
X0145755Y0254452D01*
X0145771Y0254511D01*
X0145784Y0254570D01*
X0145793Y0254629D01*
X0145798Y0254690D01*
X0145800Y0254750D01*
X0145798Y0254812D01*
X0145792Y0254874D01*
X0145783Y0254935D01*
X0145770Y0254996D01*
X0145753Y0255055D01*
X0145733Y0255114D01*
X0145709Y0255171D01*
X0145681Y0255227D01*
X0145650Y0255281D01*
X0145616Y0255333D01*
X0145579Y0255382D01*
X0145539Y0255430D01*
X0145496Y0255475D01*
X0145451Y0255517D01*
X0145403Y0255556D01*
X0145352Y0255592D01*
X0145300Y0255625D01*
X0153150Y0239750D02*
X0153150Y0237250D01*
X0155150Y0237250D01*
X0155150Y0238750D01*
X0155152Y0238810D01*
X0155157Y0238871D01*
X0155166Y0238930D01*
X0155179Y0238989D01*
X0155195Y0239048D01*
X0155215Y0239105D01*
X0155238Y0239160D01*
X0155265Y0239215D01*
X0155294Y0239267D01*
X0155327Y0239318D01*
X0155363Y0239367D01*
X0155401Y0239413D01*
X0155443Y0239457D01*
X0155487Y0239499D01*
X0155533Y0239537D01*
X0155582Y0239573D01*
X0155633Y0239606D01*
X0155685Y0239635D01*
X0155740Y0239662D01*
X0155795Y0239685D01*
X0155852Y0239705D01*
X0155911Y0239721D01*
X0155970Y0239734D01*
X0156029Y0239743D01*
X0156090Y0239748D01*
X0156150Y0239750D01*
X0156650Y0239750D01*
X0156710Y0239748D01*
X0156771Y0239743D01*
X0156830Y0239734D01*
X0156889Y0239721D01*
X0156948Y0239705D01*
X0157005Y0239685D01*
X0157060Y0239662D01*
X0157115Y0239635D01*
X0157167Y0239606D01*
X0157218Y0239573D01*
X0157267Y0239537D01*
X0157313Y0239499D01*
X0157357Y0239457D01*
X0157399Y0239413D01*
X0157437Y0239367D01*
X0157473Y0239318D01*
X0157506Y0239267D01*
X0157535Y0239215D01*
X0157562Y0239160D01*
X0157585Y0239105D01*
X0157605Y0239048D01*
X0157621Y0238989D01*
X0157634Y0238930D01*
X0157643Y0238871D01*
X0157648Y0238810D01*
X0157650Y0238750D01*
X0157650Y0237250D01*
X0157650Y0235485D02*
X0157650Y0234485D01*
X0157648Y0234425D01*
X0157643Y0234364D01*
X0157634Y0234305D01*
X0157621Y0234246D01*
X0157605Y0234187D01*
X0157585Y0234130D01*
X0157562Y0234075D01*
X0157535Y0234020D01*
X0157506Y0233968D01*
X0157473Y0233917D01*
X0157437Y0233868D01*
X0157399Y0233822D01*
X0157357Y0233778D01*
X0157313Y0233736D01*
X0157267Y0233698D01*
X0157218Y0233662D01*
X0157167Y0233629D01*
X0157115Y0233600D01*
X0157060Y0233573D01*
X0157005Y0233550D01*
X0156948Y0233530D01*
X0156889Y0233514D01*
X0156830Y0233501D01*
X0156771Y0233492D01*
X0156710Y0233487D01*
X0156650Y0233485D01*
X0154150Y0233485D01*
X0154090Y0233487D01*
X0154029Y0233492D01*
X0153970Y0233501D01*
X0153911Y0233514D01*
X0153852Y0233530D01*
X0153795Y0233550D01*
X0153740Y0233573D01*
X0153685Y0233600D01*
X0153633Y0233629D01*
X0153582Y0233662D01*
X0153533Y0233698D01*
X0153487Y0233736D01*
X0153443Y0233778D01*
X0153401Y0233822D01*
X0153363Y0233868D01*
X0153327Y0233917D01*
X0153294Y0233968D01*
X0153265Y0234020D01*
X0153238Y0234075D01*
X0153215Y0234130D01*
X0153195Y0234187D01*
X0153179Y0234246D01*
X0153166Y0234305D01*
X0153157Y0234364D01*
X0153152Y0234425D01*
X0153150Y0234485D01*
X0153150Y0235485D01*
X0148650Y0228350D02*
X0148650Y0225850D01*
X0146150Y0227975D01*
X0144150Y0227225D02*
X0144152Y0227152D01*
X0144157Y0227080D01*
X0144166Y0227008D01*
X0144179Y0226936D01*
X0144195Y0226865D01*
X0144215Y0226795D01*
X0144239Y0226727D01*
X0144265Y0226659D01*
X0144296Y0226593D01*
X0144329Y0226528D01*
X0144366Y0226466D01*
X0144405Y0226405D01*
X0144448Y0226346D01*
X0144494Y0226289D01*
X0144542Y0226235D01*
X0144593Y0226184D01*
X0144647Y0226134D01*
X0144703Y0226088D01*
X0144761Y0226045D01*
X0144822Y0226004D01*
X0144884Y0225967D01*
X0144948Y0225933D01*
X0145014Y0225902D01*
X0145081Y0225874D01*
X0145150Y0225850D01*
X0146150Y0227975D02*
X0146104Y0228021D01*
X0146055Y0228065D01*
X0146004Y0228105D01*
X0145951Y0228143D01*
X0145896Y0228178D01*
X0145839Y0228210D01*
X0145781Y0228239D01*
X0145721Y0228265D01*
X0145659Y0228287D01*
X0145597Y0228306D01*
X0145534Y0228322D01*
X0145470Y0228334D01*
X0145405Y0228343D01*
X0145340Y0228348D01*
X0145275Y0228350D01*
X0145210Y0228348D01*
X0145144Y0228342D01*
X0145080Y0228333D01*
X0145016Y0228320D01*
X0144952Y0228303D01*
X0144890Y0228282D01*
X0144829Y0228258D01*
X0144770Y0228230D01*
X0144713Y0228199D01*
X0144657Y0228165D01*
X0144603Y0228127D01*
X0144552Y0228087D01*
X0144503Y0228043D01*
X0144457Y0227997D01*
X0144413Y0227948D01*
X0144373Y0227897D01*
X0144335Y0227843D01*
X0144301Y0227788D01*
X0144270Y0227730D01*
X0144242Y0227671D01*
X0144218Y0227610D01*
X0144197Y0227548D01*
X0144180Y0227484D01*
X0144167Y0227420D01*
X0144158Y0227356D01*
X0144152Y0227290D01*
X0144150Y0227225D01*
X0144150Y0224085D02*
X0144150Y0223085D01*
X0144152Y0223025D01*
X0144157Y0222964D01*
X0144166Y0222905D01*
X0144179Y0222846D01*
X0144195Y0222787D01*
X0144215Y0222730D01*
X0144238Y0222675D01*
X0144265Y0222620D01*
X0144294Y0222568D01*
X0144327Y0222517D01*
X0144363Y0222468D01*
X0144401Y0222422D01*
X0144443Y0222378D01*
X0144487Y0222336D01*
X0144533Y0222298D01*
X0144582Y0222262D01*
X0144633Y0222229D01*
X0144685Y0222200D01*
X0144740Y0222173D01*
X0144795Y0222150D01*
X0144852Y0222130D01*
X0144911Y0222114D01*
X0144970Y0222101D01*
X0145029Y0222092D01*
X0145090Y0222087D01*
X0145150Y0222085D01*
X0147650Y0222085D01*
X0147710Y0222087D01*
X0147771Y0222092D01*
X0147830Y0222101D01*
X0147889Y0222114D01*
X0147948Y0222130D01*
X0148005Y0222150D01*
X0148060Y0222173D01*
X0148115Y0222200D01*
X0148167Y0222229D01*
X0148218Y0222262D01*
X0148267Y0222298D01*
X0148313Y0222336D01*
X0148357Y0222378D01*
X0148399Y0222422D01*
X0148437Y0222468D01*
X0148473Y0222517D01*
X0148506Y0222568D01*
X0148535Y0222620D01*
X0148562Y0222675D01*
X0148585Y0222730D01*
X0148605Y0222787D01*
X0148621Y0222846D01*
X0148634Y0222905D01*
X0148643Y0222964D01*
X0148648Y0223025D01*
X0148650Y0223085D01*
X0148650Y0224085D01*
X0148650Y0220250D02*
X0148650Y0219250D01*
X0148650Y0219750D02*
X0144150Y0219750D01*
X0144150Y0219250D02*
X0144150Y0220250D01*
X0144350Y0207950D02*
X0143350Y0203450D01*
X0142350Y0206450D01*
X0141350Y0203450D01*
X0140350Y0207950D01*
X0146383Y0207950D02*
X0146383Y0203450D01*
X0146383Y0205450D02*
X0147633Y0205450D01*
X0147883Y0205450D02*
X0148883Y0203450D01*
X0151010Y0203450D02*
X0151010Y0207950D01*
X0153010Y0207950D01*
X0154900Y0207950D02*
X0157400Y0203450D01*
X0157400Y0207950D01*
X0154900Y0207950D02*
X0154900Y0203450D01*
X0153010Y0203450D02*
X0151010Y0203450D01*
X0151010Y0205950D02*
X0152510Y0205950D01*
X0147633Y0205450D02*
X0147702Y0205452D01*
X0147771Y0205458D01*
X0147839Y0205467D01*
X0147906Y0205480D01*
X0147973Y0205497D01*
X0148039Y0205518D01*
X0148103Y0205542D01*
X0148166Y0205570D01*
X0148228Y0205601D01*
X0148288Y0205635D01*
X0148345Y0205673D01*
X0148401Y0205714D01*
X0148454Y0205757D01*
X0148505Y0205804D01*
X0148553Y0205853D01*
X0148598Y0205905D01*
X0148640Y0205960D01*
X0148679Y0206016D01*
X0148716Y0206075D01*
X0148748Y0206136D01*
X0148778Y0206198D01*
X0148804Y0206262D01*
X0148826Y0206327D01*
X0148845Y0206393D01*
X0148860Y0206460D01*
X0148871Y0206528D01*
X0148879Y0206597D01*
X0148883Y0206666D01*
X0148883Y0206734D01*
X0148879Y0206803D01*
X0148871Y0206872D01*
X0148860Y0206940D01*
X0148845Y0207007D01*
X0148826Y0207073D01*
X0148804Y0207138D01*
X0148778Y0207202D01*
X0148748Y0207264D01*
X0148716Y0207325D01*
X0148679Y0207384D01*
X0148640Y0207440D01*
X0148598Y0207495D01*
X0148553Y0207547D01*
X0148505Y0207596D01*
X0148454Y0207643D01*
X0148401Y0207686D01*
X0148345Y0207727D01*
X0148288Y0207765D01*
X0148228Y0207799D01*
X0148166Y0207830D01*
X0148103Y0207858D01*
X0148039Y0207882D01*
X0147973Y0207903D01*
X0147906Y0207920D01*
X0147839Y0207933D01*
X0147771Y0207942D01*
X0147702Y0207948D01*
X0147633Y0207950D01*
X0146383Y0207950D01*
X0171650Y0202250D02*
X0171650Y0199750D01*
X0171652Y0199690D01*
X0171657Y0199629D01*
X0171666Y0199570D01*
X0171679Y0199511D01*
X0171695Y0199452D01*
X0171715Y0199395D01*
X0171738Y0199340D01*
X0171765Y0199285D01*
X0171794Y0199233D01*
X0171827Y0199182D01*
X0171863Y0199133D01*
X0171901Y0199087D01*
X0171943Y0199043D01*
X0171987Y0199001D01*
X0172033Y0198963D01*
X0172082Y0198927D01*
X0172133Y0198894D01*
X0172185Y0198865D01*
X0172240Y0198838D01*
X0172295Y0198815D01*
X0172352Y0198795D01*
X0172411Y0198779D01*
X0172470Y0198766D01*
X0172529Y0198757D01*
X0172590Y0198752D01*
X0172650Y0198750D01*
X0173650Y0198750D01*
X0175415Y0198750D02*
X0176665Y0198750D01*
X0176734Y0198752D01*
X0176803Y0198758D01*
X0176871Y0198767D01*
X0176938Y0198780D01*
X0177005Y0198797D01*
X0177071Y0198818D01*
X0177135Y0198842D01*
X0177198Y0198870D01*
X0177260Y0198901D01*
X0177320Y0198935D01*
X0177377Y0198973D01*
X0177433Y0199014D01*
X0177486Y0199057D01*
X0177537Y0199104D01*
X0177585Y0199153D01*
X0177630Y0199205D01*
X0177672Y0199260D01*
X0177711Y0199316D01*
X0177748Y0199375D01*
X0177780Y0199436D01*
X0177810Y0199498D01*
X0177836Y0199562D01*
X0177858Y0199627D01*
X0177877Y0199693D01*
X0177892Y0199760D01*
X0177903Y0199828D01*
X0177911Y0199897D01*
X0177915Y0199966D01*
X0177915Y0200034D01*
X0177911Y0200103D01*
X0177903Y0200172D01*
X0177892Y0200240D01*
X0177877Y0200307D01*
X0177858Y0200373D01*
X0177836Y0200438D01*
X0177810Y0200502D01*
X0177780Y0200564D01*
X0177748Y0200625D01*
X0177711Y0200684D01*
X0177672Y0200740D01*
X0177630Y0200795D01*
X0177585Y0200847D01*
X0177537Y0200896D01*
X0177486Y0200943D01*
X0177433Y0200986D01*
X0177377Y0201027D01*
X0177320Y0201065D01*
X0177260Y0201099D01*
X0177198Y0201130D01*
X0177135Y0201158D01*
X0177071Y0201182D01*
X0177005Y0201203D01*
X0176938Y0201220D01*
X0176871Y0201233D01*
X0176803Y0201242D01*
X0176734Y0201248D01*
X0176665Y0201250D01*
X0176915Y0201250D02*
X0175915Y0201250D01*
X0176915Y0201250D02*
X0176977Y0201252D01*
X0177038Y0201258D01*
X0177099Y0201267D01*
X0177159Y0201280D01*
X0177218Y0201297D01*
X0177276Y0201318D01*
X0177333Y0201342D01*
X0177388Y0201369D01*
X0177441Y0201400D01*
X0177493Y0201434D01*
X0177542Y0201471D01*
X0177589Y0201511D01*
X0177633Y0201554D01*
X0177674Y0201599D01*
X0177713Y0201647D01*
X0177749Y0201698D01*
X0177781Y0201750D01*
X0177810Y0201804D01*
X0177836Y0201860D01*
X0177858Y0201918D01*
X0177877Y0201976D01*
X0177892Y0202036D01*
X0177903Y0202097D01*
X0177911Y0202158D01*
X0177915Y0202219D01*
X0177915Y0202281D01*
X0177911Y0202342D01*
X0177903Y0202403D01*
X0177892Y0202464D01*
X0177877Y0202524D01*
X0177858Y0202582D01*
X0177836Y0202640D01*
X0177810Y0202696D01*
X0177781Y0202750D01*
X0177749Y0202802D01*
X0177713Y0202853D01*
X0177674Y0202901D01*
X0177633Y0202946D01*
X0177589Y0202989D01*
X0177542Y0203029D01*
X0177493Y0203066D01*
X0177441Y0203100D01*
X0177388Y0203131D01*
X0177333Y0203158D01*
X0177276Y0203182D01*
X0177218Y0203203D01*
X0177159Y0203220D01*
X0177099Y0203233D01*
X0177038Y0203242D01*
X0176977Y0203248D01*
X0176915Y0203250D01*
X0175415Y0203250D01*
X0173650Y0203250D02*
X0172650Y0203250D01*
X0172590Y0203248D01*
X0172529Y0203243D01*
X0172470Y0203234D01*
X0172411Y0203221D01*
X0172352Y0203205D01*
X0172295Y0203185D01*
X0172240Y0203162D01*
X0172185Y0203135D01*
X0172133Y0203106D01*
X0172082Y0203073D01*
X0172033Y0203037D01*
X0171987Y0202999D01*
X0171943Y0202957D01*
X0171901Y0202913D01*
X0171863Y0202867D01*
X0171827Y0202818D01*
X0171794Y0202767D01*
X0171765Y0202715D01*
X0171738Y0202660D01*
X0171715Y0202605D01*
X0171695Y0202548D01*
X0171679Y0202489D01*
X0171666Y0202430D01*
X0171657Y0202371D01*
X0171652Y0202310D01*
X0171650Y0202250D01*
X0106650Y0203450D02*
X0105150Y0206200D01*
X0104150Y0205200D02*
X0106650Y0207950D01*
X0104150Y0207950D02*
X0104150Y0203450D01*
X0101775Y0203450D02*
X0101775Y0207950D01*
X0099275Y0207950D02*
X0099275Y0203450D01*
X0097375Y0203450D02*
X0095875Y0207950D01*
X0094375Y0203450D01*
X0094750Y0204575D02*
X0097000Y0204575D01*
X0099275Y0207950D02*
X0101775Y0203450D01*
X0091600Y0203450D02*
X0090350Y0203450D01*
X0090350Y0207950D01*
X0091600Y0207950D01*
X0091662Y0207948D01*
X0091723Y0207942D01*
X0091784Y0207933D01*
X0091844Y0207920D01*
X0091903Y0207903D01*
X0091961Y0207882D01*
X0092018Y0207858D01*
X0092073Y0207831D01*
X0092126Y0207800D01*
X0092178Y0207766D01*
X0092227Y0207729D01*
X0092274Y0207689D01*
X0092318Y0207646D01*
X0092359Y0207601D01*
X0092398Y0207553D01*
X0092434Y0207502D01*
X0092466Y0207450D01*
X0092495Y0207396D01*
X0092521Y0207340D01*
X0092543Y0207282D01*
X0092562Y0207224D01*
X0092577Y0207164D01*
X0092588Y0207103D01*
X0092596Y0207042D01*
X0092600Y0206981D01*
X0092600Y0206919D01*
X0092596Y0206858D01*
X0092588Y0206797D01*
X0092577Y0206736D01*
X0092562Y0206676D01*
X0092543Y0206618D01*
X0092521Y0206560D01*
X0092495Y0206504D01*
X0092466Y0206450D01*
X0092434Y0206398D01*
X0092398Y0206347D01*
X0092359Y0206299D01*
X0092318Y0206254D01*
X0092274Y0206211D01*
X0092227Y0206171D01*
X0092178Y0206134D01*
X0092126Y0206100D01*
X0092073Y0206069D01*
X0092018Y0206042D01*
X0091961Y0206018D01*
X0091903Y0205997D01*
X0091844Y0205980D01*
X0091784Y0205967D01*
X0091723Y0205958D01*
X0091662Y0205952D01*
X0091600Y0205950D01*
X0090350Y0205950D01*
X0091600Y0205950D02*
X0091669Y0205948D01*
X0091738Y0205942D01*
X0091806Y0205933D01*
X0091873Y0205920D01*
X0091940Y0205903D01*
X0092006Y0205882D01*
X0092070Y0205858D01*
X0092133Y0205830D01*
X0092195Y0205799D01*
X0092255Y0205765D01*
X0092312Y0205727D01*
X0092368Y0205686D01*
X0092421Y0205643D01*
X0092472Y0205596D01*
X0092520Y0205547D01*
X0092565Y0205495D01*
X0092607Y0205440D01*
X0092646Y0205384D01*
X0092683Y0205325D01*
X0092715Y0205264D01*
X0092745Y0205202D01*
X0092771Y0205138D01*
X0092793Y0205073D01*
X0092812Y0205007D01*
X0092827Y0204940D01*
X0092838Y0204872D01*
X0092846Y0204803D01*
X0092850Y0204734D01*
X0092850Y0204666D01*
X0092846Y0204597D01*
X0092838Y0204528D01*
X0092827Y0204460D01*
X0092812Y0204393D01*
X0092793Y0204327D01*
X0092771Y0204262D01*
X0092745Y0204198D01*
X0092715Y0204136D01*
X0092683Y0204075D01*
X0092646Y0204016D01*
X0092607Y0203960D01*
X0092565Y0203905D01*
X0092520Y0203853D01*
X0092472Y0203804D01*
X0092421Y0203757D01*
X0092368Y0203714D01*
X0092312Y0203673D01*
X0092255Y0203635D01*
X0092195Y0203601D01*
X0092133Y0203570D01*
X0092070Y0203542D01*
X0092006Y0203518D01*
X0091940Y0203497D01*
X0091873Y0203480D01*
X0091806Y0203467D01*
X0091738Y0203458D01*
X0091669Y0203452D01*
X0091600Y0203450D01*
X0112150Y0268250D02*
X0114650Y0268250D01*
X0112150Y0268250D02*
X0114275Y0270750D01*
X0113525Y0272750D02*
X0113452Y0272748D01*
X0113380Y0272743D01*
X0113308Y0272734D01*
X0113236Y0272721D01*
X0113165Y0272705D01*
X0113095Y0272685D01*
X0113027Y0272661D01*
X0112959Y0272635D01*
X0112893Y0272604D01*
X0112828Y0272571D01*
X0112766Y0272534D01*
X0112705Y0272495D01*
X0112646Y0272452D01*
X0112589Y0272406D01*
X0112535Y0272358D01*
X0112484Y0272307D01*
X0112434Y0272253D01*
X0112388Y0272197D01*
X0112345Y0272139D01*
X0112304Y0272078D01*
X0112267Y0272016D01*
X0112233Y0271952D01*
X0112202Y0271886D01*
X0112174Y0271819D01*
X0112150Y0271750D01*
X0114275Y0270750D02*
X0114321Y0270796D01*
X0114365Y0270845D01*
X0114405Y0270896D01*
X0114443Y0270949D01*
X0114478Y0271004D01*
X0114510Y0271061D01*
X0114539Y0271119D01*
X0114565Y0271179D01*
X0114587Y0271241D01*
X0114606Y0271303D01*
X0114622Y0271366D01*
X0114634Y0271430D01*
X0114643Y0271495D01*
X0114648Y0271560D01*
X0114650Y0271625D01*
X0114648Y0271690D01*
X0114642Y0271756D01*
X0114633Y0271820D01*
X0114620Y0271884D01*
X0114603Y0271948D01*
X0114582Y0272010D01*
X0114558Y0272071D01*
X0114530Y0272130D01*
X0114499Y0272188D01*
X0114465Y0272243D01*
X0114427Y0272297D01*
X0114387Y0272348D01*
X0114343Y0272397D01*
X0114297Y0272443D01*
X0114248Y0272487D01*
X0114197Y0272527D01*
X0114143Y0272565D01*
X0114088Y0272599D01*
X0114030Y0272630D01*
X0113971Y0272658D01*
X0113910Y0272682D01*
X0113848Y0272703D01*
X0113784Y0272720D01*
X0113720Y0272733D01*
X0113656Y0272742D01*
X0113590Y0272748D01*
X0113525Y0272750D01*
X0084650Y0276250D02*
X0080150Y0276250D01*
X0080150Y0277500D01*
X0080152Y0277569D01*
X0080158Y0277638D01*
X0080167Y0277706D01*
X0080180Y0277773D01*
X0080197Y0277840D01*
X0080218Y0277906D01*
X0080242Y0277970D01*
X0080270Y0278033D01*
X0080301Y0278095D01*
X0080335Y0278155D01*
X0080373Y0278212D01*
X0080414Y0278268D01*
X0080457Y0278321D01*
X0080504Y0278372D01*
X0080553Y0278420D01*
X0080605Y0278465D01*
X0080660Y0278507D01*
X0080716Y0278546D01*
X0080775Y0278583D01*
X0080836Y0278615D01*
X0080898Y0278645D01*
X0080962Y0278671D01*
X0081027Y0278693D01*
X0081093Y0278712D01*
X0081160Y0278727D01*
X0081228Y0278738D01*
X0081297Y0278746D01*
X0081366Y0278750D01*
X0081434Y0278750D01*
X0081503Y0278746D01*
X0081572Y0278738D01*
X0081640Y0278727D01*
X0081707Y0278712D01*
X0081773Y0278693D01*
X0081838Y0278671D01*
X0081902Y0278645D01*
X0081964Y0278615D01*
X0082025Y0278583D01*
X0082084Y0278546D01*
X0082140Y0278507D01*
X0082195Y0278465D01*
X0082247Y0278420D01*
X0082296Y0278372D01*
X0082343Y0278321D01*
X0082386Y0278268D01*
X0082427Y0278212D01*
X0082465Y0278155D01*
X0082499Y0278095D01*
X0082530Y0278033D01*
X0082558Y0277970D01*
X0082582Y0277906D01*
X0082603Y0277840D01*
X0082620Y0277773D01*
X0082633Y0277706D01*
X0082642Y0277638D01*
X0082648Y0277569D01*
X0082650Y0277500D01*
X0082650Y0276250D01*
X0082650Y0277750D02*
X0084650Y0278750D01*
X0084650Y0280717D02*
X0084650Y0282217D01*
X0084648Y0282277D01*
X0084643Y0282338D01*
X0084634Y0282397D01*
X0084621Y0282456D01*
X0084605Y0282515D01*
X0084585Y0282572D01*
X0084562Y0282627D01*
X0084535Y0282682D01*
X0084506Y0282734D01*
X0084473Y0282785D01*
X0084437Y0282834D01*
X0084399Y0282880D01*
X0084357Y0282924D01*
X0084313Y0282966D01*
X0084267Y0283004D01*
X0084218Y0283040D01*
X0084167Y0283073D01*
X0084115Y0283102D01*
X0084060Y0283129D01*
X0084005Y0283152D01*
X0083948Y0283172D01*
X0083889Y0283188D01*
X0083830Y0283201D01*
X0083771Y0283210D01*
X0083710Y0283215D01*
X0083650Y0283217D01*
X0083150Y0283217D01*
X0083090Y0283215D01*
X0083029Y0283210D01*
X0082970Y0283201D01*
X0082911Y0283188D01*
X0082852Y0283172D01*
X0082795Y0283152D01*
X0082740Y0283129D01*
X0082685Y0283102D01*
X0082633Y0283073D01*
X0082582Y0283040D01*
X0082533Y0283004D01*
X0082487Y0282966D01*
X0082443Y0282924D01*
X0082401Y0282880D01*
X0082363Y0282834D01*
X0082327Y0282785D01*
X0082294Y0282734D01*
X0082265Y0282682D01*
X0082238Y0282627D01*
X0082215Y0282572D01*
X0082195Y0282515D01*
X0082179Y0282456D01*
X0082166Y0282397D01*
X0082157Y0282338D01*
X0082152Y0282277D01*
X0082150Y0282217D01*
X0082150Y0280717D01*
X0080150Y0280717D01*
X0080150Y0283217D01*
X0064150Y0297750D02*
X0064150Y0298750D01*
X0064150Y0297750D02*
X0064148Y0297690D01*
X0064143Y0297629D01*
X0064134Y0297570D01*
X0064121Y0297511D01*
X0064105Y0297452D01*
X0064085Y0297395D01*
X0064062Y0297340D01*
X0064035Y0297285D01*
X0064006Y0297233D01*
X0063973Y0297182D01*
X0063937Y0297133D01*
X0063899Y0297087D01*
X0063857Y0297043D01*
X0063813Y0297001D01*
X0063767Y0296963D01*
X0063718Y0296927D01*
X0063667Y0296894D01*
X0063615Y0296865D01*
X0063560Y0296838D01*
X0063505Y0296815D01*
X0063448Y0296795D01*
X0063389Y0296779D01*
X0063330Y0296766D01*
X0063271Y0296757D01*
X0063210Y0296752D01*
X0063150Y0296750D01*
X0060650Y0296750D01*
X0060590Y0296752D01*
X0060529Y0296757D01*
X0060470Y0296766D01*
X0060411Y0296779D01*
X0060352Y0296795D01*
X0060295Y0296815D01*
X0060240Y0296838D01*
X0060185Y0296865D01*
X0060133Y0296894D01*
X0060082Y0296927D01*
X0060033Y0296963D01*
X0059987Y0297001D01*
X0059943Y0297043D01*
X0059901Y0297087D01*
X0059863Y0297133D01*
X0059827Y0297182D01*
X0059794Y0297233D01*
X0059765Y0297285D01*
X0059738Y0297340D01*
X0059715Y0297395D01*
X0059695Y0297452D01*
X0059679Y0297511D01*
X0059666Y0297570D01*
X0059657Y0297629D01*
X0059652Y0297690D01*
X0059650Y0297750D01*
X0059650Y0298750D01*
X0060650Y0300515D02*
X0059650Y0301765D01*
X0064150Y0301765D01*
X0064150Y0300515D02*
X0064150Y0303015D01*
X0111650Y0300750D02*
X0114150Y0300750D01*
X0113400Y0301750D02*
X0113400Y0299750D01*
X0111650Y0300750D02*
X0112650Y0304250D01*
X0237885Y0182250D02*
X0237885Y0179750D01*
X0237887Y0179690D01*
X0237892Y0179629D01*
X0237901Y0179570D01*
X0237914Y0179511D01*
X0237930Y0179452D01*
X0237950Y0179395D01*
X0237973Y0179340D01*
X0238000Y0179285D01*
X0238029Y0179233D01*
X0238062Y0179182D01*
X0238098Y0179133D01*
X0238136Y0179087D01*
X0238178Y0179043D01*
X0238222Y0179001D01*
X0238268Y0178963D01*
X0238317Y0178927D01*
X0238368Y0178894D01*
X0238420Y0178865D01*
X0238475Y0178838D01*
X0238530Y0178815D01*
X0238587Y0178795D01*
X0238646Y0178779D01*
X0238705Y0178766D01*
X0238764Y0178757D01*
X0238825Y0178752D01*
X0238885Y0178750D01*
X0239885Y0178750D01*
X0241650Y0178750D02*
X0243775Y0181250D01*
X0243025Y0183250D02*
X0242952Y0183248D01*
X0242880Y0183243D01*
X0242808Y0183234D01*
X0242736Y0183221D01*
X0242665Y0183205D01*
X0242595Y0183185D01*
X0242527Y0183161D01*
X0242459Y0183135D01*
X0242393Y0183104D01*
X0242328Y0183071D01*
X0242266Y0183034D01*
X0242205Y0182995D01*
X0242146Y0182952D01*
X0242089Y0182906D01*
X0242035Y0182858D01*
X0241984Y0182807D01*
X0241934Y0182753D01*
X0241888Y0182697D01*
X0241845Y0182639D01*
X0241804Y0182578D01*
X0241767Y0182516D01*
X0241733Y0182452D01*
X0241702Y0182386D01*
X0241674Y0182319D01*
X0241650Y0182250D01*
X0243775Y0181250D02*
X0243821Y0181296D01*
X0243865Y0181345D01*
X0243905Y0181396D01*
X0243943Y0181449D01*
X0243978Y0181504D01*
X0244010Y0181561D01*
X0244039Y0181619D01*
X0244065Y0181679D01*
X0244087Y0181741D01*
X0244106Y0181803D01*
X0244122Y0181866D01*
X0244134Y0181930D01*
X0244143Y0181995D01*
X0244148Y0182060D01*
X0244150Y0182125D01*
X0244148Y0182190D01*
X0244142Y0182256D01*
X0244133Y0182320D01*
X0244120Y0182384D01*
X0244103Y0182448D01*
X0244082Y0182510D01*
X0244058Y0182571D01*
X0244030Y0182630D01*
X0243999Y0182688D01*
X0243965Y0182743D01*
X0243927Y0182797D01*
X0243887Y0182848D01*
X0243843Y0182897D01*
X0243797Y0182943D01*
X0243748Y0182987D01*
X0243697Y0183027D01*
X0243643Y0183065D01*
X0243588Y0183099D01*
X0243530Y0183130D01*
X0243471Y0183158D01*
X0243410Y0183182D01*
X0243348Y0183203D01*
X0243284Y0183220D01*
X0243220Y0183233D01*
X0243156Y0183242D01*
X0243090Y0183248D01*
X0243025Y0183250D01*
X0239885Y0183250D02*
X0238885Y0183250D01*
X0238825Y0183248D01*
X0238764Y0183243D01*
X0238705Y0183234D01*
X0238646Y0183221D01*
X0238587Y0183205D01*
X0238530Y0183185D01*
X0238475Y0183162D01*
X0238420Y0183135D01*
X0238368Y0183106D01*
X0238317Y0183073D01*
X0238268Y0183037D01*
X0238222Y0182999D01*
X0238178Y0182957D01*
X0238136Y0182913D01*
X0238098Y0182867D01*
X0238062Y0182818D01*
X0238029Y0182767D01*
X0238000Y0182715D01*
X0237973Y0182660D01*
X0237950Y0182605D01*
X0237930Y0182548D01*
X0237914Y0182489D01*
X0237901Y0182430D01*
X0237892Y0182371D01*
X0237887Y0182310D01*
X0237885Y0182250D01*
X0241650Y0178750D02*
X0244150Y0178750D01*
X0306150Y0098515D02*
X0306400Y0098515D01*
X0306150Y0098515D02*
X0306090Y0098513D01*
X0306029Y0098508D01*
X0305970Y0098499D01*
X0305911Y0098486D01*
X0305852Y0098470D01*
X0305795Y0098450D01*
X0305740Y0098427D01*
X0305685Y0098400D01*
X0305633Y0098371D01*
X0305582Y0098338D01*
X0305533Y0098302D01*
X0305487Y0098264D01*
X0305443Y0098222D01*
X0305401Y0098178D01*
X0305363Y0098132D01*
X0305327Y0098083D01*
X0305294Y0098032D01*
X0305265Y0097980D01*
X0305238Y0097925D01*
X0305215Y0097870D01*
X0305195Y0097813D01*
X0305179Y0097754D01*
X0305166Y0097695D01*
X0305157Y0097636D01*
X0305152Y0097575D01*
X0305150Y0097515D01*
X0305150Y0096015D01*
X0306400Y0096015D01*
X0306469Y0096017D01*
X0306538Y0096023D01*
X0306606Y0096032D01*
X0306673Y0096045D01*
X0306740Y0096062D01*
X0306806Y0096083D01*
X0306870Y0096107D01*
X0306933Y0096135D01*
X0306995Y0096166D01*
X0307055Y0096200D01*
X0307112Y0096238D01*
X0307168Y0096279D01*
X0307221Y0096322D01*
X0307272Y0096369D01*
X0307320Y0096418D01*
X0307365Y0096470D01*
X0307407Y0096525D01*
X0307446Y0096581D01*
X0307483Y0096640D01*
X0307515Y0096701D01*
X0307545Y0096763D01*
X0307571Y0096827D01*
X0307593Y0096892D01*
X0307612Y0096958D01*
X0307627Y0097025D01*
X0307638Y0097093D01*
X0307646Y0097162D01*
X0307650Y0097231D01*
X0307650Y0097299D01*
X0307646Y0097368D01*
X0307638Y0097437D01*
X0307627Y0097505D01*
X0307612Y0097572D01*
X0307593Y0097638D01*
X0307571Y0097703D01*
X0307545Y0097767D01*
X0307515Y0097829D01*
X0307483Y0097890D01*
X0307446Y0097949D01*
X0307407Y0098005D01*
X0307365Y0098060D01*
X0307320Y0098112D01*
X0307272Y0098161D01*
X0307221Y0098208D01*
X0307168Y0098251D01*
X0307112Y0098292D01*
X0307055Y0098330D01*
X0306995Y0098364D01*
X0306933Y0098395D01*
X0306870Y0098423D01*
X0306806Y0098447D01*
X0306740Y0098468D01*
X0306673Y0098485D01*
X0306606Y0098498D01*
X0306538Y0098507D01*
X0306469Y0098513D01*
X0306400Y0098515D01*
X0305150Y0096015D02*
X0305063Y0096017D01*
X0304976Y0096023D01*
X0304889Y0096032D01*
X0304803Y0096045D01*
X0304717Y0096062D01*
X0304632Y0096083D01*
X0304549Y0096108D01*
X0304466Y0096136D01*
X0304385Y0096167D01*
X0304305Y0096202D01*
X0304227Y0096241D01*
X0304150Y0096283D01*
X0304075Y0096328D01*
X0304003Y0096377D01*
X0303932Y0096428D01*
X0303864Y0096483D01*
X0303799Y0096540D01*
X0303736Y0096601D01*
X0303675Y0096664D01*
X0303618Y0096729D01*
X0303563Y0096797D01*
X0303512Y0096868D01*
X0303463Y0096940D01*
X0303418Y0097015D01*
X0303376Y0097092D01*
X0303337Y0097170D01*
X0303302Y0097250D01*
X0303271Y0097331D01*
X0303243Y0097414D01*
X0303218Y0097497D01*
X0303197Y0097582D01*
X0303180Y0097668D01*
X0303167Y0097754D01*
X0303158Y0097841D01*
X0303152Y0097928D01*
X0303150Y0098015D01*
X0303150Y0094250D02*
X0303150Y0093250D01*
X0303152Y0093190D01*
X0303157Y0093129D01*
X0303166Y0093070D01*
X0303179Y0093011D01*
X0303195Y0092952D01*
X0303215Y0092895D01*
X0303238Y0092840D01*
X0303265Y0092785D01*
X0303294Y0092733D01*
X0303327Y0092682D01*
X0303363Y0092633D01*
X0303401Y0092587D01*
X0303443Y0092543D01*
X0303487Y0092501D01*
X0303533Y0092463D01*
X0303582Y0092427D01*
X0303633Y0092394D01*
X0303685Y0092365D01*
X0303740Y0092338D01*
X0303795Y0092315D01*
X0303852Y0092295D01*
X0303911Y0092279D01*
X0303970Y0092266D01*
X0304029Y0092257D01*
X0304090Y0092252D01*
X0304150Y0092250D01*
X0306650Y0092250D01*
X0306710Y0092252D01*
X0306771Y0092257D01*
X0306830Y0092266D01*
X0306889Y0092279D01*
X0306948Y0092295D01*
X0307005Y0092315D01*
X0307060Y0092338D01*
X0307115Y0092365D01*
X0307167Y0092394D01*
X0307218Y0092427D01*
X0307267Y0092463D01*
X0307313Y0092501D01*
X0307357Y0092543D01*
X0307399Y0092587D01*
X0307437Y0092633D01*
X0307473Y0092682D01*
X0307506Y0092733D01*
X0307535Y0092785D01*
X0307562Y0092840D01*
X0307585Y0092895D01*
X0307605Y0092952D01*
X0307621Y0093011D01*
X0307634Y0093070D01*
X0307643Y0093129D01*
X0307648Y0093190D01*
X0307650Y0093250D01*
X0307650Y0094250D01*
X0360350Y0062950D02*
X0361350Y0062950D01*
X0360850Y0062950D02*
X0360850Y0058450D01*
X0360350Y0058450D02*
X0361350Y0058450D01*
X0363383Y0058450D02*
X0363383Y0062950D01*
X0364633Y0062950D01*
X0364702Y0062948D01*
X0364771Y0062942D01*
X0364839Y0062933D01*
X0364906Y0062920D01*
X0364973Y0062903D01*
X0365039Y0062882D01*
X0365103Y0062858D01*
X0365166Y0062830D01*
X0365228Y0062799D01*
X0365288Y0062765D01*
X0365345Y0062727D01*
X0365401Y0062686D01*
X0365454Y0062643D01*
X0365505Y0062596D01*
X0365553Y0062547D01*
X0365598Y0062495D01*
X0365640Y0062440D01*
X0365679Y0062384D01*
X0365716Y0062325D01*
X0365748Y0062264D01*
X0365778Y0062202D01*
X0365804Y0062138D01*
X0365826Y0062073D01*
X0365845Y0062007D01*
X0365860Y0061940D01*
X0365871Y0061872D01*
X0365879Y0061803D01*
X0365883Y0061734D01*
X0365883Y0061666D01*
X0365879Y0061597D01*
X0365871Y0061528D01*
X0365860Y0061460D01*
X0365845Y0061393D01*
X0365826Y0061327D01*
X0365804Y0061262D01*
X0365778Y0061198D01*
X0365748Y0061136D01*
X0365716Y0061075D01*
X0365679Y0061016D01*
X0365640Y0060960D01*
X0365598Y0060905D01*
X0365553Y0060853D01*
X0365505Y0060804D01*
X0365454Y0060757D01*
X0365401Y0060714D01*
X0365345Y0060673D01*
X0365288Y0060635D01*
X0365228Y0060601D01*
X0365166Y0060570D01*
X0365103Y0060542D01*
X0365039Y0060518D01*
X0364973Y0060497D01*
X0364906Y0060480D01*
X0364839Y0060467D01*
X0364771Y0060458D01*
X0364702Y0060452D01*
X0364633Y0060450D01*
X0363383Y0060450D01*
X0364883Y0060450D02*
X0365883Y0058450D01*
X0368145Y0059700D02*
X0368145Y0061700D01*
X0368147Y0061769D01*
X0368153Y0061838D01*
X0368162Y0061906D01*
X0368175Y0061973D01*
X0368192Y0062040D01*
X0368213Y0062106D01*
X0368237Y0062170D01*
X0368265Y0062233D01*
X0368296Y0062295D01*
X0368330Y0062355D01*
X0368368Y0062412D01*
X0368409Y0062468D01*
X0368452Y0062521D01*
X0368499Y0062572D01*
X0368548Y0062620D01*
X0368600Y0062665D01*
X0368655Y0062707D01*
X0368711Y0062746D01*
X0368770Y0062783D01*
X0368831Y0062815D01*
X0368893Y0062845D01*
X0368957Y0062871D01*
X0369022Y0062893D01*
X0369088Y0062912D01*
X0369155Y0062927D01*
X0369223Y0062938D01*
X0369292Y0062946D01*
X0369361Y0062950D01*
X0369429Y0062950D01*
X0369498Y0062946D01*
X0369567Y0062938D01*
X0369635Y0062927D01*
X0369702Y0062912D01*
X0369768Y0062893D01*
X0369833Y0062871D01*
X0369897Y0062845D01*
X0369959Y0062815D01*
X0370020Y0062783D01*
X0370079Y0062746D01*
X0370135Y0062707D01*
X0370190Y0062665D01*
X0370242Y0062620D01*
X0370291Y0062572D01*
X0370338Y0062521D01*
X0370381Y0062468D01*
X0370422Y0062412D01*
X0370460Y0062355D01*
X0370494Y0062295D01*
X0370525Y0062233D01*
X0370553Y0062170D01*
X0370577Y0062106D01*
X0370598Y0062040D01*
X0370615Y0061973D01*
X0370628Y0061906D01*
X0370637Y0061838D01*
X0370643Y0061769D01*
X0370645Y0061700D01*
X0370645Y0059700D01*
X0370145Y0059450D02*
X0371145Y0058450D01*
X0372250Y0058450D02*
X0375250Y0062950D01*
X0372250Y0062950D02*
X0375250Y0058450D01*
X0370645Y0059700D02*
X0370643Y0059631D01*
X0370637Y0059562D01*
X0370628Y0059494D01*
X0370615Y0059427D01*
X0370598Y0059360D01*
X0370577Y0059294D01*
X0370553Y0059230D01*
X0370525Y0059167D01*
X0370494Y0059105D01*
X0370460Y0059045D01*
X0370422Y0058988D01*
X0370381Y0058932D01*
X0370338Y0058879D01*
X0370291Y0058828D01*
X0370242Y0058780D01*
X0370190Y0058735D01*
X0370135Y0058693D01*
X0370079Y0058654D01*
X0370020Y0058617D01*
X0369959Y0058585D01*
X0369897Y0058555D01*
X0369833Y0058529D01*
X0369768Y0058507D01*
X0369702Y0058488D01*
X0369635Y0058473D01*
X0369567Y0058462D01*
X0369498Y0058454D01*
X0369429Y0058450D01*
X0369361Y0058450D01*
X0369292Y0058454D01*
X0369223Y0058462D01*
X0369155Y0058473D01*
X0369088Y0058488D01*
X0369022Y0058507D01*
X0368957Y0058529D01*
X0368893Y0058555D01*
X0368831Y0058585D01*
X0368770Y0058617D01*
X0368711Y0058654D01*
X0368655Y0058693D01*
X0368600Y0058735D01*
X0368548Y0058780D01*
X0368499Y0058828D01*
X0368452Y0058879D01*
X0368409Y0058932D01*
X0368368Y0058988D01*
X0368330Y0059045D01*
X0368296Y0059105D01*
X0368265Y0059167D01*
X0368237Y0059230D01*
X0368213Y0059294D01*
X0368192Y0059360D01*
X0368175Y0059427D01*
X0368162Y0059494D01*
X0368153Y0059562D01*
X0368147Y0059631D01*
X0368145Y0059700D01*
X0367850Y0047950D02*
X0367850Y0043450D01*
X0365350Y0047950D01*
X0365350Y0043450D01*
X0370200Y0043450D02*
X0370200Y0047950D01*
X0371700Y0045450D01*
X0373200Y0047950D01*
X0373200Y0043450D01*
X0375250Y0043450D02*
X0376250Y0043450D01*
X0375750Y0043450D02*
X0375750Y0047950D01*
X0375250Y0047950D02*
X0376250Y0047950D01*
X0377850Y0047950D02*
X0380850Y0043450D01*
X0377850Y0043450D02*
X0380850Y0047950D01*
X0379650Y0032950D02*
X0382650Y0028450D01*
X0379650Y0028450D02*
X0382650Y0032950D01*
X0377775Y0029575D02*
X0375525Y0029575D01*
X0375150Y0028450D02*
X0376650Y0032950D01*
X0378150Y0028450D01*
X0373200Y0028450D02*
X0373200Y0032950D01*
X0371700Y0030450D01*
X0370200Y0032950D01*
X0370200Y0028450D01*
X0367850Y0029700D02*
X0367850Y0031700D01*
X0367848Y0031768D01*
X0367843Y0031835D01*
X0367834Y0031902D01*
X0367821Y0031969D01*
X0367804Y0032034D01*
X0367785Y0032099D01*
X0367761Y0032163D01*
X0367734Y0032225D01*
X0367704Y0032286D01*
X0367671Y0032344D01*
X0367635Y0032401D01*
X0367595Y0032456D01*
X0367553Y0032509D01*
X0367507Y0032560D01*
X0367460Y0032607D01*
X0367409Y0032653D01*
X0367356Y0032695D01*
X0367301Y0032735D01*
X0367244Y0032771D01*
X0367186Y0032804D01*
X0367125Y0032834D01*
X0367063Y0032861D01*
X0366999Y0032885D01*
X0366934Y0032904D01*
X0366869Y0032921D01*
X0366802Y0032934D01*
X0366735Y0032943D01*
X0366668Y0032948D01*
X0366600Y0032950D01*
X0365350Y0032950D01*
X0365350Y0028450D01*
X0366600Y0028450D01*
X0366668Y0028452D01*
X0366735Y0028457D01*
X0366802Y0028466D01*
X0366869Y0028479D01*
X0366934Y0028496D01*
X0366999Y0028515D01*
X0367063Y0028539D01*
X0367125Y0028566D01*
X0367186Y0028596D01*
X0367244Y0028629D01*
X0367301Y0028665D01*
X0367356Y0028705D01*
X0367409Y0028747D01*
X0367460Y0028793D01*
X0367507Y0028840D01*
X0367553Y0028891D01*
X0367595Y0028944D01*
X0367635Y0028999D01*
X0367671Y0029056D01*
X0367704Y0029114D01*
X0367734Y0029175D01*
X0367761Y0029237D01*
X0367785Y0029301D01*
X0367804Y0029366D01*
X0367821Y0029431D01*
X0367834Y0029498D01*
X0367843Y0029565D01*
X0367848Y0029632D01*
X0367850Y0029700D01*
X0368940Y0073450D02*
X0369940Y0073450D01*
X0369440Y0073450D02*
X0369440Y0077950D01*
X0368940Y0077950D02*
X0369940Y0077950D01*
X0371973Y0077950D02*
X0373223Y0077950D01*
X0373292Y0077948D01*
X0373361Y0077942D01*
X0373429Y0077933D01*
X0373496Y0077920D01*
X0373563Y0077903D01*
X0373629Y0077882D01*
X0373693Y0077858D01*
X0373756Y0077830D01*
X0373818Y0077799D01*
X0373878Y0077765D01*
X0373935Y0077727D01*
X0373991Y0077686D01*
X0374044Y0077643D01*
X0374095Y0077596D01*
X0374143Y0077547D01*
X0374188Y0077495D01*
X0374230Y0077440D01*
X0374269Y0077384D01*
X0374306Y0077325D01*
X0374338Y0077264D01*
X0374368Y0077202D01*
X0374394Y0077138D01*
X0374416Y0077073D01*
X0374435Y0077007D01*
X0374450Y0076940D01*
X0374461Y0076872D01*
X0374469Y0076803D01*
X0374473Y0076734D01*
X0374473Y0076666D01*
X0374469Y0076597D01*
X0374461Y0076528D01*
X0374450Y0076460D01*
X0374435Y0076393D01*
X0374416Y0076327D01*
X0374394Y0076262D01*
X0374368Y0076198D01*
X0374338Y0076136D01*
X0374306Y0076075D01*
X0374269Y0076016D01*
X0374230Y0075960D01*
X0374188Y0075905D01*
X0374143Y0075853D01*
X0374095Y0075804D01*
X0374044Y0075757D01*
X0373991Y0075714D01*
X0373935Y0075673D01*
X0373878Y0075635D01*
X0373818Y0075601D01*
X0373756Y0075570D01*
X0373693Y0075542D01*
X0373629Y0075518D01*
X0373563Y0075497D01*
X0373496Y0075480D01*
X0373429Y0075467D01*
X0373361Y0075458D01*
X0373292Y0075452D01*
X0373223Y0075450D01*
X0371973Y0075450D01*
X0373473Y0075450D02*
X0374473Y0073450D01*
X0371973Y0073450D02*
X0371973Y0077950D01*
X0367350Y0077950D02*
X0365350Y0077950D01*
X0365350Y0073450D01*
X0365350Y0075950D02*
X0367350Y0075950D01*
X0376735Y0076700D02*
X0376735Y0074700D01*
X0376737Y0074631D01*
X0376743Y0074562D01*
X0376752Y0074494D01*
X0376765Y0074427D01*
X0376782Y0074360D01*
X0376803Y0074294D01*
X0376827Y0074230D01*
X0376855Y0074167D01*
X0376886Y0074105D01*
X0376920Y0074045D01*
X0376958Y0073988D01*
X0376999Y0073932D01*
X0377042Y0073879D01*
X0377089Y0073828D01*
X0377138Y0073780D01*
X0377190Y0073735D01*
X0377245Y0073693D01*
X0377301Y0073654D01*
X0377360Y0073617D01*
X0377421Y0073585D01*
X0377483Y0073555D01*
X0377547Y0073529D01*
X0377612Y0073507D01*
X0377678Y0073488D01*
X0377745Y0073473D01*
X0377813Y0073462D01*
X0377882Y0073454D01*
X0377951Y0073450D01*
X0378019Y0073450D01*
X0378088Y0073454D01*
X0378157Y0073462D01*
X0378225Y0073473D01*
X0378292Y0073488D01*
X0378358Y0073507D01*
X0378423Y0073529D01*
X0378487Y0073555D01*
X0378549Y0073585D01*
X0378610Y0073617D01*
X0378669Y0073654D01*
X0378725Y0073693D01*
X0378780Y0073735D01*
X0378832Y0073780D01*
X0378881Y0073828D01*
X0378928Y0073879D01*
X0378971Y0073932D01*
X0379012Y0073988D01*
X0379050Y0074045D01*
X0379084Y0074105D01*
X0379115Y0074167D01*
X0379143Y0074230D01*
X0379167Y0074294D01*
X0379188Y0074360D01*
X0379205Y0074427D01*
X0379218Y0074494D01*
X0379227Y0074562D01*
X0379233Y0074631D01*
X0379235Y0074700D01*
X0379235Y0076700D01*
X0379233Y0076769D01*
X0379227Y0076838D01*
X0379218Y0076906D01*
X0379205Y0076973D01*
X0379188Y0077040D01*
X0379167Y0077106D01*
X0379143Y0077170D01*
X0379115Y0077233D01*
X0379084Y0077295D01*
X0379050Y0077355D01*
X0379012Y0077412D01*
X0378971Y0077468D01*
X0378928Y0077521D01*
X0378881Y0077572D01*
X0378832Y0077620D01*
X0378780Y0077665D01*
X0378725Y0077707D01*
X0378669Y0077746D01*
X0378610Y0077783D01*
X0378549Y0077815D01*
X0378487Y0077845D01*
X0378423Y0077871D01*
X0378358Y0077893D01*
X0378292Y0077912D01*
X0378225Y0077927D01*
X0378157Y0077938D01*
X0378088Y0077946D01*
X0378019Y0077950D01*
X0377951Y0077950D01*
X0377882Y0077946D01*
X0377813Y0077938D01*
X0377745Y0077927D01*
X0377678Y0077912D01*
X0377612Y0077893D01*
X0377547Y0077871D01*
X0377483Y0077845D01*
X0377421Y0077815D01*
X0377360Y0077783D01*
X0377301Y0077746D01*
X0377245Y0077707D01*
X0377190Y0077665D01*
X0377138Y0077620D01*
X0377089Y0077572D01*
X0377042Y0077521D01*
X0376999Y0077468D01*
X0376958Y0077412D01*
X0376920Y0077355D01*
X0376886Y0077295D01*
X0376855Y0077233D01*
X0376827Y0077170D01*
X0376803Y0077106D01*
X0376782Y0077040D01*
X0376765Y0076973D01*
X0376752Y0076906D01*
X0376743Y0076838D01*
X0376737Y0076769D01*
X0376735Y0076700D01*
X0378735Y0074450D02*
X0379735Y0073450D01*
X0380840Y0073450D02*
X0383840Y0077950D01*
X0380840Y0077950D02*
X0383840Y0073450D01*
X0385050Y0093450D02*
X0382050Y0097950D01*
X0380600Y0097950D02*
X0378100Y0097950D01*
X0379350Y0097950D02*
X0379350Y0093450D01*
X0382050Y0093450D02*
X0385050Y0097950D01*
X0377950Y0100950D02*
X0373450Y0100950D01*
X0373450Y0102200D01*
X0373452Y0102269D01*
X0373458Y0102338D01*
X0373467Y0102406D01*
X0373480Y0102473D01*
X0373497Y0102540D01*
X0373518Y0102606D01*
X0373542Y0102670D01*
X0373570Y0102733D01*
X0373601Y0102795D01*
X0373635Y0102855D01*
X0373673Y0102912D01*
X0373714Y0102968D01*
X0373757Y0103021D01*
X0373804Y0103072D01*
X0373853Y0103120D01*
X0373905Y0103165D01*
X0373960Y0103207D01*
X0374016Y0103246D01*
X0374075Y0103283D01*
X0374136Y0103315D01*
X0374198Y0103345D01*
X0374262Y0103371D01*
X0374327Y0103393D01*
X0374393Y0103412D01*
X0374460Y0103427D01*
X0374528Y0103438D01*
X0374597Y0103446D01*
X0374666Y0103450D01*
X0374734Y0103450D01*
X0374803Y0103446D01*
X0374872Y0103438D01*
X0374940Y0103427D01*
X0375007Y0103412D01*
X0375073Y0103393D01*
X0375138Y0103371D01*
X0375202Y0103345D01*
X0375264Y0103315D01*
X0375325Y0103283D01*
X0375384Y0103246D01*
X0375440Y0103207D01*
X0375495Y0103165D01*
X0375547Y0103120D01*
X0375596Y0103072D01*
X0375643Y0103021D01*
X0375686Y0102968D01*
X0375727Y0102912D01*
X0375765Y0102855D01*
X0375799Y0102795D01*
X0375830Y0102733D01*
X0375858Y0102670D01*
X0375882Y0102606D01*
X0375903Y0102540D01*
X0375920Y0102473D01*
X0375933Y0102406D01*
X0375942Y0102338D01*
X0375948Y0102269D01*
X0375950Y0102200D01*
X0375950Y0100950D01*
X0376050Y0097950D02*
X0376050Y0093450D01*
X0375550Y0093450D02*
X0376550Y0093450D01*
X0373950Y0093450D02*
X0372450Y0097950D01*
X0370950Y0093450D01*
X0371325Y0094575D02*
X0373575Y0094575D01*
X0375550Y0097950D02*
X0376550Y0097950D01*
X0369350Y0097950D02*
X0368350Y0093450D01*
X0367350Y0096450D01*
X0366350Y0093450D01*
X0365350Y0097950D01*
X0374700Y0105225D02*
X0376700Y0105225D01*
X0376769Y0105227D01*
X0376838Y0105233D01*
X0376906Y0105242D01*
X0376973Y0105255D01*
X0377040Y0105272D01*
X0377106Y0105293D01*
X0377170Y0105317D01*
X0377233Y0105345D01*
X0377295Y0105376D01*
X0377355Y0105410D01*
X0377412Y0105448D01*
X0377468Y0105489D01*
X0377521Y0105532D01*
X0377572Y0105579D01*
X0377620Y0105628D01*
X0377665Y0105680D01*
X0377707Y0105735D01*
X0377746Y0105791D01*
X0377783Y0105850D01*
X0377815Y0105911D01*
X0377845Y0105973D01*
X0377871Y0106037D01*
X0377893Y0106102D01*
X0377912Y0106168D01*
X0377927Y0106235D01*
X0377938Y0106303D01*
X0377946Y0106372D01*
X0377950Y0106441D01*
X0377950Y0106509D01*
X0377946Y0106578D01*
X0377938Y0106647D01*
X0377927Y0106715D01*
X0377912Y0106782D01*
X0377893Y0106848D01*
X0377871Y0106913D01*
X0377845Y0106977D01*
X0377815Y0107039D01*
X0377783Y0107100D01*
X0377746Y0107159D01*
X0377707Y0107215D01*
X0377665Y0107270D01*
X0377620Y0107322D01*
X0377572Y0107371D01*
X0377521Y0107418D01*
X0377468Y0107461D01*
X0377412Y0107502D01*
X0377355Y0107540D01*
X0377295Y0107574D01*
X0377233Y0107605D01*
X0377170Y0107633D01*
X0377106Y0107657D01*
X0377040Y0107678D01*
X0376973Y0107695D01*
X0376906Y0107708D01*
X0376838Y0107717D01*
X0376769Y0107723D01*
X0376700Y0107725D01*
X0374700Y0107725D01*
X0374631Y0107723D01*
X0374562Y0107717D01*
X0374494Y0107708D01*
X0374427Y0107695D01*
X0374360Y0107678D01*
X0374294Y0107657D01*
X0374230Y0107633D01*
X0374167Y0107605D01*
X0374105Y0107574D01*
X0374045Y0107540D01*
X0373988Y0107502D01*
X0373932Y0107461D01*
X0373879Y0107418D01*
X0373828Y0107371D01*
X0373780Y0107322D01*
X0373735Y0107270D01*
X0373693Y0107215D01*
X0373654Y0107159D01*
X0373617Y0107100D01*
X0373585Y0107039D01*
X0373555Y0106977D01*
X0373529Y0106913D01*
X0373507Y0106848D01*
X0373488Y0106782D01*
X0373473Y0106715D01*
X0373462Y0106647D01*
X0373454Y0106578D01*
X0373450Y0106509D01*
X0373450Y0106441D01*
X0373454Y0106372D01*
X0373462Y0106303D01*
X0373473Y0106235D01*
X0373488Y0106168D01*
X0373507Y0106102D01*
X0373529Y0106037D01*
X0373555Y0105973D01*
X0373585Y0105911D01*
X0373617Y0105850D01*
X0373654Y0105791D01*
X0373693Y0105735D01*
X0373735Y0105680D01*
X0373780Y0105628D01*
X0373828Y0105579D01*
X0373879Y0105532D01*
X0373932Y0105489D01*
X0373988Y0105448D01*
X0374045Y0105410D01*
X0374105Y0105376D01*
X0374167Y0105345D01*
X0374230Y0105317D01*
X0374294Y0105293D01*
X0374360Y0105272D01*
X0374427Y0105255D01*
X0374494Y0105242D01*
X0374562Y0105233D01*
X0374631Y0105227D01*
X0374700Y0105225D01*
X0373450Y0109575D02*
X0377950Y0110575D01*
X0374950Y0111575D01*
X0377950Y0112575D01*
X0373450Y0113575D01*
X0373450Y0115585D02*
X0373450Y0117585D01*
X0373450Y0119508D02*
X0373450Y0120758D01*
X0373452Y0120827D01*
X0373458Y0120896D01*
X0373467Y0120964D01*
X0373480Y0121031D01*
X0373497Y0121098D01*
X0373518Y0121164D01*
X0373542Y0121228D01*
X0373570Y0121291D01*
X0373601Y0121353D01*
X0373635Y0121413D01*
X0373673Y0121470D01*
X0373714Y0121526D01*
X0373757Y0121579D01*
X0373804Y0121630D01*
X0373853Y0121678D01*
X0373905Y0121723D01*
X0373960Y0121765D01*
X0374016Y0121804D01*
X0374075Y0121841D01*
X0374136Y0121873D01*
X0374198Y0121903D01*
X0374262Y0121929D01*
X0374327Y0121951D01*
X0374393Y0121970D01*
X0374460Y0121985D01*
X0374528Y0121996D01*
X0374597Y0122004D01*
X0374666Y0122008D01*
X0374734Y0122008D01*
X0374803Y0122004D01*
X0374872Y0121996D01*
X0374940Y0121985D01*
X0375007Y0121970D01*
X0375073Y0121951D01*
X0375138Y0121929D01*
X0375202Y0121903D01*
X0375264Y0121873D01*
X0375325Y0121841D01*
X0375384Y0121804D01*
X0375440Y0121765D01*
X0375495Y0121723D01*
X0375547Y0121678D01*
X0375596Y0121630D01*
X0375643Y0121579D01*
X0375686Y0121526D01*
X0375727Y0121470D01*
X0375765Y0121413D01*
X0375799Y0121353D01*
X0375830Y0121291D01*
X0375858Y0121228D01*
X0375882Y0121164D01*
X0375903Y0121098D01*
X0375920Y0121031D01*
X0375933Y0120964D01*
X0375942Y0120896D01*
X0375948Y0120827D01*
X0375950Y0120758D01*
X0375950Y0119508D01*
X0375950Y0121008D02*
X0377950Y0122008D01*
X0377950Y0119508D02*
X0373450Y0119508D01*
X0375450Y0117085D02*
X0375450Y0115585D01*
X0373450Y0115585D02*
X0377950Y0115585D01*
X0377950Y0117585D01*
X0279554Y0043598D02*
X0279554Y0018402D01*
X0279551Y0018179D01*
X0279543Y0017956D01*
X0279530Y0017734D01*
X0279511Y0017512D01*
X0279486Y0017290D01*
X0279456Y0017069D01*
X0279421Y0016849D01*
X0279381Y0016630D01*
X0279335Y0016412D01*
X0279284Y0016195D01*
X0279227Y0015979D01*
X0279166Y0015765D01*
X0279099Y0015552D01*
X0279027Y0015341D01*
X0278950Y0015132D01*
X0278868Y0014925D01*
X0278781Y0014720D01*
X0278688Y0014517D01*
X0278591Y0014316D01*
X0278489Y0014118D01*
X0278383Y0013922D01*
X0278271Y0013729D01*
X0278155Y0013539D01*
X0278034Y0013351D01*
X0277909Y0013167D01*
X0277779Y0012985D01*
X0277645Y0012807D01*
X0277507Y0012633D01*
X0277364Y0012461D01*
X0277218Y0012293D01*
X0277067Y0012129D01*
X0276912Y0011969D01*
X0276754Y0011812D01*
X0276591Y0011659D01*
X0276425Y0011510D01*
X0276256Y0011366D01*
X0276082Y0011225D01*
X0275906Y0011089D01*
X0275726Y0010957D01*
X0275543Y0010830D01*
X0275358Y0010707D01*
X0275169Y0010588D01*
X0274977Y0010474D01*
X0274783Y0010365D01*
X0274586Y0010261D01*
X0274386Y0010161D01*
X0274184Y0010067D01*
X0273980Y0009977D01*
X0273774Y0009892D01*
X0273566Y0009813D01*
X0273356Y0009738D01*
X0273144Y0009669D01*
X0272930Y0009605D01*
X0272715Y0009546D01*
X0272499Y0009492D01*
X0272281Y0009443D01*
X0272063Y0009400D01*
X0271843Y0009362D01*
X0271622Y0009330D01*
X0271401Y0009303D01*
X0271179Y0009281D01*
X0270957Y0009265D01*
X0270734Y0009254D01*
X0270511Y0009249D01*
X0270289Y0009249D01*
X0270066Y0009254D01*
X0269843Y0009265D01*
X0269621Y0009281D01*
X0269399Y0009303D01*
X0269178Y0009330D01*
X0268957Y0009362D01*
X0268737Y0009400D01*
X0268519Y0009443D01*
X0268301Y0009492D01*
X0268085Y0009546D01*
X0267870Y0009605D01*
X0267656Y0009669D01*
X0267444Y0009738D01*
X0267234Y0009813D01*
X0267026Y0009892D01*
X0266820Y0009977D01*
X0266616Y0010067D01*
X0266414Y0010161D01*
X0266214Y0010261D01*
X0266017Y0010365D01*
X0265823Y0010474D01*
X0265631Y0010588D01*
X0265442Y0010707D01*
X0265257Y0010830D01*
X0265074Y0010957D01*
X0264894Y0011089D01*
X0264718Y0011225D01*
X0264544Y0011366D01*
X0264375Y0011510D01*
X0264209Y0011659D01*
X0264046Y0011812D01*
X0263888Y0011969D01*
X0263733Y0012129D01*
X0263582Y0012293D01*
X0263436Y0012461D01*
X0263293Y0012633D01*
X0263155Y0012807D01*
X0263021Y0012985D01*
X0262891Y0013167D01*
X0262766Y0013351D01*
X0262645Y0013539D01*
X0262529Y0013729D01*
X0262417Y0013922D01*
X0262311Y0014118D01*
X0262209Y0014316D01*
X0262112Y0014517D01*
X0262019Y0014720D01*
X0261932Y0014925D01*
X0261850Y0015132D01*
X0261773Y0015341D01*
X0261701Y0015552D01*
X0261634Y0015765D01*
X0261573Y0015979D01*
X0261516Y0016195D01*
X0261465Y0016412D01*
X0261419Y0016630D01*
X0261379Y0016849D01*
X0261344Y0017069D01*
X0261314Y0017290D01*
X0261289Y0017512D01*
X0261270Y0017734D01*
X0261257Y0017956D01*
X0261249Y0018179D01*
X0261246Y0018402D01*
X0261246Y0043598D01*
X0261249Y0043821D01*
X0261257Y0044044D01*
X0261270Y0044266D01*
X0261289Y0044488D01*
X0261314Y0044710D01*
X0261344Y0044931D01*
X0261379Y0045151D01*
X0261419Y0045370D01*
X0261465Y0045588D01*
X0261516Y0045805D01*
X0261573Y0046021D01*
X0261634Y0046235D01*
X0261701Y0046448D01*
X0261773Y0046659D01*
X0261850Y0046868D01*
X0261932Y0047075D01*
X0262019Y0047280D01*
X0262112Y0047483D01*
X0262209Y0047684D01*
X0262311Y0047882D01*
X0262417Y0048078D01*
X0262529Y0048271D01*
X0262645Y0048461D01*
X0262766Y0048649D01*
X0262891Y0048833D01*
X0263021Y0049015D01*
X0263155Y0049193D01*
X0263293Y0049367D01*
X0263436Y0049539D01*
X0263582Y0049707D01*
X0263733Y0049871D01*
X0263888Y0050031D01*
X0264046Y0050188D01*
X0264209Y0050341D01*
X0264375Y0050490D01*
X0264544Y0050634D01*
X0264718Y0050775D01*
X0264894Y0050911D01*
X0265074Y0051043D01*
X0265257Y0051170D01*
X0265442Y0051293D01*
X0265631Y0051412D01*
X0265823Y0051526D01*
X0266017Y0051635D01*
X0266214Y0051739D01*
X0266414Y0051839D01*
X0266616Y0051933D01*
X0266820Y0052023D01*
X0267026Y0052108D01*
X0267234Y0052187D01*
X0267444Y0052262D01*
X0267656Y0052331D01*
X0267870Y0052395D01*
X0268085Y0052454D01*
X0268301Y0052508D01*
X0268519Y0052557D01*
X0268737Y0052600D01*
X0268957Y0052638D01*
X0269178Y0052670D01*
X0269399Y0052697D01*
X0269621Y0052719D01*
X0269843Y0052735D01*
X0270066Y0052746D01*
X0270289Y0052751D01*
X0270511Y0052751D01*
X0270734Y0052746D01*
X0270957Y0052735D01*
X0271179Y0052719D01*
X0271401Y0052697D01*
X0271622Y0052670D01*
X0271843Y0052638D01*
X0272063Y0052600D01*
X0272281Y0052557D01*
X0272499Y0052508D01*
X0272715Y0052454D01*
X0272930Y0052395D01*
X0273144Y0052331D01*
X0273356Y0052262D01*
X0273566Y0052187D01*
X0273774Y0052108D01*
X0273980Y0052023D01*
X0274184Y0051933D01*
X0274386Y0051839D01*
X0274586Y0051739D01*
X0274783Y0051635D01*
X0274977Y0051526D01*
X0275169Y0051412D01*
X0275358Y0051293D01*
X0275543Y0051170D01*
X0275726Y0051043D01*
X0275906Y0050911D01*
X0276082Y0050775D01*
X0276256Y0050634D01*
X0276425Y0050490D01*
X0276591Y0050341D01*
X0276754Y0050188D01*
X0276912Y0050031D01*
X0277067Y0049871D01*
X0277218Y0049707D01*
X0277364Y0049539D01*
X0277507Y0049367D01*
X0277645Y0049193D01*
X0277779Y0049015D01*
X0277909Y0048833D01*
X0278034Y0048649D01*
X0278155Y0048461D01*
X0278271Y0048271D01*
X0278383Y0048078D01*
X0278489Y0047882D01*
X0278591Y0047684D01*
X0278688Y0047483D01*
X0278781Y0047280D01*
X0278868Y0047075D01*
X0278950Y0046868D01*
X0279027Y0046659D01*
X0279099Y0046448D01*
X0279166Y0046235D01*
X0279227Y0046021D01*
X0279284Y0045805D01*
X0279335Y0045588D01*
X0279381Y0045370D01*
X0279421Y0045151D01*
X0279456Y0044931D01*
X0279486Y0044710D01*
X0279511Y0044488D01*
X0279530Y0044266D01*
X0279543Y0044044D01*
X0279551Y0043821D01*
X0279554Y0043598D01*
X0256650Y0026000D02*
X0256652Y0025880D01*
X0256658Y0025760D01*
X0256668Y0025640D01*
X0256681Y0025521D01*
X0256699Y0025402D01*
X0256720Y0025284D01*
X0256745Y0025166D01*
X0256774Y0025050D01*
X0256807Y0024934D01*
X0256843Y0024820D01*
X0256883Y0024706D01*
X0256927Y0024594D01*
X0256974Y0024484D01*
X0257025Y0024375D01*
X0256900Y0024750D02*
X0258900Y0027250D01*
X0258775Y0027625D02*
X0258754Y0027681D01*
X0258728Y0027736D01*
X0258700Y0027790D01*
X0258668Y0027841D01*
X0258633Y0027890D01*
X0258594Y0027936D01*
X0258553Y0027980D01*
X0258509Y0028022D01*
X0258462Y0028060D01*
X0258413Y0028095D01*
X0258361Y0028127D01*
X0258308Y0028155D01*
X0258253Y0028180D01*
X0258197Y0028201D01*
X0258139Y0028219D01*
X0258080Y0028232D01*
X0258020Y0028242D01*
X0257960Y0028248D01*
X0257900Y0028250D01*
X0257840Y0028248D01*
X0257780Y0028242D01*
X0257720Y0028232D01*
X0257661Y0028219D01*
X0257603Y0028201D01*
X0257547Y0028180D01*
X0257492Y0028155D01*
X0257439Y0028127D01*
X0257387Y0028095D01*
X0257338Y0028060D01*
X0257291Y0028022D01*
X0257247Y0027980D01*
X0257206Y0027936D01*
X0257167Y0027890D01*
X0257132Y0027841D01*
X0257100Y0027790D01*
X0257072Y0027736D01*
X0257046Y0027681D01*
X0257025Y0027625D01*
X0259150Y0026000D02*
X0259148Y0025880D01*
X0259142Y0025760D01*
X0259132Y0025640D01*
X0259119Y0025521D01*
X0259101Y0025402D01*
X0259080Y0025284D01*
X0259055Y0025166D01*
X0259026Y0025050D01*
X0258993Y0024934D01*
X0258957Y0024820D01*
X0258917Y0024706D01*
X0258873Y0024594D01*
X0258826Y0024484D01*
X0258775Y0024375D01*
X0258754Y0024319D01*
X0258728Y0024264D01*
X0258700Y0024210D01*
X0258668Y0024159D01*
X0258633Y0024110D01*
X0258594Y0024064D01*
X0258553Y0024020D01*
X0258509Y0023978D01*
X0258462Y0023940D01*
X0258413Y0023905D01*
X0258361Y0023873D01*
X0258308Y0023845D01*
X0258253Y0023820D01*
X0258197Y0023799D01*
X0258139Y0023781D01*
X0258080Y0023768D01*
X0258020Y0023758D01*
X0257960Y0023752D01*
X0257900Y0023750D01*
X0257840Y0023752D01*
X0257780Y0023758D01*
X0257720Y0023768D01*
X0257661Y0023781D01*
X0257603Y0023799D01*
X0257547Y0023820D01*
X0257492Y0023845D01*
X0257439Y0023873D01*
X0257387Y0023905D01*
X0257338Y0023940D01*
X0257291Y0023978D01*
X0257247Y0024020D01*
X0257206Y0024064D01*
X0257167Y0024110D01*
X0257132Y0024159D01*
X0257100Y0024210D01*
X0257072Y0024264D01*
X0257046Y0024319D01*
X0257025Y0024375D01*
X0259150Y0026000D02*
X0259148Y0026120D01*
X0259142Y0026240D01*
X0259132Y0026360D01*
X0259119Y0026479D01*
X0259101Y0026598D01*
X0259080Y0026716D01*
X0259055Y0026834D01*
X0259026Y0026950D01*
X0258993Y0027066D01*
X0258957Y0027180D01*
X0258917Y0027294D01*
X0258873Y0027406D01*
X0258826Y0027516D01*
X0258775Y0027625D01*
X0257025Y0027625D02*
X0256974Y0027516D01*
X0256927Y0027406D01*
X0256883Y0027294D01*
X0256843Y0027180D01*
X0256807Y0027066D01*
X0256774Y0026950D01*
X0256745Y0026834D01*
X0256720Y0026716D01*
X0256699Y0026598D01*
X0256681Y0026479D01*
X0256668Y0026360D01*
X0256658Y0026240D01*
X0256652Y0026120D01*
X0256650Y0026000D01*
X0254650Y0023750D02*
X0252150Y0023750D01*
X0253400Y0023750D02*
X0253400Y0028250D01*
X0252150Y0027250D01*
X0250385Y0028250D02*
X0249385Y0028250D01*
X0249325Y0028248D01*
X0249264Y0028243D01*
X0249205Y0028234D01*
X0249146Y0028221D01*
X0249087Y0028205D01*
X0249030Y0028185D01*
X0248975Y0028162D01*
X0248920Y0028135D01*
X0248868Y0028106D01*
X0248817Y0028073D01*
X0248768Y0028037D01*
X0248722Y0027999D01*
X0248678Y0027957D01*
X0248636Y0027913D01*
X0248598Y0027867D01*
X0248562Y0027818D01*
X0248529Y0027767D01*
X0248500Y0027715D01*
X0248473Y0027660D01*
X0248450Y0027605D01*
X0248430Y0027548D01*
X0248414Y0027489D01*
X0248401Y0027430D01*
X0248392Y0027371D01*
X0248387Y0027310D01*
X0248385Y0027250D01*
X0248385Y0024750D01*
X0248387Y0024690D01*
X0248392Y0024629D01*
X0248401Y0024570D01*
X0248414Y0024511D01*
X0248430Y0024452D01*
X0248450Y0024395D01*
X0248473Y0024340D01*
X0248500Y0024285D01*
X0248529Y0024233D01*
X0248562Y0024182D01*
X0248598Y0024133D01*
X0248636Y0024087D01*
X0248678Y0024043D01*
X0248722Y0024001D01*
X0248768Y0023963D01*
X0248817Y0023927D01*
X0248868Y0023894D01*
X0248920Y0023865D01*
X0248975Y0023838D01*
X0249030Y0023815D01*
X0249087Y0023795D01*
X0249146Y0023779D01*
X0249205Y0023766D01*
X0249264Y0023757D01*
X0249325Y0023752D01*
X0249385Y0023750D01*
X0250385Y0023750D01*
X0253885Y0013250D02*
X0254885Y0013250D01*
X0253885Y0013250D02*
X0253825Y0013248D01*
X0253764Y0013243D01*
X0253705Y0013234D01*
X0253646Y0013221D01*
X0253587Y0013205D01*
X0253530Y0013185D01*
X0253475Y0013162D01*
X0253420Y0013135D01*
X0253368Y0013106D01*
X0253317Y0013073D01*
X0253268Y0013037D01*
X0253222Y0012999D01*
X0253178Y0012957D01*
X0253136Y0012913D01*
X0253098Y0012867D01*
X0253062Y0012818D01*
X0253029Y0012767D01*
X0253000Y0012715D01*
X0252973Y0012660D01*
X0252950Y0012605D01*
X0252930Y0012548D01*
X0252914Y0012489D01*
X0252901Y0012430D01*
X0252892Y0012371D01*
X0252887Y0012310D01*
X0252885Y0012250D01*
X0252885Y0009750D01*
X0252887Y0009690D01*
X0252892Y0009629D01*
X0252901Y0009570D01*
X0252914Y0009511D01*
X0252930Y0009452D01*
X0252950Y0009395D01*
X0252973Y0009340D01*
X0253000Y0009285D01*
X0253029Y0009233D01*
X0253062Y0009182D01*
X0253098Y0009133D01*
X0253136Y0009087D01*
X0253178Y0009043D01*
X0253222Y0009001D01*
X0253268Y0008963D01*
X0253317Y0008927D01*
X0253368Y0008894D01*
X0253420Y0008865D01*
X0253475Y0008838D01*
X0253530Y0008815D01*
X0253587Y0008795D01*
X0253646Y0008779D01*
X0253705Y0008766D01*
X0253764Y0008757D01*
X0253825Y0008752D01*
X0253885Y0008750D01*
X0254885Y0008750D01*
X0257150Y0008750D02*
X0257237Y0008752D01*
X0257324Y0008758D01*
X0257411Y0008767D01*
X0257497Y0008780D01*
X0257583Y0008797D01*
X0257668Y0008818D01*
X0257751Y0008843D01*
X0257834Y0008871D01*
X0257915Y0008902D01*
X0257995Y0008937D01*
X0258073Y0008976D01*
X0258150Y0009018D01*
X0258225Y0009063D01*
X0258297Y0009112D01*
X0258368Y0009163D01*
X0258436Y0009218D01*
X0258501Y0009275D01*
X0258564Y0009336D01*
X0258625Y0009399D01*
X0258682Y0009464D01*
X0258737Y0009532D01*
X0258788Y0009603D01*
X0258837Y0009675D01*
X0258882Y0009750D01*
X0258924Y0009827D01*
X0258963Y0009905D01*
X0258998Y0009985D01*
X0259029Y0010066D01*
X0259057Y0010149D01*
X0259082Y0010232D01*
X0259103Y0010317D01*
X0259120Y0010403D01*
X0259133Y0010489D01*
X0259142Y0010576D01*
X0259148Y0010663D01*
X0259150Y0010750D01*
X0259150Y0012000D01*
X0259148Y0012069D01*
X0259142Y0012138D01*
X0259133Y0012206D01*
X0259120Y0012273D01*
X0259103Y0012340D01*
X0259082Y0012406D01*
X0259058Y0012470D01*
X0259030Y0012533D01*
X0258999Y0012595D01*
X0258965Y0012655D01*
X0258927Y0012712D01*
X0258886Y0012768D01*
X0258843Y0012821D01*
X0258796Y0012872D01*
X0258747Y0012920D01*
X0258695Y0012965D01*
X0258640Y0013007D01*
X0258584Y0013046D01*
X0258525Y0013083D01*
X0258464Y0013115D01*
X0258402Y0013145D01*
X0258338Y0013171D01*
X0258273Y0013193D01*
X0258207Y0013212D01*
X0258140Y0013227D01*
X0258072Y0013238D01*
X0258003Y0013246D01*
X0257934Y0013250D01*
X0257866Y0013250D01*
X0257797Y0013246D01*
X0257728Y0013238D01*
X0257660Y0013227D01*
X0257593Y0013212D01*
X0257527Y0013193D01*
X0257462Y0013171D01*
X0257398Y0013145D01*
X0257336Y0013115D01*
X0257275Y0013083D01*
X0257216Y0013046D01*
X0257160Y0013007D01*
X0257105Y0012965D01*
X0257053Y0012920D01*
X0257004Y0012872D01*
X0256957Y0012821D01*
X0256914Y0012768D01*
X0256873Y0012712D01*
X0256835Y0012655D01*
X0256801Y0012595D01*
X0256770Y0012533D01*
X0256742Y0012470D01*
X0256718Y0012406D01*
X0256697Y0012340D01*
X0256680Y0012273D01*
X0256667Y0012206D01*
X0256658Y0012138D01*
X0256652Y0012069D01*
X0256650Y0012000D01*
X0256650Y0011750D01*
X0256652Y0011690D01*
X0256657Y0011629D01*
X0256666Y0011570D01*
X0256679Y0011511D01*
X0256695Y0011452D01*
X0256715Y0011395D01*
X0256738Y0011340D01*
X0256765Y0011285D01*
X0256794Y0011233D01*
X0256827Y0011182D01*
X0256863Y0011133D01*
X0256901Y0011087D01*
X0256943Y0011043D01*
X0256987Y0011001D01*
X0257033Y0010963D01*
X0257082Y0010927D01*
X0257133Y0010894D01*
X0257185Y0010865D01*
X0257240Y0010838D01*
X0257295Y0010815D01*
X0257352Y0010795D01*
X0257411Y0010779D01*
X0257470Y0010766D01*
X0257529Y0010757D01*
X0257590Y0010752D01*
X0257650Y0010750D01*
X0259150Y0010750D01*
X0056650Y0110750D02*
X0054150Y0110750D01*
X0055150Y0114250D01*
X0055900Y0111750D02*
X0055900Y0109750D01*
X0052385Y0109750D02*
X0051385Y0109750D01*
X0051325Y0109752D01*
X0051264Y0109757D01*
X0051205Y0109766D01*
X0051146Y0109779D01*
X0051087Y0109795D01*
X0051030Y0109815D01*
X0050975Y0109838D01*
X0050920Y0109865D01*
X0050868Y0109894D01*
X0050817Y0109927D01*
X0050768Y0109963D01*
X0050722Y0110001D01*
X0050678Y0110043D01*
X0050636Y0110087D01*
X0050598Y0110133D01*
X0050562Y0110182D01*
X0050529Y0110233D01*
X0050500Y0110285D01*
X0050473Y0110340D01*
X0050450Y0110395D01*
X0050430Y0110452D01*
X0050414Y0110511D01*
X0050401Y0110570D01*
X0050392Y0110629D01*
X0050387Y0110690D01*
X0050385Y0110750D01*
X0050385Y0113250D01*
X0050387Y0113310D01*
X0050392Y0113371D01*
X0050401Y0113430D01*
X0050414Y0113489D01*
X0050430Y0113548D01*
X0050450Y0113605D01*
X0050473Y0113660D01*
X0050500Y0113715D01*
X0050529Y0113767D01*
X0050562Y0113818D01*
X0050598Y0113867D01*
X0050636Y0113913D01*
X0050678Y0113957D01*
X0050722Y0113999D01*
X0050768Y0114037D01*
X0050817Y0114073D01*
X0050868Y0114106D01*
X0050920Y0114135D01*
X0050975Y0114162D01*
X0051030Y0114185D01*
X0051087Y0114205D01*
X0051146Y0114221D01*
X0051205Y0114234D01*
X0051264Y0114243D01*
X0051325Y0114248D01*
X0051385Y0114250D01*
X0052385Y0114250D01*
X0048550Y0114250D02*
X0047550Y0114250D01*
X0048050Y0114250D02*
X0048050Y0109750D01*
X0047550Y0109750D02*
X0048550Y0109750D01*
X0042915Y0114750D02*
X0040415Y0114750D01*
X0041415Y0118250D01*
X0042165Y0115750D02*
X0042165Y0113750D01*
X0038650Y0113750D02*
X0037650Y0113750D01*
X0037590Y0113752D01*
X0037529Y0113757D01*
X0037470Y0113766D01*
X0037411Y0113779D01*
X0037352Y0113795D01*
X0037295Y0113815D01*
X0037240Y0113838D01*
X0037185Y0113865D01*
X0037133Y0113894D01*
X0037082Y0113927D01*
X0037033Y0113963D01*
X0036987Y0114001D01*
X0036943Y0114043D01*
X0036901Y0114087D01*
X0036863Y0114133D01*
X0036827Y0114182D01*
X0036794Y0114233D01*
X0036765Y0114285D01*
X0036738Y0114340D01*
X0036715Y0114395D01*
X0036695Y0114452D01*
X0036679Y0114511D01*
X0036666Y0114570D01*
X0036657Y0114629D01*
X0036652Y0114690D01*
X0036650Y0114750D01*
X0036650Y0117250D01*
X0036652Y0117310D01*
X0036657Y0117371D01*
X0036666Y0117430D01*
X0036679Y0117489D01*
X0036695Y0117548D01*
X0036715Y0117605D01*
X0036738Y0117660D01*
X0036765Y0117715D01*
X0036794Y0117767D01*
X0036827Y0117818D01*
X0036863Y0117867D01*
X0036901Y0117913D01*
X0036943Y0117957D01*
X0036987Y0117999D01*
X0037033Y0118037D01*
X0037082Y0118073D01*
X0037133Y0118106D01*
X0037185Y0118135D01*
X0037240Y0118162D01*
X0037295Y0118185D01*
X0037352Y0118205D01*
X0037411Y0118221D01*
X0037470Y0118234D01*
X0037529Y0118243D01*
X0037590Y0118248D01*
X0037650Y0118250D01*
X0038650Y0118250D01*
X0007950Y0016579D02*
X0007950Y0014079D01*
X0007950Y0015329D02*
X0003450Y0015329D01*
X0004450Y0014079D01*
X0003450Y0011054D02*
X0003452Y0011123D01*
X0003458Y0011192D01*
X0003467Y0011260D01*
X0003480Y0011327D01*
X0003497Y0011394D01*
X0003518Y0011460D01*
X0003542Y0011524D01*
X0003570Y0011587D01*
X0003601Y0011649D01*
X0003635Y0011709D01*
X0003673Y0011766D01*
X0003714Y0011822D01*
X0003757Y0011875D01*
X0003804Y0011926D01*
X0003853Y0011974D01*
X0003905Y0012019D01*
X0003960Y0012061D01*
X0004016Y0012100D01*
X0004075Y0012137D01*
X0004136Y0012169D01*
X0004198Y0012199D01*
X0004262Y0012225D01*
X0004327Y0012247D01*
X0004393Y0012266D01*
X0004460Y0012281D01*
X0004528Y0012292D01*
X0004597Y0012300D01*
X0004666Y0012304D01*
X0004734Y0012304D01*
X0004803Y0012300D01*
X0004872Y0012292D01*
X0004940Y0012281D01*
X0005007Y0012266D01*
X0005073Y0012247D01*
X0005138Y0012225D01*
X0005202Y0012199D01*
X0005264Y0012169D01*
X0005325Y0012137D01*
X0005384Y0012100D01*
X0005440Y0012061D01*
X0005495Y0012019D01*
X0005547Y0011974D01*
X0005596Y0011926D01*
X0005643Y0011875D01*
X0005686Y0011822D01*
X0005727Y0011766D01*
X0005765Y0011709D01*
X0005799Y0011649D01*
X0005830Y0011587D01*
X0005858Y0011524D01*
X0005882Y0011460D01*
X0005903Y0011394D01*
X0005920Y0011327D01*
X0005933Y0011260D01*
X0005942Y0011192D01*
X0005948Y0011123D01*
X0005950Y0011054D01*
X0005950Y0009804D01*
X0007950Y0009804D02*
X0003450Y0009804D01*
X0003450Y0011054D01*
X0003450Y0007450D02*
X0006950Y0007450D01*
X0007010Y0007448D01*
X0007071Y0007443D01*
X0007130Y0007434D01*
X0007189Y0007421D01*
X0007248Y0007405D01*
X0007305Y0007385D01*
X0007360Y0007362D01*
X0007415Y0007335D01*
X0007467Y0007306D01*
X0007518Y0007273D01*
X0007567Y0007237D01*
X0007613Y0007199D01*
X0007657Y0007157D01*
X0007699Y0007113D01*
X0007737Y0007067D01*
X0007773Y0007018D01*
X0007806Y0006967D01*
X0007835Y0006915D01*
X0007862Y0006860D01*
X0007885Y0006805D01*
X0007905Y0006748D01*
X0007921Y0006689D01*
X0007934Y0006630D01*
X0007943Y0006571D01*
X0007948Y0006510D01*
X0007950Y0006450D01*
X0007950Y0005950D01*
D13*
X0044400Y0103000D02*
X0044400Y0106000D01*
X0044400Y0109000D01*
X0046400Y0109000D02*
X0046400Y0106000D01*
X0046400Y0103000D01*
X0179400Y0188000D02*
X0179400Y0191000D01*
X0179400Y0194000D01*
X0181400Y0194000D02*
X0181400Y0191000D01*
X0181400Y0188000D01*
X0234400Y0188000D02*
X0234400Y0191000D01*
X0234400Y0194000D01*
X0236400Y0194000D02*
X0236400Y0191000D01*
X0236400Y0188000D01*
X0148400Y0230000D02*
X0145400Y0230000D01*
X0142400Y0230000D01*
X0142400Y0232000D02*
X0145400Y0232000D01*
X0148400Y0232000D01*
X0314400Y0263000D02*
X0314400Y0266000D01*
X0314400Y0269000D01*
X0316400Y0269000D02*
X0316400Y0266000D01*
X0316400Y0263000D01*
X0315400Y0102000D02*
X0312400Y0102000D01*
X0312400Y0100000D02*
X0315400Y0100000D01*
X0318400Y0100000D01*
X0318400Y0102000D02*
X0315400Y0102000D01*
X0251400Y0039000D02*
X0251400Y0036000D01*
X0251400Y0033000D01*
X0249400Y0033000D02*
X0249400Y0036000D01*
X0249400Y0039000D01*
X0249400Y0024000D02*
X0249400Y0021000D01*
X0249400Y0018000D01*
X0251400Y0018000D02*
X0251400Y0021000D01*
X0251400Y0024000D01*
D14*
X0225400Y0291500D03*
D15*
X0225400Y0297750D03*
X0225400Y0274250D03*
D16*
X0201852Y0192650D02*
X0199752Y0192650D01*
X0197406Y0192650D02*
X0196006Y0192650D01*
X0195933Y0192648D01*
X0195860Y0192642D01*
X0195787Y0192633D01*
X0195715Y0192619D01*
X0195644Y0192602D01*
X0195573Y0192581D01*
X0195504Y0192557D01*
X0195437Y0192529D01*
X0195370Y0192497D01*
X0195306Y0192462D01*
X0195244Y0192424D01*
X0195183Y0192383D01*
X0195125Y0192338D01*
X0195069Y0192290D01*
X0195016Y0192240D01*
X0194966Y0192187D01*
X0194918Y0192131D01*
X0194873Y0192073D01*
X0194832Y0192012D01*
X0194794Y0191950D01*
X0194759Y0191886D01*
X0194727Y0191819D01*
X0194699Y0191752D01*
X0194675Y0191683D01*
X0194654Y0191612D01*
X0194637Y0191541D01*
X0194623Y0191469D01*
X0194614Y0191396D01*
X0194608Y0191323D01*
X0194606Y0191250D01*
X0194606Y0187750D01*
X0194608Y0187677D01*
X0194614Y0187604D01*
X0194623Y0187531D01*
X0194637Y0187459D01*
X0194654Y0187388D01*
X0194675Y0187317D01*
X0194699Y0187248D01*
X0194727Y0187181D01*
X0194759Y0187114D01*
X0194794Y0187050D01*
X0194832Y0186988D01*
X0194873Y0186927D01*
X0194918Y0186869D01*
X0194966Y0186813D01*
X0195016Y0186760D01*
X0195069Y0186710D01*
X0195125Y0186662D01*
X0195183Y0186617D01*
X0195244Y0186576D01*
X0195306Y0186538D01*
X0195370Y0186503D01*
X0195437Y0186471D01*
X0195504Y0186443D01*
X0195573Y0186419D01*
X0195644Y0186398D01*
X0195715Y0186381D01*
X0195787Y0186367D01*
X0195860Y0186358D01*
X0195933Y0186352D01*
X0196006Y0186350D01*
X0197406Y0186350D01*
X0199752Y0186350D02*
X0201502Y0186350D01*
X0201584Y0186352D01*
X0201666Y0186358D01*
X0201747Y0186367D01*
X0201828Y0186381D01*
X0201909Y0186398D01*
X0201988Y0186419D01*
X0202066Y0186443D01*
X0202143Y0186472D01*
X0202219Y0186504D01*
X0202293Y0186539D01*
X0202365Y0186578D01*
X0202436Y0186620D01*
X0202504Y0186665D01*
X0202570Y0186714D01*
X0202634Y0186765D01*
X0202695Y0186820D01*
X0202754Y0186877D01*
X0202810Y0186937D01*
X0202863Y0187000D01*
X0202913Y0187065D01*
X0202960Y0187132D01*
X0203004Y0187201D01*
X0203044Y0187273D01*
X0203081Y0187346D01*
X0203115Y0187421D01*
X0203145Y0187497D01*
X0203171Y0187575D01*
X0203194Y0187654D01*
X0203213Y0187733D01*
X0203228Y0187814D01*
X0203240Y0187895D01*
X0203248Y0187977D01*
X0203252Y0188059D01*
X0203252Y0188141D01*
X0203248Y0188223D01*
X0203240Y0188305D01*
X0203228Y0188386D01*
X0203213Y0188467D01*
X0203194Y0188546D01*
X0203171Y0188625D01*
X0203145Y0188703D01*
X0203115Y0188779D01*
X0203081Y0188854D01*
X0203044Y0188927D01*
X0203004Y0188999D01*
X0202960Y0189068D01*
X0202913Y0189135D01*
X0202863Y0189200D01*
X0202810Y0189263D01*
X0202754Y0189323D01*
X0202695Y0189380D01*
X0202634Y0189435D01*
X0202570Y0189486D01*
X0202504Y0189535D01*
X0202436Y0189580D01*
X0202365Y0189622D01*
X0202293Y0189661D01*
X0202219Y0189696D01*
X0202143Y0189728D01*
X0202066Y0189757D01*
X0201988Y0189781D01*
X0201909Y0189802D01*
X0201828Y0189819D01*
X0201747Y0189833D01*
X0201666Y0189842D01*
X0201584Y0189848D01*
X0201502Y0189850D01*
X0201852Y0189850D02*
X0200452Y0189850D01*
X0201852Y0189850D02*
X0201925Y0189852D01*
X0201998Y0189858D01*
X0202071Y0189867D01*
X0202143Y0189881D01*
X0202214Y0189898D01*
X0202285Y0189919D01*
X0202354Y0189943D01*
X0202421Y0189971D01*
X0202488Y0190003D01*
X0202552Y0190038D01*
X0202614Y0190076D01*
X0202675Y0190117D01*
X0202733Y0190162D01*
X0202789Y0190210D01*
X0202842Y0190260D01*
X0202892Y0190313D01*
X0202940Y0190369D01*
X0202985Y0190427D01*
X0203026Y0190488D01*
X0203064Y0190550D01*
X0203099Y0190614D01*
X0203131Y0190681D01*
X0203159Y0190748D01*
X0203183Y0190817D01*
X0203204Y0190888D01*
X0203221Y0190959D01*
X0203235Y0191031D01*
X0203244Y0191104D01*
X0203250Y0191177D01*
X0203252Y0191250D01*
X0203250Y0191323D01*
X0203244Y0191396D01*
X0203235Y0191469D01*
X0203221Y0191541D01*
X0203204Y0191612D01*
X0203183Y0191683D01*
X0203159Y0191752D01*
X0203131Y0191819D01*
X0203099Y0191886D01*
X0203064Y0191950D01*
X0203026Y0192012D01*
X0202985Y0192073D01*
X0202940Y0192131D01*
X0202892Y0192187D01*
X0202842Y0192240D01*
X0202789Y0192290D01*
X0202733Y0192338D01*
X0202675Y0192383D01*
X0202614Y0192424D01*
X0202552Y0192462D01*
X0202488Y0192497D01*
X0202421Y0192529D01*
X0202354Y0192557D01*
X0202285Y0192581D01*
X0202214Y0192602D01*
X0202143Y0192619D01*
X0202071Y0192633D01*
X0201998Y0192642D01*
X0201925Y0192648D01*
X0201852Y0192650D01*
X0192150Y0192650D02*
X0190750Y0192650D01*
X0191450Y0192650D02*
X0191450Y0186350D01*
X0190750Y0186350D02*
X0192150Y0186350D01*
X0376750Y0274648D02*
X0376750Y0276048D01*
X0376750Y0275348D02*
X0383050Y0275348D01*
X0383050Y0274648D02*
X0383050Y0276048D01*
X0381650Y0278505D02*
X0378150Y0278505D01*
X0378077Y0278507D01*
X0378004Y0278513D01*
X0377931Y0278522D01*
X0377859Y0278536D01*
X0377788Y0278553D01*
X0377717Y0278574D01*
X0377648Y0278598D01*
X0377581Y0278626D01*
X0377514Y0278658D01*
X0377450Y0278693D01*
X0377388Y0278731D01*
X0377327Y0278772D01*
X0377269Y0278817D01*
X0377213Y0278865D01*
X0377160Y0278915D01*
X0377110Y0278968D01*
X0377062Y0279024D01*
X0377017Y0279082D01*
X0376976Y0279143D01*
X0376938Y0279205D01*
X0376903Y0279269D01*
X0376871Y0279336D01*
X0376843Y0279403D01*
X0376819Y0279472D01*
X0376798Y0279543D01*
X0376781Y0279614D01*
X0376767Y0279686D01*
X0376758Y0279759D01*
X0376752Y0279832D01*
X0376750Y0279905D01*
X0376750Y0281305D01*
X0376750Y0283650D02*
X0376750Y0287150D01*
X0379550Y0285750D02*
X0379550Y0283650D01*
X0376750Y0283650D01*
X0379550Y0285750D02*
X0379552Y0285823D01*
X0379558Y0285896D01*
X0379567Y0285969D01*
X0379581Y0286041D01*
X0379598Y0286112D01*
X0379619Y0286183D01*
X0379643Y0286252D01*
X0379671Y0286319D01*
X0379703Y0286386D01*
X0379738Y0286450D01*
X0379776Y0286512D01*
X0379817Y0286573D01*
X0379862Y0286631D01*
X0379910Y0286687D01*
X0379960Y0286740D01*
X0380013Y0286790D01*
X0380069Y0286838D01*
X0380127Y0286883D01*
X0380188Y0286924D01*
X0380250Y0286962D01*
X0380314Y0286997D01*
X0380381Y0287029D01*
X0380448Y0287057D01*
X0380517Y0287081D01*
X0380588Y0287102D01*
X0380659Y0287119D01*
X0380731Y0287133D01*
X0380804Y0287142D01*
X0380877Y0287148D01*
X0380950Y0287150D01*
X0381650Y0287150D01*
X0381723Y0287148D01*
X0381796Y0287142D01*
X0381869Y0287133D01*
X0381941Y0287119D01*
X0382012Y0287102D01*
X0382083Y0287081D01*
X0382152Y0287057D01*
X0382219Y0287029D01*
X0382286Y0286997D01*
X0382350Y0286962D01*
X0382412Y0286924D01*
X0382473Y0286883D01*
X0382531Y0286838D01*
X0382587Y0286790D01*
X0382640Y0286740D01*
X0382690Y0286687D01*
X0382738Y0286631D01*
X0382783Y0286573D01*
X0382824Y0286512D01*
X0382862Y0286450D01*
X0382897Y0286386D01*
X0382929Y0286319D01*
X0382957Y0286252D01*
X0382981Y0286183D01*
X0383002Y0286112D01*
X0383019Y0286041D01*
X0383033Y0285969D01*
X0383042Y0285896D01*
X0383048Y0285823D01*
X0383050Y0285750D01*
X0383050Y0283650D01*
X0383050Y0281305D02*
X0383050Y0279905D01*
X0383048Y0279832D01*
X0383042Y0279759D01*
X0383033Y0279686D01*
X0383019Y0279614D01*
X0383002Y0279543D01*
X0382981Y0279472D01*
X0382957Y0279403D01*
X0382929Y0279336D01*
X0382897Y0279269D01*
X0382862Y0279205D01*
X0382824Y0279143D01*
X0382783Y0279082D01*
X0382738Y0279024D01*
X0382690Y0278968D01*
X0382640Y0278915D01*
X0382587Y0278865D01*
X0382531Y0278817D01*
X0382473Y0278772D01*
X0382412Y0278731D01*
X0382350Y0278693D01*
X0382286Y0278658D01*
X0382219Y0278626D01*
X0382152Y0278598D01*
X0382083Y0278574D01*
X0382012Y0278553D01*
X0381941Y0278536D01*
X0381869Y0278522D01*
X0381796Y0278513D01*
X0381723Y0278507D01*
X0381650Y0278505D01*
D17*
X0258439Y0022942D02*
X0258439Y0020887D01*
X0258439Y0021915D02*
X0254739Y0021915D01*
X0255561Y0020887D01*
X0255767Y0019426D02*
X0257411Y0019426D01*
X0257617Y0019015D02*
X0258439Y0019837D01*
X0257411Y0019426D02*
X0257474Y0019424D01*
X0257537Y0019418D01*
X0257600Y0019408D01*
X0257662Y0019395D01*
X0257723Y0019378D01*
X0257782Y0019357D01*
X0257841Y0019332D01*
X0257897Y0019304D01*
X0257952Y0019272D01*
X0258005Y0019237D01*
X0258055Y0019199D01*
X0258104Y0019158D01*
X0258149Y0019114D01*
X0258192Y0019067D01*
X0258231Y0019018D01*
X0258268Y0018966D01*
X0258301Y0018912D01*
X0258331Y0018856D01*
X0258358Y0018799D01*
X0258381Y0018740D01*
X0258400Y0018679D01*
X0258415Y0018618D01*
X0258427Y0018556D01*
X0258435Y0018493D01*
X0258439Y0018430D01*
X0258439Y0018366D01*
X0258435Y0018303D01*
X0258427Y0018240D01*
X0258415Y0018178D01*
X0258400Y0018117D01*
X0258381Y0018056D01*
X0258358Y0017997D01*
X0258331Y0017940D01*
X0258301Y0017884D01*
X0258268Y0017830D01*
X0258231Y0017778D01*
X0258192Y0017729D01*
X0258149Y0017682D01*
X0258104Y0017638D01*
X0258055Y0017597D01*
X0258005Y0017559D01*
X0257952Y0017524D01*
X0257897Y0017492D01*
X0257841Y0017464D01*
X0257782Y0017439D01*
X0257723Y0017418D01*
X0257662Y0017401D01*
X0257600Y0017388D01*
X0257537Y0017378D01*
X0257474Y0017372D01*
X0257411Y0017370D01*
X0255767Y0017370D01*
X0255704Y0017372D01*
X0255641Y0017378D01*
X0255578Y0017388D01*
X0255516Y0017401D01*
X0255455Y0017418D01*
X0255396Y0017439D01*
X0255337Y0017464D01*
X0255281Y0017492D01*
X0255226Y0017524D01*
X0255173Y0017559D01*
X0255123Y0017597D01*
X0255074Y0017638D01*
X0255029Y0017682D01*
X0254986Y0017729D01*
X0254947Y0017778D01*
X0254910Y0017830D01*
X0254877Y0017884D01*
X0254847Y0017940D01*
X0254820Y0017997D01*
X0254797Y0018056D01*
X0254778Y0018117D01*
X0254763Y0018178D01*
X0254751Y0018240D01*
X0254743Y0018303D01*
X0254739Y0018366D01*
X0254739Y0018430D01*
X0254743Y0018493D01*
X0254751Y0018556D01*
X0254763Y0018618D01*
X0254778Y0018679D01*
X0254797Y0018740D01*
X0254820Y0018799D01*
X0254847Y0018856D01*
X0254877Y0018912D01*
X0254910Y0018966D01*
X0254947Y0019018D01*
X0254986Y0019067D01*
X0255029Y0019114D01*
X0255074Y0019158D01*
X0255123Y0019199D01*
X0255173Y0019237D01*
X0255226Y0019272D01*
X0255281Y0019304D01*
X0255337Y0019332D01*
X0255396Y0019357D01*
X0255455Y0019378D01*
X0255516Y0019395D01*
X0255578Y0019408D01*
X0255641Y0019418D01*
X0255704Y0019424D01*
X0255767Y0019426D01*
D18*
X0136900Y0279500D02*
X0123900Y0279500D01*
X0123900Y0292500D01*
X0136900Y0292500D01*
X0136900Y0279500D01*
X0127400Y0286000D02*
X0127402Y0286109D01*
X0127408Y0286218D01*
X0127418Y0286326D01*
X0127432Y0286434D01*
X0127449Y0286542D01*
X0127471Y0286649D01*
X0127496Y0286755D01*
X0127526Y0286859D01*
X0127559Y0286963D01*
X0127596Y0287066D01*
X0127636Y0287167D01*
X0127680Y0287266D01*
X0127728Y0287364D01*
X0127780Y0287461D01*
X0127834Y0287555D01*
X0127892Y0287647D01*
X0127954Y0287737D01*
X0128019Y0287824D01*
X0128086Y0287910D01*
X0128157Y0287993D01*
X0128231Y0288073D01*
X0128308Y0288150D01*
X0128387Y0288225D01*
X0128469Y0288296D01*
X0128554Y0288365D01*
X0128641Y0288430D01*
X0128730Y0288493D01*
X0128822Y0288551D01*
X0128916Y0288607D01*
X0129011Y0288659D01*
X0129109Y0288708D01*
X0129208Y0288753D01*
X0129309Y0288795D01*
X0129411Y0288832D01*
X0129514Y0288866D01*
X0129619Y0288897D01*
X0129725Y0288923D01*
X0129831Y0288946D01*
X0129939Y0288964D01*
X0130047Y0288979D01*
X0130155Y0288990D01*
X0130264Y0288997D01*
X0130373Y0289000D01*
X0130482Y0288999D01*
X0130591Y0288994D01*
X0130699Y0288985D01*
X0130807Y0288972D01*
X0130915Y0288955D01*
X0131022Y0288935D01*
X0131128Y0288910D01*
X0131233Y0288882D01*
X0131337Y0288850D01*
X0131440Y0288814D01*
X0131542Y0288774D01*
X0131642Y0288731D01*
X0131740Y0288684D01*
X0131837Y0288634D01*
X0131931Y0288580D01*
X0132024Y0288522D01*
X0132115Y0288462D01*
X0132203Y0288398D01*
X0132289Y0288331D01*
X0132372Y0288261D01*
X0132453Y0288188D01*
X0132531Y0288112D01*
X0132606Y0288033D01*
X0132679Y0287951D01*
X0132748Y0287867D01*
X0132814Y0287781D01*
X0132877Y0287692D01*
X0132937Y0287601D01*
X0132994Y0287508D01*
X0133047Y0287413D01*
X0133096Y0287316D01*
X0133142Y0287217D01*
X0133184Y0287117D01*
X0133223Y0287015D01*
X0133258Y0286911D01*
X0133289Y0286807D01*
X0133317Y0286702D01*
X0133340Y0286595D01*
X0133360Y0286488D01*
X0133376Y0286380D01*
X0133388Y0286272D01*
X0133396Y0286163D01*
X0133400Y0286054D01*
X0133400Y0285946D01*
X0133396Y0285837D01*
X0133388Y0285728D01*
X0133376Y0285620D01*
X0133360Y0285512D01*
X0133340Y0285405D01*
X0133317Y0285298D01*
X0133289Y0285193D01*
X0133258Y0285089D01*
X0133223Y0284985D01*
X0133184Y0284883D01*
X0133142Y0284783D01*
X0133096Y0284684D01*
X0133047Y0284587D01*
X0132994Y0284492D01*
X0132937Y0284399D01*
X0132877Y0284308D01*
X0132814Y0284219D01*
X0132748Y0284133D01*
X0132679Y0284049D01*
X0132606Y0283967D01*
X0132531Y0283888D01*
X0132453Y0283812D01*
X0132372Y0283739D01*
X0132289Y0283669D01*
X0132203Y0283602D01*
X0132115Y0283538D01*
X0132024Y0283478D01*
X0131931Y0283420D01*
X0131837Y0283366D01*
X0131740Y0283316D01*
X0131642Y0283269D01*
X0131542Y0283226D01*
X0131440Y0283186D01*
X0131337Y0283150D01*
X0131233Y0283118D01*
X0131128Y0283090D01*
X0131022Y0283065D01*
X0130915Y0283045D01*
X0130807Y0283028D01*
X0130699Y0283015D01*
X0130591Y0283006D01*
X0130482Y0283001D01*
X0130373Y0283000D01*
X0130264Y0283003D01*
X0130155Y0283010D01*
X0130047Y0283021D01*
X0129939Y0283036D01*
X0129831Y0283054D01*
X0129725Y0283077D01*
X0129619Y0283103D01*
X0129514Y0283134D01*
X0129411Y0283168D01*
X0129309Y0283205D01*
X0129208Y0283247D01*
X0129109Y0283292D01*
X0129011Y0283341D01*
X0128916Y0283393D01*
X0128822Y0283449D01*
X0128730Y0283507D01*
X0128641Y0283570D01*
X0128554Y0283635D01*
X0128469Y0283704D01*
X0128387Y0283775D01*
X0128308Y0283850D01*
X0128231Y0283927D01*
X0128157Y0284007D01*
X0128086Y0284090D01*
X0128019Y0284176D01*
X0127954Y0284263D01*
X0127892Y0284353D01*
X0127834Y0284445D01*
X0127780Y0284539D01*
X0127728Y0284636D01*
X0127680Y0284734D01*
X0127636Y0284833D01*
X0127596Y0284934D01*
X0127559Y0285037D01*
X0127526Y0285141D01*
X0127496Y0285245D01*
X0127471Y0285351D01*
X0127449Y0285458D01*
X0127432Y0285566D01*
X0127418Y0285674D01*
X0127408Y0285782D01*
X0127402Y0285891D01*
X0127400Y0286000D01*
X0126400Y0286000D02*
X0126402Y0286126D01*
X0126408Y0286252D01*
X0126418Y0286378D01*
X0126432Y0286504D01*
X0126450Y0286629D01*
X0126472Y0286753D01*
X0126497Y0286877D01*
X0126527Y0287000D01*
X0126560Y0287121D01*
X0126598Y0287242D01*
X0126639Y0287361D01*
X0126684Y0287480D01*
X0126732Y0287596D01*
X0126784Y0287711D01*
X0126840Y0287824D01*
X0126900Y0287936D01*
X0126963Y0288045D01*
X0127029Y0288153D01*
X0127098Y0288258D01*
X0127171Y0288361D01*
X0127248Y0288462D01*
X0127327Y0288560D01*
X0127409Y0288656D01*
X0127495Y0288749D01*
X0127583Y0288840D01*
X0127674Y0288927D01*
X0127768Y0289012D01*
X0127864Y0289093D01*
X0127963Y0289172D01*
X0128064Y0289247D01*
X0128168Y0289319D01*
X0128274Y0289388D01*
X0128382Y0289454D01*
X0128492Y0289516D01*
X0128604Y0289574D01*
X0128717Y0289629D01*
X0128833Y0289680D01*
X0128950Y0289728D01*
X0129068Y0289772D01*
X0129188Y0289812D01*
X0129309Y0289848D01*
X0129431Y0289881D01*
X0129554Y0289910D01*
X0129678Y0289934D01*
X0129802Y0289955D01*
X0129927Y0289972D01*
X0130053Y0289985D01*
X0130179Y0289994D01*
X0130305Y0289999D01*
X0130432Y0290000D01*
X0130558Y0289997D01*
X0130684Y0289990D01*
X0130810Y0289979D01*
X0130935Y0289964D01*
X0131060Y0289945D01*
X0131184Y0289922D01*
X0131308Y0289896D01*
X0131430Y0289865D01*
X0131552Y0289831D01*
X0131672Y0289792D01*
X0131791Y0289750D01*
X0131909Y0289705D01*
X0132025Y0289655D01*
X0132140Y0289602D01*
X0132252Y0289545D01*
X0132363Y0289485D01*
X0132472Y0289421D01*
X0132579Y0289354D01*
X0132684Y0289284D01*
X0132787Y0289210D01*
X0132887Y0289133D01*
X0132985Y0289053D01*
X0133080Y0288970D01*
X0133172Y0288884D01*
X0133262Y0288795D01*
X0133349Y0288703D01*
X0133432Y0288609D01*
X0133513Y0288512D01*
X0133591Y0288412D01*
X0133666Y0288310D01*
X0133737Y0288206D01*
X0133805Y0288099D01*
X0133869Y0287991D01*
X0133930Y0287880D01*
X0133988Y0287768D01*
X0134042Y0287654D01*
X0134092Y0287538D01*
X0134139Y0287421D01*
X0134182Y0287302D01*
X0134221Y0287182D01*
X0134257Y0287061D01*
X0134288Y0286938D01*
X0134316Y0286815D01*
X0134340Y0286691D01*
X0134360Y0286566D01*
X0134376Y0286441D01*
X0134388Y0286315D01*
X0134396Y0286189D01*
X0134400Y0286063D01*
X0134400Y0285937D01*
X0134396Y0285811D01*
X0134388Y0285685D01*
X0134376Y0285559D01*
X0134360Y0285434D01*
X0134340Y0285309D01*
X0134316Y0285185D01*
X0134288Y0285062D01*
X0134257Y0284939D01*
X0134221Y0284818D01*
X0134182Y0284698D01*
X0134139Y0284579D01*
X0134092Y0284462D01*
X0134042Y0284346D01*
X0133988Y0284232D01*
X0133930Y0284120D01*
X0133869Y0284009D01*
X0133805Y0283901D01*
X0133737Y0283794D01*
X0133666Y0283690D01*
X0133591Y0283588D01*
X0133513Y0283488D01*
X0133432Y0283391D01*
X0133349Y0283297D01*
X0133262Y0283205D01*
X0133172Y0283116D01*
X0133080Y0283030D01*
X0132985Y0282947D01*
X0132887Y0282867D01*
X0132787Y0282790D01*
X0132684Y0282716D01*
X0132579Y0282646D01*
X0132472Y0282579D01*
X0132363Y0282515D01*
X0132252Y0282455D01*
X0132140Y0282398D01*
X0132025Y0282345D01*
X0131909Y0282295D01*
X0131791Y0282250D01*
X0131672Y0282208D01*
X0131552Y0282169D01*
X0131430Y0282135D01*
X0131308Y0282104D01*
X0131184Y0282078D01*
X0131060Y0282055D01*
X0130935Y0282036D01*
X0130810Y0282021D01*
X0130684Y0282010D01*
X0130558Y0282003D01*
X0130432Y0282000D01*
X0130305Y0282001D01*
X0130179Y0282006D01*
X0130053Y0282015D01*
X0129927Y0282028D01*
X0129802Y0282045D01*
X0129678Y0282066D01*
X0129554Y0282090D01*
X0129431Y0282119D01*
X0129309Y0282152D01*
X0129188Y0282188D01*
X0129068Y0282228D01*
X0128950Y0282272D01*
X0128833Y0282320D01*
X0128717Y0282371D01*
X0128604Y0282426D01*
X0128492Y0282484D01*
X0128382Y0282546D01*
X0128274Y0282612D01*
X0128168Y0282681D01*
X0128064Y0282753D01*
X0127963Y0282828D01*
X0127864Y0282907D01*
X0127768Y0282988D01*
X0127674Y0283073D01*
X0127583Y0283160D01*
X0127495Y0283251D01*
X0127409Y0283344D01*
X0127327Y0283440D01*
X0127248Y0283538D01*
X0127171Y0283639D01*
X0127098Y0283742D01*
X0127029Y0283847D01*
X0126963Y0283955D01*
X0126900Y0284064D01*
X0126840Y0284176D01*
X0126784Y0284289D01*
X0126732Y0284404D01*
X0126684Y0284520D01*
X0126639Y0284639D01*
X0126598Y0284758D01*
X0126560Y0284879D01*
X0126527Y0285000D01*
X0126497Y0285123D01*
X0126472Y0285247D01*
X0126450Y0285371D01*
X0126432Y0285496D01*
X0126418Y0285622D01*
X0126408Y0285748D01*
X0126402Y0285874D01*
X0126400Y0286000D01*
D19*
X0117150Y0310000D03*
X0143650Y0310000D03*
X0143650Y0262000D03*
X0117150Y0262000D03*
M02*
